<?xml version="1.0" encoding="utf-8"?>
<!-- Generator: Adobe Illustrator 16.0.0, SVG Export Plug-In . SVG Version: 6.00 Build 0)  -->
<!DOCTYPE svg PUBLIC "-//W3C//DTD SVG 1.1//EN" "http://www.w3.org/Graphics/SVG/1.1/DTD/svg11.dtd">
<svg version="1.1" id="Layer_1" xmlns="http://www.w3.org/2000/svg" xmlns:xlink="http://www.w3.org/1999/xlink" x="0px" y="0px"
	 width="539.571px" height="809.357px" viewBox="0 0 539.571 809.357" enable-background="new 0 0 539.571 809.357"
	 xml:space="preserve">
<g id="Layer_1_2_" opacity="0.5">
	<g id="Layer_1_1_">
		<g>
			
				<linearGradient id="SVGID_1_" gradientUnits="userSpaceOnUse" x1="1146.6533" y1="-770.0278" x2="648.674" y2="-202.609" gradientTransform="matrix(1 0 0 -1 -358 75)">
				<stop  offset="0" style="stop-color:#30EAFF"/>
				<stop  offset="1" style="stop-color:#194378"/>
			</linearGradient>
			<path fill="url(#SVGID_1_)" d="M512.956,661.542c9.052,11.846,21.55,19.377,37.537,18.278
				c14.291-0.979,27.074-9.784,36.199-20.772c4.274-5.146,7.984-10.989,9.271-17.545c1.159-5.885,0.3-11.955,0.327-17.956
				c0.052-11.88,3.69-23.707,10.319-33.566c5.277-7.852,12.312-14.371,17.891-22.012c5.58-7.637,9.742-17.094,7.979-26.391
				c-1.272-6.684-5.508-12.525-10.718-16.928c-12.56-10.608-30.509-13.286-46.62-10.033c-16.107,3.26-30.655,11.813-43.834,21.595
				c-12.715,9.44-24.835,20.641-31.016,35.203C490.325,594.9,494.416,637.278,512.956,661.542z"/>
			
				<linearGradient id="SVGID_2_" gradientUnits="userSpaceOnUse" x1="1005.8457" y1="-893.604" x2="507.8634" y2="-326.1815" gradientTransform="matrix(1 0 0 -1 -358 75)">
				<stop  offset="0" style="stop-color:#30EAFF"/>
				<stop  offset="1" style="stop-color:#194378"/>
			</linearGradient>
			<path fill="url(#SVGID_2_)" d="M304.795,365.35c-8.942-0.882-17.99-0.812-27.074,0.329
				c-61.939,7.752-141.205,34.459-184.009,81.579c-13.116,14.441-22.47,31.837-26.497,50.977
				c-9.123,43.352-9.725,84.048,27.593,114.44c24.177,19.689,53.765,21.784,80.034,36.152
				c49.832,27.257,65.558,95.923,127.729,104.166c45.587,6.044,88.304-23.591,117.45-56.007
				c29.411-32.703,48.907-75.264,52.087-119.307c0.771-10.682,0.619-21.425-0.517-32.074
				C463.075,465.643,388.661,373.621,304.795,365.35z"/>
			
				<linearGradient id="SVGID_3_" gradientUnits="userSpaceOnUse" x1="299.585" y1="27.6689" x2="769.782" y2="-813.5289" gradientTransform="matrix(1 0 0 -1 -358 75)">
				<stop  offset="0" style="stop-color:#30EAFF"/>
				<stop  offset="1" style="stop-color:#194378"/>
			</linearGradient>
			<path fill="url(#SVGID_3_)" d="M31.023,147.15c0.167,0.531,0.318,1.08,0.442,1.645c2.955,13.257-7.717,29.685-13.554,40.876
				c-2.357,4.526-5.097,9.087-9.354,11.896c-4.259,2.813-10.42,3.349-14.226-0.05c-2.21-1.973-3.295-4.905-4.014-7.779
				c-2.561-10.27-1.422-21.146,1.125-31.421c2.016-8.135,5.147-16.422,11.473-21.922C12.404,132.156,27.158,135.036,31.023,147.15z"
				/>
			<g>
				
					<linearGradient id="SVGID_4_" gradientUnits="userSpaceOnUse" x1="685.4219" y1="54.2954" x2="541.0203" y2="-485.5842" gradientTransform="matrix(0.9878 -0.1556 -0.1556 -0.9878 -288.9399 216.2617)">
					<stop  offset="0" style="stop-color:#30EAFF"/>
					<stop  offset="1" style="stop-color:#194378"/>
				</linearGradient>
				<path fill="url(#SVGID_4_)" d="M498.072,222.542c-0.776-1.663-1.518-3.33-2.262-5.003
					c-31.672,30.926-214.776,209.608-300.055,292.836c1.949,0.522,3.898,1.023,5.838,1.505
					C205.739,507.832,493.929,226.584,498.072,222.542z"/>
				
					<linearGradient id="SVGID_5_" gradientUnits="userSpaceOnUse" x1="896.5283" y1="-2.1777" x2="752.1346" y2="-542.0261" gradientTransform="matrix(0.9878 -0.1556 -0.1556 -0.9878 -288.9399 216.2617)">
					<stop  offset="0" style="stop-color:#30EAFF"/>
					<stop  offset="1" style="stop-color:#194378"/>
				</linearGradient>
				<path fill="url(#SVGID_5_)" d="M530.551,459.65c12.559-8.126,24.34-17.129,35.103-27.074l0.031-0.03l6.62-6.46l0.115-0.119
					c6.715-6.972,12.712-14.763,16.7-23.481C582.54,408.909,540.021,450.41,530.551,459.65z"/>
				
					<linearGradient id="SVGID_6_" gradientUnits="userSpaceOnUse" x1="880.6875" y1="2.0864" x2="736.2836" y2="-537.8013" gradientTransform="matrix(0.9878 -0.1556 -0.1556 -0.9878 -288.9399 216.2617)">
					<stop  offset="0" style="stop-color:#30EAFF"/>
					<stop  offset="1" style="stop-color:#194378"/>
				</linearGradient>
				<path fill="url(#SVGID_6_)" d="M492.312,480.73c5.093-2.369,10.1-4.864,15.027-7.471l0.013-0.003
					c37.686-36.791,18.777-18.335,85.992-83.936c0.022-0.094,0.037-0.173,0.052-0.262c0.494-2.743,0.779-5.344,0.874-7.834
					C521.639,452.104,544.268,430.021,492.312,480.73z"/>
				
					<linearGradient id="SVGID_7_" gradientUnits="userSpaceOnUse" x1="866.6309" y1="5.8408" x2="722.2302" y2="-534.034" gradientTransform="matrix(0.9878 -0.1556 -0.1556 -0.9878 -288.9399 216.2617)">
					<stop  offset="0" style="stop-color:#30EAFF"/>
					<stop  offset="1" style="stop-color:#194378"/>
				</linearGradient>
				<path fill="url(#SVGID_7_)" d="M593.814,372.626l-0.004-0.007c-0.289-2.049-0.737-4.011-1.306-5.915
					c-79.967,78.033-52.26,50.994-129.25,126.133c4.112-1.512,8.194-3.085,12.237-4.74l0.007-0.007
					C542.638,422.572,515.574,448.981,593.814,372.626z"/>
				
					<linearGradient id="SVGID_8_" gradientUnits="userSpaceOnUse" x1="852.459" y1="9.6377" x2="708.0551" y2="-530.2481" gradientTransform="matrix(0.9878 -0.1556 -0.1556 -0.9878 -288.9399 216.2617)">
					<stop  offset="0" style="stop-color:#30EAFF"/>
					<stop  offset="1" style="stop-color:#194378"/>
				</linearGradient>
				<path fill="url(#SVGID_8_)" d="M589.981,360.142c-0.76-1.618-1.61-3.193-2.532-4.738
					c-85.732,83.668-53.416,52.13-149.438,145.857c3.629-1.093,7.24-2.214,10.837-3.394
					C455.378,491.495,584.286,365.697,589.981,360.142z"/>
				
					<linearGradient id="SVGID_9_" gradientUnits="userSpaceOnUse" x1="838.2305" y1="13.4321" x2="693.8286" y2="-526.4476" gradientTransform="matrix(0.9878 -0.1556 -0.1556 -0.9878 -288.9399 216.2617)">
					<stop  offset="0" style="stop-color:#30EAFF"/>
					<stop  offset="1" style="stop-color:#194378"/>
				</linearGradient>
				<path fill="url(#SVGID_9_)" d="M583.805,349.928c-1.006-1.379-2.059-2.739-3.168-4.102
					c-31.788,31.016-133.113,129.895-165.642,161.641c0.504-0.123,9.51-2.347,9.989-2.54
					C425.772,504.159,582.999,350.713,583.805,349.928z"/>
				
					<linearGradient id="SVGID_10_" gradientUnits="userSpaceOnUse" x1="824.1904" y1="17.1865" x2="679.7914" y2="-522.6819" gradientTransform="matrix(0.9878 -0.1556 -0.1556 -0.9878 -288.9399 216.2617)">
					<stop  offset="0" style="stop-color:#30EAFF"/>
					<stop  offset="1" style="stop-color:#194378"/>
				</linearGradient>
				<path fill="url(#SVGID_10_)" d="M576.469,340.853c-1.106-1.28-2.254-2.565-3.417-3.859
					c-61.694,60.209-102.551,100.09-179.485,175.164c3.119-0.612,6.236-1.248,9.346-1.918
					C425.892,487.8,397.735,515.279,576.469,340.853z"/>
				
					<linearGradient id="SVGID_11_" gradientUnits="userSpaceOnUse" x1="810.4766" y1="20.8608" x2="666.0734" y2="-519.0238" gradientTransform="matrix(0.9878 -0.1556 -0.1556 -0.9878 -288.9399 216.2617)">
					<stop  offset="0" style="stop-color:#30EAFF"/>
					<stop  offset="1" style="stop-color:#194378"/>
				</linearGradient>
				<path fill="url(#SVGID_11_)" d="M568.746,332.142c-1.14-1.268-2.275-2.555-3.405-3.863
					c-64.163,62.608-128.624,125.514-192.059,187.419c2.95-0.452,5.892-0.932,8.844-1.433
					C534.972,365.11,445.45,452.48,568.746,332.142z"/>
				
					<linearGradient id="SVGID_12_" gradientUnits="userSpaceOnUse" x1="797.2432" y1="24.3877" x2="652.8444" y2="-515.481" gradientTransform="matrix(0.9878 -0.1556 -0.1556 -0.9878 -288.9399 216.2617)">
					<stop  offset="0" style="stop-color:#30EAFF"/>
					<stop  offset="1" style="stop-color:#194378"/>
				</linearGradient>
				<path fill="url(#SVGID_12_)" d="M561.162,323.32c-1.104-1.329-2.197-2.661-3.273-4.013
					c-145.592,142.1-58.122,56.72-203.909,199.001c2.822-0.328,5.628-0.677,8.453-1.053l0.013-0.004
					C493.704,389.133,486.515,396.157,561.162,323.32z"/>
				
					<linearGradient id="SVGID_13_" gradientUnits="userSpaceOnUse" x1="784.4658" y1="27.8062" x2="640.0652" y2="-512.0698" gradientTransform="matrix(0.9878 -0.1556 -0.1556 -0.9878 -288.9399 216.2617)">
					<stop  offset="0" style="stop-color:#30EAFF"/>
					<stop  offset="1" style="stop-color:#194378"/>
				</linearGradient>
				<path fill="url(#SVGID_13_)" d="M553.846,314.224c-1.069-1.354-2.13-2.725-3.176-4.096
					c-87.365,85.255-110.024,107.362-215.206,210.02c2.698-0.229,5.399-0.458,8.112-0.723h0.01
					C437.185,428.069,480.85,385.457,553.846,314.224z"/>
				
					<linearGradient id="SVGID_14_" gradientUnits="userSpaceOnUse" x1="772.085" y1="31.1133" x2="627.6868" y2="-508.7529" gradientTransform="matrix(0.9878 -0.1556 -0.1556 -0.9878 -288.9399 216.2617)">
					<stop  offset="0" style="stop-color:#30EAFF"/>
					<stop  offset="1" style="stop-color:#194378"/>
				</linearGradient>
				<path fill="url(#SVGID_14_)" d="M546.746,304.92c-1.031-1.381-2.061-2.775-3.066-4.191
					C346.521,493.119,419.532,421.885,317.653,521.284c2.599-0.116,5.21-0.263,7.827-0.428
					C486.323,363.891,396.022,452.002,546.746,304.92z"/>
				
					<linearGradient id="SVGID_15_" gradientUnits="userSpaceOnUse" x1="760.0605" y1="34.3369" x2="615.6592" y2="-505.5404" gradientTransform="matrix(0.9878 -0.1556 -0.1556 -0.9878 -288.9399 216.2617)">
					<stop  offset="0" style="stop-color:#30EAFF"/>
					<stop  offset="1" style="stop-color:#194378"/>
				</linearGradient>
				<path fill="url(#SVGID_15_)" d="M539.858,295.385c-1.004-1.415-1.99-2.842-2.98-4.273
					c-6.266,6.117-152.851,149.156-159.72,155.864l-76.705,74.857c2.509-0.038,5.019-0.097,7.539-0.173
					C378.93,452.449,382.308,449.162,539.858,295.385z"/>
				
					<linearGradient id="SVGID_16_" gradientUnits="userSpaceOnUse" x1="748.374" y1="37.4556" x2="603.9758" y2="-502.41" gradientTransform="matrix(0.9878 -0.1556 -0.1556 -0.9878 -288.9399 216.2617)">
					<stop  offset="0" style="stop-color:#30EAFF"/>
					<stop  offset="1" style="stop-color:#194378"/>
				</linearGradient>
				<path fill="url(#SVGID_16_)" d="M533.199,285.668c-0.962-1.458-1.926-2.925-2.881-4.397
					c-0.265,0.262-246.241,240.308-246.508,240.566c2.434,0.037,4.868,0.06,7.31,0.064
					C437.825,378.757,330.973,483.015,533.199,285.668z"/>
				
					<linearGradient id="SVGID_17_" gradientUnits="userSpaceOnUse" x1="737.0156" y1="40.4902" x2="592.6168" y2="-499.3781" gradientTransform="matrix(0.9878 -0.1556 -0.1556 -0.9878 -288.9399 216.2617)">
					<stop  offset="0" style="stop-color:#30EAFF"/>
					<stop  offset="1" style="stop-color:#194378"/>
				</linearGradient>
				<path fill="url(#SVGID_17_)" d="M526.763,275.716l-0.003-0.012c-0.937-1.488-1.861-2.973-2.765-4.476
					c-24.559,23.96-231.728,226.123-256.286,250.097c2.34,0.116,4.696,0.21,7.073,0.29
					C274.785,521.615,526.755,275.725,526.763,275.716z"/>
				
					<linearGradient id="SVGID_18_" gradientUnits="userSpaceOnUse" x1="726.001" y1="43.4404" x2="581.6006" y2="-496.4342" gradientTransform="matrix(0.9878 -0.1556 -0.1556 -0.9878 -288.9399 216.2617)">
					<stop  offset="0" style="stop-color:#30EAFF"/>
					<stop  offset="1" style="stop-color:#194378"/>
				</linearGradient>
				<path fill="url(#SVGID_18_)" d="M520.556,265.541c-0.907-1.526-1.798-3.059-2.683-4.594
					c-0.319,0.309-265.387,259.009-265.704,259.319c2.386,0.22,4.659,0.411,6.806,0.555
					C305.163,475.724,410.078,373.36,520.556,265.541z"/>
				
					<linearGradient id="SVGID_19_" gradientUnits="userSpaceOnUse" x1="715.3438" y1="46.291" x2="570.9449" y2="-493.5766" gradientTransform="matrix(0.9878 -0.1556 -0.1556 -0.9878 -288.9399 216.2617)">
					<stop  offset="0" style="stop-color:#30EAFF"/>
					<stop  offset="1" style="stop-color:#194378"/>
				</linearGradient>
				<path fill="url(#SVGID_19_)" d="M514.582,255.139c-0.877-1.549-1.729-3.107-2.585-4.682
					c-4.146,4.02-236.368,230.662-274.766,268.122c2.247,0.297,4.428,0.575,6.553,0.813
					C306.806,457.896,318.484,446.477,514.582,255.139z"/>
				
					<linearGradient id="SVGID_20_" gradientUnits="userSpaceOnUse" x1="705.04" y1="49.0459" x2="560.6395" y2="-490.8286" gradientTransform="matrix(0.9878 -0.1556 -0.1556 -0.9878 -288.9399 216.2617)">
					<stop  offset="0" style="stop-color:#30EAFF"/>
					<stop  offset="1" style="stop-color:#194378"/>
				</linearGradient>
				<path fill="url(#SVGID_20_)" d="M508.83,244.498c-0.846-1.588-1.666-3.184-2.468-4.787
					c-0.76,0.741-237.44,231.718-283.471,276.648c2.125,0.365,4.231,0.723,6.301,1.058
					C397.945,352.709,508.83,244.498,508.83,244.498z"/>
				
					<linearGradient id="SVGID_21_" gradientUnits="userSpaceOnUse" x1="695.0566" y1="51.7134" x2="550.6582" y2="-488.1536" gradientTransform="matrix(0.9878 -0.1556 -0.1556 -0.9878 -288.9399 216.2617)">
					<stop  offset="0" style="stop-color:#30EAFF"/>
					<stop  offset="1" style="stop-color:#194378"/>
				</linearGradient>
				<path fill="url(#SVGID_21_)" d="M503.319,233.649c-0.798-1.631-1.588-3.264-2.354-4.904
					c-9.148,8.931-282.059,275.267-291.909,284.878c2.027,0.455,4.055,0.883,6.062,1.283
					C288.99,442.806,479.66,256.754,503.319,233.649z"/>
				
					<linearGradient id="SVGID_22_" gradientUnits="userSpaceOnUse" x1="676.125" y1="56.772" x2="531.7269" y2="-483.0938" gradientTransform="matrix(0.9878 -0.1556 -0.1556 -0.9878 -288.9399 216.2617)">
					<stop  offset="0" style="stop-color:#30EAFF"/>
					<stop  offset="1" style="stop-color:#194378"/>
				</linearGradient>
				<path fill="url(#SVGID_22_)" d="M493.061,211.206c-0.723-1.708-1.442-3.406-2.141-5.122
					c-5.522,5.391-302.043,294.754-307.901,300.472c1.848,0.609,3.706,1.193,5.567,1.749
					C322.13,377.986,309.986,389.853,493.061,211.206z"/>
				
					<linearGradient id="SVGID_23_" gradientUnits="userSpaceOnUse" x1="667.2197" y1="59.1582" x2="522.8208" y2="-480.7108" gradientTransform="matrix(0.9878 -0.1556 -0.1556 -0.9878 -288.9399 216.2617)">
					<stop  offset="0" style="stop-color:#30EAFF"/>
					<stop  offset="1" style="stop-color:#194378"/>
				</linearGradient>
				<path fill="url(#SVGID_23_)" d="M488.305,199.576c-0.685-1.734-1.358-3.473-2.009-5.224
					c-57.195,55.837-235.677,229.997-315.367,307.766c1.741,0.714,3.508,1.396,5.278,2.051
					C219.455,461.955,443.634,243.188,488.305,199.576z"/>
				
					<linearGradient id="SVGID_24_" gradientUnits="userSpaceOnUse" x1="658.7578" y1="61.4199" x2="514.3586" y2="-478.4498" gradientTransform="matrix(0.9878 -0.1556 -0.1556 -0.9878 -288.9399 216.2617)">
					<stop  offset="0" style="stop-color:#30EAFF"/>
					<stop  offset="1" style="stop-color:#194378"/>
				</linearGradient>
				<path fill="url(#SVGID_24_)" d="M483.844,187.711c-0.65-1.774-1.282-3.555-1.901-5.34
					c-8.624,8.423-301.81,294.537-322.376,314.61c1.614,0.812,3.268,1.608,4.948,2.374
					C251.533,414.409,465.32,205.783,483.844,187.711z"/>
				
					<linearGradient id="SVGID_25_" gradientUnits="userSpaceOnUse" x1="650.7695" y1="63.5542" x2="506.3718" y2="-476.3104" gradientTransform="matrix(0.9878 -0.1556 -0.1556 -0.9878 -288.9399 216.2617)">
					<stop  offset="0" style="stop-color:#30EAFF"/>
					<stop  offset="1" style="stop-color:#194378"/>
				</linearGradient>
				<path fill="url(#SVGID_25_)" d="M479.65,175.57c-0.605-1.815-1.193-3.638-1.769-5.464
					C320.633,323.563,284.359,358.934,149.043,491.024c1.48,0.937,2.995,1.861,4.55,2.745
					C153.911,493.458,479.329,175.884,479.65,175.57z"/>
				
					<linearGradient id="SVGID_26_" gradientUnits="userSpaceOnUse" x1="643.3477" y1="65.5386" x2="498.9479" y2="-474.3332" gradientTransform="matrix(0.9878 -0.1556 -0.1556 -0.9878 -288.9399 216.2617)">
					<stop  offset="0" style="stop-color:#30EAFF"/>
					<stop  offset="1" style="stop-color:#194378"/>
				</linearGradient>
				<path fill="url(#SVGID_26_)" d="M475.757,163.143c-0.557-1.869-1.101-3.732-1.626-5.616
					c-108.421,105.806-1.915,1.888-334.598,326.53c1.304,1.107,2.657,2.179,4.074,3.228
					C277.456,356.677,200.128,432.109,475.757,163.143z"/>
				
					<linearGradient id="SVGID_27_" gradientUnits="userSpaceOnUse" x1="636.6123" y1="67.3418" x2="492.2103" y2="-472.5382" gradientTransform="matrix(0.9878 -0.1556 -0.1556 -0.9878 -288.9399 216.2617)">
					<stop  offset="0" style="stop-color:#30EAFF"/>
					<stop  offset="1" style="stop-color:#194378"/>
				</linearGradient>
				<path fill="url(#SVGID_27_)" d="M472.179,150.397c-0.512-1.911-1.005-3.83-1.485-5.755
					c-63.103,61.568-76.22,74.391-339.396,331.215c1.084,1.312,2.249,2.58,3.472,3.814
					C180.262,435.27,424.96,196.469,472.179,150.397z"/>
				
					<linearGradient id="SVGID_28_" gradientUnits="userSpaceOnUse" x1="630.7402" y1="68.9092" x2="486.3418" y2="-470.9575" gradientTransform="matrix(0.9878 -0.1556 -0.1556 -0.9878 -288.9399 216.2617)">
					<stop  offset="0" style="stop-color:#30EAFF"/>
					<stop  offset="1" style="stop-color:#194378"/>
				</linearGradient>
				<path fill="url(#SVGID_28_)" d="M468.924,137.332c-0.011-0.034-0.011-0.056-0.021-0.087c-0.447-1.901-0.89-3.817-1.345-5.766
					C305.396,289.707,243.9,349.742,124.748,466.009c0.794,1.583,1.685,3.113,2.648,4.61
					C207.302,392.651,403.893,200.795,468.924,137.332z"/>
				
					<linearGradient id="SVGID_29_" gradientUnits="userSpaceOnUse" x1="625.959" y1="70.1934" x2="481.5582" y2="-469.6816" gradientTransform="matrix(0.9878 -0.1556 -0.1556 -0.9878 -288.9399 216.2617)">
					<stop  offset="0" style="stop-color:#30EAFF"/>
					<stop  offset="1" style="stop-color:#194378"/>
				</linearGradient>
				<path fill="url(#SVGID_29_)" d="M465.786,124.169c-0.477-1.915-0.966-3.833-1.481-5.755
					c-76.699,74.842-268.563,262.084-343.704,335.423c0.359,1.984,0.858,3.892,1.48,5.745
					C175.469,407.474,412.342,176.32,465.786,124.169z"/>
				
					<linearGradient id="SVGID_30_" gradientUnits="userSpaceOnUse" x1="622.7725" y1="71.0415" x2="478.3744" y2="-468.8231" gradientTransform="matrix(0.9878 -0.1556 -0.1556 -0.9878 -288.9399 216.2617)">
					<stop  offset="0" style="stop-color:#30EAFF"/>
					<stop  offset="1" style="stop-color:#194378"/>
				</linearGradient>
				<path fill="url(#SVGID_30_)" d="M462.334,111.302c-0.55-1.849-1.118-3.69-1.717-5.521
					c-1.334,1.302-332.644,324.604-339.837,331.629l0.004,0.012c-0.592,2.636-0.93,5.333-0.957,8.118
					C157.131,409.139,423.591,149.119,462.334,111.302z"/>
				
					<linearGradient id="SVGID_31_" gradientUnits="userSpaceOnUse" x1="656.2236" y1="62.0903" x2="511.8253" y2="-477.7762" gradientTransform="matrix(0.9878 -0.1556 -0.1556 -0.9878 -288.9399 216.2617)">
					<stop  offset="0" style="stop-color:#30EAFF"/>
					<stop  offset="1" style="stop-color:#194378"/>
				</linearGradient>
				<path fill="url(#SVGID_31_)" d="M458.275,99.014c-0.654-1.759-1.344-3.495-2.058-5.191
					c-23.502,22.933-200.636,195.812-221.469,216.126c-0.396,0.938-14.709,19.708-29.603,36.092
					C231.235,320.586,434.095,122.612,458.275,99.014z"/>
				
					<linearGradient id="SVGID_32_" gradientUnits="userSpaceOnUse" x1="496.8701" y1="104.6963" x2="352.4786" y2="-435.1448" gradientTransform="matrix(0.9878 -0.1556 -0.1556 -0.9878 -288.9399 216.2617)">
					<stop  offset="0" style="stop-color:#30EAFF"/>
					<stop  offset="1" style="stop-color:#194378"/>
				</linearGradient>
				<path fill="url(#SVGID_32_)" d="M165.844,384.4c-8.759,7.544-16.398,13.423-24.275,21.022
					c-5.224,5.04-10.038,10.395-13.792,16.126C164.494,385.724,157.706,392.35,165.844,384.4z"/>
				
					<linearGradient id="SVGID_33_" gradientUnits="userSpaceOnUse" x1="673.3242" y1="57.5195" x2="528.926" y2="-482.3464" gradientTransform="matrix(0.9878 -0.1556 -0.1556 -0.9878 -288.9399 216.2617)">
					<stop  offset="0" style="stop-color:#30EAFF"/>
					<stop  offset="1" style="stop-color:#194378"/>
				</linearGradient>
				<path fill="url(#SVGID_33_)" d="M453.358,87.581c-0.796-1.618-1.638-3.209-2.525-4.742
					c-120.485,117.591-56.721,55.351-186.531,182.04c-3.454,5.977-7.027,11.864-10.736,17.676
					C421.953,118.237,398.187,141.43,453.358,87.581z"/>
				
					<linearGradient id="SVGID_34_" gradientUnits="userSpaceOnUse" x1="678.2803" y1="56.1938" x2="533.8812" y2="-483.6752" gradientTransform="matrix(0.9878 -0.1556 -0.1556 -0.9878 -288.9399 216.2617)">
					<stop  offset="0" style="stop-color:#30EAFF"/>
					<stop  offset="1" style="stop-color:#194378"/>
				</linearGradient>
				<path fill="url(#SVGID_34_)" d="M447.323,77.242c-0.986-1.435-2.031-2.822-3.121-4.156
					c-112.243,109.548-100.781,98.348-162.32,158.411c-2.251,4.706-4.557,9.359-6.962,13.988
					C383.958,139.074,360.523,161.936,447.323,77.242z"/>
				
					<linearGradient id="SVGID_35_" gradientUnits="userSpaceOnUse" x1="679.5908" y1="55.8403" x2="535.1899" y2="-484.0357" gradientTransform="matrix(0.9878 -0.1556 -0.1556 -0.9878 -288.9399 216.2617)">
					<stop  offset="0" style="stop-color:#30EAFF"/>
					<stop  offset="1" style="stop-color:#194378"/>
				</linearGradient>
				<path fill="url(#SVGID_35_)" d="M439.822,68.326c-1.245-1.199-2.535-2.333-3.897-3.392
					C415.855,84.517,315.952,181.999,294.34,203.103c-1.632,4.074-3.322,8.124-5.06,12.142
					C293.415,211.21,435.335,72.708,439.822,68.326z"/>
				
					<linearGradient id="SVGID_36_" gradientUnits="userSpaceOnUse" x1="678.4541" y1="56.1475" x2="534.0555" y2="-483.7192" gradientTransform="matrix(0.9878 -0.1556 -0.1556 -0.9878 -288.9399 216.2617)">
					<stop  offset="0" style="stop-color:#30EAFF"/>
					<stop  offset="1" style="stop-color:#194378"/>
				</linearGradient>
				<path fill="url(#SVGID_36_)" d="M430.437,61.242c-1.572-0.889-3.205-1.696-4.908-2.401
					c-72.314,70.571-120.121,117.218-121.762,118.817c-1.274,3.681-2.564,7.366-3.916,11.023
					C391.761,98.976,362.448,127.577,430.437,61.242z"/>
				
					<linearGradient id="SVGID_37_" gradientUnits="userSpaceOnUse" x1="675.4043" y1="56.96" x2="531.0031" y2="-482.9172" gradientTransform="matrix(0.9878 -0.1556 -0.1556 -0.9878 -288.9399 216.2617)">
					<stop  offset="0" style="stop-color:#30EAFF"/>
					<stop  offset="1" style="stop-color:#194378"/>
				</linearGradient>
				<path fill="url(#SVGID_37_)" d="M418.576,56.59c-2.093-0.501-4.206-0.842-6.339-1.015
					c-56.387,55.014-34.749,33.896-99.938,97.519l-0.008,0.013c-1.302,3.628-2.572,7.259-3.837,10.921
					C313.329,159.275,413.828,61.227,418.576,56.59z"/>
				
					<linearGradient id="SVGID_38_" gradientUnits="userSpaceOnUse" x1="670.9844" y1="58.1377" x2="526.5875" y2="-481.723" gradientTransform="matrix(0.9878 -0.1556 -0.1556 -0.9878 -288.9399 216.2617)">
					<stop  offset="0" style="stop-color:#30EAFF"/>
					<stop  offset="1" style="stop-color:#194378"/>
				</linearGradient>
				<path fill="url(#SVGID_38_)" d="M402.945,55.604c-2.973,0.241-5.929,0.742-8.833,1.429
					c-46.467,45.34-30.121,29.388-71.256,69.532l-0.01,0.016c-1.839,4.033-3.554,8.129-5.198,12.268
					C318.035,138.471,349.637,107.632,402.945,55.604z"/>
				
					<linearGradient id="SVGID_39_" gradientUnits="userSpaceOnUse" x1="665.5449" y1="59.5962" x2="521.1444" y2="-480.2784" gradientTransform="matrix(0.9878 -0.1556 -0.1556 -0.9878 -288.9399 216.2617)">
					<stop  offset="0" style="stop-color:#30EAFF"/>
					<stop  offset="1" style="stop-color:#194378"/>
				</linearGradient>
				<path fill="url(#SVGID_39_)" d="M379.637,62.111c-9.529,4.443-18.105,10.689-25.708,18.093
					c-8.48,8.272-15.736,17.979-21.777,28.25C357.002,84.208,346.494,94.464,379.637,62.111z"/>
			</g>
			
				<linearGradient id="SVGID_40_" gradientUnits="userSpaceOnUse" x1="276.5059" y1="14.7441" x2="746.6516" y2="-826.3623" gradientTransform="matrix(1 0 0 -1 -358 75)">
				<stop  offset="0" style="stop-color:#30EAFF"/>
				<stop  offset="1" style="stop-color:#194378"/>
			</linearGradient>
			<path fill="url(#SVGID_40_)" d="M22.458,228.486c-1.309-0.06-2.767,0.177-4.136,0.58c-3.795,1.109-12.565,5.404-11.999,10.57
				c0.461,4.146,12.691,0.749,14.85-0.203c2.472-1.091,4.924-2.944,5.387-5.607C27.226,229.993,25.161,228.606,22.458,228.486z"/>
			<g>
				
					<linearGradient id="SVGID_41_" gradientUnits="userSpaceOnUse" x1="935.793" y1="43.7061" x2="705.6909" y2="-330.2095" gradientTransform="matrix(1 0 0 -1 -358 75)">
					<stop  offset="0" style="stop-color:#30EAFF"/>
					<stop  offset="1" style="stop-color:#194378"/>
				</linearGradient>
				<path fill="url(#SVGID_41_)" d="M530.562,133.097c-0.501,0.234-1.113,0.178-1.568-0.2l-18.546-15.248
					c-0.636-0.522-0.727-1.461-0.202-2.095c0.519-0.635,1.455-0.726,2.089-0.203l18.546,15.249c0.634,0.521,0.728,1.46,0.205,2.096
					C530.935,132.871,530.759,133.006,530.562,133.097z"/>
				
					<linearGradient id="SVGID_42_" gradientUnits="userSpaceOnUse" x1="935.8027" y1="43.7236" x2="705.6551" y2="-330.2661" gradientTransform="matrix(1 0 0 -1 -358 75)">
					<stop  offset="0" style="stop-color:#30EAFF"/>
					<stop  offset="1" style="stop-color:#194378"/>
				</linearGradient>
				<path fill="url(#SVGID_42_)" d="M513.672,134.748c-0.504,0.233-1.116,0.177-1.575-0.199c-0.639-0.523-0.728-1.458-0.204-2.094
					l15.245-18.547c0.521-0.636,1.461-0.726,2.093-0.205c0.636,0.521,0.728,1.461,0.207,2.095l-15.246,18.548
					C514.044,134.519,513.867,134.656,513.672,134.748z"/>
			</g>
			
				<linearGradient id="SVGID_43_" gradientUnits="userSpaceOnUse" x1="293.71" y1="-51.3442" x2="690.5094" y2="-521.552" gradientTransform="matrix(1 0 0 -1 -358 75)">
				<stop  offset="0" style="stop-color:#30EAFF"/>
				<stop  offset="1" style="stop-color:#194378"/>
			</linearGradient>
			<path fill="url(#SVGID_43_)" d="M356.303,410.335c-25.556,24.66-56.351,39.29-92.418,51.384
				c-36.65,12.29-66.104,31.337-98.376,52.14c-61.736,39.785-138.362,69.745-194.729,18.561
				c-46.974-42.655-63.305-134.747-20.83-197.593c14.693-21.74,34.611-35.214,56.458-44.161
				c16.916-6.929,32.988-9.082,43.064-25.521c21.005-34.267,14.083-79.78,35.213-115.464c18.441-31.145,45.877-42.416,79.139-23.892
				c45.838,25.524,70.387,80.501,117.223,104.043c42.099,21.16,110.158,40.384,117.227,95.816
				c2.529,19.791-6.5,39.278-17.719,55.773C373.072,392.409,364.988,401.95,356.303,410.335z"/>
			
				<linearGradient id="SVGID_44_" gradientUnits="userSpaceOnUse" x1="376.793" y1="-724.2695" x2="494.8344" y2="-481.2434" gradientTransform="matrix(1 0 0 -1 -358 75)">
				<stop  offset="0" style="stop-color:#30EAFF"/>
				<stop  offset="1" style="stop-color:#194378"/>
			</linearGradient>
			<path fill="url(#SVGID_44_)" d="M64.276,686.088c5.216-0.599,10.616,1.398,14.164,5.763c2.674,3.295,3.904,7.438,3.465,11.658
				c-0.438,4.218-2.494,8.016-5.789,10.695c-6.802,5.519-16.827,4.48-22.348-2.324c-2.676-3.294-3.909-7.434-3.47-11.651
				c0.438-4.226,2.497-8.021,5.79-10.699C58.521,687.556,61.37,686.419,64.276,686.088z M67.591,714.685
				c2.361-0.273,4.676-1.19,6.651-2.795c2.679-2.174,4.348-5.263,4.706-8.688c0.354-3.433-0.643-6.794-2.818-9.473
				c-4.487-5.53-12.636-6.376-18.165-1.889c-2.678,2.175-4.346,5.263-4.703,8.694c-0.357,3.427,0.645,6.789,2.82,9.468
				c0,0,0,0,0,0.003C58.963,713.554,63.351,715.172,67.591,714.685z"/>
			
				<linearGradient id="SVGID_45_" gradientUnits="userSpaceOnUse" x1="315.0576" y1="-694.2354" x2="433.0731" y2="-451.2618" gradientTransform="matrix(1 0 0 -1 -358 75)">
				<stop  offset="0" style="stop-color:#30EAFF"/>
				<stop  offset="1" style="stop-color:#194378"/>
			</linearGradient>
			<path fill="url(#SVGID_45_)" d="M45.335,605.596c0.191,0.119,0.363,0.29,0.486,0.492c0.274,0.455,0.285,1.021,0.03,1.486
				l-8.4,15.255c-0.256,0.466-0.742,0.759-1.276,0.766c-0.53,0.012-1.027-0.262-1.301-0.714l-9.009-14.903
				c-0.276-0.452-0.287-1.021-0.033-1.487c0.258-0.462,0.743-0.759,1.273-0.768l17.411-0.354
				C44.809,605.361,45.095,605.444,45.335,605.596z M36.087,619.134l5.915-10.736l-12.256,0.25L36.087,619.134z"/>
			<g>
				
					<linearGradient id="SVGID_46_" gradientUnits="userSpaceOnUse" x1="1092.6152" y1="-52.7778" x2="862.4767" y2="-426.7524" gradientTransform="matrix(1 0 0 -1 -358 75)">
					<stop  offset="0" style="stop-color:#30EAFF"/>
					<stop  offset="1" style="stop-color:#194378"/>
				</linearGradient>
				<path fill="url(#SVGID_46_)" d="M633.574,285.618c0.892,0.04,1.576,0.793,1.533,1.685l-0.484,10.511
					c-0.037,0.889-0.793,1.574-1.683,1.536c-0.882-0.043-1.571-0.795-1.534-1.687l0.486-10.511
					C631.933,286.265,632.687,285.578,633.574,285.618z"/>
				
					<linearGradient id="SVGID_47_" gradientUnits="userSpaceOnUse" x1="1080.8447" y1="-45.54" x2="850.7048" y2="-419.5174" gradientTransform="matrix(1 0 0 -1 -358 75)">
					<stop  offset="0" style="stop-color:#30EAFF"/>
					<stop  offset="1" style="stop-color:#194378"/>
				</linearGradient>
				<path fill="url(#SVGID_47_)" d="M634.895,256.859c0.891,0.04,1.576,0.794,1.538,1.683l-0.513,11.042
					c-0.036,0.888-0.793,1.576-1.68,1.535c-0.885-0.042-1.573-0.794-1.536-1.681l0.513-11.046
					C633.257,257.504,634.01,256.816,634.895,256.859z"/>
				
					<linearGradient id="SVGID_48_" gradientUnits="userSpaceOnUse" x1="1076.2969" y1="-42.834" x2="846.2572" y2="-416.6478" gradientTransform="matrix(1 0 0 -1 -358 75)">
					<stop  offset="0" style="stop-color:#30EAFF"/>
					<stop  offset="1" style="stop-color:#194378"/>
				</linearGradient>
				<path fill="url(#SVGID_48_)" d="M614.358,275.593l11.556,0.53c0.889,0.041,1.573,0.795,1.534,1.684
					c-0.04,0.888-0.793,1.573-1.681,1.534l-11.555-0.532c-0.89-0.04-1.577-0.794-1.537-1.683
					C612.717,276.235,613.471,275.549,614.358,275.593z"/>
				
					<linearGradient id="SVGID_49_" gradientUnits="userSpaceOnUse" x1="1097.2061" y1="-55.5981" x2="867.0571" y2="-429.5899" gradientTransform="matrix(1 0 0 -1 -358 75)">
					<stop  offset="0" style="stop-color:#30EAFF"/>
					<stop  offset="1" style="stop-color:#194378"/>
				</linearGradient>
				<path fill="url(#SVGID_49_)" d="M642.587,276.891l11.046,0.507c0.883,0.042,1.572,0.794,1.534,1.684
					c-0.041,0.886-0.798,1.574-1.682,1.535l-11.045-0.51c-0.893-0.04-1.577-0.793-1.539-1.681
					C640.947,277.537,641.694,276.849,642.587,276.891z"/>
				
					<linearGradient id="SVGID_50_" gradientUnits="userSpaceOnUse" x1="1075.0635" y1="-42.0889" x2="845.046" y2="-415.8672" gradientTransform="matrix(1 0 0 -1 -358 75)">
					<stop  offset="0" style="stop-color:#30EAFF"/>
					<stop  offset="1" style="stop-color:#194378"/>
				</linearGradient>
				<path fill="url(#SVGID_50_)" d="M620.75,261.971c0.41,0.019,0.815,0.193,1.117,0.523l7.449,8.168
					c0.598,0.655,0.556,1.677-0.103,2.274c-0.661,0.599-1.679,0.552-2.277-0.103l-7.452-8.168c-0.598-0.655-0.547-1.677,0.106-2.275
					C619.917,262.089,620.339,261.951,620.75,261.971z"/>
				
					<linearGradient id="SVGID_51_" gradientUnits="userSpaceOnUse" x1="1098.46" y1="-56.374" x2="868.3167" y2="-430.3564" gradientTransform="matrix(1 0 0 -1 -358 75)">
					<stop  offset="0" style="stop-color:#30EAFF"/>
					<stop  offset="1" style="stop-color:#194378"/>
				</linearGradient>
				<path fill="url(#SVGID_51_)" d="M640.149,283.246c0.41,0.018,0.816,0.195,1.113,0.521l7.091,7.773
					c0.603,0.655,0.553,1.676-0.102,2.273c-0.657,0.602-1.677,0.554-2.271-0.104l-7.096-7.771c-0.598-0.658-0.553-1.677,0.103-2.277
					C639.318,283.362,639.74,283.225,640.149,283.246z"/>
				
					<linearGradient id="SVGID_52_" gradientUnits="userSpaceOnUse" x1="1090.0186" y1="-51.1362" x2="859.824" y2="-425.2021" gradientTransform="matrix(1 0 0 -1 -358 75)">
					<stop  offset="0" style="stop-color:#30EAFF"/>
					<stop  offset="1" style="stop-color:#194378"/>
				</linearGradient>
				<path fill="url(#SVGID_52_)" d="M648.516,263.25c0.414,0.018,0.816,0.195,1.117,0.523c0.603,0.658,0.554,1.674-0.102,2.274
					l-8.171,7.449c-0.654,0.603-1.675,0.553-2.274-0.105c-0.599-0.654-0.551-1.675,0.104-2.276l8.171-7.449
					C647.688,263.368,648.105,263.23,648.516,263.25z"/>
				
					<linearGradient id="SVGID_53_" gradientUnits="userSpaceOnUse" x1="1083.3867" y1="-47.0312" x2="853.1796" y2="-421.1182" gradientTransform="matrix(1 0 0 -1 -358 75)">
					<stop  offset="0" style="stop-color:#30EAFF"/>
					<stop  offset="1" style="stop-color:#194378"/>
				</linearGradient>
				<path fill="url(#SVGID_53_)" d="M627.642,282.289c0.409,0.02,0.817,0.194,1.116,0.525c0.598,0.654,0.554,1.678-0.104,2.274
					l-8.169,7.446c-0.654,0.602-1.673,0.553-2.275-0.104c-0.598-0.657-0.55-1.676,0.105-2.273l8.167-7.451
					C626.811,282.408,627.231,282.27,627.642,282.289z"/>
			</g>
			
				<linearGradient id="SVGID_54_" gradientUnits="userSpaceOnUse" x1="1024.7979" y1="-11.0229" x2="794.6341" y2="-385.0389" gradientTransform="matrix(1 0 0 -1 -358 75)">
				<stop  offset="0" style="stop-color:#30EAFF"/>
				<stop  offset="1" style="stop-color:#194378"/>
			</linearGradient>
			<path fill="url(#SVGID_54_)" d="M566.442,261.774c-4.178,0-8.271-2.065-10.684-5.838c-1.815-2.85-2.419-6.235-1.689-9.536
				c0.731-3.299,2.703-6.117,5.55-7.936c5.88-3.753,13.717-2.022,17.471,3.858c1.815,2.848,2.414,6.232,1.685,9.532
				c-0.726,3.3-2.692,6.119-5.541,7.938C571.127,261.135,568.772,261.774,566.442,261.774z M566.406,238.85
				c-1.894,0-3.804,0.521-5.516,1.61c-2.318,1.479-3.912,3.77-4.507,6.452c-0.59,2.682-0.101,5.434,1.374,7.746
				c3.05,4.781,9.419,6.185,14.2,3.137c2.313-1.479,3.913-3.77,4.504-6.451c0.594-2.682,0.104-5.432-1.374-7.745l0,0
				C573.131,240.528,569.803,238.85,566.406,238.85z"/>
			<g>
				
					<linearGradient id="SVGID_55_" gradientUnits="userSpaceOnUse" x1="452.335" y1="-760.9004" x2="570.3358" y2="-517.9574" gradientTransform="matrix(1 0 0 -1 -358 75)">
					<stop  offset="0" style="stop-color:#30EAFF"/>
					<stop  offset="1" style="stop-color:#194378"/>
				</linearGradient>
				<path fill="url(#SVGID_55_)" d="M163.059,695.605c-0.401-0.116-0.627-0.538-0.51-0.941l1.41-4.725
					c0.117-0.397,0.535-0.619,0.938-0.503c0.4,0.12,0.626,0.538,0.506,0.937l-1.406,4.725
					C163.88,695.496,163.454,695.727,163.059,695.605z"/>
				
					<linearGradient id="SVGID_56_" gradientUnits="userSpaceOnUse" x1="454.2725" y1="-761.873" x2="572.2927" y2="-518.8898" gradientTransform="matrix(1 0 0 -1 -358 75)">
					<stop  offset="0" style="stop-color:#30EAFF"/>
					<stop  offset="1" style="stop-color:#194378"/>
				</linearGradient>
				<path fill="url(#SVGID_56_)" d="M159.207,708.535c-0.401-0.116-0.625-0.539-0.505-0.941l1.476-4.957
					c0.119-0.399,0.537-0.629,0.939-0.512c0.4,0.119,0.627,0.538,0.509,0.937l-1.479,4.965
					C160.028,708.429,159.607,708.656,159.207,708.535z"/>
				
					<linearGradient id="SVGID_57_" gradientUnits="userSpaceOnUse" x1="459.0039" y1="-764.3506" x2="577.1481" y2="-521.1128" gradientTransform="matrix(1 0 0 -1 -358 75)">
					<stop  offset="0" style="stop-color:#30EAFF"/>
					<stop  offset="1" style="stop-color:#194378"/>
				</linearGradient>
				<path fill="url(#SVGID_57_)" d="M170.664,702.336l-5.193-1.543c-0.403-0.121-0.627-0.543-0.51-0.944
					c0.119-0.395,0.539-0.624,0.938-0.505l5.195,1.544c0.402,0.119,0.627,0.541,0.509,0.939
					C171.482,702.228,171.063,702.457,170.664,702.336z"/>
				
					<linearGradient id="SVGID_58_" gradientUnits="userSpaceOnUse" x1="447.4805" y1="-758.439" x2="565.4052" y2="-515.652" gradientTransform="matrix(1 0 0 -1 -358 75)">
					<stop  offset="0" style="stop-color:#30EAFF"/>
					<stop  offset="1" style="stop-color:#194378"/>
				</linearGradient>
				<path fill="url(#SVGID_58_)" d="M157.973,698.556l-4.965-1.479c-0.4-0.116-0.625-0.534-0.509-0.932
					c0.116-0.403,0.538-0.63,0.938-0.517l4.966,1.482c0.401,0.116,0.626,0.541,0.508,0.937
					C158.795,698.449,158.374,698.68,157.973,698.556z"/>
				
					<linearGradient id="SVGID_59_" gradientUnits="userSpaceOnUse" x1="458.0986" y1="-763.8491" x2="576.2029" y2="-520.6933" gradientTransform="matrix(1 0 0 -1 -358 75)">
					<stop  offset="0" style="stop-color:#30EAFF"/>
					<stop  offset="1" style="stop-color:#194378"/>
				</linearGradient>
				<path fill="url(#SVGID_59_)" d="M166.22,707.809c-0.186-0.057-0.351-0.181-0.448-0.36l-2.465-4.557
					c-0.198-0.365-0.062-0.823,0.303-1.023c0.367-0.199,0.826-0.06,1.025,0.305l2.465,4.557c0.198,0.36,0.062,0.823-0.305,1.02
					C166.61,707.845,166.406,707.86,166.22,707.809z"/>
				
					<linearGradient id="SVGID_60_" gradientUnits="userSpaceOnUse" x1="448.3613" y1="-759.0332" x2="566.4084" y2="-515.9945" gradientTransform="matrix(1 0 0 -1 -358 75)">
					<stop  offset="0" style="stop-color:#30EAFF"/>
					<stop  offset="1" style="stop-color:#194378"/>
				</linearGradient>
				<path fill="url(#SVGID_60_)" d="M159.798,695.944c-0.186-0.053-0.348-0.181-0.446-0.362l-2.349-4.337
					c-0.198-0.363-0.062-0.829,0.304-1.023c0.367-0.199,0.823-0.06,1.022,0.306l2.345,4.332c0.199,0.365,0.061,0.828-0.306,1.021
					C160.189,695.981,159.985,696.001,159.798,695.944z"/>
				
					<linearGradient id="SVGID_61_" gradientUnits="userSpaceOnUse" x1="449.7832" y1="-759.8213" x2="567.8947" y2="-516.6507" gradientTransform="matrix(1 0 0 -1 -358 75)">
					<stop  offset="0" style="stop-color:#30EAFF"/>
					<stop  offset="1" style="stop-color:#194378"/>
				</linearGradient>
				<path fill="url(#SVGID_61_)" d="M153.735,704.092c-0.187-0.052-0.351-0.18-0.45-0.365c-0.197-0.36-0.059-0.819,0.307-1.016
					l4.554-2.468c0.365-0.198,0.826-0.06,1.025,0.307c0.196,0.36,0.063,0.822-0.303,1.018l-4.557,2.466
					C154.125,704.13,153.922,704.148,153.735,704.092z"/>
				
					<linearGradient id="SVGID_62_" gradientUnits="userSpaceOnUse" x1="456.7305" y1="-763.187" x2="574.8334" y2="-520.0339" gradientTransform="matrix(1 0 0 -1 -358 75)">
					<stop  offset="0" style="stop-color:#30EAFF"/>
					<stop  offset="1" style="stop-color:#194378"/>
				</linearGradient>
				<path fill="url(#SVGID_62_)" d="M165.381,697.791c-0.189-0.053-0.35-0.182-0.449-0.362c-0.199-0.364-0.063-0.827,0.307-1.021
					l4.553-2.465c0.363-0.2,0.821-0.06,1.021,0.305c0.197,0.365,0.06,0.824-0.304,1.021l-4.556,2.463
					C165.771,697.828,165.565,697.844,165.381,697.791z"/>
			</g>
		</g>
	</g>
</g>
</svg>
