<?xml version="1.0" encoding="utf-8"?>
<!-- Generator: Adobe Illustrator 16.0.0, SVG Export Plug-In . SVG Version: 6.00 Build 0)  -->
<!DOCTYPE svg PUBLIC "-//W3C//DTD SVG 1.1//EN" "http://www.w3.org/Graphics/SVG/1.1/DTD/svg11.dtd">
<svg version="1.1" id="Layer_1" xmlns="http://www.w3.org/2000/svg" xmlns:xlink="http://www.w3.org/1999/xlink" x="0px" y="0px"
	 width="1207.214px" height="1257.292px" viewBox="0 0 1207.214 1257.292" enable-background="new 0 0 1207.214 1257.292"
	 xml:space="preserve">
<g id="Layer_1_2_" opacity="0.5">
	<g id="Layer_1_1_">
		<g>
			
				<linearGradient id="SVGID_1_" gradientUnits="userSpaceOnUse" x1="1895.2114" y1="-1225.6289" x2="935.7507" y2="-132.3787" gradientTransform="matrix(1 0 0 -1 -358 289.6426)">
				<stop  offset="0" style="stop-color:#30EAFF"/>
				<stop  offset="1" style="stop-color:#194378"/>
			</linearGradient>
			<path fill="url(#SVGID_1_)" d="M1006.022,1161.746c17.44,22.824,41.521,37.335,72.324,35.218
				c27.534-1.888,52.163-18.852,69.745-40.021c8.235-9.917,15.384-21.175,17.862-33.806c2.232-11.338,0.577-23.033,0.629-34.595
				c0.102-22.89,7.111-45.678,19.883-64.674c10.169-15.128,23.723-27.688,34.47-42.41c10.752-14.713,18.771-32.935,15.373-50.848
				c-2.452-12.876-10.612-24.133-20.649-32.614c-24.199-20.44-58.783-25.6-89.824-19.331c-31.034,6.28-59.063,22.761-84.455,41.606
				c-24.498,18.188-47.851,39.769-59.759,67.826C962.419,1033.348,970.301,1114.997,1006.022,1161.746z"/>
			
				<linearGradient id="SVGID_2_" gradientUnits="userSpaceOnUse" x1="1623.9155" y1="-1463.7251" x2="664.4453" y2="-370.4634" gradientTransform="matrix(1 0 0 -1 -358 289.6426)">
				<stop  offset="0" style="stop-color:#30EAFF"/>
				<stop  offset="1" style="stop-color:#194378"/>
			</linearGradient>
			<path fill="url(#SVGID_2_)" d="M604.956,591.069c-17.229-1.699-34.662-1.566-52.165,0.633
				c-119.338,14.937-272.061,66.393-354.533,157.181c-25.27,27.824-43.293,61.34-51.052,98.217
				c-17.577,83.526-18.736,161.937,53.165,220.494c46.582,37.937,103.588,41.973,154.203,69.655
				c96.013,52.517,126.312,184.815,246.097,200.697c87.833,11.646,170.136-45.452,226.293-107.908
				c56.667-63.01,94.229-145.012,100.356-229.87c1.484-20.58,1.193-41.279-0.996-61.797
				C909.917,784.305,766.542,607.005,604.956,591.069z"/>
			
				<linearGradient id="SVGID_3_" gradientUnits="userSpaceOnUse" x1="263.1514" y1="311.3018" x2="1169.0808" y2="-1309.4354" gradientTransform="matrix(1 0 0 -1 -358 289.6426)">
				<stop  offset="0" style="stop-color:#30EAFF"/>
				<stop  offset="1" style="stop-color:#194378"/>
			</linearGradient>
			<path fill="url(#SVGID_3_)" d="M77.476,170.662c0.322,1.023,0.612,2.08,0.851,3.168c5.693,25.542-14.868,57.194-26.114,78.756
				c-4.541,8.72-9.821,17.509-18.022,22.921c-8.205,5.42-20.076,6.452-27.408-0.097c-4.258-3.802-6.349-9.451-7.734-14.988
				c-4.935-19.787-2.74-40.743,2.168-60.539c3.885-15.674,9.917-31.642,22.105-42.238C41.601,141.771,70.028,147.319,77.476,170.662
				z"/>
			<g>
				
					<linearGradient id="SVGID_4_" gradientUnits="userSpaceOnUse" x1="1078.0542" y1="288.1392" x2="799.8337" y2="-752.0541" gradientTransform="matrix(0.9878 -0.1556 -0.1556 -0.9878 -270.8474 447.3667)">
					<stop  offset="0" style="stop-color:#30EAFF"/>
					<stop  offset="1" style="stop-color:#194378"/>
				</linearGradient>
				<path fill="url(#SVGID_4_)" d="M977.345,315.92c-1.496-3.205-2.924-6.416-4.357-9.64
					c-61.022,59.585-413.812,403.855-578.119,564.211c3.756,1.007,7.512,1.972,11.247,2.899
					C414.103,865.593,969.362,323.708,977.345,315.92z"/>
				
					<linearGradient id="SVGID_5_" gradientUnits="userSpaceOnUse" x1="1484.7993" y1="179.3428" x2="1206.5906" y2="-860.8035" gradientTransform="matrix(0.9878 -0.1556 -0.1556 -0.9878 -270.8474 447.3667)">
					<stop  offset="0" style="stop-color:#30EAFF"/>
					<stop  offset="1" style="stop-color:#194378"/>
				</linearGradient>
				<path fill="url(#SVGID_5_)" d="M1039.923,772.76c24.196-15.656,46.896-33.003,67.632-52.164l0.06-0.059l12.755-12.447
					l0.223-0.229c12.938-13.433,24.492-28.444,32.176-45.243C1140.091,674.996,1058.167,754.956,1039.923,772.76z"/>
				
					<linearGradient id="SVGID_6_" gradientUnits="userSpaceOnUse" x1="1454.2759" y1="187.5449" x2="1176.052" y2="-852.6598" gradientTransform="matrix(0.9878 -0.1556 -0.1556 -0.9878 -270.8474 447.3667)">
					<stop  offset="0" style="stop-color:#30EAFF"/>
					<stop  offset="1" style="stop-color:#194378"/>
				</linearGradient>
				<path fill="url(#SVGID_6_)" d="M966.249,813.375c9.812-4.565,19.459-9.372,28.954-14.394l0.023-0.007
					c72.609-70.885,36.179-35.326,165.682-161.72c0.044-0.181,0.072-0.333,0.102-0.504c0.95-5.285,1.501-10.295,1.684-15.093
					C1022.751,758.219,1066.351,715.673,966.249,813.375z"/>
				
					<linearGradient id="SVGID_7_" gradientUnits="userSpaceOnUse" x1="1427.1929" y1="194.7852" x2="1148.9728" y2="-845.4038" gradientTransform="matrix(0.9878 -0.1556 -0.1556 -0.9878 -270.8474 447.3667)">
					<stop  offset="0" style="stop-color:#30EAFF"/>
					<stop  offset="1" style="stop-color:#194378"/>
				</linearGradient>
				<path fill="url(#SVGID_7_)" d="M1161.813,605.088l-0.007-0.013c-0.558-3.948-1.42-7.728-2.516-11.396
					C1005.216,744.026,1058.6,691.93,910.262,836.7c7.924-2.913,15.789-5.943,23.577-9.133l0.015-0.013
					C1063.21,701.321,1011.066,752.203,1161.813,605.088z"/>
				
					<linearGradient id="SVGID_8_" gradientUnits="userSpaceOnUse" x1="1399.8862" y1="202.0928" x2="1121.6636" y2="-838.1042" gradientTransform="matrix(0.9878 -0.1556 -0.1556 -0.9878 -270.8474 447.3667)">
					<stop  offset="0" style="stop-color:#30EAFF"/>
					<stop  offset="1" style="stop-color:#194378"/>
				</linearGradient>
				<path fill="url(#SVGID_8_)" d="M1154.427,581.034c-1.462-3.117-3.102-6.152-4.878-9.129
					c-165.181,161.204-102.918,100.439-287.925,281.025c6.992-2.104,13.949-4.266,20.879-6.538
					C895.086,834.115,1143.455,591.738,1154.427,581.034z"/>
				
					<linearGradient id="SVGID_9_" gradientUnits="userSpaceOnUse" x1="1372.4731" y1="209.4087" x2="1094.2522" y2="-830.7845" gradientTransform="matrix(0.9878 -0.1556 -0.1556 -0.9878 -270.8474 447.3667)">
					<stop  offset="0" style="stop-color:#30EAFF"/>
					<stop  offset="1" style="stop-color:#194378"/>
				</linearGradient>
				<path fill="url(#SVGID_9_)" d="M1142.528,561.354c-1.938-2.655-3.967-5.277-6.104-7.901
					c-61.247,59.758-256.471,250.269-319.145,311.435c0.971-0.236,18.323-4.521,19.247-4.894
					C838.044,858.515,1140.974,562.867,1142.528,561.354z"/>
				
					<linearGradient id="SVGID_10_" gradientUnits="userSpaceOnUse" x1="1345.4214" y1="216.6421" x2="1067.2057" y2="-823.5305" gradientTransform="matrix(0.9878 -0.1556 -0.1556 -0.9878 -270.8474 447.3667)">
					<stop  offset="0" style="stop-color:#30EAFF"/>
					<stop  offset="1" style="stop-color:#194378"/>
				</linearGradient>
				<path fill="url(#SVGID_10_)" d="M1128.393,543.87c-2.132-2.467-4.342-4.942-6.583-7.437
					c-118.868,116.006-197.587,192.846-345.817,337.491c6.009-1.18,12.016-2.403,18.006-3.695
					C838.274,826.995,784.025,879.94,1128.393,543.87z"/>
				
					<linearGradient id="SVGID_11_" gradientUnits="userSpaceOnUse" x1="1318.9976" y1="223.7192" x2="1040.7747" y2="-816.481" gradientTransform="matrix(0.9878 -0.1556 -0.1556 -0.9878 -270.8474 447.3667)">
					<stop  offset="0" style="stop-color:#30EAFF"/>
					<stop  offset="1" style="stop-color:#194378"/>
				</linearGradient>
				<path fill="url(#SVGID_11_)" d="M1113.514,527.087c-2.196-2.442-4.384-4.922-6.562-7.444
					C983.33,640.271,859.131,761.473,736.911,880.745c5.685-0.87,11.352-1.794,17.04-2.759
					C1048.44,590.608,875.958,758.945,1113.514,527.087z"/>
				
					<linearGradient id="SVGID_12_" gradientUnits="userSpaceOnUse" x1="1293.5015" y1="230.5176" x2="1015.2854" y2="-809.6583" gradientTransform="matrix(0.9878 -0.1556 -0.1556 -0.9878 -270.8474 447.3667)">
					<stop  offset="0" style="stop-color:#30EAFF"/>
					<stop  offset="1" style="stop-color:#194378"/>
				</linearGradient>
				<path fill="url(#SVGID_12_)" d="M1098.902,510.09c-2.126-2.561-4.233-5.127-6.308-7.73
					C812.082,776.145,980.611,611.642,699.719,885.777c5.439-0.632,10.845-1.305,16.287-2.028l0.025-0.008
					C968.929,636.893,955.078,650.427,1098.902,510.09z"/>
				
					<linearGradient id="SVGID_13_" gradientUnits="userSpaceOnUse" x1="1268.8853" y1="237.1079" x2="990.6644" y2="-803.0868" gradientTransform="matrix(0.9878 -0.1556 -0.1556 -0.9878 -270.8474 447.3667)">
					<stop  offset="0" style="stop-color:#30EAFF"/>
					<stop  offset="1" style="stop-color:#194378"/>
				</linearGradient>
				<path fill="url(#SVGID_13_)" d="M1084.804,492.564c-2.06-2.608-4.104-5.25-6.117-7.893
					C910.358,648.935,866.701,691.528,664.045,889.32c5.199-0.44,10.403-0.883,15.631-1.393h0.019
					C860.033,711.911,944.164,629.811,1084.804,492.564z"/>
				
					<linearGradient id="SVGID_14_" gradientUnits="userSpaceOnUse" x1="1245.0298" y1="243.4727" x2="966.8163" y2="-796.6935" gradientTransform="matrix(0.9878 -0.1556 -0.1556 -0.9878 -270.8474 447.3667)">
					<stop  offset="0" style="stop-color:#30EAFF"/>
					<stop  offset="1" style="stop-color:#194378"/>
				</linearGradient>
				<path fill="url(#SVGID_14_)" d="M1071.126,474.639c-1.987-2.661-3.971-5.349-5.908-8.076
					C685.349,837.244,826.022,699.996,629.73,891.511c5.008-0.225,10.038-0.507,15.081-0.824
					C954.708,588.258,780.724,758.023,1071.126,474.639z"/>
				
					<linearGradient id="SVGID_15_" gradientUnits="userSpaceOnUse" x1="1221.8647" y1="249.688" x2="943.6441" y2="-790.5029" gradientTransform="matrix(0.9878 -0.1556 -0.1556 -0.9878 -270.8474 447.3667)">
					<stop  offset="0" style="stop-color:#30EAFF"/>
					<stop  offset="1" style="stop-color:#194378"/>
				</linearGradient>
				<path fill="url(#SVGID_15_)" d="M1057.856,456.267c-1.935-2.727-3.835-5.476-5.743-8.233
					c-12.072,11.786-294.499,287.382-307.733,300.305L596.59,892.567c4.833-0.072,9.67-0.187,14.525-0.333
					C747.792,758.885,754.3,752.552,1057.856,456.267z"/>
				
					<linearGradient id="SVGID_16_" gradientUnits="userSpaceOnUse" x1="1199.3452" y1="255.6973" x2="921.1301" y2="-784.4731" gradientTransform="matrix(0.9878 -0.1556 -0.1556 -0.9878 -270.8474 447.3667)">
					<stop  offset="0" style="stop-color:#30EAFF"/>
					<stop  offset="1" style="stop-color:#194378"/>
				</linearGradient>
				<path fill="url(#SVGID_16_)" d="M1045.025,437.545c-1.854-2.809-3.711-5.635-5.55-8.473
					c-0.511,0.505-474.438,463.004-474.95,463.503c4.689,0.071,9.38,0.115,14.083,0.124
					C861.267,616.9,655.393,817.776,1045.025,437.545z"/>
				
					<linearGradient id="SVGID_17_" gradientUnits="userSpaceOnUse" x1="1177.4614" y1="261.541" x2="899.2455" y2="-778.6333" gradientTransform="matrix(0.9878 -0.1556 -0.1556 -0.9878 -270.8474 447.3667)">
					<stop  offset="0" style="stop-color:#30EAFF"/>
					<stop  offset="1" style="stop-color:#194378"/>
				</linearGradient>
				<path fill="url(#SVGID_17_)" d="M1032.625,418.37l-0.006-0.022c-1.806-2.867-3.587-5.728-5.327-8.623
					c-47.317,46.164-446.473,435.674-493.79,481.865c4.509,0.224,9.049,0.404,13.629,0.558
					C547.135,892.147,1032.609,418.388,1032.625,418.37z"/>
				
					<linearGradient id="SVGID_18_" gradientUnits="userSpaceOnUse" x1="1156.2388" y1="267.2261" x2="878.0216" y2="-772.9539" gradientTransform="matrix(0.9878 -0.1556 -0.1556 -0.9878 -270.8474 447.3667)">
					<stop  offset="0" style="stop-color:#30EAFF"/>
					<stop  offset="1" style="stop-color:#194378"/>
				</linearGradient>
				<path fill="url(#SVGID_18_)" d="M1020.665,398.766c-1.748-2.94-3.464-5.893-5.168-8.85
					c-0.616,0.594-511.325,499.035-511.937,499.634c4.597,0.423,8.978,0.792,13.112,1.068
					C605.666,803.729,807.806,606.503,1020.665,398.766z"/>
				
					<linearGradient id="SVGID_19_" gradientUnits="userSpaceOnUse" x1="1135.7065" y1="272.7207" x2="857.4907" y2="-767.4517" gradientTransform="matrix(0.9878 -0.1556 -0.1556 -0.9878 -270.8474 447.3667)">
					<stop  offset="0" style="stop-color:#30EAFF"/>
					<stop  offset="1" style="stop-color:#194378"/>
				</linearGradient>
				<path fill="url(#SVGID_19_)" d="M1009.156,378.725c-1.69-2.984-3.333-5.988-4.98-9.021
					c-7.988,7.744-455.414,444.419-529.395,516.594c4.329,0.572,8.529,1.109,12.624,1.567
					C608.83,769.381,631.331,747.377,1009.156,378.725z"/>
				
					<linearGradient id="SVGID_20_" gradientUnits="userSpaceOnUse" x1="1115.854" y1="278.0259" x2="837.6354" y2="-762.1583" gradientTransform="matrix(0.9878 -0.1556 -0.1556 -0.9878 -270.8474 447.3667)">
					<stop  offset="0" style="stop-color:#30EAFF"/>
					<stop  offset="1" style="stop-color:#194378"/>
				</linearGradient>
				<path fill="url(#SVGID_20_)" d="M998.073,358.223c-1.629-3.06-3.21-6.134-4.755-9.224
					c-1.464,1.428-457.479,446.454-546.166,533.023c4.094,0.703,8.152,1.393,12.14,2.037
					C784.429,566.715,998.073,358.223,998.073,358.223z"/>
				
					<linearGradient id="SVGID_21_" gradientUnits="userSpaceOnUse" x1="1096.6187" y1="283.165" x2="818.4035" y2="-757.0068" gradientTransform="matrix(0.9878 -0.1556 -0.1556 -0.9878 -270.8474 447.3667)">
					<stop  offset="0" style="stop-color:#30EAFF"/>
					<stop  offset="1" style="stop-color:#194378"/>
				</linearGradient>
				<path fill="url(#SVGID_21_)" d="M987.456,337.32c-1.538-3.142-3.06-6.289-4.536-9.448
					c-17.627,17.207-543.446,530.36-562.427,548.88c3.907,0.875,7.813,1.7,11.682,2.472
					C574.504,740.305,941.871,381.836,987.456,337.32z"/>
				
					<linearGradient id="SVGID_22_" gradientUnits="userSpaceOnUse" x1="1060.1421" y1="292.9087" x2="781.9291" y2="-747.255" gradientTransform="matrix(0.9878 -0.1556 -0.1556 -0.9878 -270.8474 447.3667)">
					<stop  offset="0" style="stop-color:#30EAFF"/>
					<stop  offset="1" style="stop-color:#194378"/>
				</linearGradient>
				<path fill="url(#SVGID_22_)" d="M967.69,294.079c-1.393-3.292-2.779-6.563-4.124-9.869
					c-10.642,10.387-581.951,567.907-593.238,578.923c3.56,1.174,7.14,2.299,10.727,3.369
					C638.355,615.416,614.958,638.279,967.69,294.079z"/>
				
					<linearGradient id="SVGID_23_" gradientUnits="userSpaceOnUse" x1="1042.9849" y1="297.5107" x2="764.7687" y2="-742.6654" gradientTransform="matrix(0.9878 -0.1556 -0.1556 -0.9878 -270.8474 447.3667)">
					<stop  offset="0" style="stop-color:#30EAFF"/>
					<stop  offset="1" style="stop-color:#194378"/>
				</linearGradient>
				<path fill="url(#SVGID_23_)" d="M958.527,271.671c-1.319-3.341-2.618-6.691-3.87-10.064
					c-110.2,107.582-454.082,443.138-607.624,592.976c3.356,1.376,6.76,2.689,10.171,3.952
					C440.53,777.2,872.458,355.697,958.527,271.671z"/>
				
					<linearGradient id="SVGID_24_" gradientUnits="userSpaceOnUse" x1="1026.6782" y1="301.8672" x2="748.4623" y2="-738.3069" gradientTransform="matrix(0.9878 -0.1556 -0.1556 -0.9878 -270.8474 447.3667)">
					<stop  offset="0" style="stop-color:#30EAFF"/>
					<stop  offset="1" style="stop-color:#194378"/>
				</linearGradient>
				<path fill="url(#SVGID_24_)" d="M949.931,248.811c-1.253-3.419-2.47-6.85-3.663-10.289
					c-16.616,16.229-581.501,567.489-621.128,606.165c3.109,1.564,6.297,3.098,9.534,4.573
					C502.335,685.592,914.242,283.63,949.931,248.811z"/>
				
					<linearGradient id="SVGID_25_" gradientUnits="userSpaceOnUse" x1="1011.2905" y1="305.979" x2="733.077" y2="-734.1873" gradientTransform="matrix(0.9878 -0.1556 -0.1556 -0.9878 -270.8474 447.3667)">
					<stop  offset="0" style="stop-color:#30EAFF"/>
					<stop  offset="1" style="stop-color:#194378"/>
				</linearGradient>
				<path fill="url(#SVGID_25_)" d="M941.852,225.417c-1.167-3.498-2.299-7.009-3.407-10.527
					C635.471,510.559,565.583,578.707,304.867,833.208c2.853,1.805,5.771,3.586,8.766,5.289
					C314.246,837.897,941.233,226.023,941.852,225.417z"/>
				
					<linearGradient id="SVGID_26_" gradientUnits="userSpaceOnUse" x1="996.9897" y1="309.8018" x2="718.7722" y2="-730.3783" gradientTransform="matrix(0.9878 -0.1556 -0.1556 -0.9878 -270.8474 447.3667)">
					<stop  offset="0" style="stop-color:#30EAFF"/>
					<stop  offset="1" style="stop-color:#194378"/>
				</linearGradient>
				<path fill="url(#SVGID_26_)" d="M934.35,201.474c-1.072-3.602-2.12-7.19-3.132-10.821
					c-208.896,203.857-3.69,3.637-644.676,629.131c2.513,2.133,5.118,4.196,7.85,6.219
					C552.282,574.358,403.292,719.696,934.35,201.474z"/>
				
					<linearGradient id="SVGID_27_" gradientUnits="userSpaceOnUse" x1="984.0132" y1="313.2769" x2="705.7919" y2="-726.9175" gradientTransform="matrix(0.9878 -0.1556 -0.1556 -0.9878 -270.8474 447.3667)">
					<stop  offset="0" style="stop-color:#30EAFF"/>
					<stop  offset="1" style="stop-color:#194378"/>
				</linearGradient>
				<path fill="url(#SVGID_27_)" d="M927.457,176.917c-0.986-3.682-1.937-7.378-2.861-11.089
					c-121.581,118.625-146.855,143.33-653.92,638.156c2.09,2.527,4.334,4.972,6.689,7.35
					C365.016,725.784,836.48,265.684,927.457,176.917z"/>
				
					<linearGradient id="SVGID_28_" gradientUnits="userSpaceOnUse" x1="972.6987" y1="316.2969" x2="694.485" y2="-723.8693" gradientTransform="matrix(0.9878 -0.1556 -0.1556 -0.9878 -270.8474 447.3667)">
					<stop  offset="0" style="stop-color:#30EAFF"/>
					<stop  offset="1" style="stop-color:#194378"/>
				</linearGradient>
				<path fill="url(#SVGID_28_)" d="M921.184,151.744c-0.021-0.065-0.021-0.107-0.04-0.167c-0.862-3.663-1.715-7.355-2.592-11.11
					c-312.439,304.86-430.923,420.53-660.496,644.542c1.53,3.051,3.247,5.999,5.104,8.884
					C417.115,643.672,795.888,274.02,921.184,151.744z"/>
				
					<linearGradient id="SVGID_29_" gradientUnits="userSpaceOnUse" x1="963.4868" y1="318.7754" x2="685.2664" y2="-721.4143" gradientTransform="matrix(0.9878 -0.1556 -0.1556 -0.9878 -270.8474 447.3667)">
					<stop  offset="0" style="stop-color:#30EAFF"/>
					<stop  offset="1" style="stop-color:#194378"/>
				</linearGradient>
				<path fill="url(#SVGID_29_)" d="M915.139,126.384c-0.917-3.689-1.86-7.385-2.854-11.089
					c-147.778,144.199-517.445,504.96-662.22,646.264c0.692,3.823,1.653,7.498,2.852,11.069
					C355.782,672.229,812.168,226.863,915.139,126.384z"/>
				
					<linearGradient id="SVGID_30_" gradientUnits="userSpaceOnUse" x1="957.3481" y1="320.4077" x2="679.135" y2="-719.7546" gradientTransform="matrix(0.9878 -0.1556 -0.1556 -0.9878 -270.8474 447.3667)">
					<stop  offset="0" style="stop-color:#30EAFF"/>
					<stop  offset="1" style="stop-color:#194378"/>
				</linearGradient>
				<path fill="url(#SVGID_30_)" d="M908.488,101.592c-1.059-3.563-2.154-7.11-3.307-10.637
					c-2.57,2.508-640.91,625.42-654.77,638.953l0.008,0.023c-1.141,5.078-1.792,10.274-1.844,15.641
					C320.45,675.438,833.841,174.454,908.488,101.592z"/>
				
					<linearGradient id="SVGID_31_" gradientUnits="userSpaceOnUse" x1="1021.7983" y1="303.1602" x2="743.5838" y2="-737.0089" gradientTransform="matrix(0.9878 -0.1556 -0.1556 -0.9878 -270.8474 447.3667)">
					<stop  offset="0" style="stop-color:#30EAFF"/>
					<stop  offset="1" style="stop-color:#194378"/>
				</linearGradient>
				<path fill="url(#SVGID_31_)" d="M900.669,77.917c-1.262-3.389-2.59-6.734-3.965-10.001
					c-45.282,44.185-386.568,377.273-426.707,416.414c-0.763,1.807-28.341,37.971-57.036,69.537
					C463.228,504.822,854.08,123.383,900.669,77.917z"/>
				
					<linearGradient id="SVGID_32_" gradientUnits="userSpaceOnUse" x1="714.7749" y1="385.2627" x2="436.5663" y2="-654.8842" gradientTransform="matrix(0.9878 -0.1556 -0.1556 -0.9878 -270.8474 447.3667)">
					<stop  offset="0" style="stop-color:#30EAFF"/>
					<stop  offset="1" style="stop-color:#194378"/>
				</linearGradient>
				<path fill="url(#SVGID_32_)" d="M337.237,627.774c-16.876,14.535-31.596,25.862-46.771,40.504
					c-10.066,9.711-19.342,20.027-26.573,31.07C334.635,630.323,321.556,643.09,337.237,627.774z"/>
				
					<linearGradient id="SVGID_33_" gradientUnits="userSpaceOnUse" x1="1054.7456" y1="294.3525" x2="776.5306" y2="-745.8182" gradientTransform="matrix(0.9878 -0.1556 -0.1556 -0.9878 -270.8474 447.3667)">
					<stop  offset="0" style="stop-color:#30EAFF"/>
					<stop  offset="1" style="stop-color:#194378"/>
				</linearGradient>
				<path fill="url(#SVGID_33_)" d="M891.195,55.889c-1.533-3.118-3.155-6.184-4.866-9.137
					C654.188,273.316,777.044,153.397,526.937,397.49c-6.654,11.516-13.539,22.859-20.686,34.057
					C830.686,114.954,784.894,159.639,891.195,55.889z"/>
				
					<linearGradient id="SVGID_34_" gradientUnits="userSpaceOnUse" x1="1064.2944" y1="291.7998" x2="786.0777" y2="-748.3774" gradientTransform="matrix(0.9878 -0.1556 -0.1556 -0.9878 -270.8474 447.3667)">
					<stop  offset="0" style="stop-color:#30EAFF"/>
					<stop  offset="1" style="stop-color:#194378"/>
				</linearGradient>
				<path fill="url(#SVGID_34_)" d="M879.567,35.967c-1.901-2.764-3.914-5.438-6.014-8.008
					C657.292,239.027,679.376,217.448,560.809,333.171c-4.337,9.066-8.78,18.033-13.414,26.952
					C757.48,155.1,712.329,199.148,879.567,35.967z"/>
				
					<linearGradient id="SVGID_35_" gradientUnits="userSpaceOnUse" x1="1066.8188" y1="291.1182" x2="788.599" y2="-749.0706" gradientTransform="matrix(0.9878 -0.1556 -0.1556 -0.9878 -270.8474 447.3667)">
					<stop  offset="0" style="stop-color:#30EAFF"/>
					<stop  offset="1" style="stop-color:#194378"/>
				</linearGradient>
				<path fill="url(#SVGID_35_)" d="M865.114,18.79c-2.398-2.311-4.884-4.495-7.509-6.536
					c-38.668,37.73-231.152,225.551-272.794,266.212c-3.144,7.851-6.4,15.652-9.747,23.394
					C583.03,294.085,856.469,27.232,865.114,18.79z"/>
				
					<linearGradient id="SVGID_36_" gradientUnits="userSpaceOnUse" x1="1064.6323" y1="291.7085" x2="786.4177" y2="-748.4598" gradientTransform="matrix(0.9878 -0.1556 -0.1556 -0.9878 -270.8474 447.3667)">
					<stop  offset="0" style="stop-color:#30EAFF"/>
					<stop  offset="1" style="stop-color:#194378"/>
				</linearGradient>
				<path fill="url(#SVGID_36_)" d="M847.032,5.14c-3.03-1.713-6.176-3.268-9.457-4.627
					C698.246,136.483,606.135,226.359,602.974,229.44c-2.455,7.092-4.94,14.191-7.544,21.239
					C772.513,77.843,716.037,132.949,847.032,5.14z"/>
				
					<linearGradient id="SVGID_37_" gradientUnits="userSpaceOnUse" x1="1058.7534" y1="293.2744" x2="780.5334" y2="-746.9152" gradientTransform="matrix(0.9878 -0.1556 -0.1556 -0.9878 -270.8474 447.3667)">
					<stop  offset="0" style="stop-color:#30EAFF"/>
					<stop  offset="1" style="stop-color:#194378"/>
				</linearGradient>
				<path fill="url(#SVGID_37_)" d="M824.179-3.822c-4.032-0.965-8.104-1.622-12.213-1.955
					c-108.641,105.996-66.951,65.309-192.553,187.891l-0.015,0.024c-2.509,6.99-4.956,13.987-7.393,21.042
					C621.398,194.022,815.031,5.111,824.179-3.822z"/>
				
					<linearGradient id="SVGID_38_" gradientUnits="userSpaceOnUse" x1="1050.2397" y1="295.5449" x2="772.0278" y2="-744.6144" gradientTransform="matrix(0.9878 -0.1556 -0.1556 -0.9878 -270.8474 447.3667)">
					<stop  offset="0" style="stop-color:#30EAFF"/>
					<stop  offset="1" style="stop-color:#194378"/>
				</linearGradient>
				<path fill="url(#SVGID_38_)" d="M794.064-5.723c-5.729,0.464-11.424,1.43-17.02,2.754
					C687.516,84.389,719.009,53.653,639.755,131l-0.02,0.03c-3.542,7.77-6.847,15.663-10.015,23.636
					C630.465,153.938,691.353,94.521,794.064-5.723z"/>
				
					<linearGradient id="SVGID_39_" gradientUnits="userSpaceOnUse" x1="1039.7583" y1="298.3521" x2="761.5408" y2="-741.8282" gradientTransform="matrix(0.9878 -0.1556 -0.1556 -0.9878 -270.8474 447.3667)">
					<stop  offset="0" style="stop-color:#30EAFF"/>
					<stop  offset="1" style="stop-color:#194378"/>
				</linearGradient>
				<path fill="url(#SVGID_39_)" d="M749.154,6.815c-18.359,8.562-34.884,20.594-49.531,34.861
					c-16.34,15.938-30.319,34.641-41.959,54.43C705.543,49.391,685.297,69.15,749.154,6.815z"/>
			</g>
			
				<linearGradient id="SVGID_40_" gradientUnits="userSpaceOnUse" x1="218.6792" y1="286.4111" x2="1124.5409" y2="-1334.2058" gradientTransform="matrix(1 0 0 -1 -358 289.6426)">
				<stop  offset="0" style="stop-color:#30EAFF"/>
				<stop  offset="1" style="stop-color:#194378"/>
			</linearGradient>
			<path fill="url(#SVGID_40_)" d="M60.972,327.373c-2.522-0.116-5.33,0.34-7.968,1.117c-7.312,2.138-24.209,10.412-23.119,20.365
				c0.889,7.986,24.452,1.441,28.612-0.391c4.762-2.103,9.488-5.672,10.38-10.804C70.159,330.275,66.18,327.604,60.972,327.373z"/>
			<g>
				
					<linearGradient id="SVGID_41_" gradientUnits="userSpaceOnUse" x1="1488.9556" y1="342.2222" x2="1045.5679" y2="-378.2821" gradientTransform="matrix(1 0 0 -1 -358 289.6426)">
					<stop  offset="0" style="stop-color:#30EAFF"/>
					<stop  offset="1" style="stop-color:#194378"/>
				</linearGradient>
				<path fill="url(#SVGID_41_)" d="M1039.945,143.585c-0.965,0.452-2.145,0.343-3.021-0.386l-35.732-29.378
					c-1.226-1.006-1.4-2.814-0.389-4.036c0.998-1.224,2.803-1.399,4.023-0.392l35.732,29.379c1.222,1.005,1.402,2.814,0.395,4.038
					C1040.662,143.149,1040.324,143.41,1039.945,143.585z"/>
				
					<linearGradient id="SVGID_42_" gradientUnits="userSpaceOnUse" x1="1488.9644" y1="342.2378" x2="1045.533" y2="-378.3379" gradientTransform="matrix(1 0 0 -1 -358 289.6426)">
					<stop  offset="0" style="stop-color:#30EAFF"/>
					<stop  offset="1" style="stop-color:#194378"/>
				</linearGradient>
				<path fill="url(#SVGID_42_)" d="M1007.402,146.766c-0.972,0.449-2.15,0.341-3.035-0.384c-1.23-1.007-1.401-2.811-0.394-4.035
					l29.374-35.736c1.004-1.225,2.814-1.399,4.032-0.394c1.224,1.002,1.401,2.816,0.397,4.036l-29.374,35.737
					C1008.118,146.323,1007.779,146.587,1007.402,146.766z"/>
			</g>
			
				<linearGradient id="SVGID_43_" gradientUnits="userSpaceOnUse" x1="251.8354" y1="159.0684" x2="1016.3533" y2="-746.8862" gradientTransform="matrix(1 0 0 -1 -358 289.6426)">
				<stop  offset="0" style="stop-color:#30EAFF"/>
				<stop  offset="1" style="stop-color:#194378"/>
			</linearGradient>
			<path fill="url(#SVGID_43_)" d="M704.196,677.742c-49.238,47.514-108.57,75.701-178.062,99.002
				c-70.615,23.68-127.363,60.378-189.542,100.458c-118.949,76.655-266.584,134.38-375.189,35.762
				c-90.505-82.186-121.97-259.619-40.133-380.705c28.311-41.888,66.686-67.847,108.778-85.086
				c32.592-13.35,63.559-17.498,82.973-49.173c40.471-66.021,27.134-153.713,67.845-222.467
				c35.53-60.007,88.393-81.722,152.479-46.032c88.315,49.178,135.614,155.104,225.854,200.463
				c81.112,40.769,212.243,77.808,225.862,184.61c4.873,38.132-12.523,75.678-34.14,107.459
				C736.506,643.205,720.93,661.587,704.196,677.742z"/>
			
				<linearGradient id="SVGID_44_" gradientUnits="userSpaceOnUse" x1="411.9116" y1="-1137.4639" x2="639.3425" y2="-669.2246" gradientTransform="matrix(1 0 0 -1 -358 289.6426)">
				<stop  offset="0" style="stop-color:#30EAFF"/>
				<stop  offset="1" style="stop-color:#194378"/>
			</linearGradient>
			<path fill="url(#SVGID_44_)" d="M141.544,1209.04c10.049-1.153,20.455,2.694,27.291,11.103
				c5.153,6.349,7.521,14.332,6.677,22.463c-0.844,8.126-4.805,15.443-11.153,20.606c-13.106,10.632-32.42,8.632-43.058-4.479
				c-5.155-6.346-7.531-14.322-6.686-22.448c0.844-8.143,4.81-15.454,11.154-20.615
				C130.455,1211.867,135.945,1209.677,141.544,1209.04z M147.931,1264.137c4.548-0.525,9.01-2.294,12.814-5.385
				c5.161-4.188,8.377-10.14,9.067-16.74c0.681-6.612-1.239-13.089-5.43-18.251c-8.646-10.655-24.345-12.284-34.999-3.639
				c-5.159,4.19-8.373,10.14-9.062,16.751c-0.688,6.603,1.243,13.082,5.433,18.242c0,0,0,0,0,0.005
				C131.307,1261.958,139.762,1265.076,147.931,1264.137z"/>
			
				<linearGradient id="SVGID_45_" gradientUnits="userSpaceOnUse" x1="292.9526" y1="-1079.624" x2="520.3527" y2="-611.4465" gradientTransform="matrix(1 0 0 -1 -358 289.6426)">
				<stop  offset="0" style="stop-color:#30EAFF"/>
				<stop  offset="1" style="stop-color:#194378"/>
			</linearGradient>
			<path fill="url(#SVGID_45_)" d="M105.051,1053.954c0.369,0.229,0.699,0.559,0.936,0.948c0.528,0.877,0.549,1.967,0.057,2.864
				l-16.184,29.392c-0.494,0.897-1.429,1.463-2.458,1.476c-1.022,0.022-1.979-0.505-2.507-1.376l-17.359-28.714
				c-0.532-0.872-0.552-1.967-0.062-2.865c0.497-0.892,1.432-1.463,2.453-1.479l33.545-0.683
				C104.037,1053.504,104.588,1053.663,105.051,1053.954z M87.233,1080.038l11.396-20.685l-23.614,0.48L87.233,1080.038z"/>
			<g>
				
					<linearGradient id="SVGID_46_" gradientUnits="userSpaceOnUse" x1="1791.0952" y1="156.3042" x2="1347.6892" y2="-564.2293" gradientTransform="matrix(1 0 0 -1 -358 289.6426)">
					<stop  offset="0" style="stop-color:#30EAFF"/>
					<stop  offset="1" style="stop-color:#194378"/>
				</linearGradient>
				<path fill="url(#SVGID_46_)" d="M1238.419,437.449c1.718,0.077,3.036,1.527,2.953,3.245l-0.933,20.252
					c-0.071,1.712-1.528,3.033-3.242,2.959c-1.699-0.083-3.027-1.531-2.956-3.248l0.938-20.252
					C1235.256,438.694,1236.708,437.372,1238.419,437.449z"/>
				
					<linearGradient id="SVGID_47_" gradientUnits="userSpaceOnUse" x1="1768.4351" y1="170.2803" x2="1324.9812" y2="-550.3323" gradientTransform="matrix(1 0 0 -1 -358 289.6426)">
					<stop  offset="0" style="stop-color:#30EAFF"/>
					<stop  offset="1" style="stop-color:#194378"/>
				</linearGradient>
				<path fill="url(#SVGID_47_)" d="M1240.963,382.039c1.715,0.077,3.036,1.529,2.964,3.242l-0.988,21.274
					c-0.07,1.711-1.528,3.037-3.237,2.958c-1.704-0.081-3.031-1.529-2.958-3.238l0.986-21.282
					C1237.808,383.281,1239.257,381.957,1240.963,382.039z"/>
				
					<linearGradient id="SVGID_48_" gradientUnits="userSpaceOnUse" x1="1759.6479" y1="175.4531" x2="1316.4474" y2="-544.7466" gradientTransform="matrix(1 0 0 -1 -358 289.6426)">
					<stop  offset="0" style="stop-color:#30EAFF"/>
					<stop  offset="1" style="stop-color:#194378"/>
				</linearGradient>
				<path fill="url(#SVGID_48_)" d="M1201.396,418.134l22.265,1.021c1.711,0.078,3.031,1.531,2.956,3.243
					c-0.078,1.71-1.528,3.031-3.238,2.956l-22.263-1.025c-1.714-0.077-3.039-1.53-2.962-3.242
					C1198.234,419.371,1199.686,418.049,1201.396,418.134z"/>
				
					<linearGradient id="SVGID_49_" gradientUnits="userSpaceOnUse" x1="1799.9282" y1="150.8496" x2="1356.5319" y2="-569.6691" gradientTransform="matrix(1 0 0 -1 -358 289.6426)">
					<stop  offset="0" style="stop-color:#30EAFF"/>
					<stop  offset="1" style="stop-color:#194378"/>
				</linearGradient>
				<path fill="url(#SVGID_49_)" d="M1255.785,420.634l21.281,0.977c1.701,0.081,3.03,1.529,2.956,3.244
					c-0.079,1.706-1.537,3.032-3.239,2.957l-21.28-0.982c-1.721-0.076-3.039-1.527-2.967-3.237
					C1252.625,421.88,1254.064,420.553,1255.785,420.634z"/>
				
					<linearGradient id="SVGID_50_" gradientUnits="userSpaceOnUse" x1="1757.2778" y1="176.8975" x2="1314.1049" y2="-543.2586" gradientTransform="matrix(1 0 0 -1 -358 289.6426)">
					<stop  offset="0" style="stop-color:#30EAFF"/>
					<stop  offset="1" style="stop-color:#194378"/>
				</linearGradient>
				<path fill="url(#SVGID_50_)" d="M1213.71,391.887c0.791,0.036,1.571,0.373,2.152,1.009l14.354,15.737
					c1.15,1.263,1.07,3.231-0.198,4.382c-1.273,1.154-3.234,1.063-4.389-0.197l-14.357-15.736c-1.151-1.264-1.054-3.231,0.205-4.385
					C1212.105,392.115,1212.918,391.85,1213.71,391.887z"/>
				
					<linearGradient id="SVGID_51_" gradientUnits="userSpaceOnUse" x1="1802.3501" y1="149.3643" x2="1358.9481" y2="-571.1633" gradientTransform="matrix(1 0 0 -1 -358 289.6426)">
					<stop  offset="0" style="stop-color:#30EAFF"/>
					<stop  offset="1" style="stop-color:#194378"/>
				</linearGradient>
				<path fill="url(#SVGID_51_)" d="M1251.087,432.879c0.79,0.034,1.574,0.376,2.146,1.005l13.661,14.977
					c1.162,1.263,1.066,3.229-0.195,4.381c-1.266,1.159-3.23,1.066-4.377-0.199l-13.671-14.972
					c-1.151-1.269-1.064-3.231,0.197-4.388C1249.487,433.103,1250.3,432.837,1251.087,432.879z"/>
				
					<linearGradient id="SVGID_52_" gradientUnits="userSpaceOnUse" x1="1786.0894" y1="159.46" x2="1342.5858" y2="-561.233" gradientTransform="matrix(1 0 0 -1 -358 289.6426)">
					<stop  offset="0" style="stop-color:#30EAFF"/>
					<stop  offset="1" style="stop-color:#194378"/>
				</linearGradient>
				<path fill="url(#SVGID_52_)" d="M1267.207,394.353c0.798,0.033,1.573,0.376,2.152,1.008c1.161,1.269,1.067,3.226-0.195,4.382
					l-15.743,14.354c-1.26,1.161-3.227,1.064-4.382-0.204c-1.153-1.26-1.061-3.227,0.199-4.386l15.743-14.352
					C1265.611,394.579,1266.417,394.314,1267.207,394.353z"/>
				
					<linearGradient id="SVGID_53_" gradientUnits="userSpaceOnUse" x1="1773.3081" y1="167.3652" x2="1329.7815" y2="-553.3661" gradientTransform="matrix(1 0 0 -1 -358 289.6426)">
					<stop  offset="0" style="stop-color:#30EAFF"/>
					<stop  offset="1" style="stop-color:#194378"/>
				</linearGradient>
				<path fill="url(#SVGID_53_)" d="M1226.989,431.035c0.788,0.038,1.574,0.374,2.151,1.012c1.151,1.261,1.065,3.232-0.201,4.382
					l-15.738,14.348c-1.26,1.159-3.224,1.065-4.384-0.201c-1.152-1.267-1.06-3.229,0.203-4.381l15.735-14.355
					C1225.387,431.265,1226.199,430.997,1226.989,431.035z"/>
			</g>
			
				<linearGradient id="SVGID_54_" gradientUnits="userSpaceOnUse" x1="1660.4263" y1="236.751" x2="1216.9788" y2="-483.8508" gradientTransform="matrix(1 0 0 -1 -358 289.6426)">
				<stop  offset="0" style="stop-color:#30EAFF"/>
				<stop  offset="1" style="stop-color:#194378"/>
			</linearGradient>
			<path fill="url(#SVGID_54_)" d="M1109.076,391.509c-8.05,0-15.938-3.979-20.585-11.248c-3.497-5.49-4.66-12.013-3.255-18.373
				c1.409-6.356,5.208-11.785,10.692-15.29c11.329-7.231,26.429-3.896,33.662,7.433c3.497,5.487,4.651,12.008,3.245,18.366
				c-1.398,6.357-5.188,11.789-10.676,15.293C1118.102,390.276,1113.564,391.509,1109.076,391.509z M1109.006,347.34
				c-3.649,0-7.329,1.004-10.627,3.102c-4.468,2.851-7.539,7.263-8.684,12.431c-1.138,5.167-0.194,10.47,2.647,14.925
				c5.875,9.213,18.147,11.916,27.359,6.044c4.457-2.849,7.539-7.263,8.678-12.43c1.144-5.166,0.2-10.466-2.647-14.923l0,0
				C1121.961,350.573,1115.55,347.34,1109.006,347.34z"/>
			<g>
				
					<linearGradient id="SVGID_55_" gradientUnits="userSpaceOnUse" x1="557.4585" y1="-1208.0479" x2="784.8171" y2="-739.9563" gradientTransform="matrix(1 0 0 -1 -358 289.6426)">
					<stop  offset="0" style="stop-color:#30EAFF"/>
					<stop  offset="1" style="stop-color:#194378"/>
				</linearGradient>
				<path fill="url(#SVGID_55_)" d="M331.87,1227.377c-0.772-0.224-1.207-1.036-0.981-1.813l2.718-9.103
					c0.225-0.766,1.029-1.193,1.806-0.97c0.771,0.232,1.206,1.037,0.974,1.805l-2.708,9.104
					C333.453,1227.166,332.631,1227.61,331.87,1227.377z"/>
				
					<linearGradient id="SVGID_56_" gradientUnits="userSpaceOnUse" x1="561.2104" y1="-1209.8779" x2="788.566" y2="-741.792" gradientTransform="matrix(1 0 0 -1 -358 289.6426)">
					<stop  offset="0" style="stop-color:#30EAFF"/>
					<stop  offset="1" style="stop-color:#194378"/>
				</linearGradient>
				<path fill="url(#SVGID_56_)" d="M324.449,1252.289c-0.772-0.225-1.204-1.039-0.973-1.813l2.845-9.551
					c0.229-0.77,1.034-1.212,1.809-0.985c0.771,0.229,1.208,1.036,0.98,1.803l-2.85,9.567
					C326.032,1252.084,325.219,1252.522,324.449,1252.289z"/>
				
					<linearGradient id="SVGID_57_" gradientUnits="userSpaceOnUse" x1="570.2964" y1="-1214.7168" x2="797.9493" y2="-746.0198" gradientTransform="matrix(1 0 0 -1 -358 289.6426)">
					<stop  offset="0" style="stop-color:#30EAFF"/>
					<stop  offset="1" style="stop-color:#194378"/>
				</linearGradient>
				<path fill="url(#SVGID_57_)" d="M346.524,1240.345l-10.006-2.973c-0.777-0.233-1.209-1.047-0.982-1.82
					c0.229-0.759,1.039-1.201,1.806-0.973l10.011,2.976c0.775,0.229,1.208,1.043,0.98,1.81
					C348.1,1240.137,347.293,1240.578,346.524,1240.345z"/>
				
					<linearGradient id="SVGID_58_" gradientUnits="userSpaceOnUse" x1="548.0464" y1="-1203.4248" x2="775.3605" y2="-735.4237" gradientTransform="matrix(1 0 0 -1 -358 289.6426)">
					<stop  offset="0" style="stop-color:#30EAFF"/>
					<stop  offset="1" style="stop-color:#194378"/>
				</linearGradient>
				<path fill="url(#SVGID_58_)" d="M322.071,1233.062l-9.565-2.85c-0.772-0.225-1.205-1.03-0.98-1.796
					c0.224-0.777,1.037-1.214,1.807-0.996l9.569,2.856c0.771,0.224,1.204,1.043,0.978,1.805
					C323.656,1232.856,322.843,1233.301,322.071,1233.062z"/>
				
					<linearGradient id="SVGID_59_" gradientUnits="userSpaceOnUse" x1="568.5659" y1="-1213.7183" x2="796.1129" y2="-745.2394" gradientTransform="matrix(1 0 0 -1 -358 289.6426)">
					<stop  offset="0" style="stop-color:#30EAFF"/>
					<stop  offset="1" style="stop-color:#194378"/>
				</linearGradient>
				<path fill="url(#SVGID_59_)" d="M337.96,1250.89c-0.357-0.109-0.675-0.349-0.862-0.695l-4.75-8.778
					c-0.382-0.703-0.12-1.587,0.583-1.972c0.708-0.385,1.592-0.115,1.977,0.587l4.748,8.778c0.383,0.694,0.121,1.587-0.587,1.965
					C338.713,1250.959,338.321,1250.989,337.96,1250.89z"/>
				
					<linearGradient id="SVGID_60_" gradientUnits="userSpaceOnUse" x1="549.7905" y1="-1204.4766" x2="777.2574" y2="-736.1613" gradientTransform="matrix(1 0 0 -1 -358 289.6426)">
					<stop  offset="0" style="stop-color:#30EAFF"/>
					<stop  offset="1" style="stop-color:#194378"/>
				</linearGradient>
				<path fill="url(#SVGID_60_)" d="M325.588,1228.03c-0.358-0.102-0.67-0.349-0.858-0.698l-4.526-8.356
					c-0.381-0.699-0.119-1.597,0.586-1.971c0.707-0.384,1.585-0.115,1.969,0.588l4.519,8.347c0.383,0.703,0.118,1.596-0.588,1.967
					C326.341,1228.102,325.949,1228.139,325.588,1228.03z"/>
				
					<linearGradient id="SVGID_61_" gradientUnits="userSpaceOnUse" x1="552.5337" y1="-1205.9829" x2="780.1168" y2="-737.4296" gradientTransform="matrix(1 0 0 -1 -358 289.6426)">
					<stop  offset="0" style="stop-color:#30EAFF"/>
					<stop  offset="1" style="stop-color:#194378"/>
				</linearGradient>
				<path fill="url(#SVGID_61_)" d="M313.907,1243.729c-0.359-0.101-0.676-0.347-0.868-0.704c-0.379-0.694-0.113-1.578,0.592-1.957
					l8.773-4.755c0.703-0.382,1.591-0.114,1.975,0.591c0.378,0.695,0.121,1.584-0.583,1.961l-8.779,4.751
					C314.659,1243.802,314.267,1243.837,313.907,1243.729z"/>
				
					<linearGradient id="SVGID_62_" gradientUnits="userSpaceOnUse" x1="565.9312" y1="-1212.4414" x2="793.4761" y2="-743.9664" gradientTransform="matrix(1 0 0 -1 -358 289.6426)">
					<stop  offset="0" style="stop-color:#30EAFF"/>
					<stop  offset="1" style="stop-color:#194378"/>
				</linearGradient>
				<path fill="url(#SVGID_62_)" d="M336.344,1231.588c-0.364-0.101-0.674-0.35-0.865-0.697c-0.384-0.702-0.122-1.594,0.591-1.968
					l8.771-4.75c0.699-0.385,1.583-0.114,1.969,0.588c0.38,0.703,0.114,1.587-0.585,1.965l-8.777,4.746
					C337.098,1231.66,336.701,1231.689,336.344,1231.588z"/>
			</g>
		</g>
	</g>
</g>
</svg>
