<?xml version="1.0" encoding="utf-8"?>
<!-- Generator: Adobe Illustrator 16.0.0, SVG Export Plug-In . SVG Version: 6.00 Build 0)  -->
<!DOCTYPE svg PUBLIC "-//W3C//DTD SVG 1.1//EN" "http://www.w3.org/Graphics/SVG/1.1/DTD/svg11.dtd">
<svg version="1.1" id="Layer_1" xmlns="http://www.w3.org/2000/svg" xmlns:xlink="http://www.w3.org/1999/xlink" x="0px" y="0px"
	 width="1109.5px" height="540px" viewBox="0 0 1109.5 540" enable-background="new 0 0 1109.5 540" xml:space="preserve">
<g id="Layer_2_1_">
	<g id="Layer_2">
		<rect fill="#FFFFFF" width="1109.5" height="540"/>
	</g>
</g>
<g id="Layer_1_2_">
	<g id="Layer_1_1_">
		<g>
			
				<linearGradient id="SVGID_1_" gradientUnits="userSpaceOnUse" x1="722.0586" y1="742.5791" x2="463.5125" y2="447.9807" gradientTransform="matrix(1 0 0 1 -212 -251)">
				<stop  offset="0" style="stop-color:#30EAFF"/>
				<stop  offset="1" style="stop-color:#194378"/>
			</linearGradient>
			<path fill="url(#SVGID_1_)" d="M366.919,396.315c4.7,6.15,11.188,10.06,19.489,9.491c7.42-0.508,14.057-5.081,18.795-10.787
				c2.218-2.672,4.144-5.705,4.813-9.109c0.6-3.055,0.155-6.207,0.17-9.321c0.027-6.168,1.916-12.31,5.356-17.429
				c2.74-4.076,6.394-7.46,9.29-11.428c2.896-3.965,5.059-8.875,4.142-13.701c-0.66-3.471-2.86-6.504-5.564-8.788
				c-6.522-5.509-15.84-6.899-24.205-5.209c-8.364,1.69-15.917,6.132-22.758,11.211c-6.602,4.901-12.894,10.716-16.103,18.276
				C355.169,361.716,357.293,383.717,366.919,396.315z"/>
			
				<linearGradient id="SVGID_2_" gradientUnits="userSpaceOnUse" x1="648.9531" y1="806.7393" x2="390.404" y2="512.1373" gradientTransform="matrix(1 0 0 1 -212 -251)">
				<stop  offset="0" style="stop-color:#30EAFF"/>
				<stop  offset="1" style="stop-color:#194378"/>
			</linearGradient>
			<path fill="url(#SVGID_2_)" d="M258.844,242.535c-4.643-0.458-9.34-0.422-14.057,0.17c-32.158,4.026-73.313,17.891-95.536,42.355
				c-6.81,7.498-11.666,16.531-13.757,26.467c-4.736,22.508-5.049,43.637,14.326,59.416c12.553,10.223,27.915,11.312,41.553,18.771
				c25.873,14.152,34.037,49.803,66.316,54.082c23.669,3.139,45.845-12.249,60.979-29.078c15.27-16.979,25.393-39.077,27.043-61.944
				c0.4-5.545,0.321-11.123-0.268-16.652C341.021,294.605,302.386,246.829,258.844,242.535z"/>
			
				<linearGradient id="SVGID_3_" gradientUnits="userSpaceOnUse" x1="282.2686" y1="328.4238" x2="526.3874" y2="765.1603" gradientTransform="matrix(1 0 0 1 -212 -251)">
				<stop  offset="0" style="stop-color:#30EAFF"/>
				<stop  offset="1" style="stop-color:#194378"/>
			</linearGradient>
			<path fill="url(#SVGID_3_)" d="M116.704,129.248c0.087,0.275,0.165,0.56,0.23,0.854c1.534,6.883-4.007,15.412-7.037,21.222
				c-1.224,2.35-2.647,4.718-4.857,6.177c-2.211,1.46-5.41,1.738-7.386-0.026c-1.147-1.025-1.71-2.547-2.083-4.039
				c-1.331-5.333-0.739-10.979,0.583-16.314c1.047-4.224,2.673-8.527,5.958-11.382C107.037,121.463,114.697,122.958,116.704,129.248
				z"/>
			<g>
				
					<linearGradient id="SVGID_4_" gradientUnits="userSpaceOnUse" x1="480.312" y1="263.8955" x2="405.3409" y2="544.1927" gradientTransform="matrix(0.9878 -0.1556 0.1556 0.9878 -217.7957 -104.027)">
					<stop  offset="0" style="stop-color:#30EAFF"/>
					<stop  offset="1" style="stop-color:#194378"/>
				</linearGradient>
				<path fill="url(#SVGID_4_)" d="M359.191,168.39c-0.403-0.863-0.788-1.728-1.174-2.597
					c-16.443,16.056-111.51,108.826-155.784,152.037c1.01,0.271,2.022,0.531,3.03,0.781
					C207.415,316.511,357.041,170.489,359.191,168.39z"/>
				
					<linearGradient id="SVGID_5_" gradientUnits="userSpaceOnUse" x1="589.9199" y1="293.2021" x2="514.9475" y2="573.5035" gradientTransform="matrix(0.9878 -0.1556 0.1556 0.9878 -217.7957 -104.027)">
					<stop  offset="0" style="stop-color:#30EAFF"/>
					<stop  offset="1" style="stop-color:#194378"/>
				</linearGradient>
				<path fill="url(#SVGID_5_)" d="M376.054,291.495c6.52-4.22,12.636-8.894,18.225-14.058l0.015-0.014l3.437-3.354l0.062-0.062
					c3.485-3.62,6.599-7.664,8.67-12.193C403.046,265.151,380.97,286.698,376.054,291.495z"/>
				
					<linearGradient id="SVGID_6_" gradientUnits="userSpaceOnUse" x1="581.6943" y1="290.998" x2="506.7203" y2="571.3057" gradientTransform="matrix(0.9878 -0.1556 0.1556 0.9878 -217.7957 -104.027)">
					<stop  offset="0" style="stop-color:#30EAFF"/>
					<stop  offset="1" style="stop-color:#194378"/>
				</linearGradient>
				<path fill="url(#SVGID_6_)" d="M356.201,302.439c2.644-1.23,5.244-2.525,7.802-3.879l0.006-0.002
					c19.566-19.1,9.75-9.518,44.647-43.578c0.012-0.049,0.02-0.09,0.027-0.136c0.255-1.423,0.405-2.774,0.454-4.067
					C371.427,287.577,383.175,276.111,356.201,302.439z"/>
				
					<linearGradient id="SVGID_7_" gradientUnits="userSpaceOnUse" x1="574.3945" y1="289.0508" x2="499.4225" y2="569.3506" gradientTransform="matrix(0.9878 -0.1556 0.1556 0.9878 -217.7957 -104.027)">
					<stop  offset="0" style="stop-color:#30EAFF"/>
					<stop  offset="1" style="stop-color:#194378"/>
				</linearGradient>
				<path fill="url(#SVGID_7_)" d="M408.9,246.313l-0.002-0.005c-0.151-1.063-0.382-2.082-0.677-3.07
					c-41.519,40.514-27.133,26.475-67.107,65.487c2.136-0.785,4.254-1.602,6.354-2.461l0.005-0.003
					C382.329,272.244,368.278,285.956,408.9,246.313z"/>
				
					<linearGradient id="SVGID_8_" gradientUnits="userSpaceOnUse" x1="567.0352" y1="287.084" x2="492.0636" y2="567.3822" gradientTransform="matrix(0.9878 -0.1556 0.1556 0.9878 -217.7957 -104.027)">
					<stop  offset="0" style="stop-color:#30EAFF"/>
					<stop  offset="1" style="stop-color:#194378"/>
				</linearGradient>
				<path fill="url(#SVGID_8_)" d="M406.909,239.831c-0.394-0.841-0.835-1.658-1.314-2.46
					c-44.512,43.439-27.732,27.064-77.587,75.727c1.884-0.566,3.76-1.149,5.627-1.762
					C337.024,308.027,403.952,242.715,406.909,239.831z"/>
				
					<linearGradient id="SVGID_9_" gradientUnits="userSpaceOnUse" x1="559.6494" y1="285.1074" x2="484.6769" y2="565.4094" gradientTransform="matrix(0.9878 -0.1556 0.1556 0.9878 -217.7957 -104.027)">
					<stop  offset="0" style="stop-color:#30EAFF"/>
					<stop  offset="1" style="stop-color:#194378"/>
				</linearGradient>
				<path fill="url(#SVGID_9_)" d="M403.702,234.528c-0.52-0.716-1.068-1.422-1.643-2.13c-16.504,16.104-69.113,67.44-86.001,83.922
					c0.262-0.063,4.937-1.219,5.188-1.317C321.653,314.604,403.285,234.935,403.702,234.528z"/>
				
					<linearGradient id="SVGID_10_" gradientUnits="userSpaceOnUse" x1="552.3594" y1="283.1621" x2="477.389" y2="563.4559" gradientTransform="matrix(0.9878 -0.1556 0.1556 0.9878 -217.7957 -104.027)">
					<stop  offset="0" style="stop-color:#30EAFF"/>
					<stop  offset="1" style="stop-color:#194378"/>
				</linearGradient>
				<path fill="url(#SVGID_10_)" d="M399.894,229.816c-0.575-0.664-1.17-1.332-1.773-2.003
					c-32.031,31.26-53.245,51.964-93.187,90.944c1.618-0.319,3.238-0.649,4.85-0.997
					C321.716,306.109,307.098,320.378,399.894,229.816z"/>
				
					<linearGradient id="SVGID_11_" gradientUnits="userSpaceOnUse" x1="545.2388" y1="281.2539" x2="470.2668" y2="561.5538" gradientTransform="matrix(0.9878 -0.1556 0.1556 0.9878 -217.7957 -104.027)">
					<stop  offset="0" style="stop-color:#30EAFF"/>
					<stop  offset="1" style="stop-color:#194378"/>
				</linearGradient>
				<path fill="url(#SVGID_11_)" d="M395.885,225.294c-0.592-0.658-1.182-1.327-1.769-2.006
					c-33.311,32.505-66.781,65.166-99.714,97.306c1.532-0.234,3.058-0.484,4.592-0.744
					C378.349,242.41,331.87,287.771,395.885,225.294z"/>
				
					<linearGradient id="SVGID_12_" gradientUnits="userSpaceOnUse" x1="538.3691" y1="279.4199" x2="463.3983" y2="559.7158" gradientTransform="matrix(0.9878 -0.1556 0.1556 0.9878 -217.7957 -104.027)">
					<stop  offset="0" style="stop-color:#30EAFF"/>
					<stop  offset="1" style="stop-color:#194378"/>
				</linearGradient>
				<path fill="url(#SVGID_12_)" d="M391.947,220.713c-0.573-0.689-1.141-1.381-1.7-2.083
					c-75.589,73.777-30.175,29.449-105.866,103.319c1.464-0.17,2.922-0.352,4.388-0.547l0.006-0.002
					C356.924,254.883,353.191,258.529,391.947,220.713z"/>
				
					<linearGradient id="SVGID_13_" gradientUnits="userSpaceOnUse" x1="531.7358" y1="277.6475" x2="456.765" y2="557.9434" gradientTransform="matrix(0.9878 -0.1556 0.1556 0.9878 -217.7957 -104.027)">
					<stop  offset="0" style="stop-color:#30EAFF"/>
					<stop  offset="1" style="stop-color:#194378"/>
				</linearGradient>
				<path fill="url(#SVGID_13_)" d="M388.147,215.991c-0.553-0.703-1.104-1.415-1.648-2.127
					c-45.358,44.263-57.122,55.742-111.731,109.04c1.4-0.119,2.803-0.238,4.21-0.375h0.006
					C327.58,275.098,350.25,252.975,388.147,215.991z"/>
				
					<linearGradient id="SVGID_14_" gradientUnits="userSpaceOnUse" x1="525.3066" y1="275.9297" x2="450.3361" y2="556.2245" gradientTransform="matrix(0.9878 -0.1556 0.1556 0.9878 -217.7957 -104.027)">
					<stop  offset="0" style="stop-color:#30EAFF"/>
					<stop  offset="1" style="stop-color:#194378"/>
				</linearGradient>
				<path fill="url(#SVGID_14_)" d="M384.462,211.16c-0.534-0.717-1.07-1.441-1.591-2.176
					c-102.363,99.887-64.457,62.903-117.351,114.511c1.349-0.062,2.705-0.138,4.064-0.224
					C353.091,241.777,306.209,287.523,384.462,211.16z"/>
				
					<linearGradient id="SVGID_15_" gradientUnits="userSpaceOnUse" x1="519.0645" y1="274.2568" x2="444.0932" y2="554.554" gradientTransform="matrix(0.9878 -0.1556 0.1556 0.9878 -217.7957 -104.027)">
					<stop  offset="0" style="stop-color:#30EAFF"/>
					<stop  offset="1" style="stop-color:#194378"/>
				</linearGradient>
				<path fill="url(#SVGID_15_)" d="M380.887,206.21c-0.522-0.735-1.034-1.475-1.547-2.219c-3.254,3.176-79.359,77.44-82.926,80.923
					l-39.825,38.865c1.303-0.019,2.607-0.051,3.915-0.09C297.333,287.757,299.087,286.049,380.887,206.21z"/>
				
					<linearGradient id="SVGID_16_" gradientUnits="userSpaceOnUse" x1="512.9971" y1="272.6367" x2="438.0267" y2="552.9305" gradientTransform="matrix(0.9878 -0.1556 0.1556 0.9878 -217.7957 -104.027)">
					<stop  offset="0" style="stop-color:#30EAFF"/>
					<stop  offset="1" style="stop-color:#194378"/>
				</linearGradient>
				<path fill="url(#SVGID_16_)" d="M377.43,201.165c-0.5-0.757-1-1.519-1.496-2.283c-0.138,0.135-127.847,124.765-127.985,124.899
					c1.263,0.021,2.528,0.031,3.794,0.033C327.911,249.496,272.436,303.626,377.43,201.165z"/>
				
					<linearGradient id="SVGID_17_" gradientUnits="userSpaceOnUse" x1="507.1011" y1="271.0605" x2="432.1301" y2="551.3568" gradientTransform="matrix(0.9878 -0.1556 0.1556 0.9878 -217.7957 -104.027)">
					<stop  offset="0" style="stop-color:#30EAFF"/>
					<stop  offset="1" style="stop-color:#194378"/>
				</linearGradient>
				<path fill="url(#SVGID_17_)" d="M374.088,195.998l-0.002-0.006c-0.487-0.773-0.967-1.544-1.437-2.324
					c-12.749,12.44-120.31,117.4-133.059,129.848c1.215,0.06,2.438,0.109,3.672,0.151
					C243.263,323.667,374.084,196.002,374.088,195.998z"/>
				
					<linearGradient id="SVGID_18_" gradientUnits="userSpaceOnUse" x1="501.3813" y1="269.5303" x2="426.4106" y2="549.8258" gradientTransform="matrix(0.9878 -0.1556 0.1556 0.9878 -217.7957 -104.027)">
					<stop  offset="0" style="stop-color:#30EAFF"/>
					<stop  offset="1" style="stop-color:#194378"/>
				</linearGradient>
				<path fill="url(#SVGID_18_)" d="M370.864,190.715c-0.469-0.792-0.933-1.588-1.392-2.385
					c-0.165,0.16-137.786,134.475-137.95,134.635c1.238,0.115,2.417,0.215,3.532,0.289
					C259.035,299.841,313.505,246.694,370.864,190.715z"/>
				
					<linearGradient id="SVGID_19_" gradientUnits="userSpaceOnUse" x1="495.8477" y1="268.0508" x2="420.8771" y2="548.3453" gradientTransform="matrix(0.9878 -0.1556 0.1556 0.9878 -217.7957 -104.027)">
					<stop  offset="0" style="stop-color:#30EAFF"/>
					<stop  offset="1" style="stop-color:#194378"/>
				</linearGradient>
				<path fill="url(#SVGID_19_)" d="M367.764,185.315c-0.456-0.805-0.9-1.614-1.342-2.431
					c-2.153,2.087-122.722,119.757-142.657,139.207c1.166,0.154,2.299,0.298,3.402,0.421
					C259.888,290.585,265.951,284.654,367.764,185.315z"/>
				
					<linearGradient id="SVGID_20_" gradientUnits="userSpaceOnUse" x1="490.4971" y1="266.6196" x2="415.5263" y2="546.9152" gradientTransform="matrix(0.9878 -0.1556 0.1556 0.9878 -217.7957 -104.027)">
					<stop  offset="0" style="stop-color:#30EAFF"/>
					<stop  offset="1" style="stop-color:#194378"/>
				</linearGradient>
				<path fill="url(#SVGID_20_)" d="M364.776,179.79c-0.438-0.824-0.865-1.653-1.28-2.486
					c-0.394,0.385-123.278,120.305-147.176,143.633c1.104,0.191,2.198,0.375,3.271,0.549
					C307.207,235.972,364.776,179.79,364.776,179.79z"/>
				
					<linearGradient id="SVGID_21_" gradientUnits="userSpaceOnUse" x1="485.3154" y1="265.2334" x2="410.3444" y2="545.53" gradientTransform="matrix(0.9878 -0.1556 0.1556 0.9878 -217.7957 -104.027)">
					<stop  offset="0" style="stop-color:#30EAFF"/>
					<stop  offset="1" style="stop-color:#194378"/>
				</linearGradient>
				<path fill="url(#SVGID_21_)" d="M361.916,174.157c-0.415-0.846-0.824-1.694-1.224-2.546
					c-4.749,4.637-146.441,142.917-151.556,147.907c1.053,0.237,2.105,0.457,3.148,0.666
					C250.638,282.749,349.633,186.153,361.916,174.157z"/>
				
					<linearGradient id="SVGID_22_" gradientUnits="userSpaceOnUse" x1="475.4858" y1="262.6064" x2="400.5156" y2="542.9001" gradientTransform="matrix(0.9878 -0.1556 0.1556 0.9878 -217.7957 -104.027)">
					<stop  offset="0" style="stop-color:#30EAFF"/>
					<stop  offset="1" style="stop-color:#194378"/>
				</linearGradient>
				<path fill="url(#SVGID_22_)" d="M356.589,162.505c-0.375-0.887-0.747-1.769-1.111-2.66
					c-2.867,2.799-156.818,153.034-159.86,156.002c0.959,0.317,1.925,0.62,2.892,0.909
					C267.843,249.095,261.539,255.256,356.589,162.505z"/>
				
					<linearGradient id="SVGID_23_" gradientUnits="userSpaceOnUse" x1="470.8618" y1="261.3691" x2="395.8915" y2="541.6631" gradientTransform="matrix(0.9878 -0.1556 0.1556 0.9878 -217.7957 -104.027)">
					<stop  offset="0" style="stop-color:#30EAFF"/>
					<stop  offset="1" style="stop-color:#194378"/>
				</linearGradient>
				<path fill="url(#SVGID_23_)" d="M354.121,156.467c-0.355-0.901-0.705-1.803-1.044-2.712
					c-29.695,28.99-122.361,119.411-163.735,159.789c0.904,0.37,1.821,0.724,2.74,1.063
					C214.537,292.691,330.927,179.11,354.121,156.467z"/>
				
					<linearGradient id="SVGID_24_" gradientUnits="userSpaceOnUse" x1="466.4688" y1="260.1938" x2="391.4982" y2="540.4885" gradientTransform="matrix(0.9878 -0.1556 0.1556 0.9878 -217.7957 -104.027)">
					<stop  offset="0" style="stop-color:#30EAFF"/>
					<stop  offset="1" style="stop-color:#194378"/>
				</linearGradient>
				<path fill="url(#SVGID_24_)" d="M351.805,150.306c-0.338-0.92-0.666-1.845-0.987-2.772
					c-4.479,4.373-156.697,152.922-167.376,163.343c0.838,0.422,1.697,0.835,2.569,1.232
					C231.191,268.007,342.187,159.69,351.805,150.306z"/>
				
					<linearGradient id="SVGID_25_" gradientUnits="userSpaceOnUse" x1="462.3223" y1="259.0854" x2="387.352" y2="539.3795" gradientTransform="matrix(0.9878 -0.1556 0.1556 0.9878 -217.7957 -104.027)">
					<stop  offset="0" style="stop-color:#30EAFF"/>
					<stop  offset="1" style="stop-color:#194378"/>
				</linearGradient>
				<path fill="url(#SVGID_25_)" d="M349.627,144.003c-0.315-0.942-0.619-1.889-0.918-2.837
					c-81.643,79.674-100.475,98.037-170.731,166.617c0.769,0.486,1.555,0.967,2.363,1.426
					C180.507,309.047,349.461,144.166,349.627,144.003z"/>
				
					<linearGradient id="SVGID_26_" gradientUnits="userSpaceOnUse" x1="458.4678" y1="258.0557" x2="383.4966" y2="538.3528" gradientTransform="matrix(0.9878 -0.1556 0.1556 0.9878 -217.7957 -104.027)">
					<stop  offset="0" style="stop-color:#30EAFF"/>
					<stop  offset="1" style="stop-color:#194378"/>
				</linearGradient>
				<path fill="url(#SVGID_26_)" d="M347.605,137.551c-0.29-0.971-0.57-1.938-0.843-2.916
					c-56.292,54.933-0.995,0.98-173.721,169.532c0.678,0.573,1.379,1.13,2.115,1.675
					C244.65,238.032,204.501,277.195,347.605,137.551z"/>
				
					<linearGradient id="SVGID_27_" gradientUnits="userSpaceOnUse" x1="454.9712" y1="257.1206" x2="379.9997" y2="537.4189" gradientTransform="matrix(0.9878 -0.1556 0.1556 0.9878 -217.7957 -104.027)">
					<stop  offset="0" style="stop-color:#30EAFF"/>
					<stop  offset="1" style="stop-color:#194378"/>
				</linearGradient>
				<path fill="url(#SVGID_27_)" d="M345.748,130.934c-0.267-0.992-0.521-1.989-0.771-2.988
					c-32.763,31.965-39.573,38.622-176.211,171.962c0.562,0.682,1.168,1.34,1.802,1.98
					C194.188,278.837,321.232,154.853,345.748,130.934z"/>
				
					<linearGradient id="SVGID_28_" gradientUnits="userSpaceOnUse" x1="451.9214" y1="256.3066" x2="376.9512" y2="536.6" gradientTransform="matrix(0.9878 -0.1556 0.1556 0.9878 -217.7957 -104.027)">
					<stop  offset="0" style="stop-color:#30EAFF"/>
					<stop  offset="1" style="stop-color:#194378"/>
				</linearGradient>
				<path fill="url(#SVGID_28_)" d="M344.058,124.15c-0.006-0.017-0.005-0.029-0.011-0.045c-0.233-0.987-0.462-1.982-0.697-2.993
					c-84.195,82.15-116.122,113.32-177.985,173.684c0.412,0.822,0.875,1.616,1.375,2.394
					C208.227,256.71,310.295,157.1,344.058,124.15z"/>
				
					<linearGradient id="SVGID_29_" gradientUnits="userSpaceOnUse" x1="449.4399" y1="255.6406" x2="374.4684" y2="535.9385" gradientTransform="matrix(0.9878 -0.1556 0.1556 0.9878 -217.7957 -104.027)">
					<stop  offset="0" style="stop-color:#30EAFF"/>
					<stop  offset="1" style="stop-color:#194378"/>
				</linearGradient>
				<path fill="url(#SVGID_29_)" d="M342.43,117.317c-0.248-0.995-0.503-1.991-0.771-2.989
					c-39.821,38.857-139.434,136.073-178.447,174.148c0.187,1.03,0.445,2.021,0.768,2.983
					C191.698,264.405,314.682,144.392,342.43,117.317z"/>
				
					<linearGradient id="SVGID_30_" gradientUnits="userSpaceOnUse" x1="447.7871" y1="255.2002" x2="372.8174" y2="535.4913" gradientTransform="matrix(0.9878 -0.1556 0.1556 0.9878 -217.7957 -104.027)">
					<stop  offset="0" style="stop-color:#30EAFF"/>
					<stop  offset="1" style="stop-color:#194378"/>
				</linearGradient>
				<path fill="url(#SVGID_30_)" d="M340.637,110.636c-0.285-0.96-0.58-1.916-0.892-2.866
					c-0.693,0.676-172.705,168.532-176.44,172.178l0.001,0.006c-0.306,1.368-0.482,2.769-0.495,4.214
					C182.178,265.269,320.521,130.27,340.637,110.636z"/>
				
					<linearGradient id="SVGID_31_" gradientUnits="userSpaceOnUse" x1="465.1519" y1="259.8457" x2="390.1812" y2="540.1407" gradientTransform="matrix(0.9878 -0.1556 0.1556 0.9878 -217.7957 -104.027)">
					<stop  offset="0" style="stop-color:#30EAFF"/>
					<stop  offset="1" style="stop-color:#194378"/>
				</linearGradient>
				<path fill="url(#SVGID_31_)" d="M338.529,104.256c-0.34-0.913-0.697-1.814-1.069-2.695
					c-12.2,11.907-104.167,101.663-114.983,112.21c-0.206,0.488-7.638,10.233-15.369,18.739
					C220.652,219.294,325.975,116.508,338.529,104.256z"/>
				
					<linearGradient id="SVGID_32_" gradientUnits="userSpaceOnUse" x1="382.418" y1="237.7217" x2="307.4494" y2="518.0089" gradientTransform="matrix(0.9878 -0.1556 0.1556 0.9878 -217.7957 -104.027)">
					<stop  offset="0" style="stop-color:#30EAFF"/>
					<stop  offset="1" style="stop-color:#194378"/>
				</linearGradient>
				<path fill="url(#SVGID_32_)" d="M186.701,252.426c-4.546,3.917-8.514,6.968-12.604,10.914c-2.711,2.618-5.21,5.396-7.16,8.373
					C186.001,253.113,182.477,256.553,186.701,252.426z"/>
				
					<linearGradient id="SVGID_33_" gradientUnits="userSpaceOnUse" x1="474.0312" y1="262.2188" x2="399.0602" y2="542.5151" gradientTransform="matrix(0.9878 -0.1556 0.1556 0.9878 -217.7957 -104.027)">
					<stop  offset="0" style="stop-color:#30EAFF"/>
					<stop  offset="1" style="stop-color:#194378"/>
				</linearGradient>
				<path fill="url(#SVGID_33_)" d="M335.976,98.32c-0.413-0.84-0.85-1.666-1.31-2.462c-62.555,61.052-29.45,28.738-96.846,94.513
					c-1.792,3.103-3.648,6.16-5.575,9.178C319.671,114.236,307.331,126.277,335.976,98.32z"/>
				
					<linearGradient id="SVGID_34_" gradientUnits="userSpaceOnUse" x1="476.6045" y1="262.9072" x2="401.6337" y2="543.2029" gradientTransform="matrix(0.9878 -0.1556 0.1556 0.9878 -217.7957 -104.027)">
					<stop  offset="0" style="stop-color:#30EAFF"/>
					<stop  offset="1" style="stop-color:#194378"/>
				</linearGradient>
				<path fill="url(#SVGID_34_)" d="M332.844,92.952c-0.513-0.745-1.055-1.465-1.622-2.158
					c-58.275,56.876-52.324,51.061-84.274,82.245c-1.169,2.443-2.367,4.859-3.615,7.263
					C299.946,125.054,287.777,136.924,332.844,92.952z"/>
				
					<linearGradient id="SVGID_35_" gradientUnits="userSpaceOnUse" x1="477.2847" y1="263.0918" x2="402.3143" y2="543.3859" gradientTransform="matrix(0.9878 -0.1556 0.1556 0.9878 -217.7957 -104.027)">
					<stop  offset="0" style="stop-color:#30EAFF"/>
					<stop  offset="1" style="stop-color:#194378"/>
				</linearGradient>
				<path fill="url(#SVGID_35_)" d="M328.949,88.323c-0.646-0.623-1.316-1.211-2.023-1.761
					c-10.42,10.167-62.289,60.779-73.51,71.736c-0.847,2.115-1.725,4.217-2.627,6.303
					C252.936,162.507,326.618,90.598,328.949,88.323z"/>
				
					<linearGradient id="SVGID_36_" gradientUnits="userSpaceOnUse" x1="476.6953" y1="262.9336" x2="401.7241" y2="543.2305" gradientTransform="matrix(0.9878 -0.1556 0.1556 0.9878 -217.7957 -104.027)">
					<stop  offset="0" style="stop-color:#30EAFF"/>
					<stop  offset="1" style="stop-color:#194378"/>
				</linearGradient>
				<path fill="url(#SVGID_36_)" d="M324.075,84.645c-0.815-0.462-1.664-0.881-2.548-1.247
					c-37.545,36.64-62.365,60.859-63.216,61.689c-0.663,1.911-1.333,3.824-2.033,5.724
					C303.995,104.236,288.778,119.086,324.075,84.645z"/>
				
					<linearGradient id="SVGID_37_" gradientUnits="userSpaceOnUse" x1="475.1118" y1="262.5103" x2="400.1409" y2="542.8062" gradientTransform="matrix(0.9878 -0.1556 0.1556 0.9878 -217.7957 -104.027)">
					<stop  offset="0" style="stop-color:#30EAFF"/>
					<stop  offset="1" style="stop-color:#194378"/>
				</linearGradient>
				<path fill="url(#SVGID_37_)" d="M317.918,82.23c-1.087-0.26-2.185-0.437-3.292-0.527c-29.274,28.563-18.04,17.599-51.887,50.631
					l-0.003,0.007c-0.675,1.884-1.336,3.769-1.992,5.67C263.275,135.543,315.452,84.637,317.918,82.23z"/>
				
					<linearGradient id="SVGID_38_" gradientUnits="userSpaceOnUse" x1="472.8169" y1="261.8975" x2="397.847" y2="542.1897" gradientTransform="matrix(0.9878 -0.1556 0.1556 0.9878 -217.7957 -104.027)">
					<stop  offset="0" style="stop-color:#30EAFF"/>
					<stop  offset="1" style="stop-color:#194378"/>
				</linearGradient>
				<path fill="url(#SVGID_38_)" d="M309.802,81.718c-1.543,0.125-3.078,0.385-4.586,0.742
					c-24.124,23.54-15.638,15.258-36.996,36.101l-0.003,0.007c-0.955,2.094-1.847,4.221-2.7,6.37
					C265.718,124.741,282.125,108.73,309.802,81.718z"/>
				
					<linearGradient id="SVGID_39_" gradientUnits="userSpaceOnUse" x1="469.9932" y1="261.1416" x2="395.0221" y2="541.4383" gradientTransform="matrix(0.9878 -0.1556 0.1556 0.9878 -217.7957 -104.027)">
					<stop  offset="0" style="stop-color:#30EAFF"/>
					<stop  offset="1" style="stop-color:#194378"/>
				</linearGradient>
				<path fill="url(#SVGID_39_)" d="M297.701,85.096c-4.947,2.308-9.4,5.55-13.347,9.394c-4.403,4.295-8.171,9.335-11.307,14.667
					C285.949,96.569,280.494,101.894,297.701,85.096z"/>
			</g>
			
				<linearGradient id="SVGID_40_" gradientUnits="userSpaceOnUse" x1="270.2734" y1="335.1113" x2="514.4271" y2="771.9105" gradientTransform="matrix(1 0 0 1 -212 -251)">
				<stop  offset="0" style="stop-color:#30EAFF"/>
				<stop  offset="1" style="stop-color:#194378"/>
			</linearGradient>
			<path fill="url(#SVGID_40_)" d="M112.257,171.476c-0.68-0.03-1.437,0.093-2.147,0.301c-1.971,0.576-6.524,2.806-6.23,5.488
				c0.239,2.153,6.589,0.39,7.71-0.105c1.283-0.566,2.557-1.528,2.797-2.911C114.732,172.259,113.66,171.539,112.257,171.476z"/>
			<g>
				
					<linearGradient id="SVGID_41_" gradientUnits="userSpaceOnUse" x1="612.5928" y1="320.0762" x2="493.0765" y2="514.2899" gradientTransform="matrix(1 0 0 1 -212 -251)">
					<stop  offset="0" style="stop-color:#30EAFF"/>
					<stop  offset="1" style="stop-color:#194378"/>
				</linearGradient>
				<path fill="url(#SVGID_41_)" d="M376.061,121.951c-0.261,0.122-0.58,0.093-0.816-0.103l-9.628-7.917
					c-0.33-0.271-0.377-0.758-0.106-1.087c0.27-0.33,0.757-0.377,1.087-0.106l9.628,7.917c0.329,0.271,0.377,0.758,0.106,1.088
					C376.254,121.834,376.162,121.904,376.061,121.951z"/>
				
					<linearGradient id="SVGID_42_" gradientUnits="userSpaceOnUse" x1="612.5898" y1="320.082" x2="493.0901" y2="514.269" gradientTransform="matrix(1 0 0 1 -212 -251)">
					<stop  offset="0" style="stop-color:#30EAFF"/>
					<stop  offset="1" style="stop-color:#194378"/>
				</linearGradient>
				<path fill="url(#SVGID_42_)" d="M367.29,122.808c-0.261,0.122-0.58,0.092-0.817-0.103c-0.33-0.271-0.377-0.757-0.107-1.087
					l7.916-9.63c0.271-0.33,0.759-0.377,1.087-0.106c0.33,0.271,0.377,0.758,0.107,1.088l-7.915,9.63
					C367.484,122.69,367.392,122.761,367.29,122.808z"/>
			</g>
			
				<linearGradient id="SVGID_43_" gradientUnits="userSpaceOnUse" x1="279.2197" y1="369.4463" x2="485.2328" y2="613.572" gradientTransform="matrix(1 0 0 1 -212 -251)">
				<stop  offset="0" style="stop-color:#30EAFF"/>
				<stop  offset="1" style="stop-color:#194378"/>
			</linearGradient>
			<path fill="url(#SVGID_43_)" d="M285.586,265.89c-13.268,12.803-29.256,20.4-47.983,26.678
				c-19.027,6.381-34.32,16.271-51.076,27.07c-32.053,20.658-71.836,36.211-101.101,9.637
				c-24.389-22.146-32.867-69.958-10.814-102.588c7.628-11.287,17.969-18.283,29.312-22.928c8.782-3.597,17.127-4.715,22.358-13.25
				c10.906-17.791,7.312-41.421,18.282-59.948c9.575-16.17,23.819-22.022,41.089-12.405c23.797,13.252,36.544,41.796,60.86,54.019
				c21.858,10.986,57.194,20.967,60.864,49.747c1.311,10.275-3.375,20.393-9.2,28.957
				C294.293,256.585,290.096,261.538,285.586,265.89z"/>
			
				<linearGradient id="SVGID_44_" gradientUnits="userSpaceOnUse" x1="322.3535" y1="718.8223" x2="383.6397" y2="592.645" gradientTransform="matrix(1 0 0 1 -212 -251)">
				<stop  offset="0" style="stop-color:#30EAFF"/>
				<stop  offset="1" style="stop-color:#194378"/>
			</linearGradient>
			<path fill="url(#SVGID_44_)" d="M133.969,409.059c2.708-0.31,5.512,0.727,7.353,2.993c1.389,1.71,2.028,3.86,1.8,6.052
				c-0.228,2.19-1.295,4.163-3.006,5.553c-3.531,2.865-8.736,2.326-11.603-1.207c-1.389-1.71-2.028-3.86-1.801-6.05
				c0.228-2.192,1.296-4.164,3.006-5.554C130.981,409.82,132.46,409.23,133.969,409.059z M135.689,423.907
				c1.226-0.142,2.428-0.619,3.454-1.452c1.39-1.128,2.258-2.731,2.443-4.512c0.184-1.78-0.334-3.527-1.463-4.918
				c-2.33-2.87-6.56-3.309-9.431-0.979c-1.39,1.129-2.257,2.731-2.442,4.513c-0.185,1.78,0.335,3.526,1.464,4.917c0,0,0,0,0,0.001
				C131.21,423.318,133.489,424.159,135.689,423.907z"/>
			
				<linearGradient id="SVGID_45_" gradientUnits="userSpaceOnUse" x1="290.2979" y1="703.2344" x2="351.5752" y2="577.075" gradientTransform="matrix(1 0 0 1 -212 -251)">
				<stop  offset="0" style="stop-color:#30EAFF"/>
				<stop  offset="1" style="stop-color:#194378"/>
			</linearGradient>
			<path fill="url(#SVGID_45_)" d="M124.135,367.268c0.1,0.063,0.188,0.15,0.252,0.256c0.143,0.236,0.148,0.529,0.015,0.771
				l-4.361,7.92c-0.133,0.242-0.385,0.395-0.662,0.399c-0.276,0.005-0.534-0.138-0.676-0.372l-4.678-7.737
				c-0.143-0.235-0.148-0.53-0.016-0.772c0.133-0.241,0.385-0.395,0.661-0.399l9.039-0.183
				C123.862,367.146,124.01,367.189,124.135,367.268z M119.333,374.298l3.071-5.575l-6.363,0.129L119.333,374.298z"/>
			<g>
				
					<linearGradient id="SVGID_46_" gradientUnits="userSpaceOnUse" x1="694.0039" y1="370.1865" x2="574.5134" y2="564.3583" gradientTransform="matrix(1 0 0 1 -212 -251)">
					<stop  offset="0" style="stop-color:#30EAFF"/>
					<stop  offset="1" style="stop-color:#194378"/>
				</linearGradient>
				<path fill="url(#SVGID_46_)" d="M429.543,201.139c0.462,0.021,0.817,0.412,0.797,0.874l-0.252,5.457
					c-0.021,0.461-0.412,0.818-0.873,0.797c-0.46-0.021-0.818-0.412-0.798-0.874l0.253-5.457
					C428.69,201.475,429.082,201.118,429.543,201.139z"/>
				
					<linearGradient id="SVGID_47_" gradientUnits="userSpaceOnUse" x1="687.8984" y1="366.418" x2="568.3909" y2="560.6176" gradientTransform="matrix(1 0 0 1 -212 -251)">
					<stop  offset="0" style="stop-color:#30EAFF"/>
					<stop  offset="1" style="stop-color:#194378"/>
				</linearGradient>
				<path fill="url(#SVGID_47_)" d="M430.229,186.208c0.462,0.021,0.818,0.412,0.797,0.873l-0.264,5.734
					c-0.02,0.461-0.412,0.818-0.873,0.796c-0.46-0.021-0.817-0.412-0.797-0.873l0.264-5.734
					C429.378,186.542,429.77,186.186,430.229,186.208z"/>
				
					<linearGradient id="SVGID_48_" gradientUnits="userSpaceOnUse" x1="685.5352" y1="365.0156" x2="566.0857" y2="559.1208" gradientTransform="matrix(1 0 0 1 -212 -251)">
					<stop  offset="0" style="stop-color:#30EAFF"/>
					<stop  offset="1" style="stop-color:#194378"/>
				</linearGradient>
				<path fill="url(#SVGID_48_)" d="M419.566,195.933l5.999,0.276c0.461,0.021,0.818,0.413,0.797,0.874s-0.412,0.818-0.873,0.797
					l-6-0.276c-0.461-0.021-0.818-0.413-0.796-0.873C418.714,196.268,419.105,195.911,419.566,195.933z"/>
				
					<linearGradient id="SVGID_49_" gradientUnits="userSpaceOnUse" x1="696.3838" y1="371.6543" x2="576.894" y2="565.8252" gradientTransform="matrix(1 0 0 1 -212 -251)">
					<stop  offset="0" style="stop-color:#30EAFF"/>
					<stop  offset="1" style="stop-color:#194378"/>
				</linearGradient>
				<path fill="url(#SVGID_49_)" d="M434.222,196.607l5.734,0.264c0.46,0.021,0.817,0.412,0.798,0.874
					c-0.022,0.46-0.414,0.817-0.874,0.797l-5.734-0.264c-0.462-0.021-0.818-0.413-0.798-0.873
					C433.37,196.943,433.76,196.586,434.222,196.607z"/>
				
					<linearGradient id="SVGID_50_" gradientUnits="userSpaceOnUse" x1="684.8926" y1="364.6357" x2="565.4625" y2="558.7096" gradientTransform="matrix(1 0 0 1 -212 -251)">
					<stop  offset="0" style="stop-color:#30EAFF"/>
					<stop  offset="1" style="stop-color:#194378"/>
				</linearGradient>
				<path fill="url(#SVGID_50_)" d="M422.885,188.861c0.213,0.01,0.423,0.101,0.579,0.272l3.867,4.241
					c0.312,0.34,0.289,0.87-0.053,1.181c-0.342,0.311-0.87,0.287-1.181-0.053l-3.869-4.241c-0.31-0.34-0.286-0.87,0.055-1.181
					C422.453,188.923,422.671,188.852,422.885,188.861z"/>
				
					<linearGradient id="SVGID_51_" gradientUnits="userSpaceOnUse" x1="697.0479" y1="372.041" x2="577.5349" y2="566.2494" gradientTransform="matrix(1 0 0 1 -212 -251)">
					<stop  offset="0" style="stop-color:#30EAFF"/>
					<stop  offset="1" style="stop-color:#194378"/>
				</linearGradient>
				<path fill="url(#SVGID_51_)" d="M432.956,199.907c0.214,0.01,0.424,0.102,0.579,0.271l3.682,4.036
					c0.312,0.34,0.287,0.87-0.054,1.181c-0.341,0.312-0.87,0.287-1.18-0.054l-3.683-4.035c-0.311-0.341-0.287-0.87,0.054-1.182
					C432.525,199.968,432.743,199.896,432.956,199.907z"/>
				
					<linearGradient id="SVGID_52_" gradientUnits="userSpaceOnUse" x1="692.6484" y1="369.3486" x2="573.1511" y2="563.5315" gradientTransform="matrix(1 0 0 1 -212 -251)">
					<stop  offset="0" style="stop-color:#30EAFF"/>
					<stop  offset="1" style="stop-color:#194378"/>
				</linearGradient>
				<path fill="url(#SVGID_52_)" d="M437.301,189.525c0.214,0.01,0.424,0.102,0.579,0.272c0.312,0.341,0.288,0.87-0.052,1.181
					l-4.242,3.868c-0.341,0.312-0.87,0.287-1.182-0.055c-0.311-0.34-0.286-0.87,0.055-1.181l4.241-3.868
					C436.871,189.587,437.088,189.516,437.301,189.525z"/>
				
					<linearGradient id="SVGID_53_" gradientUnits="userSpaceOnUse" x1="689.1982" y1="367.2246" x2="569.7023" y2="561.4057" gradientTransform="matrix(1 0 0 1 -212 -251)">
					<stop  offset="0" style="stop-color:#30EAFF"/>
					<stop  offset="1" style="stop-color:#194378"/>
				</linearGradient>
				<path fill="url(#SVGID_53_)" d="M426.462,199.411c0.214,0.01,0.424,0.101,0.58,0.272c0.311,0.341,0.287,0.871-0.055,1.181
					l-4.24,3.867c-0.34,0.311-0.869,0.287-1.181-0.055c-0.311-0.341-0.286-0.87,0.054-1.181l4.241-3.868
					C426.031,199.472,426.249,199.401,426.462,199.411z"/>
			</g>
			
				<linearGradient id="SVGID_54_" gradientUnits="userSpaceOnUse" x1="658.792" y1="348.5078" x2="539.2902" y2="542.6981" gradientTransform="matrix(1 0 0 1 -212 -251)">
				<stop  offset="0" style="stop-color:#30EAFF"/>
				<stop  offset="1" style="stop-color:#194378"/>
			</linearGradient>
			<path fill="url(#SVGID_54_)" d="M394.689,188.76c-2.169,0-4.295-1.072-5.546-3.032c-0.944-1.479-1.256-3.237-0.877-4.95
				c0.379-1.713,1.401-3.176,2.88-4.121c3.052-1.948,7.121-1.05,9.07,2.003c0.943,1.479,1.254,3.236,0.876,4.949
				c-0.377,1.713-1.4,3.177-2.878,4.121C397.121,188.428,395.898,188.76,394.689,188.76z M394.67,176.857
				c-0.983,0-1.976,0.271-2.864,0.837c-1.202,0.767-2.032,1.957-2.339,3.349c-0.307,1.392-0.054,2.821,0.713,4.022
				c1.583,2.482,4.89,3.211,7.372,1.628c1.202-0.767,2.032-1.957,2.339-3.349c0.307-1.392,0.053-2.821-0.713-4.021l0,0
				C398.162,177.728,396.434,176.857,394.67,176.857z"/>
			<g>
				
					<linearGradient id="SVGID_55_" gradientUnits="userSpaceOnUse" x1="361.5674" y1="737.8564" x2="422.8461" y2="611.6943" gradientTransform="matrix(1 0 0 1 -212 -251)">
					<stop  offset="0" style="stop-color:#30EAFF"/>
					<stop  offset="1" style="stop-color:#194378"/>
				</linearGradient>
				<path fill="url(#SVGID_55_)" d="M185.255,414.001c-0.208-0.062-0.325-0.279-0.264-0.488l0.731-2.453
					c0.062-0.207,0.279-0.323,0.488-0.263c0.207,0.062,0.325,0.279,0.263,0.487l-0.731,2.453
					C185.681,413.944,185.461,414.062,185.255,414.001z"/>
				
					<linearGradient id="SVGID_56_" gradientUnits="userSpaceOnUse" x1="362.5762" y1="738.3516" x2="423.8576" y2="612.1838" gradientTransform="matrix(1 0 0 1 -212 -251)">
					<stop  offset="0" style="stop-color:#30EAFF"/>
					<stop  offset="1" style="stop-color:#194378"/>
				</linearGradient>
				<path fill="url(#SVGID_56_)" d="M183.256,420.714c-0.208-0.062-0.325-0.28-0.263-0.488l0.767-2.576
					c0.062-0.207,0.279-0.325,0.488-0.265c0.207,0.062,0.325,0.28,0.263,0.487l-0.767,2.578
					C183.682,420.658,183.464,420.775,183.256,420.714z"/>
				
					<linearGradient id="SVGID_57_" gradientUnits="userSpaceOnUse" x1="365.0522" y1="739.6025" x2="426.3675" y2="613.3652" gradientTransform="matrix(1 0 0 1 -212 -251)">
					<stop  offset="0" style="stop-color:#30EAFF"/>
					<stop  offset="1" style="stop-color:#194378"/>
				</linearGradient>
				<path fill="url(#SVGID_57_)" d="M189.204,417.495l-2.697-0.802c-0.208-0.062-0.325-0.281-0.264-0.489
					c0.062-0.206,0.28-0.324,0.488-0.263l2.697,0.802c0.208,0.062,0.325,0.28,0.264,0.487
					C189.629,417.438,189.411,417.557,189.204,417.495z"/>
				
					<linearGradient id="SVGID_58_" gradientUnits="userSpaceOnUse" x1="359.0303" y1="736.6113" x2="420.2982" y2="610.4712" gradientTransform="matrix(1 0 0 1 -212 -251)">
					<stop  offset="0" style="stop-color:#30EAFF"/>
					<stop  offset="1" style="stop-color:#194378"/>
				</linearGradient>
				<path fill="url(#SVGID_58_)" d="M182.615,415.532l-2.578-0.767c-0.208-0.062-0.325-0.279-0.264-0.486
					c0.061-0.208,0.28-0.326,0.487-0.266l2.578,0.768c0.208,0.062,0.325,0.281,0.263,0.487
					C183.042,415.477,182.823,415.596,182.615,415.532z"/>
				
					<linearGradient id="SVGID_59_" gradientUnits="userSpaceOnUse" x1="364.5664" y1="739.373" x2="425.8859" y2="613.1271" gradientTransform="matrix(1 0 0 1 -212 -251)">
					<stop  offset="0" style="stop-color:#30EAFF"/>
					<stop  offset="1" style="stop-color:#194378"/>
				</linearGradient>
				<path fill="url(#SVGID_59_)" d="M186.896,420.336c-0.095-0.028-0.181-0.094-0.232-0.188l-1.28-2.365
					c-0.103-0.189-0.032-0.428,0.158-0.53c0.19-0.104,0.428-0.032,0.531,0.157l1.28,2.365c0.103,0.188,0.032,0.428-0.158,0.53
					C187.1,420.356,186.993,420.364,186.896,420.336z"/>
				
					<linearGradient id="SVGID_60_" gradientUnits="userSpaceOnUse" x1="359.5137" y1="736.8682" x2="420.7993" y2="610.6917" gradientTransform="matrix(1 0 0 1 -212 -251)">
					<stop  offset="0" style="stop-color:#30EAFF"/>
					<stop  offset="1" style="stop-color:#194378"/>
				</linearGradient>
				<path fill="url(#SVGID_60_)" d="M183.563,414.176c-0.096-0.027-0.181-0.093-0.232-0.188l-1.219-2.251
					c-0.103-0.19-0.033-0.43,0.157-0.531c0.191-0.104,0.428-0.032,0.531,0.158l1.218,2.25c0.103,0.19,0.032,0.429-0.158,0.53
					C183.766,414.196,183.659,414.205,183.563,414.176z"/>
				
					<linearGradient id="SVGID_61_" gradientUnits="userSpaceOnUse" x1="360.2461" y1="737.2842" x2="421.5728" y2="611.0233" gradientTransform="matrix(1 0 0 1 -212 -251)">
					<stop  offset="0" style="stop-color:#30EAFF"/>
					<stop  offset="1" style="stop-color:#194378"/>
				</linearGradient>
				<path fill="url(#SVGID_61_)" d="M180.415,418.407c-0.096-0.028-0.182-0.094-0.233-0.189c-0.103-0.188-0.032-0.427,0.158-0.529
					l2.365-1.28c0.19-0.104,0.428-0.032,0.531,0.158c0.103,0.188,0.033,0.427-0.157,0.529l-2.365,1.28
					C180.617,418.427,180.511,418.436,180.415,418.407z"/>
				
					<linearGradient id="SVGID_62_" gradientUnits="userSpaceOnUse" x1="363.8594" y1="739.0205" x2="425.172" y2="612.7887" gradientTransform="matrix(1 0 0 1 -212 -251)">
					<stop  offset="0" style="stop-color:#30EAFF"/>
					<stop  offset="1" style="stop-color:#194378"/>
				</linearGradient>
				<path fill="url(#SVGID_62_)" d="M186.461,415.135c-0.097-0.027-0.182-0.094-0.233-0.188c-0.104-0.189-0.033-0.428,0.158-0.53
					l2.365-1.28c0.189-0.103,0.427-0.032,0.53,0.158c0.103,0.189,0.032,0.428-0.158,0.53l-2.365,1.279
					C186.664,415.155,186.557,415.162,186.461,415.135z"/>
			</g>
		</g>
	</g>
</g>
</svg>
