<?xml version="1.0" encoding="utf-8"?>
<!-- Generator: Adobe Illustrator 16.0.0, SVG Export Plug-In . SVG Version: 6.00 Build 0)  -->
<!DOCTYPE svg PUBLIC "-//W3C//DTD SVG 1.1//EN" "http://www.w3.org/Graphics/SVG/1.1/DTD/svg11.dtd">
<svg version="1.1" xmlns="http://www.w3.org/2000/svg" xmlns:xlink="http://www.w3.org/1999/xlink" x="0px" y="0px" width="500px"
	 height="307.519px" viewBox="0 0 500 307.519" enable-background="new 0 0 500 307.519" xml:space="preserve">
<g id="OBJECTS">
	<g>
		<g>
			<g>
				<g>
					<path fill="#6CDD6C" d="M317.659,253.546c-0.54-1.764-1.775-3.414-3.53-3.979c-1.756-0.565-3.983,0.291-4.529,2.052
						c-1.615-1.349-4.09-0.277-5.388,1.379c-2.099,2.678-0.477,7.064-0.127,7.349c0.379,0.308,1.404,0.254,1.404,0.254l15.705-0.088
						c0,0,2.881-0.21,4.21-0.74c2.676-1.066,4.496-5.671,2.773-7.98c-1.173-1.574-3.489-1.908-5.36-1.311
						C320.947,251.078,319.133,252.248,317.659,253.546"/>
				</g>
				<g>
					<path fill="#50AA50" d="M305.265,261.123c-0.397,0-1.107-0.052-1.507-0.376c-0.615-0.5-2.181-5.229,0.046-8.07
						c0.938-1.196,2.343-2.026,3.668-2.166c0.691-0.079,1.337,0.042,1.899,0.335c0.337-0.605,0.871-1.114,1.549-1.467
						c1.033-0.536,2.292-0.653,3.368-0.306c1.562,0.502,2.871,1.821,3.606,3.596c1.529-1.24,3.199-2.182,4.765-2.683
						c1.876-0.599,4.532-0.386,5.935,1.495c0.808,1.084,0.995,2.685,0.512,4.394c-0.576,2.04-1.953,3.759-3.508,4.378
						c-1.389,0.555-4.245,0.767-4.366,0.776l-15.739,0.088C305.44,261.12,305.362,261.123,305.265,261.123z M307.874,251.525
						c-0.096,0-0.193,0.005-0.294,0.016c-1.039,0.109-2.202,0.808-2.96,1.775c-1.843,2.352-0.466,6.273-0.165,6.669
						c0.069,0.05,0.588,0.12,1.006,0.096l15.729-0.088c-0.007-0.001,2.782-0.209,4.022-0.704c1.247-0.496,2.41-1.982,2.895-3.695
						c0.395-1.396,0.269-2.669-0.345-3.492c-1.098-1.475-3.253-1.617-4.787-1.126c-1.633,0.521-3.399,1.572-4.974,2.959
						c-0.132,0.117-0.314,0.158-0.483,0.11c-0.17-0.049-0.304-0.18-0.355-0.348c-0.554-1.812-1.748-3.172-3.193-3.638
						c-0.815-0.262-1.778-0.173-2.571,0.24c-0.651,0.338-1.114,0.86-1.304,1.473c-0.052,0.165-0.183,0.294-0.349,0.343
						c-0.165,0.049-0.345,0.013-0.479-0.099C308.877,251.69,308.408,251.525,307.874,251.525z"/>
				</g>
			</g>
			<g>
				<g>
					<g>
						<path fill="#50AA50" d="M301.144,252.951c-0.449,0.874-0.643,1.824-0.536,2.804c0.054,0.492,0.832,0.497,0.778,0
							c-0.093-0.846,0.039-1.652,0.429-2.411C302.043,252.898,301.372,252.505,301.144,252.951L301.144,252.951z"/>
					</g>
				</g>
			</g>
			<g>
				<g>
					<g>
						<path fill="#50AA50" d="M298.874,253.574c-0.245,0.88-0.263,1.759-0.067,2.649c0.107,0.489,0.857,0.282,0.75-0.206
							c-0.166-0.756-0.14-1.492,0.067-2.236C299.758,253.298,299.008,253.092,298.874,253.574L298.874,253.574z"/>
					</g>
				</g>
			</g>
			<g>
				<g>
					<g>
						<path fill="#50AA50" d="M303.236,251.996c0.501,0,0.502-0.777,0-0.777C302.736,251.219,302.735,251.996,303.236,251.996
							L303.236,251.996z"/>
					</g>
				</g>
			</g>
			<g>
				<g>
					<g>
						<path fill="#50AA50" d="M305.44,255.756c0,0.23,0,0.461,0,0.691c0,0.5,0.778,0.501,0.778,0c0-0.23,0-0.461,0-0.691
							C306.219,255.255,305.44,255.254,305.44,255.756L305.44,255.756z"/>
					</g>
				</g>
			</g>
			<g>
				<g>
					<g>
						<path fill="#50AA50" d="M318.577,256.966c0,0.115,0,0.23,0,0.346c0,0.5,0.777,0.501,0.777,0c0-0.115,0-0.23,0-0.346
							C319.354,256.465,318.577,256.464,318.577,256.966L318.577,256.966z"/>
					</g>
				</g>
			</g>
			<g>
				<g>
					<g>
						<path fill="#50AA50" d="M317.135,256.03c0.058,0.058,0.115,0.115,0.173,0.173c0.354,0.354,0.905-0.195,0.55-0.55
							c-0.057-0.058-0.114-0.115-0.172-0.173C317.331,255.126,316.78,255.676,317.135,256.03L317.135,256.03z"/>
					</g>
				</g>
			</g>
		</g>
		<g>
			<path fill="#405B91" d="M96.117,238.886H69.789c-0.573,0-1.037-0.464-1.037-1.037s0.464-1.037,1.037-1.037h26.329
				c0.573,0,1.037,0.464,1.037,1.037S96.69,238.886,96.117,238.886z"/>
		</g>
		<g>
			<g>
				<path fill="#FFFFFF" d="M327.96,147.573h-0.752c0-0.622-0.506-1.128-1.128-1.128c-0.621,0-1.127,0.506-1.127,1.128H324.2
					c0-1.037,0.844-1.88,1.88-1.88C327.117,145.692,327.96,146.536,327.96,147.573z"/>
			</g>
		</g>
		<g>
			<g>
				<path fill="#FFFFFF" d="M330.649,103.787h-0.752c0-0.622-0.506-1.128-1.128-1.128s-1.128,0.506-1.128,1.128h-0.752
					c0-1.037,0.844-1.88,1.88-1.88C329.807,101.907,330.649,102.75,330.649,103.787z"/>
			</g>
		</g>
		<g>
			<g>
				<g>
					<path fill="#415B91" d="M237.043,255.939h-35.785l0.607-1.439c2.346-5.566,2.589-10.333,2.231-15.777l-0.072-1.102
						l30.171-0.093l0.007,1.032c0.026,3.52,0.978,11.513,2.411,16.028L237.043,255.939z M204.346,253.865h29.9
						c-1.151-4.353-1.935-10.644-2.089-14.257l-25.926,0.08C206.477,244.517,206.182,248.909,204.346,253.865z"/>
				</g>
			</g>
		</g>
		<g>
			<g>
				<g>
					<path fill="#415B91" d="M190.969,239.59c-27.168,0-49.176-0.148-50.143-0.494c-2.325-0.828-5.364-4.051-5.406-6.337
						c-0.088-4.95-0.301-11.691-0.547-19.499c-0.744-23.538-1.762-55.773-0.441-73.612c0.241-3.25,2.926-5.761,6.135-5.761
						c0.035,0,0.069,0,0.103,0l156.631,0.233c3.312,0.057,5.97,2.73,6.047,6.086c0.119,5.21,0.289,10.535,0.46,15.933
						c0.717,22.598,1.458,45.966-1.045,68.063c-0.099,0.871-0.142,1.834-0.187,2.83c-0.211,4.636-0.474,10.407-6.449,11.586
						C293.206,239.195,235.239,239.59,190.969,239.59z M140.58,135.554c-2.351,0-4.309,1.838-4.485,4.218
						c-1.315,17.75-0.298,49.935,0.445,73.435c0.248,7.812,0.461,14.561,0.549,19.522c0.026,1.442,2.437,4.133,4.298,4.797
						c3.335,0.681,150.591,0.178,154.419-0.542c4.691-0.927,4.902-5.553,5.106-10.027c0.047-1.036,0.094-2.035,0.195-2.942
						c2.489-21.976,1.749-45.284,1.034-67.823c-0.171-5.401-0.34-10.731-0.461-15.946c-0.056-2.457-1.989-4.415-4.401-4.458
						l-156.624-0.233C140.63,135.554,140.605,135.554,140.58,135.554z"/>
				</g>
			</g>
		</g>
		<g>
			<g>
				<path fill-rule="evenodd" clip-rule="evenodd" fill="#B6D0FB" d="M292.92,139.512l-147.575-0.194
					c-2.654-0.04-4.883,1.78-5.082,4.159c-1.653,19.752,0.601,60.964,0.934,77.55c0.033,1.616,2.671,4.04,4.572,4.641
					c2.237,0.707,142.48,0.173,145.908-0.426c6.155-1.074,5.107-7.378,5.624-11.412c2.921-22.812,1.127-47.61,0.545-69.923
					C297.783,141.49,295.61,139.552,292.92,139.512z"/>
			</g>
		</g>
		<g>
			<g>
				<g>
					<path fill="#415B91" d="M249.845,261.617h-61.404c-2.437,0-3.712-1.916-3.712-3.81c0-1.896,1.275-3.815,3.712-3.815h61.404
						c2.437,0,3.711,1.917,3.711,3.811C253.557,259.697,252.282,261.617,249.845,261.617z M188.441,255.659
						c-1.614,0-2.044,1.351-2.044,2.148c0,0.796,0.431,2.143,2.044,2.143h61.404c1.614,0,2.044-1.35,2.044-2.147
						c0-0.797-0.431-2.144-2.044-2.144H188.441z"/>
				</g>
			</g>
		</g>
		<g>
			<g>
				<g>
					<g>
						<g>
							<path fill-rule="evenodd" clip-rule="evenodd" fill="#415B91" d="M145.678,231.637
								C145.315,231.637,145.315,231.637,145.678,231.637"/>
						</g>
					</g>
				</g>
				<g>
					<g>
						<g>
							<g>
								<path fill="#415B91" d="M145.678,233.779c2.758,0,2.762-4.286,0-4.286C142.921,229.493,142.916,233.779,145.678,233.779
									L145.678,233.779z"/>
							</g>
						</g>
					</g>
				</g>
			</g>
			<g>
				<g>
					<g>
						<g>
							<path fill-rule="evenodd" clip-rule="evenodd" fill="#415B91" d="M154.318,231.637
								C153.956,231.637,153.956,231.637,154.318,231.637"/>
						</g>
					</g>
				</g>
				<g>
					<g>
						<g>
							<g>
								<path fill="#415B91" d="M154.318,233.779c2.758,0,2.762-4.286,0-4.286C151.561,229.493,151.556,233.779,154.318,233.779
									L154.318,233.779z"/>
							</g>
						</g>
					</g>
				</g>
			</g>
			<g>
				<g>
					<g>
						<g>
							<path fill-rule="evenodd" clip-rule="evenodd" fill="#415B91" d="M162.958,231.637
								C162.595,231.637,162.595,231.637,162.958,231.637"/>
						</g>
					</g>
				</g>
				<g>
					<g>
						<g>
							<g>
								<path fill="#415B91" d="M162.958,233.779c2.758,0,2.763-4.286,0-4.286C160.201,229.493,160.196,233.779,162.958,233.779
									L162.958,233.779z"/>
							</g>
						</g>
					</g>
				</g>
			</g>
		</g>
		<g>
			<g>
				<g>
					<g>
						<path fill-rule="evenodd" clip-rule="evenodd" fill="#415B91" d="M219.143,137.232
							C218.973,137.232,218.973,137.232,219.143,137.232"/>
					</g>
				</g>
			</g>
			<g>
				<g>
					<g>
						<g>
							<path fill="#415B91" d="M219.143,138.237c1.294,0,1.296-2.01,0-2.01C217.85,136.227,217.848,138.237,219.143,138.237
								L219.143,138.237z"/>
						</g>
					</g>
				</g>
			</g>
		</g>
		<g>
			<g>
				<polygon fill="#B6D0FB" points="392.316,257.545 371.158,257.545 379.296,230.816 384.179,230.816 				"/>
			</g>
			<g>
				<rect x="369.41" y="257.545" fill="#B6D0FB" width="24.654" height="3.054"/>
			</g>
			<g>
				<polygon fill="#415B91" points="373.192,250.862 371.158,257.545 392.316,257.545 390.282,250.862 				"/>
			</g>
			<g>
				<polygon fill="#415B91" points="375.228,244.181 388.248,244.181 386.213,237.499 377.262,237.499 				"/>
			</g>
		</g>
		<g id="XMLID_11_">
			<g id="XMLID_493_">
				<path fill="#B6D0FB" d="M400.969,260.426h4.695v-18.179h24.1v18.179h4.695v-18.179h4.972v-14.516h-3.966v-1.341h-6.841v1.341
					h-21.351v-1.341h-6.841v1.341h-4.354v14.516h4.891V260.426z M437.915,229.248v0.061l-2.894,11.423h-5.165l2.909-11.483H437.915z
					 M424.446,240.731h-5.164l2.909-11.483h5.164L424.446,240.731z M413.872,240.731h-5.165l2.909-11.483h5.165L413.872,240.731z
					 M401.042,229.248h5.164l-2.909,11.483h-5.164L401.042,229.248z"/>
			</g>
		</g>
		<g>
			<g>
				<g>
					<path fill="#B6D0FB" d="M170.045,82.717l1.406-1.407c0.287-0.284,0.287-0.747,0-1.033l-1.226-1.223
						c-0.282-0.286-0.357-0.804-0.163-1.156l0.998-2.424c0.112-0.388,0.536-0.704,0.937-0.704h1.734c0.403,0,0.73-0.328,0.73-0.726
						V72.05c0-0.404-0.327-0.728-0.73-0.728h-1.734c-0.401,0-0.825-0.315-0.937-0.702l-0.998-2.422
						c-0.194-0.354-0.119-0.873,0.163-1.159l1.226-1.223c0.287-0.286,0.287-0.749,0-1.029l-1.406-1.412
						c-0.285-0.284-0.749-0.284-1.031,0l-1.227,1.225c-0.285,0.284-0.803,0.358-1.154,0.168l-2.427-1
						c-0.385-0.114-0.7-0.534-0.7-0.937v-1.735c0-0.4-0.327-0.731-0.729-0.731h-1.991c-0.403,0-0.73,0.331-0.73,0.731v1.735
						c0,0.403-0.314,0.823-0.7,0.937l-2.427,1c-0.351,0.19-0.872,0.116-1.154-0.168l-1.228-1.224c-0.283-0.286-0.746-0.286-1.028,0
						l-1.412,1.411c-0.285,0.281-0.285,0.743,0,1.029l1.225,1.223c0.284,0.286,0.359,0.806,0.167,1.159l-0.999,2.422
						c-0.113,0.387-0.537,0.702-0.937,0.702h-1.736c-0.4,0-0.729,0.324-0.729,0.728v1.994c0,0.398,0.329,0.726,0.729,0.726h1.736
						c0.4,0,0.824,0.315,0.937,0.704l0.999,2.424c0.193,0.354,0.118,0.87-0.167,1.156l-1.225,1.223
						c-0.285,0.286-0.285,0.749,0,1.033l1.412,1.407c0.282,0.288,0.745,0.288,1.028,0l1.228-1.224
						c0.282-0.284,0.804-0.358,1.157-0.165l2.424,0.998c0.386,0.111,0.7,0.534,0.7,0.936V85c0,0.398,0.327,0.728,0.73,0.728h1.991
						c0.402,0,0.729-0.329,0.729-0.728v-1.738c0-0.402,0.314-0.825,0.7-0.936l2.427-0.998c0.351-0.194,0.869-0.119,1.154,0.165
						l1.227,1.224C169.296,83.004,169.76,83.004,170.045,82.717z M161.782,78.865c-3.214,0-5.82-2.607-5.82-5.818
						c0-3.214,2.606-5.818,5.82-5.818c3.213,0,5.819,2.604,5.819,5.818C167.601,76.257,164.995,78.865,161.782,78.865z"/>
				</g>
			</g>
			<g>
				<g>
					<path fill="#B6D0FB" d="M183.501,88.216l-0.355-1.182c-0.073-0.239-0.326-0.375-0.564-0.303l-1.026,0.312
						c-0.239,0.073-0.547-0.04-0.683-0.251l-1.033-1.253c-0.174-0.173-0.224-0.497-0.106-0.717l0.506-0.946
						c0.119-0.222,0.035-0.496-0.182-0.613l-1.088-0.583c-0.219-0.119-0.494-0.033-0.612,0.186l-0.509,0.946
						c-0.117,0.218-0.413,0.357-0.655,0.307l-1.618-0.163c-0.247,0.002-0.512-0.189-0.582-0.43l-0.313-1.027
						c-0.071-0.237-0.323-0.375-0.562-0.3l-1.182,0.354c-0.242,0.074-0.373,0.326-0.302,0.566l0.313,1.026
						c0.073,0.241-0.041,0.544-0.253,0.681l-1.255,1.035c-0.171,0.177-0.497,0.222-0.715,0.105l-0.948-0.507
						c-0.217-0.118-0.494-0.037-0.609,0.185l-0.585,1.085c-0.115,0.222-0.035,0.497,0.185,0.613l0.948,0.511
						c0.221,0.116,0.358,0.411,0.307,0.653l-0.162,1.616c0,0.25-0.191,0.515-0.431,0.583l-1.028,0.313
						c-0.24,0.071-0.376,0.326-0.302,0.563l0.357,1.18c0.071,0.241,0.325,0.375,0.565,0.301l1.028-0.31
						c0.236-0.071,0.542,0.043,0.677,0.25l1.034,1.256c0.176,0.173,0.224,0.498,0.107,0.717l-0.508,0.946
						c-0.115,0.219-0.033,0.493,0.187,0.614l1.085,0.581c0.22,0.118,0.495,0.035,0.613-0.184l0.509-0.948
						c0.115-0.222,0.413-0.357,0.655-0.308l1.615,0.165c0.252,0,0.514,0.19,0.585,0.431l0.31,1.026
						c0.073,0.239,0.328,0.376,0.564,0.302l1.181-0.357c0.237-0.071,0.374-0.326,0.305-0.562l-0.312-1.027
						c-0.074-0.238,0.038-0.548,0.246-0.681l1.256-1.033c0.173-0.177,0.499-0.225,0.718-0.109l0.946,0.508
						c0.221,0.122,0.499,0.037,0.614-0.184l0.583-1.088c0.119-0.217,0.033-0.494-0.187-0.612l-0.948-0.509
						c-0.219-0.12-0.357-0.411-0.305-0.651l0.164-1.622c-0.002-0.246,0.192-0.511,0.428-0.582l1.029-0.311
						C183.438,88.707,183.574,88.456,183.501,88.216z M178.98,91.6c-0.939,1.757-3.129,2.417-4.881,1.477
						c-1.756-0.941-2.417-3.127-1.477-4.879c0.94-1.76,3.13-2.419,4.883-1.478C179.258,87.662,179.92,89.847,178.98,91.6z"/>
				</g>
			</g>
		</g>
		<g>
			<path fill="#405B91" d="M242.389,110.996h-32.6c-0.573,0-1.037-0.464-1.037-1.037s0.464-1.037,1.037-1.037h32.6
				c0.573,0,1.037,0.464,1.037,1.037S242.961,110.996,242.389,110.996z"/>
		</g>
		<g>
			<path fill="#405B91" d="M176.021,125.805h-52.658c-0.572,0-1.037-0.464-1.037-1.037s0.465-1.037,1.037-1.037h52.658
				c0.573,0,1.037,0.464,1.037,1.037S176.594,125.805,176.021,125.805z"/>
		</g>
		<g>
			<path fill="#405B91" d="M428.498,153.844h-52.657c-0.573,0-1.037-0.464-1.037-1.037s0.464-1.037,1.037-1.037h52.657
				c0.573,0,1.037,0.464,1.037,1.037S429.071,153.844,428.498,153.844z"/>
		</g>
		<g>
			<path fill="#405B91" d="M449.199,262.654H50.801c-0.573,0-1.037-0.464-1.037-1.037s0.464-1.037,1.037-1.037h398.398
				c0.573,0,1.037,0.464,1.037,1.037S449.772,262.654,449.199,262.654z"/>
		</g>
		<g>
			<g>
				<g>
					<path fill="#B6D0FB" d="M303.062,97.971c-2.233,0-4.333,0.87-5.913,2.45c-2.693,2.693-3.229,6.867-1.302,10.148l0.138,0.232
						l-8.469,8.468c-0.011,0.012-0.411,0.399-0.417,0.963c-0.004,0.425,0.211,0.858,0.64,1.286c0.455,0.454,0.932,0.685,1.415,0.685
						c0.582,0,0.993-0.337,0.997-0.339l8.446-8.451l0.234,0.138c1.278,0.75,2.742,1.147,4.233,1.147
						c2.233,0,4.333-0.869,5.912-2.448c3.261-3.262,3.261-8.567,0-11.829C307.397,98.84,305.296,97.971,303.062,97.971z
						 M303.062,112.215c-3.241,0-5.879-2.638-5.88-5.88c0.001-3.242,2.64-5.882,5.882-5.882l0,0c3.243,0,5.881,2.639,5.881,5.882
						C308.944,109.578,306.306,112.215,303.062,112.215z"/>
				</g>
			</g>
			<g>
				<g>
					<path fill="#B6D0FB" d="M299.962,107.558h6.057v-1.55h-6.057V107.558z"/>
				</g>
			</g>
		</g>
		<g>
			<g>
				<path fill="#405B91" d="M147.749,260.733c-0.573,0-1.037-0.464-1.037-1.037v-79.873c0-0.572,0.464-1.037,1.037-1.037
					s1.037,0.465,1.037,1.037v79.873C148.786,260.27,148.321,260.733,147.749,260.733z"/>
			</g>
			<g>
				<path fill="#405B91" d="M166.31,260.733c-0.573,0-1.037-0.464-1.037-1.037v-79.873c0-0.572,0.464-1.037,1.037-1.037
					s1.037,0.465,1.037,1.037v79.873C167.347,260.27,166.883,260.733,166.31,260.733z"/>
			</g>
			<g>
				<path fill="#405B91" d="M166.31,186.318h-18.562c-0.573,0-1.037-0.464-1.037-1.037c0-0.572,0.464-1.037,1.037-1.037h18.562
					c0.573,0,1.037,0.465,1.037,1.037C167.347,185.854,166.883,186.318,166.31,186.318z"/>
			</g>
			<g>
				<path fill="#405B91" d="M166.31,195.444h-18.562c-0.573,0-1.037-0.464-1.037-1.037s0.464-1.037,1.037-1.037h18.562
					c0.573,0,1.037,0.464,1.037,1.037S166.883,195.444,166.31,195.444z"/>
			</g>
			<g>
				<path fill="#405B91" d="M166.31,204.569h-18.562c-0.573,0-1.037-0.464-1.037-1.037s0.464-1.037,1.037-1.037h18.562
					c0.573,0,1.037,0.464,1.037,1.037S166.883,204.569,166.31,204.569z"/>
			</g>
			<g>
				<path fill="#405B91" d="M166.31,213.694h-18.562c-0.573,0-1.037-0.464-1.037-1.037s0.464-1.037,1.037-1.037h18.562
					c0.573,0,1.037,0.464,1.037,1.037S166.883,213.694,166.31,213.694z"/>
			</g>
			<g>
				<path fill="#405B91" d="M166.31,222.819h-18.562c-0.573,0-1.037-0.464-1.037-1.037s0.464-1.037,1.037-1.037h18.562
					c0.573,0,1.037,0.464,1.037,1.037S166.883,222.819,166.31,222.819z"/>
			</g>
			<g>
				<path fill="#405B91" d="M166.31,231.944h-18.562c-0.573,0-1.037-0.464-1.037-1.037s0.464-1.037,1.037-1.037h18.562
					c0.573,0,1.037,0.464,1.037,1.037S166.883,231.944,166.31,231.944z"/>
			</g>
			<g>
				<path fill="#405B91" d="M166.31,241.069h-18.562c-0.573,0-1.037-0.464-1.037-1.037s0.464-1.037,1.037-1.037h18.562
					c0.573,0,1.037,0.464,1.037,1.037S166.883,241.069,166.31,241.069z"/>
			</g>
			<g>
				<path fill="#405B91" d="M166.31,250.193h-18.562c-0.573,0-1.037-0.464-1.037-1.037s0.464-1.037,1.037-1.037h18.562
					c0.573,0,1.037,0.464,1.037,1.037S166.883,250.193,166.31,250.193z"/>
			</g>
		</g>
		<g>
			<g>
				<path fill="#405B91" d="M122.469,183.698c-0.573,0-1.037-0.465-1.037-1.037v-4.038c0-0.573,0.464-1.037,1.037-1.037
					s1.037,0.464,1.037,1.037v4.038C123.506,183.233,123.042,183.698,122.469,183.698z"/>
			</g>
			<g>
				<path fill="#405B91" d="M124.488,181.679h-4.038c-0.573,0-1.037-0.464-1.037-1.037c0-0.572,0.464-1.037,1.037-1.037h4.038
					c0.573,0,1.037,0.465,1.037,1.037C125.525,181.215,125.061,181.679,124.488,181.679z"/>
			</g>
		</g>
		<g>
			<g>
				<path fill="#405B91" d="M215.736,39.262c-0.573,0-1.037-0.464-1.037-1.037v-4.038c0-0.573,0.464-1.037,1.037-1.037
					c0.572,0,1.037,0.464,1.037,1.037v4.038C216.773,38.797,216.309,39.262,215.736,39.262z"/>
			</g>
			<g>
				<path fill="#405B91" d="M217.755,37.243h-4.037c-0.573,0-1.037-0.464-1.037-1.037s0.464-1.037,1.037-1.037h4.037
					c0.573,0,1.037,0.464,1.037,1.037S218.328,37.243,217.755,37.243z"/>
			</g>
		</g>
		<g>
			<g>
				<path fill="#405B91" d="M248.43,248.327c-0.094,0-0.19-0.014-0.285-0.04l-3.882-1.107c-0.551-0.158-0.87-0.731-0.712-1.282
					c0.157-0.551,0.732-0.864,1.281-0.713l3.883,1.107c0.551,0.158,0.87,0.731,0.712,1.282
					C249.296,248.03,248.881,248.327,248.43,248.327z"/>
			</g>
			<g>
				<path fill="#405B91" d="M245.934,249.714c-0.094,0-0.19-0.013-0.285-0.039c-0.551-0.158-0.87-0.731-0.712-1.282l1.109-3.883
					c0.158-0.551,0.732-0.864,1.282-0.713c0.551,0.158,0.87,0.731,0.712,1.282l-1.109,3.883
					C246.8,249.418,246.385,249.714,245.934,249.714z"/>
			</g>
		</g>
		<g>
			<g>
				<path fill="#405B91" d="M228.03,126.36c-0.094,0-0.189-0.013-0.285-0.041l-3.883-1.109c-0.551-0.157-0.87-0.731-0.712-1.282
					c0.158-0.551,0.729-0.87,1.282-0.713l3.883,1.109c0.551,0.157,0.87,0.731,0.712,1.282
					C228.897,126.063,228.481,126.36,228.03,126.36z"/>
			</g>
			<g>
				<path fill="#405B91" d="M225.535,127.747c-0.094,0-0.19-0.013-0.285-0.041c-0.551-0.157-0.87-0.731-0.712-1.282l1.108-3.882
					c0.157-0.551,0.729-0.87,1.282-0.712c0.551,0.157,0.87,0.731,0.712,1.282l-1.109,3.882
					C226.401,127.449,225.986,127.747,225.535,127.747z"/>
			</g>
		</g>
		<g>
			<g>
				<g>
					<circle fill="#B6D0FB" cx="225.31" cy="88.14" r="14.407"/>
				</g>
			</g>
			<g>
				<g>
					<g>
						<circle fill="#FFFFFF" cx="225.31" cy="88.14" r="10.792"/>
					</g>
				</g>
				<g>
					<g>
						<g>
							<path fill="#405B91" d="M225.31,99.35c-6.181,0-11.21-5.028-11.21-11.21c0-6.181,5.029-11.21,11.21-11.21
								c6.182,0,11.21,5.029,11.21,11.21C236.521,94.321,231.492,99.35,225.31,99.35z M225.31,77.765
								c-5.721,0-10.375,4.654-10.375,10.375c0,5.721,4.654,10.375,10.375,10.375s10.375-4.654,10.375-10.375
								C235.685,82.419,231.031,77.765,225.31,77.765z"/>
						</g>
					</g>
				</g>
			</g>
			<g>
				<g>
					<g>
						<path fill="#405B91" d="M225.31,88.557c-0.23,0-0.417-0.187-0.417-0.417v-5.495c0-0.23,0.187-0.417,0.417-0.417
							c0.231,0,0.418,0.187,0.418,0.417v5.495C225.728,88.371,225.541,88.557,225.31,88.557z"/>
					</g>
				</g>
				<g>
					<g>
						<path fill="#405B91" d="M231.748,88.557h-6.438c-0.23,0-0.417-0.187-0.417-0.417c0-0.23,0.187-0.417,0.417-0.417h6.438
							c0.231,0,0.418,0.187,0.418,0.417C232.166,88.371,231.979,88.557,231.748,88.557z"/>
					</g>
				</g>
			</g>
			<g>
				<g>
					<g>
						<circle fill="#405B91" cx="225.31" cy="78.566" r="0.426"/>
					</g>
				</g>
				<g>
					<g>
						<circle fill="#405B91" cx="232.08" cy="81.37" r="0.426"/>
					</g>
				</g>
				<g>
					<g>
						<circle fill="#405B91" cx="234.884" cy="88.14" r="0.426"/>
					</g>
				</g>
				<g>
					<g>
						<circle fill="#405B91" cx="232.08" cy="94.91" r="0.426"/>
					</g>
				</g>
				<g>
					<g>
						<circle fill="#405B91" cx="225.31" cy="97.714" r="0.426"/>
					</g>
				</g>
				<g>
					<g>
						<circle fill="#405B91" cx="218.541" cy="94.91" r="0.426"/>
					</g>
				</g>
				<g>
					<g>
						<circle fill="#405B91" cx="215.736" cy="88.14" r="0.426"/>
					</g>
				</g>
				<g>
					<g>
						<circle fill="#405B91" cx="218.541" cy="81.37" r="0.426"/>
					</g>
				</g>
			</g>
			<g>
				<g>
					<g>
						<path fill="#405B91" d="M246.385,82.638h-6.049c-0.231,0-0.417-0.187-0.417-0.417c0-0.231,0.187-0.417,0.417-0.417h6.049
							c0.231,0,0.417,0.187,0.417,0.417C246.803,82.451,246.616,82.638,246.385,82.638z"/>
					</g>
				</g>
				<g>
					<g>
						<path fill="#405B91" d="M246.385,94.477h-6.049c-0.231,0-0.417-0.187-0.417-0.417c0-0.23,0.187-0.417,0.417-0.417h6.049
							c0.231,0,0.417,0.187,0.417,0.417C246.803,94.29,246.616,94.477,246.385,94.477z"/>
					</g>
				</g>
				<g>
					<g>
						<path fill="#405B91" d="M253.905,88.559h-11.299c-0.231,0-0.417-0.187-0.417-0.417c0-0.23,0.187-0.417,0.417-0.417h11.299
							c0.23,0,0.417,0.187,0.417,0.417C254.322,88.373,254.136,88.559,253.905,88.559z"/>
					</g>
				</g>
			</g>
		</g>
		<g>
			<g>
				<rect x="266.938" y="244.181" fill="#FFFFFF" width="6.683" height="6.682"/>
				<path fill="#415B91" d="M274.14,251.381h-7.72v-7.719h7.72V251.381z M267.457,250.344h5.646v-5.645h-5.646V250.344z"/>
			</g>
			<g>
				<g>
					<g>
						<path fill="#405B91" d="M282.078,245.649h-6.05c-0.23,0-0.417-0.187-0.417-0.417c0-0.231,0.187-0.418,0.417-0.418h6.05
							c0.23,0,0.417,0.187,0.417,0.418C282.495,245.463,282.309,245.649,282.078,245.649z"/>
					</g>
				</g>
				<g>
					<g>
						<path fill="#405B91" d="M284.351,250.229h-8.175c-0.312,0-0.564-0.187-0.564-0.417c0-0.231,0.252-0.418,0.564-0.418h8.175
							c0.312,0,0.564,0.187,0.564,0.418C284.915,250.042,284.662,250.229,284.351,250.229z"/>
					</g>
				</g>
				<g>
					<g>
						<path fill="#405B91" d="M287.328,247.811h-11.3c-0.23,0-0.417-0.187-0.417-0.418c0-0.23,0.187-0.417,0.417-0.417h11.3
							c0.23,0,0.417,0.187,0.417,0.417C287.745,247.624,287.559,247.811,287.328,247.811z"/>
					</g>
				</g>
			</g>
		</g>
		<g>
			<g>
				<rect x="120.215" y="146.125" fill="#FFFFFF" width="6.682" height="6.682"/>
				<path fill="#415B91" d="M127.415,153.326h-7.719v-7.719h7.719V153.326z M120.733,152.289h5.645v-5.645h-5.645V152.289z"/>
			</g>
			<g>
				<g>
					<g>
						<path fill="#405B91" d="M111.757,147.594h6.049c0.231,0,0.417-0.187,0.417-0.417s-0.187-0.417-0.417-0.417h-6.049
							c-0.23,0-0.417,0.187-0.417,0.417S111.527,147.594,111.757,147.594z"/>
					</g>
				</g>
				<g>
					<g>
						<path fill="#405B91" d="M109.485,152.173h8.175c0.312,0,0.564-0.187,0.564-0.417s-0.252-0.417-0.564-0.417h-8.175
							c-0.312,0-0.564,0.187-0.564,0.417S109.173,152.173,109.485,152.173z"/>
					</g>
				</g>
				<g>
					<g>
						<path fill="#405B91" d="M106.507,149.755h11.299c0.231,0,0.417-0.187,0.417-0.417c0-0.23-0.187-0.417-0.417-0.417h-11.299
							c-0.23,0-0.417,0.187-0.417,0.417C106.09,149.568,106.277,149.755,106.507,149.755z"/>
					</g>
				</g>
			</g>
		</g>
		<g>
			<g>
				<rect x="324.006" y="171.233" fill="#3F5B91" width="2.074" height="89.193"/>
			</g>
			<g>
				<path fill="#B6D0FB" d="M325.271,182.025h-0.456c-3.385,0-6.153-2.769-6.153-6.152v-8.241c0-3.384,2.769-6.153,6.153-6.153
					h0.456c3.384,0,6.153,2.769,6.153,6.153v8.241C331.425,179.257,328.655,182.025,325.271,182.025z"/>
			</g>
			<g>
				<g>
					<path fill="#3F5B91" d="M333.396,176.058c0.729,0.117,1.459,0.234,2.189,0.352c0.489,0.079,0.7-0.67,0.206-0.75
						c-0.729-0.117-1.459-0.234-2.188-0.352C333.112,175.229,332.902,175.979,333.396,176.058L333.396,176.058z"/>
				</g>
			</g>
			<g>
				<g>
					<path fill="#3F5B91" d="M333.32,171.305c0.572-0.102,1.142-0.114,1.719-0.06c0.498,0.047,0.495-0.731,0-0.778
						c-0.649-0.062-1.283-0.026-1.926,0.087C332.621,170.642,332.83,171.392,333.32,171.305L333.32,171.305z"/>
				</g>
			</g>
			<g>
				<g>
					<path fill="#3F5B91" d="M333.083,166.975c0.56-0.222,1.118-0.444,1.678-0.666c0.46-0.182,0.26-0.935-0.206-0.75
						c-0.56,0.222-1.119,0.444-1.679,0.666C332.416,166.407,332.617,167.16,333.083,166.975L333.083,166.975z"/>
				</g>
			</g>
			<g>
				<g>
					<path fill="#3F5B91" d="M314.012,176.781c0.574-0.079,1.13-0.212,1.679-0.399c0.471-0.161,0.269-0.913-0.207-0.75
						c-0.549,0.188-1.104,0.32-1.679,0.399C313.312,176.1,313.521,176.85,314.012,176.781L314.012,176.781z"/>
				</g>
			</g>
			<g>
				<g>
					<path fill="#3F5B91" d="M313.002,171.253c0.721,0.02,1.417,0.127,2.11,0.323c0.482,0.136,0.688-0.615,0.207-0.751
						c-0.758-0.213-1.53-0.329-2.317-0.35C312.502,170.461,312.502,171.239,313.002,171.253L313.002,171.253z"/>
				</g>
			</g>
			<g>
				<g>
					<path fill="#3F5B91" d="M313.682,164.854c0.56,0.179,1.119,0.357,1.68,0.536c0.478,0.152,0.683-0.598,0.206-0.75
						c-0.56-0.179-1.119-0.357-1.68-0.536C313.41,163.952,313.205,164.703,313.682,164.854L313.682,164.854z"/>
				</g>
			</g>
			<g>
				<polygon fill="#405B91" points="320.203,261.636 321.586,249.714 328.327,249.714 329.883,261.463 				"/>
			</g>
		</g>
		<g>
			<g>
				<g>
					<g>
						<path fill="#6CDD6C" d="M129.868,204.561c-0.307-1.896-1.649-6.787-4.603-5.238c-4.78,2.506,0.985,12.02-4.774,13.697
							c-0.308-3.793-1.123-6.405-2.835-6.25c-3.531,0.32-2.593,8.535-2.65,10.384c-0.057,1.841-0.149,3.729-0.232,5.635
							c-4.155,0.745-3.334-10.092-5.86-11.591c-3.929-2.33-4.764,2.863-4.656,5.263c0.184,4.082,1.282,8.967,5.116,11.135
							c1.265,0.715,3.493,1.522,5.229,1.376c-0.018,3.265,0.122,6.51,0.661,9.606c0.006,0.033,0.061,0.033,0.067,0
							c0-0.003,0-0.005,0.001-0.008l2.328,0.126c0,0.014-0.001,0.028-0.002,0.043c-0.021,1.023,1.577,1.024,1.591,0
							c0.028-1.971,1.239-11.643,1.383-19.84c1.859,0.277,4.196-0.587,5.535-1.569C130.132,214.419,130.597,209.066,129.868,204.561
							z"/>
					</g>
					<g>
						<path fill="#50AA50" d="M118.438,239.948c-0.235,0-0.47-0.061-0.671-0.182c-0.25-0.151-0.423-0.379-0.503-0.651l-1.716-0.092
							l-0.625,0.021l-0.096-0.393c-0.458-2.629-0.671-5.57-0.668-9.221c-1.911-0.002-4.005-0.888-5.004-1.451
							c-4.09-2.313-5.162-7.53-5.34-11.5c-0.072-1.597,0.265-4.899,2.052-5.971c0.907-0.544,2.007-0.44,3.27,0.31
							c1.222,0.724,1.687,2.949,2.227,5.525c0.729,3.487,1.386,6,2.985,6.039l0.038-0.856c0.067-1.481,0.133-2.948,0.177-4.387
							c0.009-0.281-0.006-0.715-0.025-1.247c-0.111-3.234-0.319-9.254,3.077-9.562c0.524-0.051,1.002,0.104,1.417,0.454
							c0.947,0.797,1.553,2.64,1.846,5.624c2.146-0.957,2.035-3.443,1.908-6.291c-0.128-2.88-0.26-5.858,2.272-7.187
							c0.823-0.43,1.607-0.465,2.333-0.102c2.111,1.056,2.836,5.191,2.912,5.66l0,0c0.559,3.455,0.798,9.765-3.878,13.195
							c-1.304,0.956-3.5,1.797-5.364,1.698c-0.12,5.353-0.669,11.247-1.036,15.187c-0.184,1.975-0.329,3.533-0.338,4.174
							c-0.007,0.45-0.228,0.829-0.607,1.04C118.884,239.895,118.661,239.948,118.438,239.948z M115.637,238.144l2.474,0.134
							l-0.012,0.431c-0.006,0.205,0.068,0.269,0.124,0.303c0.122,0.072,0.302,0.073,0.431,0.001c0.102-0.056,0.151-0.146,0.153-0.28
							c0.009-0.675,0.149-2.171,0.342-4.242c0.376-4.044,0.945-10.155,1.042-15.599l0.009-0.502l0.498,0.074
							c1.716,0.255,3.964-0.577,5.208-1.489c4.297-3.152,4.056-9.086,3.529-12.342l0,0c-0.23-1.428-1.037-4.312-2.435-5.012
							c-0.463-0.233-0.963-0.202-1.528,0.093c-2.036,1.068-1.922,3.642-1.8,6.366c0.133,2.995,0.284,6.392-3.055,7.365l-0.52,0.15
							l-0.044-0.539c-0.307-3.78-1.032-5.129-1.586-5.595c-0.234-0.197-0.479-0.277-0.769-0.251
							c-2.564,0.231-2.369,5.919-2.274,8.652c0.019,0.556,0.034,1.011,0.025,1.306c-0.045,1.441-0.111,2.913-0.178,4.398
							l-0.071,1.595l-0.347,0.062c-2.844,0.509-3.644-3.318-4.351-6.698c-0.456-2.174-0.926-4.421-1.813-4.948
							c-0.963-0.569-1.759-0.676-2.366-0.311c-1.317,0.789-1.695,3.593-1.624,5.174c0.168,3.747,1.154,8.657,4.893,10.771
							c1.29,0.729,3.399,1.449,4.975,1.321l0.481-0.041l-0.003,0.483C115.022,232.617,115.212,235.545,115.637,238.144z"/>
					</g>
				</g>
				<g>
					<g>
						<g>
							<path fill="#415B91" d="M125.295,260.617h-16.883c-0.9,0-1.62-0.589-1.79-1.465l-3.833-19.678l1.591-0.311l3.833,19.678
								c0.03,0.154,0.158,0.154,0.199,0.154h16.883c0.042,0,0.17,0,0.199-0.153l3.803-19.678l1.591,0.307l-3.802,19.68
								C126.917,260.028,126.196,260.617,125.295,260.617z"/>
						</g>
					</g>
				</g>
				<g>
					<g>
						<g>
							<path fill="#B6D0FB" d="M102.96,233.143h28.023c0.478,0,0.869,0.528,0.869,1.175v4.26c0,0.647-0.391,1.175-0.869,1.175
								H102.96c-0.478,0-0.868-0.527-0.868-1.175v-4.26C102.092,233.671,102.482,233.143,102.96,233.143z"/>
						</g>
						<g>
							<path fill="#405B91" d="M130.983,240.193H102.96c-0.722,0-1.31-0.726-1.31-1.616v-4.261c0-0.89,0.588-1.615,1.31-1.615
								h28.023c0.723,0,1.31,0.726,1.31,1.615v4.261C132.293,239.468,131.706,240.193,130.983,240.193z M102.96,233.584
								c-0.201,0-0.427,0.313-0.427,0.732v4.261c0,0.419,0.226,0.733,0.427,0.733h28.023c0.202,0,0.427-0.314,0.427-0.733v-4.261
								c0-0.419-0.226-0.732-0.427-0.732H102.96z"/>
						</g>
					</g>
					<g>
						<g>
							<path fill="#B6D0FB" d="M130.983,240.121H102.96c-0.682,0-1.237-0.692-1.237-1.544v-4.26c0-0.852,0.555-1.544,1.237-1.544
								h28.023c0.683,0,1.238,0.692,1.238,1.544v4.26C132.221,239.429,131.666,240.121,130.983,240.121z M102.96,233.512
								c-0.236,0-0.499,0.331-0.499,0.806v4.26c0,0.475,0.263,0.806,0.499,0.806h28.023c0.236,0,0.5-0.331,0.5-0.806v-4.26
								c0-0.475-0.263-0.806-0.5-0.806H102.96z"/>
						</g>
						<g>
							<path fill="#405B91" d="M130.983,240.562H102.96c-0.925,0-1.678-0.891-1.678-1.985v-4.26c0-1.095,0.753-1.985,1.678-1.985
								h28.023c0.926,0,1.679,0.891,1.679,1.985v4.26C132.663,239.672,131.909,240.562,130.983,240.562z M103.011,233.953
								c-0.04,0.044-0.108,0.168-0.108,0.364v4.26c0,0.227,0.091,0.356,0.125,0.379l27.957-0.015
								c-0.033-0.008,0.058-0.138,0.058-0.364v-4.26c0-0.227-0.092-0.356-0.125-0.379L103.011,233.953z"/>
						</g>
					</g>
				</g>
			</g>
			<g>
				<g>
					<path fill="#50AA50" d="M106.016,216.414c0.46,0.059,0.921,0.117,1.382,0.176c0.495,0.063,0.49-0.715,0-0.777
						c-0.461-0.059-0.922-0.118-1.382-0.177C105.521,215.573,105.525,216.352,106.016,216.414L106.016,216.414z"/>
				</g>
			</g>
			<g>
				<g>
					<path fill="#50AA50" d="M108.05,210.297c0,0.23,0,0.461,0,0.691c0,0.501,0.778,0.501,0.778,0c0-0.23,0-0.461,0-0.691
						C108.828,209.797,108.05,209.796,108.05,210.297L108.05,210.297z"/>
				</g>
			</g>
			<g>
				<g>
					<path fill="#50AA50" d="M110.74,217.43c0.337-0.188,0.675-0.376,1.012-0.563c0.438-0.244,0.046-0.916-0.393-0.672
						c-0.337,0.188-0.674,0.376-1.012,0.563C109.91,217.001,110.302,217.673,110.74,217.43L110.74,217.43z"/>
				</g>
			</g>
			<g>
				<g>
					<path fill="#50AA50" d="M106.746,226.379c0.406-0.284,0.812-0.568,1.218-0.853c0.407-0.285,0.019-0.959-0.393-0.672
						c-0.406,0.284-0.812,0.568-1.218,0.853C105.946,225.991,106.334,226.666,106.746,226.379L106.746,226.379z"/>
				</g>
			</g>
			<g>
				<g>
					<path fill="#50AA50" d="M103.83,219.69c0.289,0.113,0.578,0.227,0.867,0.34c0.466,0.183,0.668-0.569,0.207-0.75
						c-0.289-0.113-0.578-0.227-0.866-0.34C103.57,218.758,103.368,219.51,103.83,219.69L103.83,219.69z"/>
				</g>
			</g>
			<g>
				<g>
					<path fill="#50AA50" d="M109.476,223.302c0.186,0.013,0.295,0.101,0.409,0.238c0.319,0.387,0.866-0.166,0.55-0.55
						c-0.25-0.303-0.574-0.438-0.959-0.467C108.977,222.488,108.979,223.266,109.476,223.302L109.476,223.302z"/>
				</g>
			</g>
			<g>
				<g>
					<path fill="#50AA50" d="M111.182,226.961c-0.084,0.545-0.024,1.009,0.19,1.516c0.194,0.459,0.865,0.063,0.671-0.393
						c-0.125-0.297-0.161-0.599-0.111-0.916C112.008,226.678,111.259,226.467,111.182,226.961L111.182,226.961z"/>
				</g>
			</g>
			<g>
				<g>
					<path fill="#50AA50" d="M115.246,227.104c0.229,0.061,0.459,0.122,0.688,0.184c0.484,0.129,0.691-0.621,0.207-0.75
						c-0.229-0.062-0.459-0.123-0.688-0.184C114.969,226.225,114.762,226.975,115.246,227.104L115.246,227.104z"/>
				</g>
			</g>
			<g>
				<g>
					<path fill="#50AA50" d="M117.729,219.458c-0.041,0.442,0.126,0.845,0.465,1.131c0.38,0.321,0.934-0.227,0.55-0.55
						c-0.198-0.167-0.261-0.326-0.237-0.581C118.553,218.96,117.774,218.963,117.729,219.458L117.729,219.458z"/>
				</g>
			</g>
			<g>
				<g>
					<path fill="#50AA50" d="M116.742,213.9c-0.226,0.309-0.266,0.623-0.201,0.991c0.086,0.492,0.836,0.284,0.75-0.206
						c-0.025-0.157,0.016-0.288,0.122-0.393C117.71,213.889,117.036,213.501,116.742,213.9L116.742,213.9z"/>
				</g>
			</g>
			<g>
				<g>
					<path fill="#50AA50" d="M121.013,216.174c0,0.23,0,0.461,0,0.691c0,0.5,0.778,0.501,0.778,0c0-0.23,0-0.461,0-0.691
						C121.791,215.673,121.013,215.673,121.013,216.174L121.013,216.174z"/>
				</g>
			</g>
			<g>
				<g>
					<path fill="#50AA50" d="M113.773,214.954c0.173,0.115,0.346,0.23,0.519,0.346c0.418,0.278,0.808-0.396,0.393-0.672
						c-0.173-0.115-0.346-0.23-0.519-0.346C113.749,214.004,113.358,214.678,113.773,214.954L113.773,214.954z"/>
				</g>
			</g>
			<g>
				<g>
					<path fill="#50AA50" d="M115.075,208.501c0.15,0.175,0.225,0.355,0.243,0.586c0.038,0.496,0.816,0.5,0.778,0
						c-0.034-0.446-0.18-0.798-0.47-1.137C115.299,207.569,114.751,208.122,115.075,208.501L115.075,208.501z"/>
				</g>
			</g>
			<g>
				<g>
					<path fill="#50AA50" d="M117.038,206.148c0,0.346,0,0.691,0,1.037c0,0.501,0.778,0.502,0.778,0c0-0.346,0-0.691,0-1.037
						C117.816,205.648,117.038,205.647,117.038,206.148L117.038,206.148z"/>
				</g>
			</g>
			<g>
				<g>
					<path fill="#50AA50" d="M121.847,210.718c0.112,0.118,0.225,0.236,0.337,0.354c0.346,0.363,0.896-0.188,0.55-0.55
						c-0.112-0.118-0.225-0.236-0.337-0.354C122.051,209.805,121.501,210.355,121.847,210.718L121.847,210.718z"/>
				</g>
			</g>
			<g>
				<g>
					<path fill="#50AA50" d="M122.618,206.083c0.345,0.02,0.689,0.039,1.034,0.06c0.5,0.028,0.498-0.75,0-0.778
						c-0.345-0.02-0.689-0.039-1.034-0.059C122.118,205.276,122.12,206.055,122.618,206.083L122.618,206.083z"/>
				</g>
			</g>
			<g>
				<g>
					<path fill="#50AA50" d="M123.72,199.855c0.23,0.23,0.46,0.461,0.691,0.691c0.354,0.354,0.904-0.195,0.55-0.55
						c-0.23-0.23-0.461-0.461-0.691-0.691C123.916,198.951,123.365,199.501,123.72,199.855L123.72,199.855z"/>
				</g>
			</g>
			<g>
				<g>
					<path fill="#50AA50" d="M126.717,197.852c0,0.403,0,0.807,0,1.211c0,0.5,0.778,0.501,0.778,0c0-0.404,0-0.808,0-1.211
						C127.495,197.352,126.717,197.351,126.717,197.852L126.717,197.852z"/>
				</g>
			</g>
			<g>
				<g>
					<path fill="#50AA50" d="M128.127,205.131c0.114-0.174,0.229-0.347,0.343-0.521c0.276-0.419-0.397-0.81-0.671-0.393
						c-0.114,0.174-0.229,0.347-0.343,0.521C127.179,205.157,127.852,205.547,128.127,205.131L128.127,205.131z"/>
				</g>
			</g>
			<g>
				<g>
					<path fill="#50AA50" d="M125.49,212.77c0.289-0.112,0.578-0.226,0.867-0.338c0.462-0.179,0.261-0.932-0.207-0.75
						c-0.289,0.112-0.579,0.226-0.868,0.338C124.822,212.198,125.022,212.951,125.49,212.77L125.49,212.77z"/>
				</g>
			</g>
			<g>
				<g>
					<path fill="#50AA50" d="M128.933,211.685c0.288-0.06,0.575-0.12,0.863-0.18c0.49-0.101,0.283-0.851-0.207-0.75
						c-0.288,0.06-0.575,0.12-0.863,0.18C128.236,211.035,128.443,211.785,128.933,211.685L128.933,211.685z"/>
				</g>
			</g>
			<g>
				<g>
					<path fill="#50AA50" d="M126.717,215.31c0,0.058,0,0.115,0,0.173c0,0.5,0.778,0.501,0.778,0c0-0.058,0-0.115,0-0.173
						C127.495,214.809,126.717,214.809,126.717,215.31L126.717,215.31z"/>
				</g>
			</g>
			<g>
				<g>
					<path fill="#50AA50" d="M120.038,227.219c0.173-0.115,0.346-0.23,0.519-0.346c0.415-0.276,0.026-0.95-0.393-0.672
						c-0.173,0.115-0.346,0.23-0.519,0.346C119.231,226.823,119.62,227.497,120.038,227.219L120.038,227.219z"/>
				</g>
			</g>
			<g>
				<g>
					<path fill="#50AA50" d="M119.584,230.086c0.31-0.298,0.641-0.47,1.058-0.567c0.487-0.113,0.281-0.864-0.207-0.75
						c-0.541,0.127-1.001,0.383-1.401,0.767C118.672,229.883,119.223,230.432,119.584,230.086L119.584,230.086z"/>
				</g>
			</g>
			<g>
				<g>
					<path fill="#50AA50" d="M116.381,230.553c0.058,0.115,0.117,0.23,0.175,0.345c0.227,0.446,0.898,0.053,0.671-0.393
						c-0.058-0.115-0.117-0.229-0.175-0.345C116.825,229.715,116.154,230.107,116.381,230.553L116.381,230.553z"/>
				</g>
			</g>
			<g>
				<g>
					<path fill="#50AA50" d="M113.419,231.39c0.436,0.227,0.862,0.283,1.343,0.187c0.49-0.1,0.283-0.85-0.207-0.75
						c-0.273,0.055-0.499,0.02-0.744-0.108C113.368,230.487,112.974,231.158,113.419,231.39L113.419,231.39z"/>
				</g>
			</g>
			<g>
				<g>
					<path fill="#50AA50" d="M119.849,224.013c0.518-0.065,1.036-0.13,1.553-0.195c0.49-0.061,0.496-0.84,0-0.777
						c-0.518,0.064-1.035,0.13-1.553,0.194C119.359,223.296,119.353,224.074,119.849,224.013L119.849,224.013z"/>
				</g>
			</g>
		</g>
		<g>
			<g>
				<g>
					<path fill="#D7E7FF" d="M189.509,189.928c8.372-7.568,16.743-15.137,25.114-22.705c1.241-1.122-0.598-2.951-1.833-1.833
						c-8.372,7.568-16.743,15.137-25.115,22.704C186.436,189.216,188.274,191.045,189.509,189.928L189.509,189.928z"/>
				</g>
			</g>
			<g>
				<g>
					<path fill="#D7E7FF" d="M217.892,201.508c8.372-7.568,16.743-15.136,25.115-22.704c1.24-1.122-0.598-2.95-1.833-1.833
						c-8.372,7.567-16.743,15.136-25.114,22.704C214.818,200.796,216.657,202.625,217.892,201.508L217.892,201.508z"/>
				</g>
			</g>
			<g>
				<g>
					<path fill="#D7E7FF" d="M187.051,210.086c17.546-17.109,35.092-34.218,52.637-51.327c1.197-1.167-0.637-3-1.833-1.833
						c-17.546,17.109-35.092,34.218-52.637,51.328C184.021,209.42,185.855,211.252,187.051,210.086L187.051,210.086z"/>
				</g>
			</g>
		</g>
		<g>
			<g>
				<g>
					<g>
						<g>
							<rect x="266.375" y="50.479" fill="#415B91" width="1.128" height="72.438"/>
						</g>
					</g>
					<g>
						<g>
							<circle fill="#415B91" cx="266.939" cy="122.917" r="4.598"/>
						</g>
					</g>
					<g>
						<g>
							<path fill="#415B91" d="M267.003,138.344c-0.076,0-1.577-0.015-2.673-1.108c-0.73-0.73-1.102-1.744-1.102-3.013
								c0-0.336,0.272-0.608,0.608-0.608s0.608,0.272,0.608,0.608c0,0.934,0.251,1.658,0.745,2.151
								c0.735,0.734,1.802,0.753,1.812,0.753c1.717,0,3.112-1.396,3.112-3.111c0-1.716-1.396-3.111-3.111-3.111
								c-0.336,0-0.608-0.272-0.608-0.608v-3.381c0-0.336,0.272-0.608,0.608-0.608c0.337,0,0.608,0.272,0.608,0.608v2.815
								c2.1,0.297,3.72,2.105,3.72,4.286C271.332,136.402,269.391,138.344,267.003,138.344
								C267.004,138.344,267.004,138.344,267.003,138.344z"/>
						</g>
					</g>
				</g>
				<g>
					<g>
						<g>
							<path fill="#415B91" d="M242.856,141.175c-0.233-0.041-0.425-0.227-0.461-0.474c-0.045-0.308,0.167-0.595,0.476-0.64
								l24.889-3.667c0.309-0.046,0.596,0.168,0.641,0.476s-0.168,0.595-0.477,0.64l-24.889,3.667
								C242.974,141.187,242.914,141.186,242.856,141.175z"/>
						</g>
					</g>
					<g>
						<g>
							<path fill="#415B91" d="M290.632,149.458c-0.056-0.01-0.111-0.028-0.164-0.056l-22.887-11.95
								c-0.276-0.144-0.384-0.485-0.239-0.761c0.145-0.276,0.484-0.384,0.762-0.239l22.886,11.949
								c0.276,0.144,0.384,0.485,0.239,0.761C291.112,149.386,290.867,149.499,290.632,149.458z"/>
						</g>
					</g>
					<g>
						<path fill="#FFFFFF" d="M288.765,197.237l-60.955-10.592c-3.194-0.555-5.333-3.594-4.778-6.787l6.099-35.098
							c0.555-3.193,3.594-5.333,6.788-4.778l60.956,10.592c3.193,0.555,5.333,3.594,4.777,6.788l-6.098,35.098
							C294.997,195.653,291.959,197.793,288.765,197.237z"/>
						<path fill="#415B91" d="M289.597,198.069c-0.39,0-0.783-0.034-1.181-0.103l-60.525-10.517
							c-1.807-0.314-3.383-1.313-4.438-2.812c-1.055-1.5-1.463-3.32-1.149-5.127l6.024-34.668c0.648-3.729,4.21-6.235,7.938-5.588
							l60.526,10.518c1.807,0.313,3.384,1.312,4.439,2.812c1.055,1.499,1.463,3.32,1.15,5.126l-6.024,34.668
							C295.776,195.712,292.869,198.068,289.597,198.069z M235.087,140.708c-2.532,0-4.78,1.823-5.229,4.401l-6.024,34.668
							c-0.243,1.397,0.073,2.806,0.889,3.966c0.816,1.16,2.036,1.932,3.433,2.175l60.526,10.517c2.881,0.505,5.638-1.438,6.14-4.321
							l6.024-34.668c0.242-1.397-0.073-2.806-0.89-3.965s-2.036-1.932-3.433-2.175l-60.526-10.518
							C235.693,140.733,235.388,140.708,235.087,140.708z"/>
					</g>
					<g>
						<path fill="#B6D0FB" d="M288.308,193.438l-58.786-10.215c-2.041-0.354-3.408-2.297-3.053-4.337l5.569-32.05
							c0.354-2.041,2.296-3.407,4.337-3.053l58.785,10.215c2.041,0.354,3.407,2.296,3.053,4.337l-5.568,32.05
							C292.29,192.425,290.348,193.792,288.308,193.438z"/>
						<path fill="#405B91" d="M288.846,194.25c-0.269,0-0.539-0.023-0.808-0.07l-58.512-10.168c-1.228-0.213-2.3-0.892-3.017-1.91
							c-0.718-1.02-0.996-2.258-0.782-3.486l5.521-31.775c0.44-2.535,2.857-4.242,5.397-3.799l58.511,10.167
							c2.536,0.44,4.24,2.861,3.8,5.396l-5.521,31.775c-0.214,1.229-0.892,2.3-1.912,3.019
							C290.728,193.958,289.799,194.25,288.846,194.25z M288.303,192.646c0.818,0.142,1.646-0.043,2.324-0.521
							c0.68-0.478,1.133-1.193,1.274-2.012l5.521-31.776c0.294-1.69-0.843-3.304-2.532-3.598l-58.512-10.167
							c-1.687-0.292-3.304,0.843-3.599,2.533l-5.521,31.775c-0.143,0.819,0.043,1.644,0.521,2.323
							c0.478,0.68,1.192,1.133,2.011,1.274L288.303,192.646z"/>
					</g>
					<g>
						<polygon fill="#FFFFFF" points="260.42,188.592 275.632,174.65 284.05,192.697 						"/>
						<path fill="#415B91" d="M284.939,193.378l-25.647-4.456l16.511-15.131L284.939,193.378z M261.549,188.262l21.61,3.755
							l-7.699-16.506L261.549,188.262z"/>
					</g>
					<g>
						<polygon fill="#FFFFFF" points="230.343,183.365 257.311,158.649 272.235,190.645 						"/>
						<path fill="#415B91" d="M273.126,191.325l-43.911-7.63l28.267-25.906L273.126,191.325z M231.47,183.035l39.875,6.929
							l-14.206-30.455L231.47,183.035z"/>
					</g>
					<g>
						<circle fill="#FFFFFF" cx="285.662" cy="162.689" r="3.771"/>
						<path fill="#415B91" d="M285.67,166.98c-0.246,0-0.495-0.021-0.743-0.064c-2.331-0.405-3.896-2.63-3.491-4.96
							c0.195-1.129,0.819-2.114,1.757-2.774c0.936-0.659,2.072-0.915,3.204-0.719c1.128,0.196,2.113,0.82,2.772,1.757
							s0.915,2.075,0.718,3.204c-0.195,1.129-0.819,2.114-1.757,2.774C287.399,166.712,286.546,166.98,285.67,166.98z
							 M285.654,159.436c-0.664,0-1.312,0.204-1.865,0.594c-0.711,0.5-1.184,1.247-1.333,2.103
							c-0.147,0.856,0.046,1.719,0.545,2.429c0.501,0.71,1.248,1.184,2.104,1.332c0.851,0.148,1.718-0.044,2.429-0.544
							c0.711-0.5,1.184-1.248,1.333-2.104l0,0c0.307-1.767-0.881-3.454-2.648-3.761C286.03,159.452,285.842,159.436,285.654,159.436
							z"/>
					</g>
				</g>
				<g>
					<g>
						<rect x="257.042" y="48.042" fill="#B6D0FB" width="56.527" height="6.22"/>
					</g>
				</g>
				<g>
					<g>
						<g>
							<g>
								<g>
									<g>
										<path fill="#415B91" d="M362.693,176.646h-18.766V10.727h18.766V176.646z M345.783,174.79h15.054V12.583h-15.054V174.79z"
											/>
									</g>
								</g>
								<g>
									<g>
										<g>
											<path fill="#415B91" d="M362.458,28.938h-18.296V10.644h18.296V28.938z M346.043,27.058h14.534V12.524h-14.534V27.058z"
												/>
										</g>
									</g>
									<g>
										<g>
											
												<rect x="341.703" y="18.851" transform="matrix(0.7071 0.7071 -0.7071 0.7071 117.4688 -244.0242)" fill="#415B91" width="23.214" height="1.881"/>
										</g>
									</g>
									<g>
										<g>
											
												<rect x="352.37" y="8.184" transform="matrix(0.7072 0.707 -0.707 0.7072 117.4282 -243.9879)" fill="#415B91" width="1.881" height="23.214"/>
										</g>
									</g>
								</g>
								<g>
									<g>
										<g>
											<path fill="#415B91" d="M362.458,45.353h-18.296V27.058h18.296V45.353z M346.043,43.472h14.534V28.938h-14.534V43.472z"
												/>
										</g>
									</g>
									<g>
										<g>
											
												<rect x="341.703" y="35.265" transform="matrix(0.7071 0.7071 -0.7071 0.7071 129.0792 -239.2202)" fill="#415B91" width="23.214" height="1.881"/>
										</g>
									</g>
									<g>
										<g>
											
												<rect x="352.37" y="24.599" transform="matrix(0.7071 0.7071 -0.7071 0.7071 129.0833 -239.2236)" fill="#415B91" width="1.881" height="23.214"/>
										</g>
									</g>
								</g>
								<g>
									<g>
										<g>
											<path fill="#415B91" d="M362.458,61.768h-18.296V43.472h18.296V61.768z M346.043,59.887h14.534V45.353h-14.534V59.887z"
												/>
										</g>
									</g>
									<g>
										<g>
											
												<rect x="341.703" y="51.679" transform="matrix(0.7071 0.7071 -0.7071 0.7071 140.6813 -234.4097)" fill="#415B91" width="23.214" height="1.881"/>
										</g>
									</g>
									<g>
										<g>
											
												<rect x="352.37" y="41.013" transform="matrix(0.7072 0.707 -0.707 0.7072 140.6371 -234.377)" fill="#415B91" width="1.881" height="23.214"/>
										</g>
									</g>
								</g>
								<g>
									<g>
										<g>
											<path fill="#415B91" d="M362.458,78.182h-18.296V59.887h18.296V78.182z M346.043,76.301h14.534V61.768h-14.534V76.301z"
												/>
										</g>
									</g>
									<g>
										<g>
											
												<rect x="341.703" y="68.094" transform="matrix(0.7071 0.7071 -0.7071 0.7071 152.2922 -229.6053)" fill="#415B91" width="23.214" height="1.881"/>
										</g>
									</g>
									<g>
										<g>
											
												<rect x="352.37" y="57.427" transform="matrix(0.7071 0.7071 -0.7071 0.7071 152.2967 -229.6083)" fill="#415B91" width="1.881" height="23.214"/>
										</g>
									</g>
								</g>
								<g>
									<g>
										<g>
											<path fill="#415B91" d="M362.458,94.596h-18.296V76.301h18.296V94.596z M346.043,92.715h14.534V78.182h-14.534V92.715z"
												/>
										</g>
									</g>
									<g>
										<g>
											
												<rect x="341.703" y="84.508" transform="matrix(0.7071 0.7071 -0.7071 0.7071 163.8939 -224.7951)" fill="#415B91" width="23.214" height="1.881"/>
										</g>
									</g>
									<g>
										<g>
											
												<rect x="352.37" y="73.841" transform="matrix(0.7072 0.707 -0.707 0.7072 163.8462 -224.766)" fill="#415B91" width="1.881" height="23.214"/>
										</g>
									</g>
								</g>
								<g>
									<g>
										<g>
											<path fill="#415B91" d="M362.458,111.01h-18.296V92.715h18.296V111.01z M346.043,109.13h14.534V94.596h-14.534V109.13z"
												/>
										</g>
									</g>
									<g>
										<g>
											
												<rect x="341.703" y="100.922" transform="matrix(0.7071 0.7071 -0.7071 0.7071 175.5052 -219.9904)" fill="#415B91" width="23.214" height="1.881"/>
										</g>
									</g>
									<g>
										<g>
											
												<rect x="352.37" y="90.256" transform="matrix(0.7072 0.707 -0.707 0.7072 175.4509 -219.9604)" fill="#415B91" width="1.881" height="23.214"/>
										</g>
									</g>
								</g>
								<g>
									<g>
										<g>
											<path fill="#415B91" d="M362.458,127.424h-18.296V109.13h18.296V127.424z M346.043,125.544h14.534V111.01h-14.534
												V125.544z"/>
										</g>
									</g>
									<g>
										<g>
											
												<rect x="341.703" y="117.337" transform="matrix(0.7071 0.7071 -0.7071 0.7071 187.1068 -215.1805)" fill="#415B91" width="23.214" height="1.881"/>
										</g>
									</g>
									<g>
										<g>
											
												<rect x="352.37" y="106.67" transform="matrix(0.7072 0.707 -0.707 0.7072 187.0555 -215.1549)" fill="#415B91" width="1.881" height="23.214"/>
										</g>
									</g>
								</g>
								<g>
									<g>
										<g>
											<path fill="#415B91" d="M362.458,143.839h-18.296v-18.295h18.296V143.839z M346.043,141.958h14.534v-14.534h-14.534
												V141.958z"/>
										</g>
									</g>
									<g>
										<g>
											
												<rect x="341.703" y="133.751" transform="matrix(0.7071 0.7071 -0.7071 0.7071 198.7182 -210.3755)" fill="#415B91" width="23.214" height="1.881"/>
										</g>
									</g>
									<g>
										<g>
											
												<rect x="352.37" y="123.085" transform="matrix(0.7071 0.7071 -0.7071 0.7071 198.7233 -210.3777)" fill="#415B91" width="1.881" height="23.214"/>
										</g>
									</g>
								</g>
								<g>
									<g>
										<g>
											<path fill="#415B91" d="M362.458,160.253h-18.296v-18.295h18.296V160.253z M346.043,158.373h14.534v-14.534h-14.534
												V158.373z"/>
										</g>
									</g>
									<g>
										<g>
											
												<rect x="341.703" y="150.165" transform="matrix(0.7071 0.7071 -0.7071 0.7071 210.3192 -205.5659)" fill="#415B91" width="23.214" height="1.881"/>
										</g>
									</g>
									<g>
										<g>
											
												<rect x="352.37" y="139.498" transform="matrix(0.7072 0.707 -0.707 0.7072 210.2643 -205.5439)" fill="#415B91" width="1.881" height="23.214"/>
										</g>
									</g>
								</g>
								<g>
									<g>
										<g>
											<path fill="#415B91" d="M362.458,176.667h-18.296v-18.294h18.296V176.667z M346.043,174.786h14.534v-14.533h-14.534
												V174.786z"/>
										</g>
									</g>
									<g>
										<g>
											
												<rect x="341.703" y="166.579" transform="matrix(0.7071 0.7071 -0.7071 0.7071 221.9255 -200.7586)" fill="#415B91" width="23.214" height="1.881"/>
										</g>
									</g>
									<g>
										<g>
											
												<rect x="352.37" y="155.913" transform="matrix(0.7071 0.7071 -0.7071 0.7071 221.9365 -200.7625)" fill="#415B91" width="1.881" height="23.213"/>
										</g>
									</g>
								</g>
							</g>
							<g>
								<g>
									<g>
										<g>
											<path fill="#415B91" d="M395.119,45.105h-18.295V26.811h18.295V45.105z M378.704,43.225h14.534V28.691h-14.534V43.225z"
												/>
										</g>
									</g>
									<g>
										<g>
											
												<rect x="385.031" y="24.351" transform="matrix(0.7075 0.7067 -0.7067 0.7075 138.3104 -262.255)" fill="#415B91" width="1.881" height="23.214"/>
										</g>
									</g>
									<g>
										<g>
											
												<rect x="374.365" y="35.017" transform="matrix(0.7071 0.7071 -0.7071 0.7071 138.4658 -262.384)" fill="#415B91" width="23.214" height="1.882"/>
										</g>
									</g>
								</g>
								<g>
									<g>
										<g>
											<path fill="#415B91" d="M378.704,45.105H360.41V26.811h18.294V45.105z M362.29,43.225h14.534V28.691H362.29V43.225z"/>
										</g>
									</g>
									<g>
										<g>
											
												<rect x="368.616" y="24.351" transform="matrix(0.7072 0.707 -0.707 0.7072 133.6141 -250.7408)" fill="#415B91" width="1.881" height="23.213"/>
										</g>
									</g>
									<g>
										<g>
											
												<rect x="357.95" y="35.018" transform="matrix(0.7071 0.7071 -0.7071 0.7071 133.6668 -250.7841)" fill="#415B91" width="23.213" height="1.881"/>
										</g>
									</g>
								</g>
								<g>
									<g>
										<path fill="#415B91" d="M362.29,45.105h-18.295V26.811h18.295V45.105z M345.876,43.225h14.534V28.691h-14.534V43.225z"/>
									</g>
								</g>
								<g>
									<g>
										<g>
											<path fill="#415B91" d="M345.876,45.105h-18.295V26.811h18.295V45.105z M329.462,43.225h14.533V28.691h-14.533V43.225z"
												/>
										</g>
									</g>
									<g>
										<g>
											
												<rect x="335.788" y="24.351" transform="matrix(0.7072 0.707 -0.707 0.7072 124.0033 -227.5321)" fill="#415B91" width="1.881" height="23.213"/>
										</g>
									</g>
									<g>
										<g>
											
												<rect x="325.122" y="35.018" transform="matrix(0.7071 0.7071 -0.7071 0.7071 124.0517 -227.5712)" fill="#415B91" width="23.213" height="1.881"/>
										</g>
									</g>
								</g>
								<g>
									<g>
										<g>
											<path fill="#415B91" d="M329.462,45.105h-18.295V26.811h18.295V45.105z M313.047,43.225h14.534V28.691h-14.534V43.225z"
												/>
										</g>
									</g>
									<g>
										<g>
											
												<rect x="319.374" y="24.351" transform="matrix(0.707 0.7072 -0.7072 0.707 119.2902 -216.0013)" fill="#415B91" width="1.88" height="23.213"/>
										</g>
									</g>
									<g>
										<g>
											
												<rect x="308.707" y="35.018" transform="matrix(0.7071 0.7071 -0.7071 0.7071 119.2439 -215.9643)" fill="#415B91" width="23.213" height="1.88"/>
										</g>
									</g>
								</g>
								<g>
									<g>
										<g>
											<path fill="#415B91" d="M313.047,45.105h-18.295V26.811h18.295V45.105z M296.633,43.225h14.534V28.691h-14.534V43.225z"
												/>
										</g>
									</g>
									<g>
										<g>
											<path fill="#415B91" d="M295.692,45.105h-16.414c-0.38,0-0.723-0.229-0.869-0.581c-0.145-0.351-0.064-0.755,0.204-1.024
												l16.414-16.415l1.33,1.33l-14.809,14.809h13.754l16.14-16.139l1.329,1.33L296.357,44.83
												C296.182,45.006,295.942,45.105,295.692,45.105z"/>
										</g>
									</g>
									<g>
										<g>
											
												<rect x="292.293" y="35.018" transform="matrix(0.7071 0.7071 -0.7071 0.7071 114.4292 -204.3522)" fill="#415B91" width="23.214" height="1.881"/>
										</g>
									</g>
								</g>
							</g>
						</g>
						<g>
							<g>
								<g>
									<path fill="#415B91" d="M362.733,194.941h-18.806v-18.295h18.806V194.941z M345.86,193.061H360.8v-14.533H345.86V193.061z"
										/>
								</g>
							</g>
							<g>
								<g>
									<polygon fill="#415B91" points="361.083,194.666 344.211,178.252 345.577,176.922 362.45,193.336 									"/>
								</g>
							</g>
							<g>
								<g>
									<polygon fill="#415B91" points="345.577,194.666 344.211,193.336 361.083,176.922 362.45,178.252 									"/>
								</g>
							</g>
						</g>
						<g>
							<g>
								<g>
									<path fill="#415B91" d="M362.733,260.599h-18.806v-18.295h18.806V260.599z M345.86,258.718H360.8v-14.533H345.86V258.718z"
										/>
								</g>
							</g>
							<g>
								<g>
									<polygon fill="#415B91" points="361.083,260.323 344.211,243.909 345.577,242.579 362.45,258.993 									"/>
								</g>
							</g>
							<g>
								<g>
									<polygon fill="#415B91" points="345.577,260.323 344.211,258.993 361.083,242.579 362.45,243.909 									"/>
								</g>
							</g>
						</g>
					</g>
					<g>
						<g>
							<g>
								<path fill="#415B91" d="M362.733,209.8h-18.806v-18.295h18.806V209.8z M345.86,207.92H360.8v-14.534H345.86V207.92z"/>
							</g>
						</g>
						<g>
							<g>
								<polygon fill="#415B91" points="361.083,209.525 344.211,193.11 345.577,191.78 362.45,208.194 								"/>
							</g>
						</g>
						<g>
							<g>
								<polygon fill="#415B91" points="345.577,209.525 344.211,208.194 361.083,191.78 362.45,193.11 								"/>
							</g>
						</g>
					</g>
					<g>
						<g>
							<g>
								<path fill="#415B91" d="M362.733,226.214h-18.806V207.92h18.806V226.214z M345.86,224.334H360.8V209.8H345.86V224.334z"/>
							</g>
						</g>
						<g>
							<g>
								<polygon fill="#415B91" points="361.083,225.939 344.211,209.524 345.577,208.195 362.45,224.609 								"/>
							</g>
						</g>
						<g>
							<g>
								<polygon fill="#415B91" points="345.577,225.939 344.211,224.609 361.083,208.195 362.45,209.524 								"/>
							</g>
						</g>
					</g>
					<g>
						<g>
							<g>
								<path fill="#415B91" d="M362.733,242.629h-18.806v-18.295h18.806V242.629z M345.86,240.748H360.8v-14.534H345.86V240.748z"
									/>
							</g>
						</g>
						<g>
							<g>
								<polygon fill="#415B91" points="361.083,242.354 344.211,225.938 345.577,224.609 362.45,241.023 								"/>
							</g>
						</g>
						<g>
							<g>
								<polygon fill="#415B91" points="345.577,242.354 344.211,241.023 361.083,224.609 362.45,225.938 								"/>
							</g>
						</g>
					</g>
				</g>
			</g>
		</g>
		<g>
			<path fill="#405B91" d="M152.86,108.643"/>
			<g>
				<path fill="#405B91" d="M152.86,110.198c2.002,0,2.005-3.111,0-3.111C150.858,107.087,150.855,110.198,152.86,110.198
					L152.86,110.198z"/>
			</g>
		</g>
		<g>
			<path fill="#405B91" d="M321.559,76.147"/>
			<g>
				<path fill="#405B91" d="M321.559,77.703c2.002,0,2.005-3.111,0-3.111C319.557,74.592,319.553,77.703,321.559,77.703
					L321.559,77.703z"/>
			</g>
		</g>
		<g>
			<path fill="#405B91" d="M391.389,187.461c0.23,0,0.461,0,0.691,0"/>
			<g>
				<path fill="#405B91" d="M391.389,189.016c0.23,0,0.461,0,0.691,0c0.813,0,1.593-0.715,1.556-1.555
					c-0.038-0.843-0.684-1.556-1.556-1.556c-0.23,0-0.461,0-0.691,0c-0.814,0-1.594,0.715-1.556,1.556
					C389.87,188.304,390.517,189.016,391.389,189.016L391.389,189.016z"/>
			</g>
		</g>
		<g>
			<path fill="#405B91" d="M91.327,210.276"/>
			<g>
				<path fill="#405B91" d="M91.327,211.832c2.002,0,2.005-3.111,0-3.111C89.325,208.721,89.322,211.832,91.327,211.832
					L91.327,211.832z"/>
			</g>
		</g>
		<g>
			<path fill="#405B91" d="M239.975,60.937"/>
			<g>
				<path fill="#405B91" d="M239.975,62.493c2.001,0,2.005-3.111,0-3.111C237.973,59.381,237.97,62.493,239.975,62.493
					L239.975,62.493z"/>
			</g>
		</g>
	</g>
</g>
<g id="DESIGNED_BY_FREEPIK">
	<g id="XMLID_1_">
		<g id="XMLID_82_">
			<path id="XMLID_115_" fill="#415B91" d="M180.308,284.518v-0.161c-0.218,0.249-0.432,0.452-0.644,0.608
				c-0.211,0.156-0.441,0.275-0.689,0.356c-0.247,0.082-0.517,0.122-0.81,0.122c-0.388,0-0.747-0.082-1.078-0.246
				c-0.33-0.164-0.616-0.399-0.857-0.704c-0.242-0.305-0.425-0.662-0.549-1.074s-0.187-0.856-0.187-1.335
				c0-1.014,0.248-1.804,0.742-2.369s1.146-0.849,1.953-0.849c0.467,0,0.861,0.08,1.181,0.239c0.321,0.161,0.633,0.408,0.938,0.739
				v-2.392c0-0.333,0.066-0.584,0.199-0.754c0.132-0.17,0.321-0.255,0.566-0.255s0.434,0.078,0.567,0.234s0.199,0.386,0.199,0.691
				v7.147c0,0.309-0.071,0.54-0.213,0.694c-0.143,0.153-0.326,0.231-0.552,0.231c-0.222,0-0.404-0.08-0.549-0.24
				C180.38,285.042,180.308,284.813,180.308,284.518z M177.12,282.137c0,0.439,0.068,0.813,0.205,1.122s0.323,0.541,0.561,0.697
				c0.237,0.156,0.497,0.235,0.777,0.235c0.285,0,0.545-0.074,0.781-0.224c0.235-0.147,0.423-0.376,0.564-0.682
				c0.141-0.307,0.21-0.69,0.21-1.149c0-0.432-0.07-0.803-0.21-1.114c-0.141-0.31-0.33-0.547-0.57-0.712
				c-0.24-0.163-0.502-0.245-0.787-0.245c-0.296,0-0.562,0.084-0.795,0.252c-0.233,0.168-0.415,0.409-0.543,0.724
				C177.184,281.356,177.12,281.722,177.12,282.137z"/>
			<path id="XMLID_109_" fill="#415B91" d="M187.454,282.547h-3.169c0.004,0.367,0.078,0.692,0.223,0.973
				c0.144,0.281,0.336,0.493,0.576,0.636s0.504,0.213,0.792,0.213c0.194,0,0.371-0.021,0.531-0.067s0.315-0.116,0.466-0.214
				c0.15-0.097,0.289-0.201,0.416-0.312c0.126-0.111,0.29-0.262,0.492-0.452c0.083-0.07,0.202-0.106,0.357-0.106
				c0.166,0,0.3,0.046,0.403,0.137c0.103,0.092,0.155,0.22,0.155,0.386c0,0.146-0.058,0.317-0.172,0.514
				c-0.116,0.196-0.289,0.384-0.52,0.563c-0.232,0.181-0.522,0.329-0.873,0.448c-0.35,0.119-0.753,0.179-1.208,0.179
				c-1.041,0-1.85-0.298-2.428-0.891c-0.578-0.594-0.866-1.399-0.866-2.416c0-0.479,0.071-0.924,0.213-1.332
				c0.143-0.41,0.351-0.762,0.623-1.055c0.273-0.293,0.609-0.517,1.009-0.674c0.399-0.156,0.843-0.233,1.33-0.233
				c0.633,0,1.176,0.133,1.629,0.4c0.454,0.267,0.793,0.612,1.019,1.035c0.225,0.424,0.338,0.855,0.338,1.294
				c0,0.408-0.117,0.672-0.35,0.794C188.207,282.486,187.877,282.547,187.454,282.547z M184.284,281.627h2.938
				c-0.039-0.555-0.189-0.97-0.448-1.244c-0.259-0.275-0.6-0.413-1.024-0.413c-0.404,0-0.735,0.14-0.994,0.419
				C184.497,280.667,184.34,281.08,184.284,281.627z"/>
			<path id="XMLID_106_" fill="#415B91" d="M194.838,283.323c0,0.447-0.108,0.831-0.326,1.149s-0.539,0.561-0.965,0.725
				c-0.425,0.164-0.943,0.246-1.552,0.246c-0.582,0-1.08-0.09-1.496-0.268c-0.415-0.178-0.722-0.401-0.919-0.667
				c-0.198-0.268-0.297-0.535-0.297-0.806c0-0.178,0.062-0.33,0.19-0.456c0.126-0.126,0.287-0.189,0.481-0.189
				c0.17,0,0.3,0.041,0.391,0.124s0.179,0.2,0.261,0.35c0.167,0.29,0.366,0.505,0.598,0.647c0.231,0.143,0.546,0.214,0.947,0.214
				c0.324,0,0.591-0.072,0.798-0.217s0.311-0.31,0.311-0.496c0-0.285-0.107-0.492-0.323-0.622c-0.216-0.131-0.571-0.256-1.065-0.375
				c-0.558-0.138-1.012-0.284-1.362-0.437c-0.351-0.151-0.63-0.353-0.84-0.602c-0.209-0.25-0.314-0.557-0.314-0.921
				c0-0.324,0.097-0.631,0.291-0.92c0.194-0.288,0.48-0.519,0.858-0.691c0.377-0.173,0.833-0.259,1.368-0.259
				c0.419,0,0.796,0.044,1.13,0.132c0.335,0.086,0.614,0.203,0.837,0.35c0.224,0.146,0.394,0.309,0.51,0.486
				s0.175,0.353,0.175,0.523c0,0.185-0.062,0.338-0.187,0.457c-0.125,0.117-0.301,0.178-0.531,0.178
				c-0.167,0-0.308-0.048-0.424-0.144c-0.117-0.095-0.25-0.236-0.401-0.427c-0.123-0.157-0.266-0.285-0.433-0.38
				c-0.166-0.096-0.392-0.143-0.677-0.143c-0.293,0-0.536,0.062-0.73,0.188c-0.193,0.124-0.291,0.279-0.291,0.466
				c0,0.17,0.071,0.31,0.213,0.418c0.143,0.109,0.334,0.2,0.576,0.271c0.242,0.071,0.573,0.157,0.998,0.261
				c0.502,0.123,0.913,0.27,1.231,0.439c0.318,0.17,0.56,0.371,0.725,0.604C194.756,282.763,194.838,283.026,194.838,283.323z"/>
			<path id="XMLID_103_" fill="#415B91" d="M196.494,278.101c-0.226,0-0.418-0.069-0.579-0.208c-0.16-0.138-0.241-0.334-0.241-0.588
				c0-0.23,0.083-0.418,0.247-0.567c0.164-0.148,0.355-0.223,0.573-0.223c0.21,0,0.396,0.067,0.558,0.202
				c0.163,0.135,0.244,0.33,0.244,0.588c0,0.25-0.08,0.444-0.238,0.585C196.899,278.029,196.711,278.101,196.494,278.101z
				 M197.295,279.774v4.683c0,0.325-0.077,0.571-0.232,0.737c-0.154,0.166-0.35,0.249-0.587,0.249c-0.238,0-0.431-0.085-0.579-0.256
				c-0.149-0.17-0.223-0.413-0.223-0.73v-4.636c0-0.32,0.074-0.562,0.223-0.724c0.148-0.163,0.341-0.244,0.579-0.244
				c0.237,0,0.433,0.081,0.587,0.244C197.218,279.26,197.295,279.485,197.295,279.774z"/>
			<path id="XMLID_100_" fill="#415B91" d="M204.395,280.041v4.708c0,0.538-0.058,1.001-0.173,1.39
				c-0.114,0.387-0.298,0.708-0.552,0.961s-0.585,0.441-0.994,0.563c-0.41,0.123-0.919,0.185-1.529,0.185
				c-0.558,0-1.057-0.078-1.496-0.234c-0.439-0.157-0.777-0.358-1.015-0.605c-0.237-0.247-0.356-0.502-0.356-0.764
				c0-0.197,0.067-0.359,0.203-0.483c0.134-0.125,0.297-0.187,0.486-0.187c0.237,0,0.445,0.104,0.624,0.313
				c0.086,0.107,0.177,0.216,0.27,0.324c0.093,0.109,0.197,0.202,0.309,0.279c0.113,0.077,0.249,0.134,0.406,0.172
				c0.159,0.037,0.341,0.057,0.546,0.057c0.419,0,0.745-0.059,0.977-0.176c0.231-0.116,0.394-0.28,0.487-0.49
				c0.093-0.208,0.147-0.433,0.163-0.673s0.027-0.624,0.035-1.155c-0.25,0.349-0.537,0.614-0.864,0.796
				c-0.326,0.183-0.715,0.273-1.166,0.273c-0.542,0-1.016-0.139-1.422-0.416c-0.405-0.276-0.717-0.664-0.935-1.163
				c-0.218-0.499-0.326-1.074-0.326-1.728c0-0.486,0.066-0.927,0.198-1.317c0.133-0.393,0.322-0.723,0.567-0.992
				c0.246-0.269,0.528-0.472,0.849-0.608c0.321-0.136,0.673-0.204,1.057-0.204c0.458,0,0.856,0.088,1.193,0.264
				c0.336,0.177,0.649,0.453,0.938,0.828v-0.22c0-0.281,0.069-0.498,0.208-0.653c0.139-0.153,0.317-0.231,0.535-0.231
				c0.312,0,0.52,0.103,0.623,0.306C204.343,279.363,204.395,279.657,204.395,280.041z M199.699,282.096
				c0,0.656,0.143,1.153,0.43,1.489c0.287,0.337,0.658,0.505,1.113,0.505c0.269,0,0.523-0.072,0.762-0.217
				c0.24-0.145,0.435-0.362,0.585-0.652c0.15-0.292,0.226-0.645,0.226-1.06c0-0.661-0.146-1.176-0.437-1.544
				c-0.291-0.367-0.674-0.552-1.149-0.552c-0.463,0-0.834,0.176-1.113,0.528C199.838,280.945,199.699,281.446,199.699,282.096z"/>
			<path id="XMLID_98_" fill="#415B91" d="M206.97,279.75v0.196c0.284-0.376,0.596-0.652,0.935-0.828s0.727-0.265,1.167-0.265
				c0.427,0,0.809,0.094,1.146,0.279c0.336,0.187,0.588,0.45,0.754,0.789c0.107,0.198,0.176,0.412,0.208,0.642
				c0.032,0.23,0.048,0.522,0.048,0.879v3.015c0,0.325-0.074,0.571-0.223,0.737c-0.148,0.166-0.341,0.249-0.579,0.249
				c-0.242,0-0.438-0.085-0.588-0.256c-0.15-0.17-0.225-0.413-0.225-0.73v-2.7c0-0.534-0.075-0.943-0.223-1.226
				c-0.148-0.283-0.444-0.425-0.888-0.425c-0.289,0-0.552,0.086-0.789,0.258c-0.237,0.173-0.412,0.409-0.522,0.71
				c-0.079,0.241-0.119,0.692-0.119,1.354v2.029c0,0.329-0.077,0.576-0.229,0.74c-0.152,0.164-0.349,0.246-0.59,0.246
				c-0.234,0-0.425-0.085-0.576-0.256c-0.15-0.17-0.226-0.413-0.226-0.73v-4.683c0-0.309,0.067-0.54,0.202-0.692
				s0.319-0.229,0.552-0.229c0.143,0,0.271,0.034,0.387,0.102c0.114,0.067,0.207,0.169,0.276,0.302
				C206.936,279.393,206.97,279.557,206.97,279.75z"/>
			<path id="XMLID_95_" fill="#415B91" d="M216.829,282.547h-3.17c0.004,0.367,0.078,0.692,0.223,0.973
				c0.144,0.281,0.336,0.493,0.576,0.636c0.239,0.143,0.503,0.213,0.792,0.213c0.194,0,0.371-0.021,0.532-0.067
				c0.16-0.046,0.315-0.116,0.466-0.214c0.15-0.097,0.288-0.201,0.416-0.312c0.126-0.111,0.29-0.262,0.492-0.452
				c0.083-0.07,0.202-0.106,0.356-0.106c0.166,0,0.301,0.046,0.403,0.137c0.103,0.092,0.154,0.22,0.154,0.386
				c0,0.146-0.057,0.317-0.172,0.514c-0.115,0.196-0.288,0.384-0.52,0.563c-0.231,0.181-0.522,0.329-0.872,0.448
				c-0.351,0.119-0.753,0.179-1.208,0.179c-1.041,0-1.85-0.298-2.428-0.891c-0.577-0.594-0.866-1.399-0.866-2.416
				c0-0.479,0.071-0.924,0.214-1.332c0.142-0.41,0.351-0.762,0.624-1.055s0.609-0.517,1.009-0.674
				c0.399-0.156,0.843-0.233,1.33-0.233c0.633,0,1.175,0.133,1.629,0.4c0.453,0.267,0.792,0.612,1.019,1.035
				c0.225,0.424,0.338,0.855,0.338,1.294c0,0.408-0.117,0.672-0.351,0.794C217.582,282.486,217.253,282.547,216.829,282.547z
				 M213.659,281.627h2.938c-0.04-0.555-0.189-0.97-0.448-1.244c-0.259-0.275-0.6-0.413-1.023-0.413
				c-0.404,0-0.736,0.14-0.995,0.419C213.872,280.667,213.715,281.08,213.659,281.627z"/>
			<path id="XMLID_91_" fill="#415B91" d="M223.435,284.518v-0.161c-0.218,0.249-0.432,0.452-0.644,0.608
				c-0.211,0.156-0.441,0.275-0.688,0.356c-0.247,0.082-0.517,0.122-0.81,0.122c-0.389,0-0.748-0.082-1.078-0.246
				c-0.331-0.164-0.617-0.399-0.858-0.704c-0.242-0.305-0.425-0.662-0.549-1.074s-0.187-0.856-0.187-1.335
				c0-1.014,0.248-1.804,0.742-2.369s1.146-0.849,1.953-0.849c0.467,0,0.861,0.08,1.181,0.239c0.32,0.161,0.633,0.408,0.938,0.739
				v-2.392c0-0.333,0.066-0.584,0.199-0.754c0.132-0.17,0.322-0.255,0.567-0.255s0.434,0.078,0.567,0.234
				c0.132,0.156,0.199,0.386,0.199,0.691v7.147c0,0.309-0.071,0.54-0.214,0.694c-0.143,0.153-0.326,0.231-0.552,0.231
				c-0.221,0-0.404-0.08-0.549-0.24C223.507,285.042,223.435,284.813,223.435,284.518z M220.248,282.137
				c0,0.439,0.068,0.813,0.205,1.122s0.324,0.541,0.562,0.697c0.237,0.156,0.497,0.235,0.777,0.235c0.285,0,0.545-0.074,0.78-0.224
				c0.236-0.147,0.424-0.376,0.564-0.682c0.14-0.307,0.21-0.69,0.21-1.149c0-0.432-0.07-0.803-0.21-1.114
				c-0.141-0.31-0.331-0.547-0.57-0.712c-0.24-0.163-0.501-0.245-0.787-0.245c-0.296,0-0.562,0.084-0.795,0.252
				c-0.233,0.168-0.414,0.409-0.543,0.724C220.312,281.356,220.248,281.722,220.248,282.137z"/>
			<path id="XMLID_85_" fill="#415B91" d="M230.059,277.37v2.475c0.304-0.316,0.615-0.559,0.932-0.727
				c0.316-0.168,0.708-0.252,1.175-0.252c0.538,0,1.01,0.127,1.416,0.382c0.405,0.256,0.72,0.626,0.943,1.111
				c0.224,0.483,0.336,1.06,0.336,1.725c0,0.49-0.062,0.939-0.187,1.35c-0.125,0.41-0.306,0.765-0.543,1.065
				c-0.238,0.301-0.525,0.534-0.863,0.698c-0.339,0.164-0.712,0.246-1.119,0.246c-0.25,0-0.484-0.029-0.704-0.09
				c-0.22-0.059-0.407-0.137-0.561-0.234c-0.154-0.096-0.286-0.196-0.395-0.299c-0.109-0.103-0.253-0.258-0.431-0.464v0.161
				c0,0.305-0.073,0.535-0.22,0.691c-0.146,0.156-0.332,0.234-0.558,0.234c-0.229,0-0.413-0.078-0.549-0.234
				c-0.137-0.156-0.205-0.387-0.205-0.691v-7.077c0-0.328,0.066-0.576,0.199-0.744c0.133-0.168,0.318-0.252,0.555-0.252
				c0.25,0,0.441,0.08,0.576,0.239C229.992,276.845,230.059,277.073,230.059,277.37z M230.136,282.185
				c0,0.646,0.147,1.14,0.442,1.486c0.294,0.347,0.682,0.521,1.161,0.521c0.407,0,0.759-0.177,1.053-0.531
				c0.295-0.355,0.442-0.862,0.442-1.523c0-0.427-0.061-0.796-0.184-1.104c-0.123-0.31-0.296-0.548-0.522-0.716
				c-0.226-0.168-0.489-0.252-0.79-0.252c-0.309,0-0.584,0.084-0.826,0.252s-0.431,0.411-0.57,0.729
				C230.206,281.365,230.136,281.745,230.136,282.185z"/>
			<path id="XMLID_83_" fill="#415B91" d="M236.962,285.646l0.148-0.363l-1.995-5.021c-0.122-0.288-0.184-0.499-0.184-0.629
				c0-0.139,0.036-0.268,0.107-0.386c0.071-0.119,0.169-0.214,0.293-0.285c0.125-0.071,0.255-0.107,0.389-0.107
				c0.233,0,0.409,0.075,0.529,0.223c0.119,0.148,0.223,0.361,0.314,0.639l1.372,3.988l1.3-3.71c0.103-0.3,0.195-0.536,0.279-0.706
				c0.083-0.17,0.171-0.285,0.264-0.344c0.093-0.06,0.225-0.09,0.395-0.09c0.124,0,0.241,0.032,0.354,0.099
				c0.113,0.065,0.2,0.153,0.261,0.264c0.062,0.111,0.093,0.228,0.093,0.351c-0.017,0.074-0.042,0.182-0.078,0.32
				s-0.079,0.28-0.13,0.422l-2.113,5.532c-0.183,0.486-0.36,0.868-0.535,1.146s-0.404,0.49-0.691,0.638
				c-0.287,0.149-0.674,0.224-1.161,0.224c-0.475,0-0.831-0.052-1.068-0.154c-0.238-0.104-0.356-0.292-0.356-0.564
				c0-0.186,0.056-0.33,0.169-0.431c0.112-0.101,0.28-0.151,0.501-0.151c0.087,0,0.172,0.012,0.255,0.036
				c0.103,0.023,0.192,0.036,0.267,0.036c0.186,0,0.333-0.028,0.439-0.084c0.106-0.055,0.203-0.15,0.288-0.288
				C236.753,286.111,236.852,285.91,236.962,285.646z"/>
		</g>
		<g id="XMLID_24_">
			<path id="XMLID_81_" fill="#415B91" d="M260.439,278.994h0.387v-0.486c0-0.509,0.062-0.911,0.191-1.211
				c0.127-0.299,0.347-0.517,0.654-0.653c0.307-0.136,0.727-0.204,1.26-0.204c0.95,0,1.421,0.229,1.421,0.697
				c0,0.148-0.05,0.277-0.15,0.384c-0.097,0.105-0.214,0.16-0.349,0.16c-0.062,0-0.174-0.012-0.329-0.037
				c-0.148-0.021-0.283-0.035-0.39-0.035c-0.292,0-0.479,0.088-0.565,0.26c-0.08,0.172-0.122,0.418-0.122,0.74v0.386h0.396
				c0.619,0,0.926,0.186,0.926,0.56c0,0.262-0.079,0.432-0.246,0.503c-0.163,0.071-0.39,0.107-0.68,0.107h-0.396v4.294
				c0,0.319-0.075,0.562-0.231,0.729c-0.15,0.171-0.346,0.254-0.589,0.254c-0.229,0-0.419-0.083-0.573-0.254
				c-0.153-0.167-0.228-0.41-0.228-0.729v-4.294h-0.446c-0.243,0-0.427-0.053-0.559-0.164c-0.131-0.106-0.196-0.25-0.196-0.424
				C259.625,279.187,259.896,278.994,260.439,278.994"/>
			<path id="XMLID_80_" fill="#415B91" d="M265.745,283.104v1.354c0,0.327-0.083,0.574-0.233,0.737
				c-0.154,0.166-0.35,0.246-0.586,0.246c-0.239,0-0.43-0.081-0.579-0.25c-0.148-0.164-0.226-0.41-0.226-0.733v-4.514
				c0-0.729,0.263-1.094,0.788-1.094c0.271,0,0.464,0.084,0.583,0.255s0.185,0.422,0.198,0.756c0.192-0.334,0.391-0.585,0.593-0.756
				c0.208-0.171,0.477-0.255,0.818-0.255c0.344,0,0.671,0.084,0.991,0.255c0.322,0.171,0.482,0.398,0.482,0.679
				c0,0.196-0.069,0.362-0.204,0.488c-0.138,0.131-0.284,0.194-0.441,0.194c-0.062,0-0.207-0.039-0.433-0.112
				c-0.229-0.07-0.431-0.108-0.602-0.108c-0.238,0-0.433,0.064-0.583,0.187c-0.151,0.128-0.269,0.311-0.353,0.555
				c-0.08,0.246-0.137,0.54-0.17,0.877C265.76,282.203,265.745,282.616,265.745,283.104"/>
			<path id="XMLID_77_" fill="#415B91" d="M273.195,282.545h-3.171c0.006,0.367,0.077,0.694,0.222,0.975
				c0.146,0.278,0.338,0.491,0.578,0.635c0.24,0.143,0.502,0.213,0.793,0.213c0.193,0,0.37-0.021,0.53-0.069
				c0.159-0.044,0.315-0.116,0.466-0.214c0.151-0.095,0.288-0.198,0.415-0.312c0.127-0.108,0.292-0.26,0.494-0.448
				c0.084-0.071,0.202-0.109,0.355-0.109c0.167,0,0.301,0.047,0.405,0.139c0.104,0.092,0.152,0.22,0.152,0.386
				c0,0.147-0.056,0.317-0.167,0.512c-0.117,0.199-0.29,0.386-0.522,0.566c-0.234,0.179-0.524,0.33-0.874,0.446
				c-0.35,0.119-0.754,0.179-1.207,0.179c-1.044,0-1.853-0.295-2.43-0.888c-0.577-0.596-0.869-1.401-0.869-2.418
				c0-0.479,0.073-0.924,0.217-1.334c0.141-0.412,0.349-0.761,0.625-1.055c0.272-0.295,0.605-0.518,1.008-0.674
				c0.398-0.156,0.841-0.234,1.329-0.234c0.632,0,1.176,0.134,1.63,0.403c0.452,0.265,0.796,0.61,1.018,1.034
				c0.226,0.426,0.339,0.855,0.339,1.297c0,0.405-0.118,0.669-0.351,0.791C273.947,282.484,273.619,282.545,273.195,282.545
				 M270.024,281.624h2.938c-0.039-0.554-0.187-0.969-0.446-1.242c-0.262-0.276-0.6-0.412-1.025-0.412
				c-0.403,0-0.735,0.137-0.995,0.418C270.237,280.666,270.079,281.078,270.024,281.624"/>
			<path id="XMLID_73_" fill="#415B91" d="M279.938,282.545h-3.171c0.004,0.367,0.078,0.694,0.222,0.975
				c0.145,0.278,0.337,0.491,0.576,0.635c0.239,0.143,0.503,0.213,0.794,0.213c0.192,0,0.371-0.021,0.528-0.069
				c0.162-0.044,0.316-0.116,0.469-0.214c0.151-0.095,0.287-0.198,0.415-0.312c0.124-0.108,0.29-0.26,0.492-0.448
				c0.085-0.071,0.204-0.109,0.355-0.109c0.168,0,0.302,0.047,0.406,0.139c0.104,0.092,0.15,0.22,0.15,0.386
				c0,0.147-0.054,0.317-0.171,0.512c-0.11,0.199-0.284,0.386-0.519,0.566c-0.231,0.179-0.525,0.33-0.872,0.446
				c-0.349,0.119-0.755,0.179-1.209,0.179c-1.042,0-1.85-0.295-2.43-0.888c-0.577-0.596-0.868-1.401-0.868-2.418
				c0-0.479,0.073-0.924,0.218-1.334c0.142-0.412,0.349-0.761,0.622-1.055c0.272-0.295,0.608-0.518,1.009-0.674
				c0.399-0.156,0.845-0.234,1.331-0.234c0.631,0,1.174,0.134,1.633,0.403c0.45,0.265,0.791,0.61,1.014,1.034
				c0.225,0.426,0.341,0.855,0.341,1.297c0,0.405-0.12,0.669-0.352,0.791C280.688,282.484,280.36,282.545,279.938,282.545
				 M276.767,281.624h2.938c-0.04-0.554-0.189-0.969-0.446-1.242c-0.264-0.276-0.602-0.412-1.027-0.412
				c-0.403,0-0.734,0.137-0.995,0.418C276.979,280.666,276.819,281.078,276.767,281.624"/>
			<path id="XMLID_68_" fill="#415B91" d="M283.487,279.763v0.194c0.304-0.376,0.621-0.651,0.953-0.828
				c0.324-0.178,0.698-0.267,1.113-0.267c0.497,0,0.96,0.13,1.38,0.386c0.419,0.259,0.749,0.635,0.993,1.129
				c0.243,0.497,0.366,1.081,0.366,1.759c0,0.497-0.07,0.957-0.21,1.376c-0.14,0.417-0.336,0.767-0.581,1.05
				c-0.245,0.281-0.534,0.501-0.868,0.653c-0.339,0.15-0.694,0.227-1.08,0.227c-0.461,0-0.853-0.093-1.165-0.279
				c-0.314-0.183-0.614-0.458-0.901-0.815v2.433c0,0.71-0.26,1.068-0.777,1.068c-0.307,0-0.505-0.091-0.607-0.274
				c-0.095-0.187-0.146-0.452-0.146-0.807v-6.996c0-0.31,0.066-0.537,0.2-0.692c0.134-0.149,0.319-0.228,0.553-0.228
				c0.23,0,0.416,0.078,0.56,0.233C283.417,279.243,283.487,279.466,283.487,279.763 M286.665,282.117
				c0-0.428-0.066-0.796-0.196-1.102c-0.131-0.308-0.312-0.542-0.542-0.705c-0.229-0.164-0.488-0.248-0.77-0.248
				c-0.446,0-0.824,0.178-1.131,0.527c-0.308,0.354-0.462,0.872-0.462,1.559c0,0.642,0.152,1.146,0.46,1.504
				c0.304,0.358,0.679,0.536,1.133,0.536c0.268,0,0.519-0.078,0.748-0.232c0.231-0.158,0.415-0.392,0.552-0.704
				C286.596,282.938,286.665,282.56,286.665,282.117"/>
			<path id="XMLID_50_" fill="#415B91" d="M289.925,278.097c-0.227,0-0.418-0.072-0.577-0.21c-0.162-0.139-0.242-0.332-0.242-0.585
				c0-0.23,0.082-0.419,0.248-0.569c0.164-0.146,0.354-0.222,0.571-0.222c0.213,0,0.397,0.066,0.559,0.199
				c0.162,0.137,0.244,0.334,0.244,0.592c0,0.249-0.079,0.444-0.236,0.585C290.333,278.024,290.145,278.097,289.925,278.097
				 M290.728,279.771v4.688c0,0.322-0.077,0.568-0.231,0.732c-0.156,0.169-0.351,0.25-0.588,0.25c-0.238,0-0.428-0.083-0.58-0.254
				c-0.146-0.172-0.223-0.415-0.223-0.729v-4.643c0-0.318,0.076-0.559,0.223-0.721c0.152-0.166,0.342-0.245,0.58-0.245
				c0.237,0,0.432,0.079,0.588,0.245C290.65,279.258,290.728,279.484,290.728,279.771"/>
			<path id="XMLID_49_" fill="#415B91" d="M295.952,284.702l-1.428-2.354l-0.88,0.83v1.291c0,0.312-0.083,0.551-0.248,0.718
				c-0.16,0.171-0.354,0.254-0.566,0.254c-0.249,0-0.446-0.081-0.588-0.25c-0.142-0.164-0.215-0.41-0.215-0.733v-6.915
				c0-0.357,0.071-0.632,0.207-0.82c0.14-0.19,0.341-0.283,0.596-0.283c0.25,0,0.445,0.086,0.594,0.258
				c0.146,0.169,0.221,0.421,0.221,0.751v3.933l1.822-1.914c0.227-0.234,0.396-0.4,0.517-0.486c0.119-0.086,0.263-0.13,0.432-0.13
				c0.203,0,0.371,0.064,0.51,0.193c0.132,0.128,0.2,0.291,0.2,0.483c0,0.236-0.222,0.555-0.659,0.95l-0.861,0.79l1.662,2.613
				c0.121,0.196,0.212,0.341,0.265,0.441c0.053,0.1,0.082,0.2,0.082,0.289c0,0.258-0.072,0.459-0.213,0.609
				c-0.141,0.148-0.328,0.221-0.554,0.221c-0.198,0-0.353-0.05-0.459-0.159C296.281,285.174,296.134,284.979,295.952,284.702"/>
			<path id="XMLID_48_" fill="#415B91" d="M299.475,285.441c-0.245,0-0.455-0.078-0.634-0.237c-0.178-0.156-0.268-0.379-0.268-0.665
				c0-0.241,0.086-0.449,0.256-0.622c0.172-0.175,0.38-0.263,0.63-0.263c0.249,0,0.46,0.088,0.64,0.258
				c0.174,0.172,0.264,0.383,0.264,0.627c0,0.282-0.09,0.504-0.264,0.662C299.919,285.363,299.711,285.441,299.475,285.441"/>
			<path id="XMLID_39_" fill="#415B91" d="M307.536,283.436c0,0.2-0.061,0.418-0.182,0.646c-0.12,0.231-0.306,0.448-0.554,0.656
				c-0.247,0.207-0.558,0.377-0.935,0.502c-0.376,0.127-0.801,0.191-1.27,0.191c-1.004,0-1.786-0.293-2.349-0.875
				c-0.56-0.585-0.841-1.369-0.841-2.351c0-0.667,0.128-1.253,0.387-1.765c0.255-0.509,0.628-0.904,1.113-1.184
				c0.487-0.28,1.073-0.419,1.747-0.419c0.421,0,0.805,0.062,1.157,0.185c0.351,0.122,0.646,0.282,0.891,0.475
				c0.242,0.196,0.429,0.401,0.556,0.62c0.13,0.22,0.192,0.425,0.192,0.616c0,0.192-0.07,0.357-0.214,0.492
				c-0.147,0.135-0.322,0.203-0.524,0.203c-0.137,0-0.248-0.035-0.338-0.104c-0.09-0.07-0.19-0.182-0.299-0.339
				c-0.198-0.3-0.404-0.526-0.623-0.675c-0.214-0.152-0.487-0.227-0.821-0.227c-0.476,0-0.864,0.187-1.158,0.561
				c-0.292,0.373-0.439,0.888-0.439,1.534c0,0.306,0.039,0.587,0.114,0.843c0.073,0.254,0.182,0.472,0.325,0.652
				c0.145,0.18,0.315,0.315,0.517,0.408c0.202,0.097,0.426,0.142,0.665,0.142c0.325,0,0.604-0.075,0.835-0.226
				c0.235-0.15,0.439-0.38,0.616-0.688c0.1-0.183,0.205-0.324,0.318-0.428c0.114-0.102,0.256-0.155,0.423-0.155
				c0.197,0,0.362,0.077,0.491,0.227C307.47,283.104,307.536,283.267,307.536,283.436"/>
			<path id="XMLID_26_" fill="#415B91" d="M314.53,282.147c0,0.481-0.076,0.928-0.223,1.337c-0.154,0.408-0.369,0.758-0.656,1.049
				c-0.284,0.294-0.626,0.518-1.02,0.676c-0.399,0.154-0.844,0.234-1.337,0.234c-0.49,0-0.933-0.08-1.325-0.239
				c-0.39-0.156-0.732-0.384-1.017-0.677c-0.288-0.298-0.505-0.646-0.657-1.048c-0.144-0.402-0.219-0.847-0.219-1.332
				c0-0.491,0.077-0.94,0.224-1.349c0.151-0.409,0.368-0.758,0.649-1.046c0.282-0.288,0.621-0.511,1.02-0.669
				c0.401-0.155,0.844-0.233,1.325-0.233c0.49,0,0.937,0.078,1.337,0.239c0.398,0.156,0.739,0.384,1.027,0.674
				c0.286,0.297,0.502,0.644,0.649,1.045C314.455,281.216,314.53,281.659,314.53,282.147 M312.902,282.147
				c0-0.661-0.146-1.175-0.436-1.543c-0.29-0.372-0.682-0.555-1.172-0.555c-0.317,0-0.597,0.083-0.839,0.246
				c-0.242,0.164-0.426,0.406-0.556,0.728c-0.131,0.321-0.197,0.696-0.197,1.124c0,0.425,0.063,0.793,0.193,1.108
				c0.13,0.319,0.313,0.562,0.554,0.729c0.24,0.166,0.521,0.252,0.845,0.252c0.49,0,0.882-0.185,1.172-0.557
				C312.756,283.312,312.902,282.799,312.902,282.147"/>
			<path id="XMLID_25_" fill="#415B91" d="M320.712,282.267v2.154c0,0.342-0.075,0.595-0.23,0.767
				c-0.156,0.171-0.357,0.256-0.61,0.256c-0.246,0-0.446-0.085-0.595-0.256c-0.155-0.172-0.232-0.425-0.232-0.767v-2.582
				c0-0.408-0.014-0.727-0.04-0.952c-0.028-0.222-0.105-0.41-0.227-0.553c-0.123-0.146-0.317-0.219-0.582-0.219
				c-0.531,0-0.879,0.181-1.048,0.55c-0.167,0.36-0.254,0.884-0.254,1.567v2.188c0,0.336-0.076,0.592-0.226,0.765
				c-0.155,0.171-0.354,0.258-0.603,0.258s-0.448-0.087-0.604-0.258c-0.157-0.173-0.235-0.429-0.235-0.765v-4.637
				c0-0.306,0.069-0.538,0.21-0.694c0.143-0.161,0.328-0.239,0.556-0.239c0.223,0,0.407,0.077,0.558,0.223
				c0.147,0.148,0.221,0.354,0.221,0.615v0.152c0.283-0.334,0.585-0.582,0.903-0.737c0.323-0.162,0.676-0.241,1.07-0.241
				c0.407,0,0.757,0.082,1.049,0.243c0.293,0.163,0.533,0.41,0.725,0.735c0.275-0.33,0.568-0.576,0.882-0.737
				c0.312-0.16,0.658-0.241,1.039-0.241c0.44,0,0.825,0.089,1.146,0.262c0.319,0.174,0.559,0.425,0.718,0.747
				c0.138,0.296,0.206,0.756,0.206,1.386v3.164c0,0.342-0.076,0.595-0.229,0.767c-0.154,0.171-0.359,0.256-0.612,0.256
				c-0.246,0-0.446-0.087-0.603-0.258c-0.156-0.173-0.235-0.429-0.235-0.765v-2.726c0-0.35-0.015-0.627-0.043-0.837
				c-0.029-0.21-0.111-0.387-0.239-0.528c-0.133-0.143-0.332-0.215-0.596-0.215c-0.214,0-0.417,0.066-0.609,0.191
				c-0.191,0.124-0.342,0.298-0.45,0.508C320.773,281.089,320.712,281.573,320.712,282.267"/>
		</g>
		<g id="XMLID_2_">
			<path id="XMLID_22_" fill="#415B91" d="M245.272,281.756c-0.001-0.004-0.001-0.007-0.001-0.012
				C245.271,281.749,245.271,281.752,245.272,281.756z"/>
			<path id="XMLID_20_" fill="#415B91" d="M245.354,282.273c0.001,0,0.001,0,0.001,0c-0.031-0.147-0.055-0.294-0.074-0.438
				C245.3,281.98,245.324,282.128,245.354,282.273z"/>
			<path id="XMLID_19_" fill="#415B91" d="M245.89,283.777c-0.003-0.006-0.007-0.014-0.011-0.021
				C245.883,283.764,245.887,283.771,245.89,283.777z"/>
			<path id="XMLID_17_" fill="#415B91" d="M245.839,283.678c-0.014-0.028-0.027-0.057-0.041-0.084
				C245.812,283.623,245.825,283.649,245.839,283.678z"/>
			<path id="XMLID_14_" fill="#415B91" d="M245.504,282.853c0.08,0.251,0.175,0.493,0.286,0.725
				c-0.112-0.236-0.206-0.479-0.283-0.725C245.507,282.853,245.505,282.853,245.504,282.853z"/>
			<path id="XMLID_13_" fill="#415B91" d="M251.545,275.545c0.313,0,0.545,0.025,0.81,0.069l0.075-0.477
				c0,0-0.731-0.225-1.694-0.146l-0.076-0.259c0.299-0.063,0.523-0.329,0.523-0.646c0-0.364-0.296-0.659-0.661-0.659
				s-0.66,0.295-0.66,0.659c0,0.317,0.224,0.583,0.522,0.646l0.083,0.289c-1.021,0.141-1.834,0.539-1.834,0.539l0.144,0.44
				c0.618-0.206,1.154-0.331,1.64-0.384C250.895,275.567,251.253,275.545,251.545,275.545z"/>
			<path id="XMLID_9_" fill="#415B91" d="M245.878,277.957l0.004-0.005c0.024-0.031,0.047-0.061,0.07-0.09l-0.195-0.141
				l-0.305-0.223c-0.018,0.023-0.497,0.465-0.876,1.279c-0.016-0.025-0.035-0.05-0.056-0.074c-0.114-0.124-0.272-0.188-0.474-0.184
				c-0.002,0-0.006,0-0.009,0c-0.125,0-0.21-0.042-0.267-0.092c0.056-0.071,0.089-0.16,0.089-0.259c0-0.229-0.188-0.418-0.418-0.418
				c-0.23,0-0.417,0.188-0.417,0.418c0,0.231,0.188,0.418,0.417,0.418c0.037,0,0.071-0.006,0.104-0.013
				c0.103,0.114,0.266,0.214,0.505,0.209c0.123-0.001,0.213,0.03,0.273,0.097c0.069,0.076,0.093,0.186,0.1,0.268
				c0,0.001,0,0.003-0.002,0.003c-0.272,0.744-0.194,1.669-0.194,1.669l0.661,0.026c0.013-0.337,0.062-0.927,0.232-1.395
				C245.449,278.547,245.861,277.98,245.878,277.957z"/>
			<path id="XMLID_8_" fill="#415B91" d="M257.295,276.098c-0.23,0-0.418,0.187-0.418,0.418c0,0.036,0.005,0.07,0.015,0.104
				c-0.115,0.104-0.215,0.267-0.211,0.506c0.002,0.124-0.029,0.213-0.096,0.273c-0.054,0.047-0.12,0.071-0.186,0.088
				c-0.492-0.689-1.098-1.11-1.098-1.11l-0.474,0.509c0.358,0.326,0.725,0.734,1.08,1.244c0.246,0.352,0.499,0.806,0.71,1.259
				l0.64-0.304c0,0-0.292-0.723-0.703-1.37c0.071-0.024,0.144-0.063,0.207-0.12c0.125-0.112,0.187-0.272,0.183-0.474
				c-0.001-0.13,0.042-0.218,0.093-0.275c0.071,0.054,0.161,0.089,0.258,0.089c0.231,0,0.419-0.188,0.419-0.418
				C257.714,276.284,257.526,276.098,257.295,276.098z"/>
			<path id="XMLID_7_" fill="#415B91" d="M255.634,281.849c-0.881,0.43-2.33,0.996-4.238,1.263
				c-0.749,0.104-1.474,0.142-2.142,0.142c-0.869,0-1.637-0.064-2.227-0.139c-0.672-0.085-1.198-0.188-1.52-0.262
				c0.077,0.245,0.171,0.488,0.283,0.725c0.002,0.006,0.005,0.013,0.008,0.017c0.014,0.027,0.027,0.056,0.041,0.084
				c0.014,0.027,0.027,0.054,0.041,0.079c0.004,0.007,0.007,0.015,0.011,0.021c0.189,0.356,0.417,0.685,0.675,0.968
				c0.9,0.985,1.817,1.141,1.826,1.142l0.014,0.002l0.014,0.005c0.008,0.003,0.821,0.266,2.057,0.266
				c1.215,0,2.409-0.245,3.546-0.729c0.842-0.431,1.639-1.085,2.033-1.669c0.306-0.451,0.525-0.933,0.656-1.434
				c0.069-0.266,0.125-0.692,0.092-1.141C256.557,281.354,256.164,281.591,255.634,281.849z"/>
			<path id="XMLID_3_" fill="#415B91" d="M246.161,278.165c-0.025,0.037-0.408,0.578-0.709,1.408
				c-0.226,0.622-0.216,1.527-0.216,1.538v0.001c0,0.213,0.012,0.424,0.035,0.632c0,0.005,0,0.008,0.001,0.012
				c0.002,0.026,0.007,0.052,0.009,0.079c0.019,0.145,0.043,0.291,0.074,0.438c0.438,0.111,3.049,0.721,5.968,0.313
				c1.829-0.254,3.219-0.795,4.062-1.204c0.701-0.34,1.151-0.647,1.325-0.773c-0.173-0.643-0.651-1.65-1.089-2.279
				c-1.254-1.791-2.604-2.25-3.299-2.364c-0.265-0.044-0.477-0.068-0.777-0.068c-0.279,0-0.626,0.022-1.089,0.071
				c-0.465,0.048-0.982,0.17-1.583,0.372c-0.842,0.282-1.604,0.725-2.204,1.28l-0.021,0.019
				C246.56,277.722,246.374,277.894,246.161,278.165z M253.829,277.748c0.601,0,1.09,0.488,1.09,1.09s-0.489,1.09-1.09,1.09
				s-1.089-0.488-1.089-1.09S253.229,277.748,253.829,277.748z M248.678,277.705c0.973,0,1.761,0.789,1.761,1.761
				c0,0.973-0.788,1.759-1.761,1.759c-0.972,0-1.76-0.786-1.76-1.759C246.918,278.494,247.707,277.705,248.678,277.705z"/>
		</g>
	</g>
</g>
</svg>
