<?xml version="1.0" encoding="utf-8"?>
<!-- Generator: Adobe Illustrator 16.0.0, SVG Export Plug-In . SVG Version: 6.00 Build 0)  -->
<!DOCTYPE svg PUBLIC "-//W3C//DTD SVG 1.1//EN" "http://www.w3.org/Graphics/SVG/1.1/DTD/svg11.dtd">
<svg version="1.1" xmlns="http://www.w3.org/2000/svg" xmlns:xlink="http://www.w3.org/1999/xlink" x="0px" y="0px"
	 width="482.976px" height="540px" viewBox="525.841 0 482.976 540" enable-background="new 525.841 0 482.976 540"
	 xml:space="preserve">
<g id="Layer_1">
	<g id="Layer_2_1_">
		<g id="Layer_2">
			<rect x="525.841" fill="#FFFFFF" width="482.976" height="540"/>
		</g>
	</g>
</g>
<g id="Layer_3">
	<g>
		
			<linearGradient id="SVGID_1_" gradientUnits="userSpaceOnUse" x1="953.9375" y1="650.4463" x2="706.3132" y2="286.9809" gradientTransform="matrix(0.9767 0.2146 -0.2146 0.9767 104.3731 -295.6861)">
			<stop  offset="0" style="stop-color:#4CC0B8"/>
			<stop  offset="1" style="stop-color:#C1F1C8"/>
		</linearGradient>
		<path fill="url(#SVGID_1_)" d="M885.526,253.033c-17.247,17.516-40.974,26.291-62.779,37.057
			c-14.356,7.088-26.037,17.154-38.808,26.682c-32.467,24.221-73.496,43.592-106.44,17.557
			c-27.455-21.697-39.914-71.744-18.915-107.93c7.262-12.515,17.714-20.68,29.396-26.427c7.014-3.451,16.07-5.448,21.289-12.666
			c5.504-7.613,5.617-19.173,6.766-28.173c1.706-13.397,3.552-27.477,9.691-39.681c14.082-27.998,36.539-23.555,57.848-6.391
			c10.359,8.345,19.435,18.125,29.258,27.062c13.931,12.676,29.602,18.375,47.115,24.598c15.596,5.542,31.88,13.257,39.705,27.843
			c8.877,16.551,3.938,37.845-7.448,52.783C890.113,248.088,887.88,250.643,885.526,253.033z"/>
		<g>
			
				<linearGradient id="SVGID_2_" gradientUnits="userSpaceOnUse" x1="1693.1289" y1="-216.9917" x2="1805.7784" y2="-442.2902" gradientTransform="matrix(-0.568 -0.823 0.823 -0.568 2150.7319 1516.4644)">
				<stop  offset="0" style="stop-color:#4CC0B8"/>
				<stop  offset="1" style="stop-color:#C1F1C8"/>
			</linearGradient>
			<path fill="url(#SVGID_2_)" d="M962.498,267.5l7.979-25.231l1.588-5.027c0.4,1.818,0.645,3.582,0.738,5.299l-0.133,0.42
				l-6.352,20.089l-0.002,0.004C965.175,264.588,963.895,266.065,962.498,267.5z"/>
			
				<linearGradient id="SVGID_3_" gradientUnits="userSpaceOnUse" x1="1694.623" y1="-216.2461" x2="1807.2727" y2="-441.5449" gradientTransform="matrix(-0.568 -0.823 0.823 -0.568 2150.7319 1516.4644)">
				<stop  offset="0" style="stop-color:#4CC0B8"/>
				<stop  offset="1" style="stop-color:#C1F1C8"/>
			</linearGradient>
			<path fill="url(#SVGID_3_)" d="M954.996,274.018l10.533-33.315l3.761-11.895c0.503,1.148,0.95,2.279,1.34,3.391l-2.907,9.197
				l-9.507,30.071C957.185,272.334,956.109,273.184,954.996,274.018z"/>
			
				<linearGradient id="SVGID_4_" gradientUnits="userSpaceOnUse" x1="1696.1025" y1="-215.5088" x2="1808.7483" y2="-440.7998" gradientTransform="matrix(-0.568 -0.823 0.823 -0.568 2150.7319 1516.4644)">
				<stop  offset="0" style="stop-color:#4CC0B8"/>
				<stop  offset="1" style="stop-color:#C1F1C8"/>
			</linearGradient>
			<path fill="url(#SVGID_4_)" d="M948.074,278.691l12.502-39.555l5.34-16.887c0.549,0.934,1.063,1.855,1.538,2.764l-4.683,14.816
				l-11.675,36.93C950.111,277.414,949.108,278.057,948.074,278.691z"/>
			
				<linearGradient id="SVGID_5_" gradientUnits="userSpaceOnUse" x1="1697.5605" y1="-214.7783" x2="1810.2083" y2="-440.0734" gradientTransform="matrix(-0.568 -0.823 0.823 -0.568 2150.7319 1516.4644)">
				<stop  offset="0" style="stop-color:#4CC0B8"/>
				<stop  offset="1" style="stop-color:#C1F1C8"/>
			</linearGradient>
			<path fill="url(#SVGID_5_)" d="M941.427,282.508l14.202-44.932l6.631-20.979c0.578,0.812,1.124,1.621,1.65,2.422l-6.087,19.25
				l-13.478,42.624C943.387,281.438,942.414,281.977,941.427,282.508z"/>
			
				<linearGradient id="SVGID_6_" gradientUnits="userSpaceOnUse" x1="1698.998" y1="-214.0605" x2="1811.6443" y2="-439.3527" gradientTransform="matrix(-0.568 -0.823 0.823 -0.568 2150.7319 1516.4644)">
				<stop  offset="0" style="stop-color:#4CC0B8"/>
				<stop  offset="1" style="stop-color:#C1F1C8"/>
			</linearGradient>
			<path fill="url(#SVGID_6_)" d="M934.942,285.799l0.096-0.307l15.644-49.483l7.743-24.493c0.274,0.33,0.54,0.668,0.808,1.008
				c0.311,0.396,0.611,0.791,0.912,1.186l-7.27,22.993l-15.074,47.686C936.857,284.863,935.905,285.332,934.942,285.799z"/>
			
				<linearGradient id="SVGID_7_" gradientUnits="userSpaceOnUse" x1="1700.375" y1="-213.3711" x2="1813.0256" y2="-438.672" gradientTransform="matrix(-0.568 -0.823 0.823 -0.568 2150.7319 1516.4644)">
				<stop  offset="0" style="stop-color:#4CC0B8"/>
				<stop  offset="1" style="stop-color:#C1F1C8"/>
			</linearGradient>
			<path fill="url(#SVGID_7_)" d="M928.568,288.752l1.521-4.82l15.646-49.489l8.702-27.523c0.605,0.646,1.203,1.308,1.785,1.981
				l-8.294,26.235l-15.644,49.489l-0.902,2.854C930.451,287.902,929.516,288.328,928.568,288.752z"/>
			
				<linearGradient id="SVGID_8_" gradientUnits="userSpaceOnUse" x1="1701.6758" y1="-212.7236" x2="1814.3226" y2="-438.0168" gradientTransform="matrix(-0.568 -0.823 0.823 -0.568 2150.7319 1516.4644)">
				<stop  offset="0" style="stop-color:#4CC0B8"/>
				<stop  offset="1" style="stop-color:#C1F1C8"/>
			</linearGradient>
			<path fill="url(#SVGID_8_)" d="M922.26,291.469l2.879-9.104l15.644-49.483l9.528-30.139c0.624,0.592,1.236,1.192,1.842,1.803
				l-9.176,29.029l-15.645,49.483l-2.287,7.23C924.122,290.689,923.191,291.078,922.26,291.469z"/>
			
				<linearGradient id="SVGID_9_" gradientUnits="userSpaceOnUse" x1="1702.9004" y1="-212.1094" x2="1815.5493" y2="-437.4067" gradientTransform="matrix(-0.568 -0.823 0.823 -0.568 2150.7319 1516.4644)">
				<stop  offset="0" style="stop-color:#4CC0B8"/>
				<stop  offset="1" style="stop-color:#C1F1C8"/>
			</linearGradient>
			<path fill="url(#SVGID_9_)" d="M916.012,294.021l4.18-13.223l15.645-49.483l10.248-32.411c0.636,0.547,1.265,1.104,1.883,1.669
				l-9.938,31.436l-15.645,49.485l-3.609,11.414C917.857,293.283,916.934,293.652,916.012,294.021z"/>
			
				<linearGradient id="SVGID_10_" gradientUnits="userSpaceOnUse" x1="1704.0586" y1="-211.5317" x2="1816.7065" y2="-436.8272" gradientTransform="matrix(-0.568 -0.823 0.823 -0.568 2150.7319 1516.4644)">
				<stop  offset="0" style="stop-color:#4CC0B8"/>
				<stop  offset="1" style="stop-color:#C1F1C8"/>
			</linearGradient>
			<path fill="url(#SVGID_10_)" d="M909.8,296.463l5.443-17.225l15.646-49.487l10.877-34.414c0.647,0.507,1.292,1.03,1.927,1.551
				l-10.61,33.556l-15.645,49.487l-4.885,15.457C911.637,295.748,910.716,296.104,909.8,296.463z"/>
			
				<linearGradient id="SVGID_11_" gradientUnits="userSpaceOnUse" x1="1705.1572" y1="-210.9824" x2="1817.806" y2="-436.2797" gradientTransform="matrix(-0.568 -0.823 0.823 -0.568 2150.7319 1516.4644)">
				<stop  offset="0" style="stop-color:#4CC0B8"/>
				<stop  offset="1" style="stop-color:#C1F1C8"/>
			</linearGradient>
			<path fill="url(#SVGID_11_)" d="M903.607,298.834l6.689-21.16l15.645-49.489l11.446-36.206c0.655,0.483,1.306,0.97,1.948,1.466
				l-11.201,35.439l-15.645,49.483l-6.138,19.422C905.433,298.139,904.518,298.488,903.607,298.834z"/>
			
				<linearGradient id="SVGID_12_" gradientUnits="userSpaceOnUse" x1="1706.1973" y1="-210.4639" x2="1818.8456" y2="-435.7601" gradientTransform="matrix(-0.568 -0.823 0.823 -0.568 2150.7319 1516.4644)">
				<stop  offset="0" style="stop-color:#4CC0B8"/>
				<stop  offset="1" style="stop-color:#C1F1C8"/>
			</linearGradient>
			<path fill="url(#SVGID_12_)" d="M897.414,301.186l7.93-25.08l15.645-49.481l11.961-37.841c0.66,0.458,1.316,0.925,1.974,1.397
				l-11.74,37.137l-15.645,49.483l-7.381,23.344C899.237,300.494,898.323,300.838,897.414,301.186z"/>
			
				<linearGradient id="SVGID_13_" gradientUnits="userSpaceOnUse" x1="1707.1719" y1="-209.9785" x2="1819.8176" y2="-435.2695" gradientTransform="matrix(-0.568 -0.823 0.823 -0.568 2150.7319 1516.4644)">
				<stop  offset="0" style="stop-color:#4CC0B8"/>
				<stop  offset="1" style="stop-color:#C1F1C8"/>
			</linearGradient>
			<path fill="url(#SVGID_13_)" d="M891.223,303.557l9.175-29.016l15.645-49.483l12.435-39.34c0.667,0.442,1.326,0.895,1.991,1.348
				l-12.232,38.686l-15.644,49.483l-8.623,27.268C893.047,302.855,892.133,303.205,891.223,303.557z"/>
			
				<linearGradient id="SVGID_14_" gradientUnits="userSpaceOnUse" x1="1708.0771" y1="-209.5249" x2="1820.7249" y2="-434.8199" gradientTransform="matrix(-0.568 -0.823 0.823 -0.568 2150.7319 1516.4644)">
				<stop  offset="0" style="stop-color:#4CC0B8"/>
				<stop  offset="1" style="stop-color:#C1F1C8"/>
			</linearGradient>
			<path fill="url(#SVGID_14_)" d="M885.01,306.002l10.439-33.021l15.645-49.489l12.882-40.746c0.668,0.432,1.335,0.87,2.002,1.308
				l-12.688,40.132l-15.646,49.489l-9.876,31.232C886.834,305.27,885.918,305.635,885.01,306.002z"/>
			
				<linearGradient id="SVGID_15_" gradientUnits="userSpaceOnUse" x1="1708.8955" y1="-209.1152" x2="1821.5438" y2="-434.4114" gradientTransform="matrix(-0.568 -0.823 0.823 -0.568 2150.7319 1516.4644)">
				<stop  offset="0" style="stop-color:#4CC0B8"/>
				<stop  offset="1" style="stop-color:#C1F1C8"/>
			</linearGradient>
			<path fill="url(#SVGID_15_)" d="M878.745,308.596l11.758-37.182l15.644-49.483l13.31-42.104c0.669,0.427,1.343,0.856,2.01,1.288
				l-13.125,41.509l-15.645,49.483l-11.162,35.314C880.588,307.809,879.661,308.205,878.745,308.596z"/>
			
				<linearGradient id="SVGID_16_" gradientUnits="userSpaceOnUse" x1="1709.584" y1="-208.7715" x2="1822.2327" y2="-434.0685" gradientTransform="matrix(-0.568 -0.823 0.823 -0.568 2150.7319 1516.4644)">
				<stop  offset="0" style="stop-color:#4CC0B8"/>
				<stop  offset="1" style="stop-color:#C1F1C8"/>
			</linearGradient>
			<path fill="url(#SVGID_16_)" d="M872.395,311.457l13.156-41.609l15.648-49.483l13.727-43.415c0.59,0.365,1.174,0.733,1.742,1.095
				c0.09,0.06,0.18,0.114,0.271,0.173l-13.546,42.84l-15.648,49.483l-12.52,39.604C874.256,310.58,873.312,311.018,872.395,311.457z
				"/>
			
				<linearGradient id="SVGID_17_" gradientUnits="userSpaceOnUse" x1="1710.0215" y1="-208.5527" x2="1822.6698" y2="-433.8489" gradientTransform="matrix(-0.568 -0.823 0.823 -0.568 2150.7319 1516.4644)">
				<stop  offset="0" style="stop-color:#4CC0B8"/>
				<stop  offset="1" style="stop-color:#C1F1C8"/>
			</linearGradient>
			<path fill="url(#SVGID_17_)" d="M865.896,314.809l14.707-46.521l15.644-49.489l14.106-44.624c0.688,0.409,1.363,0.817,2.03,1.224
				l-13.942,44.095l-15.645,49.487l-13.992,44.257C867.799,313.756,866.828,314.279,865.896,314.809z"/>
			
				<linearGradient id="SVGID_18_" gradientUnits="userSpaceOnUse" x1="1709.9688" y1="-208.5815" x2="1822.616" y2="-433.8756" gradientTransform="matrix(-0.568 -0.823 0.823 -0.568 2150.7319 1516.4644)">
				<stop  offset="0" style="stop-color:#4CC0B8"/>
				<stop  offset="1" style="stop-color:#C1F1C8"/>
			</linearGradient>
			<path fill="url(#SVGID_18_)" d="M859.021,319.338l0.99-3.135l15.645-49.482l15.644-49.483l14.495-45.852
				c0.676,0.423,1.35,0.841,2.021,1.249l-14.322,45.296l-15.645,49.483l-15.645,49.482l-0.059,0.195
				C861.02,317.83,859.975,318.58,859.021,319.338z"/>
			
				<linearGradient id="SVGID_19_" gradientUnits="userSpaceOnUse" x1="1709.1279" y1="-209" x2="1821.7761" y2="-434.296" gradientTransform="matrix(-0.568 -0.823 0.823 -0.568 2150.7319 1516.4644)">
				<stop  offset="0" style="stop-color:#4CC0B8"/>
				<stop  offset="1" style="stop-color:#C1F1C8"/>
			</linearGradient>
			<path fill="url(#SVGID_19_)" d="M851.52,325.855l3.545-11.213l15.645-49.486l15.645-49.484l14.924-47.209
				c0.66,0.447,1.326,0.89,1.994,1.323l-14.725,46.579l-15.645,49.485l-15.645,49.486l-2.367,7.494
				C853.801,323.787,852.676,324.799,851.52,325.855z"/>
			
				<linearGradient id="SVGID_20_" gradientUnits="userSpaceOnUse" x1="1708.1152" y1="-209.5059" x2="1820.7635" y2="-434.8021" gradientTransform="matrix(-0.568 -0.823 0.823 -0.568 2150.7319 1516.4644)">
				<stop  offset="0" style="stop-color:#4CC0B8"/>
				<stop  offset="1" style="stop-color:#C1F1C8"/>
			</linearGradient>
			<path fill="url(#SVGID_20_)" d="M843.794,333.064l6.317-19.988l15.649-49.48l15.646-49.488l15.444-48.849
				c0.638,0.496,1.286,0.987,1.948,1.466L883.6,214.8l-15.645,49.489l-15.645,49.482l-5.08,16.059
				C846.106,330.881,844.963,331.959,843.794,333.064z"/>
			
				<linearGradient id="SVGID_21_" gradientUnits="userSpaceOnUse" x1="1707.2676" y1="-209.9326" x2="1819.9147" y2="-435.2263" gradientTransform="matrix(-0.568 -0.823 0.823 -0.568 2150.7319 1516.4644)">
				<stop  offset="0" style="stop-color:#4CC0B8"/>
				<stop  offset="1" style="stop-color:#C1F1C8"/>
			</linearGradient>
			<path fill="url(#SVGID_21_)" d="M836.037,340.377l9.127-28.865l15.645-49.484l15.645-49.487l15.645-49.482l0.475-1.496
				c0.604,0.589,1.227,1.155,1.871,1.713l-0.152,0.476l-15.643,49.481l-15.646,49.49l-15.645,49.482l-7.885,24.943
				C838.348,338.215,837.197,339.291,836.037,340.377z"/>
			
				<linearGradient id="SVGID_22_" gradientUnits="userSpaceOnUse" x1="1706.876" y1="-210.1313" x2="1819.5214" y2="-435.4217" gradientTransform="matrix(-0.568 -0.823 0.823 -0.568 2150.7319 1516.4644)">
				<stop  offset="0" style="stop-color:#4CC0B8"/>
				<stop  offset="1" style="stop-color:#C1F1C8"/>
			</linearGradient>
			<path fill="url(#SVGID_22_)" d="M828.371,347.424l11.846-37.475l15.645-49.486l15.645-49.483l15.646-49.488l1.403-4.437
				c0.543,0.73,1.124,1.44,1.738,2.135l-0.948,2.996L873.7,211.673l-15.645,49.483l-15.646,49.488l-10.656,33.709
				C830.639,345.373,829.518,346.398,828.371,347.424z"/>
			
				<linearGradient id="SVGID_23_" gradientUnits="userSpaceOnUse" x1="1707.3633" y1="-209.8867" x2="1820.0104" y2="-435.1804" gradientTransform="matrix(-0.568 -0.823 0.823 -0.568 2150.7319 1516.4644)">
				<stop  offset="0" style="stop-color:#4CC0B8"/>
				<stop  offset="1" style="stop-color:#C1F1C8"/>
			</linearGradient>
			<path fill="url(#SVGID_23_)" d="M820.84,354.029l14.43-45.645l15.645-49.488l15.645-49.482l15.645-49.483l2.852-9.023
				c0.381,0.945,0.822,1.879,1.326,2.795c0.041,0.078,0.086,0.157,0.133,0.231l-2.117,6.69l-15.645,49.483l-15.643,49.482
				l-15.646,49.488l-13.308,42.094C823.061,352.127,821.955,353.082,820.84,354.029z"/>
			
				<linearGradient id="SVGID_24_" gradientUnits="userSpaceOnUse" x1="1709.8145" y1="-208.6621" x2="1822.4607" y2="-433.9542" gradientTransform="matrix(-0.568 -0.823 0.823 -0.568 2150.7319 1516.4644)">
				<stop  offset="0" style="stop-color:#4CC0B8"/>
				<stop  offset="1" style="stop-color:#C1F1C8"/>
			</linearGradient>
			<path fill="url(#SVGID_24_)" d="M813.5,360.029l1.178-3.729l15.645-49.482l15.645-49.482l15.645-49.488l15.645-49.482
				l5.576-17.64c0.133,1.78,0.365,3.552,0.739,5.305l-0.001,0.005l-4.12,13.024l-15.645,49.482L848.16,258.03l-15.643,49.482
				L816.871,357l-0.141,0.439C815.667,358.318,814.586,359.176,813.5,360.029z"/>
			
				<linearGradient id="SVGID_25_" gradientUnits="userSpaceOnUse" x1="1716.042" y1="-205.5479" x2="1828.6893" y2="-430.8422" gradientTransform="matrix(-0.568 -0.823 0.823 -0.568 2150.7319 1516.4644)">
				<stop  offset="0" style="stop-color:#4CC0B8"/>
				<stop  offset="1" style="stop-color:#C1F1C8"/>
			</linearGradient>
			<path fill="url(#SVGID_25_)" d="M806.364,365.367l3.361-10.627l15.646-49.488l15.644-49.482l15.645-49.482l15.645-49.488
				l10.915-34.522c-0.026,2.839-0.222,5.783-0.361,8.776l-8.359,26.44l-15.645,49.488l-15.645,49.482l-15.645,49.482l-15.646,49.488
				l-2.42,7.65C808.461,363.861,807.414,364.621,806.364,365.367z"/>
			
				<linearGradient id="SVGID_26_" gradientUnits="userSpaceOnUse" x1="1720.8486" y1="-203.1465" x2="1833.4955" y2="-428.4397" gradientTransform="matrix(-0.568 -0.823 0.823 -0.568 2150.7319 1516.4644)">
				<stop  offset="0" style="stop-color:#4CC0B8"/>
				<stop  offset="1" style="stop-color:#C1F1C8"/>
			</linearGradient>
			<path fill="url(#SVGID_26_)" d="M799.467,369.977l5.312-16.803l15.644-49.482l15.646-49.488l15.645-49.482l15.643-49.482
				l14.961-47.318c0.252,1.92,0.447,3.843,0.588,5.769l-13.354,42.243l-15.645,49.482l-15.645,49.482l-15.645,49.488l-15.645,49.482
				l-4.476,14.158C801.49,368.693,800.48,369.346,799.467,369.977z"/>
			
				<linearGradient id="SVGID_27_" gradientUnits="userSpaceOnUse" x1="1724.4512" y1="-201.3457" x2="1837.0979" y2="-426.6386" gradientTransform="matrix(-0.568 -0.823 0.823 -0.568 2150.7319 1516.4644)">
				<stop  offset="0" style="stop-color:#4CC0B8"/>
				<stop  offset="1" style="stop-color:#C1F1C8"/>
			</linearGradient>
			<path fill="url(#SVGID_27_)" d="M792.793,373.867l7.039-22.258l15.645-49.484l15.644-49.482l15.645-49.487l15.645-49.483
				l15.645-49.487l2.233-7.062c0.375,1.488,0.705,2.98,0.996,4.477v0.005l-1.036,3.278l-15.644,49.482l-15.645,49.483
				l-15.646,49.487l-15.644,49.482l-15.645,49.482l-6.299,19.934C794.749,372.799,793.77,373.346,792.793,373.867z"/>
			
				<linearGradient id="SVGID_28_" gradientUnits="userSpaceOnUse" x1="1727.499" y1="-199.8213" x2="1840.146" y2="-425.1148" gradientTransform="matrix(-0.568 -0.823 0.823 -0.568 2150.7319 1516.4644)">
				<stop  offset="0" style="stop-color:#4CC0B8"/>
				<stop  offset="1" style="stop-color:#C1F1C8"/>
			</linearGradient>
			<path fill="url(#SVGID_28_)" d="M786.361,377.014l8.523-26.967l15.645-49.486l15.644-49.484l15.645-49.482l15.646-49.487
				l15.643-49.482l4.504-14.243c0.445,1.224,0.865,2.444,1.252,3.675v0.005l-3.561,11.256L859.656,152.8l-15.645,49.487
				l-15.645,49.482l-15.645,49.484l-15.645,49.486l-7.895,24.971C788.244,376.164,787.307,376.6,786.361,377.014z"/>
			
				<linearGradient id="SVGID_29_" gradientUnits="userSpaceOnUse" x1="1730.2803" y1="-198.4316" x2="1842.9268" y2="-423.7242" gradientTransform="matrix(-0.568 -0.823 0.823 -0.568 2150.7319 1516.4644)">
				<stop  offset="0" style="stop-color:#4CC0B8"/>
				<stop  offset="1" style="stop-color:#C1F1C8"/>
			</linearGradient>
			<path fill="url(#SVGID_29_)" d="M780.148,379.422l9.783-30.941l15.645-49.482l15.645-49.488l15.645-49.482l15.645-49.488
				l15.645-49.482l6.342-20.046c0.498,1.035,0.975,2.082,1.424,3.125l-5.572,17.614l-15.644,49.482l-15.646,49.488l-15.644,49.484
				l-15.646,49.486l-15.645,49.482l-9.251,29.268C781.963,378.793,781.057,379.117,780.148,379.422z"/>
			
				<linearGradient id="SVGID_30_" gradientUnits="userSpaceOnUse" x1="1732.9512" y1="-197.0977" x2="1845.5975" y2="-422.3899" gradientTransform="matrix(-0.568 -0.823 0.823 -0.568 2150.7319 1516.4644)">
				<stop  offset="0" style="stop-color:#4CC0B8"/>
				<stop  offset="1" style="stop-color:#C1F1C8"/>
			</linearGradient>
			<path fill="url(#SVGID_30_)" d="M774.175,381.105l10.81-34.189l15.645-49.482l15.645-49.484l15.645-49.487l15.645-49.483
				l15.645-49.487l7.863-24.865c0.539,0.901,1.055,1.809,1.549,2.724l-7.219,22.835l-15.645,49.488l-15.645,49.482l-15.645,49.487
				l-15.644,49.482l-15.645,49.484l-10.382,32.838C775.924,380.689,775.047,380.91,774.175,381.105z"/>
			
				<linearGradient id="SVGID_31_" gradientUnits="userSpaceOnUse" x1="1735.5947" y1="-195.7744" x2="1848.2418" y2="-421.0682" gradientTransform="matrix(-0.568 -0.823 0.823 -0.568 2150.7319 1516.4644)">
				<stop  offset="0" style="stop-color:#4CC0B8"/>
				<stop  offset="1" style="stop-color:#C1F1C8"/>
			</linearGradient>
			<path fill="url(#SVGID_31_)" d="M768.428,382.08l11.609-36.727l15.645-49.486l15.645-49.482l15.645-49.488l15.645-49.482
				l15.645-49.483l9.148-28.941c0.202,0.283,0.404,0.571,0.602,0.858c0.354,0.517,0.705,1.039,1.049,1.559l-8.605,27.217
				l-15.645,49.483l-15.644,49.482l-15.646,49.486l-15.645,49.484l-15.645,49.488l-11.283,35.686
				C770.104,381.871,769.266,381.982,768.428,382.08z"/>
			
				<linearGradient id="SVGID_32_" gradientUnits="userSpaceOnUse" x1="1738.1865" y1="-194.4795" x2="1850.8335" y2="-419.7731" gradientTransform="matrix(-0.568 -0.823 0.823 -0.568 2150.7319 1516.4644)">
				<stop  offset="0" style="stop-color:#4CC0B8"/>
				<stop  offset="1" style="stop-color:#C1F1C8"/>
			</linearGradient>
			<path fill="url(#SVGID_32_)" d="M762.896,382.355l12.194-38.566l15.645-49.488l15.645-49.482l15.645-49.482l15.645-49.488
				l15.645-49.483l10.26-32.457c0.586,0.721,1.158,1.451,1.719,2.194l-9.785,30.957l-15.644,49.483l-15.646,49.488l-15.644,49.482
				L792.928,295l-15.644,49.482l-11.96,37.83C764.517,382.352,763.707,382.363,762.896,382.355z"/>
			
				<linearGradient id="SVGID_33_" gradientUnits="userSpaceOnUse" x1="1740.8721" y1="-193.1367" x2="1853.5187" y2="-418.4294" gradientTransform="matrix(-0.568 -0.823 0.823 -0.568 2150.7319 1516.4644)">
				<stop  offset="0" style="stop-color:#4CC0B8"/>
				<stop  offset="1" style="stop-color:#C1F1C8"/>
			</linearGradient>
			<path fill="url(#SVGID_33_)" d="M757.579,381.953l12.56-39.73l15.644-49.482l15.646-49.489l15.643-49.482l15.645-49.483
				l15.65-49.487L859.6,59.273c0.6,0.656,1.191,1.326,1.779,2l-10.819,34.22l-15.646,49.487l-15.648,49.482l-15.645,49.482
				l-15.646,49.488l-15.644,49.482l-12.424,39.295C759.129,382.15,758.356,382.061,757.579,381.953z"/>
			
				<linearGradient id="SVGID_34_" gradientUnits="userSpaceOnUse" x1="1743.6787" y1="-191.7349" x2="1856.3252" y2="-417.0274" gradientTransform="matrix(-0.568 -0.823 0.823 -0.568 2150.7319 1516.4644)">
				<stop  offset="0" style="stop-color:#4CC0B8"/>
				<stop  offset="1" style="stop-color:#C1F1C8"/>
			</linearGradient>
			<path fill="url(#SVGID_34_)" d="M754.712,381.443c-0.749-0.16-1.499-0.34-2.24-0.551l12.72-40.236l15.645-49.482l15.645-49.483
				l15.644-49.487l15.645-49.483l15.644-49.482l12.083-38.222c0.618,0.607,1.228,1.222,1.832,1.843l-11.721,37.072l-15.645,49.482
				l-15.644,49.483l-15.645,49.487l-15.645,49.483l-15.645,49.482L754.712,381.443z"/>
			
				<linearGradient id="SVGID_35_" gradientUnits="userSpaceOnUse" x1="1746.6055" y1="-190.2715" x2="1859.2524" y2="-415.5651" gradientTransform="matrix(-0.568 -0.823 0.823 -0.568 2150.7319 1516.4644)">
				<stop  offset="0" style="stop-color:#4CC0B8"/>
				<stop  offset="1" style="stop-color:#C1F1C8"/>
			</linearGradient>
			<path fill="url(#SVGID_35_)" d="M749.717,380.031c-0.719-0.254-1.436-0.527-2.154-0.832l12.681-40.104l15.646-49.488
				l15.644-49.483l15.645-49.482l15.645-49.488l15.644-49.482l12.822-40.548c0.635,0.552,1.258,1.113,1.881,1.684L840.66,92.366
				l-15.645,49.482l-15.645,49.488l-15.645,49.482l-15.645,49.483l-15.646,49.488L749.717,380.031z"/>
			
				<linearGradient id="SVGID_36_" gradientUnits="userSpaceOnUse" x1="1749.6699" y1="-188.7412" x2="1862.316" y2="-414.033" gradientTransform="matrix(-0.568 -0.823 0.823 -0.568 2150.7319 1516.4644)">
				<stop  offset="0" style="stop-color:#4CC0B8"/>
				<stop  offset="1" style="stop-color:#C1F1C8"/>
			</linearGradient>
			<path fill="url(#SVGID_36_)" d="M744.916,377.99c-0.691-0.344-1.379-0.711-2.062-1.1l12.443-39.361l15.645-49.482l15.645-49.489
				l15.645-49.481l15.643-49.483l15.646-49.488l13.46-42.574c0.646,0.513,1.285,1.029,1.92,1.555L835.712,90.8l-15.645,49.488
				l-15.644,49.482l-15.645,49.481l-15.645,49.489l-15.645,49.482L744.916,377.99z"/>
			
				<linearGradient id="SVGID_37_" gradientUnits="userSpaceOnUse" x1="1752.8691" y1="-187.1426" x2="1865.5151" y2="-412.4341" gradientTransform="matrix(-0.568 -0.823 0.823 -0.568 2150.7319 1516.4644)">
				<stop  offset="0" style="stop-color:#4CC0B8"/>
				<stop  offset="1" style="stop-color:#C1F1C8"/>
			</linearGradient>
			<path fill="url(#SVGID_37_)" d="M740.311,375.34c-0.662-0.434-1.322-0.885-1.982-1.369l12.016-38.008l15.645-49.482
				l15.644-49.483l15.65-49.486l15.645-49.483l15.645-49.488l14.009-44.307c0.658,0.467,1.314,0.945,1.959,1.431l-13.773,43.569
				l-15.645,49.488l-15.645,49.482l-15.65,49.486l-15.645,49.483l-15.644,49.482L740.311,375.34z"/>
			
				<linearGradient id="SVGID_38_" gradientUnits="userSpaceOnUse" x1="1756.2061" y1="-185.4727" x2="1868.8524" y2="-410.765" gradientTransform="matrix(-0.568 -0.823 0.823 -0.568 2150.7319 1516.4644)">
				<stop  offset="0" style="stop-color:#4CC0B8"/>
				<stop  offset="1" style="stop-color:#C1F1C8"/>
			</linearGradient>
			<path fill="url(#SVGID_38_)" d="M735.889,372.098c-0.635-0.516-1.266-1.057-1.899-1.619l11.407-36.076l15.645-49.488
				l15.645-49.483l15.645-49.481l15.645-49.488l15.645-49.483l14.475-45.783c0.674,0.428,1.336,0.865,1.996,1.312l-14.277,45.165
				l-15.645,49.483l-15.645,49.487l-15.645,49.481l-15.645,49.485l-15.645,49.486L735.889,372.098z"/>
			
				<linearGradient id="SVGID_39_" gradientUnits="userSpaceOnUse" x1="1759.6807" y1="-183.7354" x2="1872.3271" y2="-409.0279" gradientTransform="matrix(-0.568 -0.823 0.823 -0.568 2150.7319 1516.4644)">
				<stop  offset="0" style="stop-color:#4CC0B8"/>
				<stop  offset="1" style="stop-color:#C1F1C8"/>
			</linearGradient>
			<path fill="url(#SVGID_39_)" d="M731.653,368.289c-0.612-0.6-1.218-1.221-1.823-1.865l10.619-33.588l15.645-49.482l15.645-49.489
				l15.645-49.481l15.645-49.488l15.645-49.482l14.863-47.011c0.684,0.398,1.361,0.801,2.033,1.208l-14.703,46.496l-15.644,49.482
				l-15.646,49.488l-15.645,49.482l-15.645,49.487l-15.645,49.482L731.653,368.289z"/>
			
				<linearGradient id="SVGID_40_" gradientUnits="userSpaceOnUse" x1="1763.2891" y1="-181.9316" x2="1875.9357" y2="-407.2245" gradientTransform="matrix(-0.568 -0.823 0.823 -0.568 2150.7319 1516.4644)">
				<stop  offset="0" style="stop-color:#4CC0B8"/>
				<stop  offset="1" style="stop-color:#C1F1C8"/>
			</linearGradient>
			<path fill="url(#SVGID_40_)" d="M727.591,363.926c-0.586-0.68-1.168-1.385-1.747-2.104l9.658-30.551l15.645-49.482l15.645-49.489
				l15.645-49.482l15.645-49.482l15.645-49.488l15.178-48.002c0.688,0.363,1.375,0.731,2.062,1.11l-15.046,47.586l-15.645,49.487
				l-15.645,49.482L768.984,233l-15.645,49.483l-15.644,49.482L727.591,363.926z"/>
			
				<linearGradient id="SVGID_41_" gradientUnits="userSpaceOnUse" x1="1767.0312" y1="-180.0625" x2="1879.6774" y2="-405.3542" gradientTransform="matrix(-0.568 -0.823 0.823 -0.568 2150.7319 1516.4644)">
				<stop  offset="0" style="stop-color:#4CC0B8"/>
				<stop  offset="1" style="stop-color:#C1F1C8"/>
			</linearGradient>
			<path fill="url(#SVGID_41_)" d="M723.693,359.021c-0.559-0.758-1.115-1.537-1.672-2.338l8.527-26.975l15.65-49.486l15.645-49.483
				l15.645-49.487l15.645-49.483l15.645-49.483l15.417-48.77c0.704,0.324,1.401,0.663,2.098,1.006l-15.321,48.458l-15.645,49.482
				l-15.645,49.482l-15.645,49.487l-15.645,49.483l-15.65,49.486L723.693,359.021z"/>
			
				<linearGradient id="SVGID_42_" gradientUnits="userSpaceOnUse" x1="1770.9072" y1="-178.126" x2="1883.5536" y2="-403.4182" gradientTransform="matrix(-0.568 -0.823 0.823 -0.568 2150.7319 1516.4644)">
				<stop  offset="0" style="stop-color:#4CC0B8"/>
				<stop  offset="1" style="stop-color:#C1F1C8"/>
			</linearGradient>
			<path fill="url(#SVGID_42_)" d="M719.969,353.598c-0.546-0.85-1.073-1.713-1.596-2.58l7.229-22.873l15.646-49.488l15.645-49.485
				l15.645-49.48l15.645-49.488l15.645-49.482l15.596-49.329c0.708,0.299,1.415,0.602,2.12,0.916l-15.522,49.106l-15.644,49.482
				l-15.646,49.488l-15.644,49.482l-15.645,49.483l-15.646,49.486L719.969,353.598z"/>
			
				<linearGradient id="SVGID_43_" gradientUnits="userSpaceOnUse" x1="1774.916" y1="-176.1216" x2="1887.562" y2="-401.4132" gradientTransform="matrix(-0.568 -0.823 0.823 -0.568 2150.7319 1516.4644)">
				<stop  offset="0" style="stop-color:#4CC0B8"/>
				<stop  offset="1" style="stop-color:#C1F1C8"/>
			</linearGradient>
			<path fill="url(#SVGID_43_)" d="M716.409,347.641c-0.52-0.924-1.028-1.848-1.53-2.779v-0.004l5.777-18.279l15.643-49.482
				l15.646-49.489l15.643-49.482l15.645-49.483l15.645-49.487l15.645-49.483l0.059-0.188c0.723,0.264,1.439,0.538,2.154,0.822
				l-0.019,0.06l-15.645,49.482l-15.644,49.488l-15.645,49.483L754.139,228.3l-15.646,49.489l-15.643,49.482L716.409,347.641z"/>
			
				<linearGradient id="SVGID_44_" gradientUnits="userSpaceOnUse" x1="1779.0049" y1="-174.0786" x2="1891.6503" y2="-399.3689" gradientTransform="matrix(-0.568 -0.823 0.823 -0.568 2150.7319 1516.4644)">
				<stop  offset="0" style="stop-color:#4CC0B8"/>
				<stop  offset="1" style="stop-color:#C1F1C8"/>
			</linearGradient>
			<path fill="url(#SVGID_44_)" d="M712.974,341.295c-0.505-0.957-1.011-1.91-1.509-2.863v-0.004l4.244-13.416l15.644-49.482
				l15.645-49.483l15.645-49.487l15.645-49.482l15.644-49.482l15.646-49.488l0.104-0.332c0.732,0.235,1.458,0.479,2.184,0.729
				l-0.095,0.297l-15.645,49.488l-15.645,49.482l-15.644,49.483L749.19,226.74l-15.644,49.483l-15.645,49.482L712.974,341.295z"/>
			
				<linearGradient id="SVGID_45_" gradientUnits="userSpaceOnUse" x1="1782.9912" y1="-172.083" x2="1895.6383" y2="-397.3768" gradientTransform="matrix(-0.568 -0.823 0.823 -0.568 2150.7319 1516.4644)">
				<stop  offset="0" style="stop-color:#4CC0B8"/>
				<stop  offset="1" style="stop-color:#C1F1C8"/>
			</linearGradient>
			<path fill="url(#SVGID_45_)" d="M709.525,334.99l-1.564-2.695l2.8-8.844l15.646-49.488l15.644-49.483l15.644-49.481
				l15.645-49.488l15.645-49.482l15.645-49.488l0.088-0.277c0.736,0.204,1.477,0.419,2.211,0.644l-0.104,0.327l-15.645,49.487
				l-15.645,49.482l-15.645,49.488l-15.645,49.481L728.6,274.656l-15.646,49.488L709.525,334.99z"/>
			
				<linearGradient id="SVGID_46_" gradientUnits="userSpaceOnUse" x1="1786.8086" y1="-170.1748" x2="1899.4558" y2="-395.4688" gradientTransform="matrix(-0.568 -0.823 0.823 -0.568 2150.7319 1516.4644)">
				<stop  offset="0" style="stop-color:#4CC0B8"/>
				<stop  offset="1" style="stop-color:#C1F1C8"/>
			</linearGradient>
			<path fill="url(#SVGID_46_)" d="M706.007,328.893c-0.516-0.949-1.026-1.893-1.521-2.822l1.322-4.186l15.645-49.482l15.645-49.489
				l15.645-49.482l15.645-49.482l15.645-49.487l15.644-49.483l0.01-0.03c0.745,0.18,1.489,0.365,2.239,0.555l-0.056,0.168
				l-15.644,49.482l-15.645,49.487l-15.645,49.483l-15.645,49.481l-15.645,49.489l-15.645,49.482L706.007,328.893z"/>
			
				<linearGradient id="SVGID_47_" gradientUnits="userSpaceOnUse" x1="1790.6797" y1="-168.2388" x2="1903.3268" y2="-393.5324" gradientTransform="matrix(-0.568 -0.823 0.823 -0.568 2150.7319 1516.4644)">
				<stop  offset="0" style="stop-color:#4CC0B8"/>
				<stop  offset="1" style="stop-color:#C1F1C8"/>
			</linearGradient>
			<path fill="url(#SVGID_47_)" d="M702.599,322.463c-0.511-0.988-1.002-1.965-1.488-2.936l15.396-48.691l15.644-49.483
				l15.646-49.487l15.644-49.482l15.646-49.488l15.51-49.057c0.756,0.15,1.51,0.305,2.264,0.465l-15.58,49.285l-15.645,49.488
				l-15.645,49.482l-15.645,49.487l-15.645,49.483l-15.644,49.482L702.599,322.463z"/>
			
				<linearGradient id="SVGID_48_" gradientUnits="userSpaceOnUse" x1="1794.6016" y1="-166.2793" x2="1907.2484" y2="-391.5726" gradientTransform="matrix(-0.568 -0.823 0.823 -0.568 2150.7319 1516.4644)">
				<stop  offset="0" style="stop-color:#4CC0B8"/>
				<stop  offset="1" style="stop-color:#C1F1C8"/>
			</linearGradient>
			<path fill="url(#SVGID_48_)" d="M699.287,315.713c-0.489-1.061-0.959-2.111-1.415-3.154l13.687-43.287l15.645-49.483
				l15.645-49.488l15.645-49.482l15.645-49.483l15.302-48.403c0.765,0.115,1.529,0.241,2.292,0.376l-15.4,48.72l-15.645,49.483
				l-15.645,49.488l-15.645,49.481l-15.645,49.485L699.287,315.713z"/>
			
				<linearGradient id="SVGID_49_" gradientUnits="userSpaceOnUse" x1="1798.6758" y1="-164.2397" x2="1911.3229" y2="-389.5336" gradientTransform="matrix(-0.568 -0.823 0.823 -0.568 2150.7319 1516.4644)">
				<stop  offset="0" style="stop-color:#4CC0B8"/>
				<stop  offset="1" style="stop-color:#C1F1C8"/>
			</linearGradient>
			<path fill="url(#SVGID_49_)" d="M696.162,308.393c-0.461-1.184-0.893-2.359-1.294-3.531l0.001-0.01l11.742-37.142l15.645-49.487
				l15.644-49.482l15.646-49.488l15.645-49.482l15.028-47.542c0.773,0.09,1.548,0.181,2.325,0.288l-15.16,47.947l-15.645,49.482
				l-15.645,49.488l-15.645,49.482l-15.645,49.489L696.162,308.393z"/>
			
				<linearGradient id="SVGID_50_" gradientUnits="userSpaceOnUse" x1="1803.1074" y1="-162.0234" x2="1915.7556" y2="-387.3193" gradientTransform="matrix(-0.568 -0.823 0.823 -0.568 2150.7319 1516.4644)">
				<stop  offset="0" style="stop-color:#4CC0B8"/>
				<stop  offset="1" style="stop-color:#C1F1C8"/>
			</linearGradient>
			<path fill="url(#SVGID_50_)" d="M693.365,300.012c-0.398-1.439-0.751-2.873-1.053-4.309l9.346-29.56l15.645-49.487l15.645-49.482
				l15.645-49.483l15.645-49.488l14.688-46.457c0.784,0.05,1.572,0.112,2.359,0.189l-14.852,46.961l-15.646,49.488l-15.643,49.483
				l-15.645,49.48l-15.645,49.491L693.365,300.012z"/>
			
				<linearGradient id="SVGID_51_" gradientUnits="userSpaceOnUse" x1="1808.4365" y1="-159.3643" x2="1921.0828" y2="-384.6562" gradientTransform="matrix(-0.568 -0.823 0.823 -0.568 2150.7319 1516.4644)">
				<stop  offset="0" style="stop-color:#4CC0B8"/>
				<stop  offset="1" style="stop-color:#C1F1C8"/>
			</linearGradient>
			<path fill="url(#SVGID_51_)" d="M691.308,289.299c-0.226-2.207-0.331-4.428-0.297-6.68l0.001-0.01l5.701-18.031l15.643-49.483
				l15.646-49.488l15.644-49.482l15.645-49.482l14.277-45.165c0.795,0.021,1.588,0.052,2.385,0.089l-14.468,45.769l-15.645,49.482
				l-15.645,49.482l-15.645,49.488l-15.644,49.483L691.308,289.299z"/>
			
				<linearGradient id="SVGID_52_" gradientUnits="userSpaceOnUse" x1="1821.1387" y1="-153.0146" x2="1933.7847" y2="-378.3062" gradientTransform="matrix(-0.568 -0.823 0.823 -0.568 2150.7319 1516.4644)">
				<stop  offset="0" style="stop-color:#4CC0B8"/>
				<stop  offset="1" style="stop-color:#C1F1C8"/>
			</linearGradient>
			<path fill="url(#SVGID_52_)" d="M694.844,260.903c1.12-4.877,1.828-9.731,2.199-14.579c0.002-0.006,0.002-0.006,0.002-0.012
				l0.001-0.004l10.363-32.779l15.645-49.483l15.644-49.487l15.645-49.482l13.791-43.619c0.807-0.019,1.615-0.027,2.422-0.02
				l-14.02,44.332l-15.643,49.482l-15.646,49.488l-15.644,49.483L694.844,260.903z"/>
			
				<linearGradient id="SVGID_53_" gradientUnits="userSpaceOnUse" x1="1832.3447" y1="-147.4077" x2="1944.9921" y2="-372.702" gradientTransform="matrix(-0.568 -0.823 0.823 -0.568 2150.7319 1516.4644)">
				<stop  offset="0" style="stop-color:#4CC0B8"/>
				<stop  offset="1" style="stop-color:#C1F1C8"/>
			</linearGradient>
			<path fill="url(#SVGID_53_)" d="M697.342,235.789c-0.033-2.252-0.129-4.502-0.276-6.756l5.397-17.069l15.643-49.482
				l15.645-49.483l15.645-49.488l13.223-41.821c0.816-0.059,1.636-0.106,2.459-0.138l-13.487,42.653l-15.645,49.488l-15.644,49.482
				l-15.645,49.482L697.342,235.789z"/>
			
				<linearGradient id="SVGID_54_" gradientUnits="userSpaceOnUse" x1="1838.832" y1="-144.1729" x2="1951.4767" y2="-369.4617" gradientTransform="matrix(-0.568 -0.823 0.823 -0.568 2150.7319 1516.4644)">
				<stop  offset="0" style="stop-color:#4CC0B8"/>
				<stop  offset="1" style="stop-color:#C1F1C8"/>
			</linearGradient>
			<path fill="url(#SVGID_54_)" d="M696.391,221.562c-0.201-1.809-0.432-3.623-0.688-5.44l0.001-0.005l1.806-5.716l15.645-49.486
				l15.646-49.483l15.648-49.482l12.566-39.751c0.828-0.104,1.664-0.19,2.498-0.267l-12.871,40.712l-15.648,49.482l-15.645,49.482
				l-15.645,49.487L696.391,221.562z"/>
			
				<linearGradient id="SVGID_55_" gradientUnits="userSpaceOnUse" x1="1844.2061" y1="-141.4824" x2="1956.8527" y2="-366.7751" gradientTransform="matrix(-0.568 -0.823 0.823 -0.568 2150.7319 1516.4644)">
				<stop  offset="0" style="stop-color:#4CC0B8"/>
				<stop  offset="1" style="stop-color:#C1F1C8"/>
			</linearGradient>
			<path fill="url(#SVGID_55_)" d="M694.7,209.698c-0.272-1.629-0.562-3.255-0.866-4.888l14.371-45.457l15.646-49.488l15.643-49.482
				l11.816-37.369c0.84-0.149,1.687-0.281,2.537-0.401l-12.158,38.464l-15.645,49.482L710.4,160.047l-15.645,49.482L694.7,209.698z"
				/>
			
				<linearGradient id="SVGID_56_" gradientUnits="userSpaceOnUse" x1="1849.0449" y1="-139.0615" x2="1961.6921" y2="-364.3554" gradientTransform="matrix(-0.568 -0.823 0.823 -0.568 2150.7319 1516.4644)">
				<stop  offset="0" style="stop-color:#4CC0B8"/>
				<stop  offset="1" style="stop-color:#C1F1C8"/>
			</linearGradient>
			<path fill="url(#SVGID_56_)" d="M692.688,198.862c-0.307-1.54-0.629-3.083-0.949-4.636l11.521-36.438l15.646-49.487
				l15.645-49.483L745.5,24.182c0.857-0.203,1.723-0.389,2.592-0.564l-11.35,35.894l-15.646,49.487l-15.644,49.482L692.688,198.862z
				"/>
			
				<linearGradient id="SVGID_57_" gradientUnits="userSpaceOnUse" x1="1853.5273" y1="-136.8193" x2="1966.175" y2="-362.1143" gradientTransform="matrix(-0.568 -0.823 0.823 -0.568 2150.7319 1516.4644)">
				<stop  offset="0" style="stop-color:#4CC0B8"/>
				<stop  offset="1" style="stop-color:#C1F1C8"/>
			</linearGradient>
			<path fill="url(#SVGID_57_)" d="M690.523,188.491c-0.322-1.506-0.647-3.023-0.979-4.541l8.768-27.728l15.644-49.482
				l15.646-49.488l9.954-31.486c0.878-0.268,1.763-0.518,2.651-0.763l-10.412,32.942l-15.645,49.488l-15.645,49.482L690.523,188.491
				z"/>
			
				<linearGradient id="SVGID_58_" gradientUnits="userSpaceOnUse" x1="1857.7646" y1="-134.7007" x2="1970.4121" y2="-359.9952" gradientTransform="matrix(-0.568 -0.823 0.823 -0.568 2150.7319 1516.4644)">
				<stop  offset="0" style="stop-color:#4CC0B8"/>
				<stop  offset="1" style="stop-color:#C1F1C8"/>
			</linearGradient>
			<path fill="url(#SVGID_58_)" d="M688.322,178.234c-0.324-1.522-0.645-3.044-0.967-4.576v-0.005l6.01-18.996l15.645-49.482
				l15.644-49.483l8.804-27.846c0.9-0.347,1.812-0.677,2.728-0.99l-9.338,29.53l-15.644,49.483L695.56,155.35L688.322,178.234z"/>
			
				<linearGradient id="SVGID_59_" gradientUnits="userSpaceOnUse" x1="1861.8369" y1="-132.6621" x2="1974.5" y2="-357.9878" gradientTransform="matrix(-0.568 -0.823 0.823 -0.568 2150.7319 1516.4644)">
				<stop  offset="0" style="stop-color:#4CC0B8"/>
				<stop  offset="1" style="stop-color:#C1F1C8"/>
			</linearGradient>
			<path fill="url(#SVGID_59_)" d="M686.172,167.802c-0.31-1.587-0.609-3.178-0.896-4.778l0.002-0.01l3.135-9.919l15.646-49.487
				l15.644-49.483l7.449-23.568c0.93-0.452,1.871-0.88,2.82-1.288l-8.076,25.549l-15.644,49.483l-15.645,49.487L686.172,167.802z"/>
			
				<linearGradient id="SVGID_60_" gradientUnits="userSpaceOnUse" x1="1865.8438" y1="-130.665" x2="1978.4901" y2="-355.9573" gradientTransform="matrix(-0.568 -0.823 0.823 -0.568 2150.7319 1516.4644)">
				<stop  offset="0" style="stop-color:#4CC0B8"/>
				<stop  offset="1" style="stop-color:#C1F1C8"/>
			</linearGradient>
			<path fill="url(#SVGID_60_)" d="M684.207,156.808c-0.276-1.712-0.537-3.432-0.781-5.15v-0.005l0.039-0.124l15.645-49.482
				l15.645-49.488l5.842-18.477c0.963-0.576,1.943-1.134,2.943-1.674l-6.591,20.844l-15.646,49.488l-15.643,49.483L684.207,156.808z
				"/>
			
				<linearGradient id="SVGID_61_" gradientUnits="userSpaceOnUse" x1="1869.8457" y1="-128.6709" x2="1982.4896" y2="-353.9584" gradientTransform="matrix(-0.568 -0.823 0.823 -0.568 2150.7319 1516.4644)">
				<stop  offset="0" style="stop-color:#4CC0B8"/>
				<stop  offset="1" style="stop-color:#C1F1C8"/>
			</linearGradient>
			<path fill="url(#SVGID_61_)" d="M682.537,144.882c-0.225-1.896-0.428-3.794-0.61-5.695l0.001-0.005l12.234-38.702l15.645-49.482
				l3.885-12.287c1.01-0.761,2.049-1.502,3.115-2.223l-4.806,15.203l-15.645,49.482L682.537,144.882z"/>
			
				<linearGradient id="SVGID_62_" gradientUnits="userSpaceOnUse" x1="1873.8486" y1="-126.6689" x2="1986.4932" y2="-351.9576" gradientTransform="matrix(-0.568 -0.823 0.823 -0.568 2150.7319 1516.4644)">
				<stop  offset="0" style="stop-color:#4CC0B8"/>
				<stop  offset="1" style="stop-color:#C1F1C8"/>
			</linearGradient>
			<path fill="url(#SVGID_62_)" d="M681.321,131.521c-0.147-2.211-0.255-4.422-0.322-6.617l0.001-0.01l8.215-25.979l15.645-49.483
				l1.352-4.279l0.005-0.004c1.093-1.08,2.227-2.128,3.404-3.149l-2.567,8.127L691.41,99.608L681.321,131.521z"/>
			
				<linearGradient id="SVGID_63_" gradientUnits="userSpaceOnUse" x1="1877.8408" y1="-124.666" x2="1990.488" y2="-349.9601" gradientTransform="matrix(-0.568 -0.823 0.823 -0.568 2150.7319 1516.4644)">
				<stop  offset="0" style="stop-color:#4CC0B8"/>
				<stop  offset="1" style="stop-color:#C1F1C8"/>
			</linearGradient>
			<path fill="url(#SVGID_63_)" d="M680.928,115.533c0.052-2.98,0.176-5.939,0.391-8.865l2.943-9.315l13.223-41.822
				c1.281-1.851,2.651-3.642,4.113-5.378l-15.142,47.893L680.928,115.533z"/>
			
				<linearGradient id="SVGID_64_" gradientUnits="userSpaceOnUse" x1="1881.8379" y1="-122.6465" x2="1994.4921" y2="-347.9543" gradientTransform="matrix(-0.568 -0.823 0.823 -0.568 2150.7319 1516.4644)">
				<stop  offset="0" style="stop-color:#4CC0B8"/>
				<stop  offset="1" style="stop-color:#C1F1C8"/>
			</linearGradient>
			<path fill="url(#SVGID_64_)" d="M683.429,90.405c1.567-8.09,3.937-15.805,7.267-22.979L683.429,90.405z"/>
		</g>
		<linearGradient id="SVGID_65_" gradientUnits="userSpaceOnUse" x1="913.3389" y1="403.0166" x2="765.0703" y2="-298.4683">
			<stop  offset="0" style="stop-color:#4CC0B8"/>
			<stop  offset="1" style="stop-color:#C1F1C8"/>
		</linearGradient>
		<path fill="url(#SVGID_65_)" d="M985.377,169.011c3.932-20.545,0.127-40.659-15.961-56.361
			c-14.383-14.04-35.548-19.179-55.58-18.451c-9.375,0.34-18.955,1.921-27.021,6.705c-7.236,4.291-12.787,10.861-19.089,16.439
			c-12.479,11.048-28.256,18.304-44.764,20.587c-13.144,1.819-26.544,0.548-39.75,1.855s-26.995,5.786-35.071,16.326
			c-5.803,7.573-7.955,17.473-7.689,27.032c0.644,23.062,14.617,44.338,33.085,58.149c18.469,13.811,41.015,21.036,63.565,25.677
			c21.765,4.478,44.809,6.689,65.82-0.457C936.814,254.984,977.322,211.091,985.377,169.011z"/>
		<linearGradient id="SVGID_66_" gradientUnits="userSpaceOnUse" x1="883.3789" y1="632.4688" x2="590.528" y2="233.9492">
			<stop  offset="0" style="stop-color:#4CC0B8"/>
			<stop  offset="1" style="stop-color:#C1F1C8"/>
		</linearGradient>
		<path fill="url(#SVGID_66_)" d="M685.648,360.85c-3.738,0.762-6.865,2.801-8.396,6.604c-1.369,3.4-0.766,7.326,0.748,10.652
			c0.708,1.559,1.641,3.064,3.007,4.092c1.226,0.922,2.72,1.402,4.098,2.078c2.729,1.336,5.049,3.494,6.579,6.117
			c1.22,2.092,1.936,4.439,3.074,6.574c1.137,2.137,2.85,4.15,5.188,4.781c1.68,0.453,3.498,0.129,5.092-0.58
			c3.845-1.711,6.462-5.545,7.508-9.617c1.047-4.072,0.699-8.377-0.084-12.502c-0.756-3.98-1.982-8.02-4.646-11.066
			C703.518,363.068,693.303,359.285,685.648,360.85z"/>
		<linearGradient id="SVGID_67_" gradientUnits="userSpaceOnUse" x1="1167.3535" y1="422.7471" x2="874.5142" y2="24.2433">
			<stop  offset="0" style="stop-color:#4CC0B8"/>
			<stop  offset="1" style="stop-color:#C1F1C8"/>
		</linearGradient>
		<path fill="url(#SVGID_67_)" d="M892.497,60.74c0.229-0.164,0.472-0.321,0.726-0.469c5.949-3.476,15.535-0.86,21.844,0.23
			c2.551,0.44,5.178,1.06,7.193,2.682c2.017,1.623,3.229,4.517,2.174,6.88c-0.611,1.373-1.86,2.35-3.138,3.141
			c-4.565,2.826-9.995,3.956-15.354,4.313c-4.243,0.283-8.731,0.052-12.365-2.156C888.131,72.052,887.241,64.479,892.497,60.74z"/>
		<linearGradient id="SVGID_68_" gradientUnits="userSpaceOnUse" x1="1197.2148" y1="400.835" x2="904.3583" y2="2.3078">
			<stop  offset="0" style="stop-color:#4CC0B8"/>
			<stop  offset="1" style="stop-color:#C1F1C8"/>
		</linearGradient>
		<path fill="url(#SVGID_68_)" d="M945.49,62.232c0.175,0.641,0.516,1.309,0.92,1.909c1.123,1.663,4.553,5.236,6.961,4.163
			c1.934-0.863-1.599-6.247-2.394-7.144c-0.909-1.025-2.183-1.924-3.542-1.736C945.482,59.696,945.132,60.908,945.49,62.232z"/>
		
			<linearGradient id="SVGID_69_" gradientUnits="userSpaceOnUse" x1="1923.8408" y1="-551.23" x2="1917.8032" y2="-478.7784" gradientTransform="matrix(0.5832 -0.8123 0.8123 0.5832 409.5852 2353.7417)">
			<stop  offset="0" style="stop-color:#4CC0B8"/>
			<stop  offset="1" style="stop-color:#C1F1C8"/>
		</linearGradient>
		<path fill="url(#SVGID_69_)" d="M895.227,310.895c1.297-2.324,3.717-3.963,6.566-4.131c2.148-0.127,4.217,0.59,5.827,2.02
			s2.566,3.4,2.693,5.549c0.263,4.436-3.132,8.258-7.567,8.521c-2.148,0.127-4.219-0.59-5.828-2.018
			c-1.609-1.432-2.566-3.4-2.695-5.551C894.129,313.699,894.504,312.189,895.227,310.895z M907.992,317.988
			c0.587-1.051,0.891-2.277,0.814-3.566c-0.103-1.746-0.881-3.348-2.189-4.51c-1.307-1.162-2.99-1.746-4.736-1.641
			c-3.605,0.213-6.363,3.32-6.15,6.926c0.104,1.746,0.881,3.348,2.189,4.508c1.308,1.162,2.99,1.746,4.736,1.641l0,0
			C904.973,321.209,906.938,319.879,907.992,317.988z"/>
		
			<linearGradient id="SVGID_70_" gradientUnits="userSpaceOnUse" x1="1953.0645" y1="-546.1748" x2="1947.0261" y2="-473.7148" gradientTransform="matrix(0.5832 -0.8123 0.8123 0.5832 409.5852 2353.7417)">
			<stop  offset="0" style="stop-color:#4CC0B8"/>
			<stop  offset="1" style="stop-color:#C1F1C8"/>
		</linearGradient>
		<path fill="url(#SVGID_70_)" d="M942.916,308.123c0.057-0.102,0.137-0.189,0.238-0.258c0.223-0.15,0.51-0.17,0.752-0.051
			l7.936,3.879c0.242,0.119,0.403,0.357,0.422,0.627c0.019,0.268-0.107,0.527-0.332,0.678l-7.328,4.932
			c-0.223,0.15-0.51,0.17-0.752,0.053c-0.242-0.119-0.403-0.357-0.422-0.627l-0.607-8.812
			C942.812,308.395,942.846,308.25,942.916,308.123z M950.005,312.475l-5.587-2.73l0.428,6.203L950.005,312.475z"/>
		<g>
			
				<linearGradient id="SVGID_71_" gradientUnits="userSpaceOnUse" x1="2057.7432" y1="-544.2329" x2="2051.7046" y2="-471.7694" gradientTransform="matrix(0.5832 -0.8123 0.8123 0.5832 409.5852 2353.7417)">
				<stop  offset="0" style="stop-color:#4CC0B8"/>
				<stop  offset="1" style="stop-color:#C1F1C8"/>
			</linearGradient>
			<path fill="url(#SVGID_71_)" d="M994.605,218.119c0.172-0.309,0.561-0.418,0.868-0.246l3.64,2.029
				c0.308,0.172,0.418,0.561,0.246,0.869c-0.172,0.307-0.561,0.416-0.868,0.246l-3.64-2.031
				C994.544,218.814,994.434,218.425,994.605,218.119z"/>
			
				<linearGradient id="SVGID_72_" gradientUnits="userSpaceOnUse" x1="2055.543" y1="-544.4844" x2="2049.5061" y2="-472.042" gradientTransform="matrix(0.5832 -0.8123 0.8123 0.5832 409.5852 2353.7417)">
				<stop  offset="0" style="stop-color:#4CC0B8"/>
				<stop  offset="1" style="stop-color:#C1F1C8"/>
			</linearGradient>
			<path fill="url(#SVGID_72_)" d="M984.646,212.561c0.172-0.308,0.56-0.417,0.867-0.246l3.824,2.135
				c0.309,0.172,0.419,0.559,0.247,0.867c-0.172,0.307-0.56,0.418-0.868,0.246l-3.824-2.133
				C984.584,213.258,984.475,212.869,984.646,212.561z"/>
			
				<linearGradient id="SVGID_73_" gradientUnits="userSpaceOnUse" x1="2051.2705" y1="-544.896" x2="2045.2352" y2="-472.4716" gradientTransform="matrix(0.5832 -0.8123 0.8123 0.5832 409.5852 2353.7417)">
				<stop  offset="0" style="stop-color:#4CC0B8"/>
				<stop  offset="1" style="stop-color:#C1F1C8"/>
			</linearGradient>
			<path fill="url(#SVGID_73_)" d="M987.652,223.154l2.232-4.002c0.171-0.307,0.561-0.416,0.868-0.246
				c0.308,0.172,0.417,0.561,0.245,0.869l-2.232,4c-0.172,0.309-0.56,0.42-0.867,0.248S987.48,223.46,987.652,223.154z"/>
			
				<linearGradient id="SVGID_74_" gradientUnits="userSpaceOnUse" x1="2062.1025" y1="-543.8936" x2="2056.0647" y2="-471.438" gradientTransform="matrix(0.5832 -0.8123 0.8123 0.5832 409.5852 2353.7417)">
				<stop  offset="0" style="stop-color:#4CC0B8"/>
				<stop  offset="1" style="stop-color:#C1F1C8"/>
			</linearGradient>
			<path fill="url(#SVGID_74_)" d="M993.105,213.379l2.135-3.824c0.171-0.307,0.561-0.418,0.867-0.246
				c0.309,0.172,0.418,0.561,0.246,0.867l-2.133,3.826c-0.172,0.307-0.562,0.417-0.869,0.245
				C993.045,214.077,992.934,213.688,993.105,213.379z"/>
			
				<linearGradient id="SVGID_75_" gradientUnits="userSpaceOnUse" x1="2051.9941" y1="-544.7227" x2="2045.9559" y2="-472.263" gradientTransform="matrix(0.5832 -0.8123 0.8123 0.5832 409.5852 2353.7417)">
				<stop  offset="0" style="stop-color:#4CC0B8"/>
				<stop  offset="1" style="stop-color:#C1F1C8"/>
			</linearGradient>
			<path fill="url(#SVGID_75_)" d="M983.955,218.48c0.08-0.143,0.213-0.256,0.383-0.303l4.213-1.195
				c0.34-0.098,0.691,0.1,0.789,0.439c0.096,0.338-0.102,0.691-0.439,0.787l-4.214,1.195c-0.339,0.096-0.691-0.102-0.788-0.439
				C983.852,218.796,983.876,218.623,983.955,218.48z"/>
			
				<linearGradient id="SVGID_76_" gradientUnits="userSpaceOnUse" x1="2061.3604" y1="-543.9761" x2="2055.323" y2="-471.5268" gradientTransform="matrix(0.5832 -0.8123 0.8123 0.5832 409.5852 2353.7417)">
				<stop  offset="0" style="stop-color:#4CC0B8"/>
				<stop  offset="1" style="stop-color:#C1F1C8"/>
			</linearGradient>
			<path fill="url(#SVGID_76_)" d="M994.928,215.368c0.078-0.143,0.213-0.254,0.382-0.303l4.009-1.138
				c0.34-0.097,0.692,0.101,0.788,0.439c0.097,0.338-0.101,0.691-0.439,0.787l-4.009,1.139c-0.339,0.096-0.692-0.102-0.787-0.44
				C994.822,215.684,994.848,215.51,994.928,215.368z"/>
			
				<linearGradient id="SVGID_77_" gradientUnits="userSpaceOnUse" x1="2059.7285" y1="-544.1001" x2="2053.6909" y2="-471.6469" gradientTransform="matrix(0.5832 -0.8123 0.8123 0.5832 409.5852 2353.7417)">
				<stop  offset="0" style="stop-color:#4CC0B8"/>
				<stop  offset="1" style="stop-color:#C1F1C8"/>
			</linearGradient>
			<path fill="url(#SVGID_77_)" d="M989.32,208.865c0.08-0.143,0.213-0.255,0.383-0.304c0.339-0.096,0.692,0.102,0.789,0.439
				l1.194,4.213c0.096,0.34-0.101,0.691-0.44,0.789c-0.338,0.096-0.691-0.102-0.787-0.439l-1.195-4.214
				C989.216,209.18,989.241,209.007,989.32,208.865z"/>
			
				<linearGradient id="SVGID_78_" gradientUnits="userSpaceOnUse" x1="2053.54" y1="-544.6338" x2="2047.5028" y2="-472.1868" gradientTransform="matrix(0.5832 -0.8123 0.8123 0.5832 409.5852 2353.7417)">
				<stop  offset="0" style="stop-color:#4CC0B8"/>
				<stop  offset="1" style="stop-color:#C1F1C8"/>
			</linearGradient>
			<path fill="url(#SVGID_78_)" d="M992.377,219.632c0.078-0.143,0.213-0.256,0.382-0.303c0.339-0.098,0.692,0.1,0.788,0.439
				l1.195,4.213c0.096,0.338-0.101,0.689-0.439,0.787c-0.34,0.096-0.691-0.102-0.787-0.439l-1.197-4.213
				C992.271,219.947,992.297,219.775,992.377,219.632z"/>
		</g>
		
			<linearGradient id="SVGID_79_" gradientUnits="userSpaceOnUse" x1="545.2539" y1="921.0479" x2="539.2157" y2="993.507" gradientTransform="matrix(0.9059 0.4234 -0.4234 0.9059 465.344 -696.5255)">
			<stop  offset="0" style="stop-color:#4CC0B8"/>
			<stop  offset="1" style="stop-color:#C1F1C8"/>
		</linearGradient>
		<path fill="url(#SVGID_79_)" d="M681.652,174.048c-2.412-1.127-4.219-3.423-4.59-6.252c-0.281-2.134,0.285-4.25,1.596-5.958
			c1.311-1.708,3.208-2.803,5.343-3.084c4.405-0.58,8.462,2.533,9.041,6.938c0.281,2.134-0.285,4.25-1.597,5.958
			c-1.311,1.708-3.207,2.803-5.34,3.084C684.527,174.941,682.996,174.676,681.652,174.048z M687.814,160.807
			c-1.092-0.51-2.336-0.726-3.617-0.557c-1.734,0.228-3.276,1.118-4.342,2.506c-1.064,1.388-1.525,3.108-1.297,4.842
			c0.471,3.581,3.768,6.109,7.35,5.639c1.734-0.228,3.275-1.119,4.34-2.506s1.525-3.107,1.298-4.842c0,0,0,0,0,0
			C691.242,163.589,689.775,161.723,687.814,160.807z"/>
		<g>
			
				<linearGradient id="SVGID_80_" gradientUnits="userSpaceOnUse" x1="530.1343" y1="919.8291" x2="524.0948" y2="992.303" gradientTransform="matrix(0.9059 0.4234 -0.4234 0.9059 465.344 -696.5255)">
				<stop  offset="0" style="stop-color:#4CC0B8"/>
				<stop  offset="1" style="stop-color:#C1F1C8"/>
			</linearGradient>
			<path fill="url(#SVGID_80_)" d="M659.623,180.882c-0.191-0.089-0.273-0.317-0.184-0.509l1.059-2.265
				c0.09-0.192,0.317-0.274,0.51-0.185c0.191,0.089,0.273,0.317,0.185,0.509l-1.06,2.265
				C660.043,180.889,659.814,180.972,659.623,180.882z"/>
			
				<linearGradient id="SVGID_81_" gradientUnits="userSpaceOnUse" x1="530.6978" y1="919.8525" x2="524.659" y2="992.3187" gradientTransform="matrix(0.9059 0.4234 -0.4234 0.9059 465.344 -696.5255)">
				<stop  offset="0" style="stop-color:#4CC0B8"/>
				<stop  offset="1" style="stop-color:#C1F1C8"/>
			</linearGradient>
			<path fill="url(#SVGID_81_)" d="M656.727,187.082c-0.191-0.09-0.274-0.317-0.186-0.509l1.113-2.38
				c0.09-0.192,0.316-0.274,0.509-0.185c0.191,0.089,0.274,0.317,0.185,0.509l-1.113,2.38
				C657.146,187.088,656.918,187.17,656.727,187.082z"/>
			
				<linearGradient id="SVGID_82_" gradientUnits="userSpaceOnUse" x1="533.6924" y1="920.1162" x2="527.6532" y2="992.5873" gradientTransform="matrix(0.9059 0.4234 -0.4234 0.9059 465.344 -696.5255)">
				<stop  offset="0" style="stop-color:#4CC0B8"/>
				<stop  offset="1" style="stop-color:#C1F1C8"/>
			</linearGradient>
			<path fill="url(#SVGID_82_)" d="M662.937,184.827l-2.49-1.164c-0.19-0.09-0.274-0.317-0.185-0.509
				c0.09-0.191,0.318-0.274,0.509-0.184l2.49,1.164c0.192,0.09,0.274,0.317,0.185,0.509
				C663.356,184.834,663.129,184.917,662.937,184.827z"/>
			
				<linearGradient id="SVGID_83_" gradientUnits="userSpaceOnUse" x1="527.0938" y1="919.4248" x2="521.0587" y2="991.8461" gradientTransform="matrix(0.9059 0.4234 -0.4234 0.9059 465.344 -696.5255)">
				<stop  offset="0" style="stop-color:#4CC0B8"/>
				<stop  offset="1" style="stop-color:#C1F1C8"/>
			</linearGradient>
			<path fill="url(#SVGID_83_)" d="M656.853,181.983l-2.38-1.112c-0.191-0.089-0.275-0.318-0.186-0.509
				c0.09-0.191,0.318-0.274,0.51-0.185l2.38,1.113c0.191,0.09,0.274,0.317,0.185,0.509
				C657.272,181.99,657.044,182.073,656.853,181.983z"/>
			
				<linearGradient id="SVGID_84_" gradientUnits="userSpaceOnUse" x1="532.9746" y1="920.0244" x2="526.9364" y2="992.4839" gradientTransform="matrix(0.9059 0.4234 -0.4234 0.9059 465.344 -696.5255)">
				<stop  offset="0" style="stop-color:#4CC0B8"/>
				<stop  offset="1" style="stop-color:#C1F1C8"/>
			</linearGradient>
			<path fill="url(#SVGID_84_)" d="M660.299,187.24c-0.089-0.041-0.162-0.117-0.197-0.216l-0.896-2.47
				c-0.073-0.199,0.029-0.418,0.229-0.491c0.198-0.072,0.418,0.031,0.49,0.229l0.896,2.47c0.072,0.198-0.031,0.418-0.229,0.491
				C660.492,187.29,660.387,187.282,660.299,187.24z"/>
			
				<linearGradient id="SVGID_85_" gradientUnits="userSpaceOnUse" x1="527.8247" y1="919.5146" x2="521.7888" y2="991.9464" gradientTransform="matrix(0.9059 0.4234 -0.4234 0.9059 465.344 -696.5255)">
				<stop  offset="0" style="stop-color:#4CC0B8"/>
				<stop  offset="1" style="stop-color:#C1F1C8"/>
			</linearGradient>
			<path fill="url(#SVGID_85_)" d="M657.965,180.808c-0.09-0.041-0.162-0.117-0.198-0.215l-0.854-2.351
				c-0.071-0.199,0.03-0.418,0.229-0.49c0.197-0.072,0.418,0.03,0.49,0.229l0.854,2.351c0.072,0.199-0.031,0.418-0.23,0.491
				C658.158,180.857,658.053,180.849,657.965,180.808z"/>
			
				<linearGradient id="SVGID_86_" gradientUnits="userSpaceOnUse" x1="528.2588" y1="919.6309" x2="522.2206" y2="992.0901" gradientTransform="matrix(0.9059 0.4234 -0.4234 0.9059 465.344 -696.5255)">
				<stop  offset="0" style="stop-color:#4CC0B8"/>
				<stop  offset="1" style="stop-color:#C1F1C8"/>
			</linearGradient>
			<path fill="url(#SVGID_86_)" d="M654.312,184.443c-0.088-0.042-0.16-0.117-0.197-0.216c-0.072-0.198,0.029-0.418,0.229-0.491
				l2.47-0.896c0.2-0.072,0.419,0.031,0.491,0.229c0.071,0.199-0.031,0.418-0.229,0.49l-2.47,0.896
				C654.507,184.492,654.401,184.484,654.312,184.443z"/>
			
				<linearGradient id="SVGID_87_" gradientUnits="userSpaceOnUse" x1="532.5835" y1="919.959" x2="526.5462" y2="992.4072" gradientTransform="matrix(0.9059 0.4234 -0.4234 0.9059 465.344 -696.5255)">
				<stop  offset="0" style="stop-color:#4CC0B8"/>
				<stop  offset="1" style="stop-color:#C1F1C8"/>
			</linearGradient>
			<path fill="url(#SVGID_87_)" d="M660.627,182.151c-0.09-0.042-0.162-0.117-0.198-0.216c-0.073-0.199,0.03-0.418,0.229-0.49
				l2.471-0.896c0.198-0.072,0.417,0.03,0.489,0.229s-0.031,0.418-0.229,0.49l-2.471,0.897
				C660.819,182.201,660.715,182.193,660.627,182.151z"/>
		</g>
	</g>
</g>
</svg>
