<?xml version="1.0" encoding="utf-8"?>
<!-- Generator: Adobe Illustrator 16.0.0, SVG Export Plug-In . SVG Version: 6.00 Build 0)  -->
<!DOCTYPE svg PUBLIC "-//W3C//DTD SVG 1.1//EN" "http://www.w3.org/Graphics/SVG/1.1/DTD/svg11.dtd">
<svg version="1.1" id="Layer_1" xmlns="http://www.w3.org/2000/svg" xmlns:xlink="http://www.w3.org/1999/xlink" x="0px" y="0px"
	 width="1280px" height="800px" viewBox="0 0 1280 800" enable-background="new 0 0 1280 800" xml:space="preserve">
<circle opacity="0.2" fill="#3EC0C7" cx="72.79" cy="24.182" r="24.182"/>
<circle opacity="0.2" fill="#3EC0C7" cx="72.79" cy="149.454" r="24.182"/>
<circle opacity="0.2" fill="#3EC0C7" cx="72.79" cy="274.727" r="24.182"/>
<circle opacity="0.2" fill="#3EC0C7" cx="72.79" cy="399.834" r="24.182"/>
<circle opacity="0.2" fill="#3EC0C7" cx="72.79" cy="525.273" r="24.182"/>
<circle opacity="0.2" fill="#3EC0C7" cx="72.79" cy="650.546" r="24.182"/>
<circle opacity="0.2" fill="#3EC0C7" cx="72.79" cy="775.818" r="24.182"/>
<circle opacity="0.2" fill="#3EC0C7" cx="185.79" cy="81.454" r="24.182"/>
<circle opacity="0.2" fill="#3EC0C7" cx="185.79" cy="206.727" r="24.182"/>
<circle opacity="0.2" fill="#3EC0C7" cx="185.79" cy="331.834" r="24.182"/>
<circle opacity="0.2" fill="#3EC0C7" cx="185.79" cy="457.273" r="24.182"/>
<circle opacity="0.2" fill="#3EC0C7" cx="185.79" cy="582.546" r="24.182"/>
<circle opacity="0.2" fill="#3EC0C7" cx="185.79" cy="707.818" r="24.182"/>
<circle opacity="0.2" fill="#3EC0C7" cx="306.79" cy="24.182" r="24.182"/>
<circle opacity="0.2" fill="#3EC0C7" cx="306.79" cy="149.454" r="24.182"/>
<circle opacity="0.2" fill="#3EC0C7" cx="306.79" cy="274.727" r="24.182"/>
<circle opacity="0.2" fill="#3EC0C7" cx="306.79" cy="399.834" r="24.182"/>
<circle opacity="0.2" fill="#3EC0C7" cx="306.79" cy="525.273" r="24.182"/>
<circle opacity="0.2" fill="#3EC0C7" cx="306.79" cy="650.546" r="24.182"/>
<circle opacity="0.2" fill="#3EC0C7" cx="306.79" cy="775.818" r="24.182"/>
<circle opacity="0.2" fill="#3EC0C7" cx="419.79" cy="81.454" r="24.182"/>
<circle opacity="0.2" fill="#3EC0C7" cx="419.79" cy="206.727" r="24.182"/>
<circle opacity="0.2" fill="#3EC0C7" cx="419.79" cy="331.834" r="24.182"/>
<circle opacity="0.2" fill="#3EC0C7" cx="419.79" cy="457.273" r="24.182"/>
<circle opacity="0.2" fill="#3EC0C7" cx="419.79" cy="582.546" r="24.182"/>
<circle opacity="0.2" fill="#3EC0C7" cx="419.79" cy="707.818" r="24.182"/>
<circle opacity="0.2" fill="#3EC0C7" cx="537.79" cy="24.182" r="24.182"/>
<circle opacity="0.2" fill="#3EC0C7" cx="537.79" cy="149.454" r="24.182"/>
<circle opacity="0.2" fill="#3EC0C7" cx="537.79" cy="274.727" r="24.182"/>
<circle opacity="0.2" fill="#3EC0C7" cx="537.79" cy="399.834" r="24.182"/>
<circle opacity="0.2" fill="#3EC0C7" cx="537.79" cy="525.273" r="24.182"/>
<circle opacity="0.2" fill="#3EC0C7" cx="537.79" cy="650.546" r="24.182"/>
<circle opacity="0.2" fill="#3EC0C7" cx="537.79" cy="775.818" r="24.182"/>
<circle opacity="0.2" fill="#3EC0C7" cx="650.79" cy="81.454" r="24.182"/>
<circle opacity="0.2" fill="#3EC0C7" cx="650.79" cy="206.727" r="24.182"/>
<circle opacity="0.2" fill="#3EC0C7" cx="650.79" cy="331.834" r="24.182"/>
<circle opacity="0.2" fill="#3EC0C7" cx="650.79" cy="457.273" r="24.182"/>
<circle opacity="0.2" fill="#3EC0C7" cx="650.79" cy="582.546" r="24.182"/>
<circle opacity="0.2" fill="#3EC0C7" cx="650.79" cy="707.818" r="24.182"/>
<circle opacity="0.2" fill="#3EC0C7" cx="771.79" cy="24.182" r="24.182"/>
<circle opacity="0.2" fill="#3EC0C7" cx="771.79" cy="149.454" r="24.182"/>
<circle opacity="0.2" fill="#3EC0C7" cx="771.79" cy="274.727" r="24.182"/>
<circle opacity="0.2" fill="#3EC0C7" cx="771.79" cy="399.834" r="24.182"/>
<circle opacity="0.2" fill="#3EC0C7" cx="771.79" cy="525.273" r="24.182"/>
<circle opacity="0.2" fill="#3EC0C7" cx="771.79" cy="650.546" r="24.182"/>
<circle opacity="0.2" fill="#3EC0C7" cx="771.79" cy="775.818" r="24.182"/>
<circle opacity="0.2" fill="#3EC0C7" cx="884.79" cy="81.454" r="24.182"/>
<circle opacity="0.2" fill="#3EC0C7" cx="884.79" cy="206.727" r="24.182"/>
<circle opacity="0.2" fill="#3EC0C7" cx="884.79" cy="331.834" r="24.182"/>
<circle opacity="0.2" fill="#3EC0C7" cx="884.79" cy="457.273" r="24.182"/>
<circle opacity="0.2" fill="#3EC0C7" cx="884.79" cy="582.546" r="24.182"/>
<circle opacity="0.2" fill="#3EC0C7" cx="884.79" cy="707.818" r="24.182"/>
<circle opacity="0.2" fill="#3EC0C7" cx="997.79" cy="24.182" r="24.182"/>
<circle opacity="0.2" fill="#3EC0C7" cx="997.79" cy="149.454" r="24.182"/>
<circle opacity="0.2" fill="#3EC0C7" cx="997.79" cy="274.727" r="24.182"/>
<circle opacity="0.2" fill="#3EC0C7" cx="997.79" cy="399.834" r="24.182"/>
<circle opacity="0.2" fill="#3EC0C7" cx="997.79" cy="525.273" r="24.182"/>
<circle opacity="0.2" fill="#3EC0C7" cx="997.79" cy="650.546" r="24.182"/>
<circle opacity="0.2" fill="#3EC0C7" cx="997.79" cy="775.818" r="24.182"/>
<circle opacity="0.2" fill="#3EC0C7" cx="1110.79" cy="81.454" r="24.182"/>
<circle opacity="0.2" fill="#3EC0C7" cx="1110.79" cy="206.727" r="24.182"/>
<circle opacity="0.2" fill="#3EC0C7" cx="1110.79" cy="331.834" r="24.182"/>
<circle opacity="0.2" fill="#3EC0C7" cx="1110.79" cy="457.273" r="24.182"/>
<circle opacity="0.2" fill="#3EC0C7" cx="1110.79" cy="582.546" r="24.182"/>
<circle opacity="0.2" fill="#3EC0C7" cx="1110.79" cy="707.818" r="24.182"/>
<circle opacity="0.2" fill="#3EC0C7" cx="1231.79" cy="24.182" r="24.182"/>
<circle opacity="0.2" fill="#3EC0C7" cx="1231.79" cy="149.454" r="24.182"/>
<circle opacity="0.2" fill="#3EC0C7" cx="1231.79" cy="274.727" r="24.182"/>
<circle opacity="0.2" fill="#3EC0C7" cx="1231.79" cy="399.834" r="24.182"/>
<circle opacity="0.2" fill="#3EC0C7" cx="1231.79" cy="525.273" r="24.182"/>
<circle opacity="0.2" fill="#3EC0C7" cx="1231.79" cy="650.546" r="24.182"/>
<circle opacity="0.2" fill="#3EC0C7" cx="1231.79" cy="775.818" r="24.182"/>
</svg>
