<?xml version="1.0" encoding="utf-8"?>
<!-- Generator: Adobe Illustrator 16.0.0, SVG Export Plug-In . SVG Version: 6.00 Build 0)  -->
<!DOCTYPE svg PUBLIC "-//W3C//DTD SVG 1.1//EN" "http://www.w3.org/Graphics/SVG/1.1/DTD/svg11.dtd">
<svg version="1.1" xmlns="http://www.w3.org/2000/svg" xmlns:xlink="http://www.w3.org/1999/xlink" x="0px" y="0px"
	 width="500.41px" height="700.91px" viewBox="2934.091 842.5 500.41 700.91" enable-background="new 2934.091 842.5 500.41 700.91"
	 xml:space="preserve">
<g id="Layer_1">
	<g id="_x2014_ÎÓÈ_x5F_1">
		
			<linearGradient id="SVGID_1_" gradientUnits="userSpaceOnUse" x1="3396.2959" y1="553.4995" x2="3396.2959" y2="1254.4087" gradientTransform="matrix(-1 0 0 -1 6580.5918 2096.9082)">
			<stop  offset="0" style="stop-color:#2AFFE2"/>
			<stop  offset="0.2044" style="stop-color:#0BB2BF"/>
			<stop  offset="0.6743" style="stop-color:#7F0CB2"/>
			<stop  offset="1" style="stop-color:#D400AB"/>
		</linearGradient>
		<rect x="2934.091" y="842.5" fill="url(#SVGID_1_)" width="500.41" height="700.91"/>
	</g>
	<g id="Layer_2">
	</g>
</g>
<g id="Layer_2_1_">
	<g opacity="0.4">
		<g>
			<g>
				<path fill="#0A24A5" d="M3200.507,712.074c45.675,1.761,90.105,18.154,126.246,45.88
					c38.819,29.779,65.991,72.246,77.397,119.679c5.94,24.7,7.636,50.372,4.902,75.646c-2.622,24.242-10.021,47.232-19.374,69.674
					c-16.978,40.747-40.492,82.203-38.262,127.7c2.204,44.93,29.909,82.504,54.13,118.46c25.458,37.8,50.765,79.91,40.128,127.33
					c-10.177,45.381-44.546,84.506-82.336,110.221c-37.185,25.297-81.417,40.23-126.309,42.996
					c-21.937,1.354-44.093-0.141-65.559-4.828c-22.448-4.902-43.284-13.68-63.727-23.945
					c-36.858-18.508-76.855-43.934-119.999-40.002c-47.978,4.373-74.472,46.455-107.882,75.322
					c-31.131,26.896-72.529,38.584-113.284,35.766c-40.135-2.775-79.811-19.604-107.092-49.424
					c-32.619-35.656-43.136-87.068-80.827-118.747c-32.61-27.407-76.366-33.631-117.535-36.903
					c-22.858-1.814-45.796-2.758-68.556-5.647c-26.815-3.403-53.331-9.146-79.153-17.074c-25.504-7.827-51.146-17.344-74.402-30.476
					c-23.54-13.29-41.728-31.42-53.335-55.919c-11.684-24.652-18.43-52.047-24.768-78.485c-6.152-25.674-10.775-51.828-11.921-78.25
					c-2.144-49.405,10.077-96.53,36.56-138.443c24.674-39.049,58.328-71.686,93.457-101.391
					c17.013-14.386,34.543-28.15,52.155-41.799c2.303-1.786-0.866-5.017-3.158-3.24c-71.299,55.247-149.999,117.839-175.408,208.289
					c-14.271,50.794-8.371,104.295,3.648,154.836c6.14,25.813,12.806,52.286,23.594,76.607
					c10.701,24.116,27.14,43.296,49.548,57.344c21.544,13.508,45.93,23.025,69.967,31.146c25.612,8.656,51.962,15.114,78.686,19.321
					c46.694,7.351,95,4.614,141.016,16.147c21.943,5.499,43.062,14.833,59.864,30.177c19.198,17.527,31.226,40.914,43.316,63.496
					c10.973,20.492,22.418,41.059,39.156,57.51c13.813,13.578,30.311,24.248,48.13,31.861
					c36.396,15.557,78.586,18.447,116.711,7.334c18.969-5.531,36.816-14.582,52.21-26.969c18.796-15.125,33.945-34.102,51.93-50.102
					c18.639-16.584,40.49-28.189,65.961-28.156c22.913,0.029,44.979,8.338,65.442,17.854c21.034,9.777,41.181,21.344,62.338,30.869
					c19.813,8.926,40.543,15.148,62.076,18.336c87.714,12.982,182.763-23.371,235.521-95.297
					c13.924-18.98,25.109-40.656,29.31-63.932c4.013-22.234,0.794-44.552-7.358-65.465c-16.789-43.082-49.493-77.44-70.486-118.289
					c-10.829-21.076-17.991-43.859-17.311-67.754c0.668-23.531,8.098-46.206,16.908-67.859c9.055-22.262,19.77-43.846,28.021-66.431
					c8.259-22.607,13.185-46.146,13.962-70.201c1.593-49.385-13.244-99.422-42.69-139.244
					c-26.669-36.065-64.68-63.28-107.122-77.983c-20.701-7.172-42.393-11.224-64.304-12.066
					C3197.716,707.442,3197.588,711.961,3200.507,712.074L3200.507,712.074z"/>
			</g>
		</g>
		<g>
			<g>
				<path fill="#0A24A5" d="M3181.093,711.767c43.698,1.683,86.201,17.369,120.779,43.896
					c37.132,28.486,63.12,69.114,74.031,114.484c5.682,23.633,7.305,48.191,4.688,72.375c-2.508,23.191-9.591,45.186-18.537,66.656
					c-16.254,39.008-38.76,78.689-36.625,122.245c2.11,43.02,28.627,78.993,51.817,113.422
					c24.351,36.152,48.573,76.435,38.401,121.79c-9.736,43.407-42.608,80.836-78.757,105.43
					c-35.572,24.201-77.89,38.492-120.836,41.141c-20.987,1.293-42.182-0.133-62.72-4.617
					c-21.476-4.689-41.411-13.088-60.968-22.906c-35.292-17.725-73.585-42.062-114.896-38.299
					c-45.955,4.186-71.32,44.465-103.322,72.115c-29.773,25.725-69.368,36.896-108.349,34.201
					c-38.387-2.654-76.335-18.75-102.427-47.271c-31.22-34.127-41.282-83.332-77.355-113.65
					c-31.233-26.25-73.128-32.214-112.558-35.348c-21.878-1.738-43.833-2.641-65.613-5.405c-25.656-3.257-51.026-8.752-75.73-16.334
					c-24.399-7.492-48.934-16.596-71.186-29.159c-22.518-12.712-39.908-30.05-51.012-53.481
					c-11.177-23.588-17.631-49.799-23.693-75.092c-5.888-24.565-10.311-49.591-11.408-74.866
					c-2.051-47.268,9.641-92.353,34.977-132.452c23.61-37.366,55.815-68.596,89.431-97.02c16.28-13.768,33.059-26.941,49.915-40.002
					c2.305-1.786-0.866-5.018-3.158-3.243c-68.253,52.889-143.579,112.808-167.904,199.391
					c-13.662,48.631-8.016,99.853,3.49,148.241c5.879,24.713,12.264,50.058,22.594,73.343
					c10.245,23.095,25.996,41.464,47.452,54.917c20.626,12.933,43.973,22.044,66.984,29.82c24.52,8.287,49.752,14.468,75.334,18.495
					c44.682,7.033,90.906,4.414,134.938,15.45c20.982,5.259,41.183,14.184,57.251,28.855c18.366,16.77,29.873,39.145,41.44,60.749
					c10.504,19.619,21.465,39.311,37.491,55.064c13.232,13.006,29.036,23.223,46.105,30.52c34.85,14.891,75.249,17.66,111.752,7.016
					c18.171-5.297,35.268-13.969,50.014-25.836c17.989-14.475,32.489-32.637,49.7-47.949c17.819-15.854,38.709-26.953,63.057-26.92
					c21.911,0.029,43.016,7.973,62.586,17.074c20.133,9.357,39.414,20.428,59.661,29.545c18.979,8.549,38.833,14.51,59.461,17.562
					c83.984,12.428,174.981-22.389,225.496-91.254c13.326-18.17,24.038-38.928,28.06-61.21c3.843-21.297,0.767-42.672-7.038-62.707
					c-16.071-41.242-47.378-74.131-67.473-113.236c-10.357-20.156-17.207-41.943-16.559-64.795
					c0.642-22.512,7.751-44.205,16.18-64.919c8.668-21.305,18.92-41.962,26.818-63.579c7.909-21.645,12.622-44.184,13.366-67.212
					c1.526-47.281-12.677-95.189-40.869-133.318c-25.538-34.538-61.937-60.599-102.579-74.68
					c-19.82-6.866-40.589-10.746-61.567-11.554C3178.302,707.135,3178.175,711.654,3181.093,711.767L3181.093,711.767z"/>
			</g>
		</g>
		<g>
			<g>
				<path fill="#0A24A5" d="M3161.681,711.46c41.719,1.61,82.3,16.585,115.311,41.912c35.445,27.192,60.249,65.978,70.662,109.286
					c5.428,22.565,6.977,46.011,4.478,69.101c-2.396,22.141-9.161,43.142-17.7,63.642c-15.529,37.265-37.027,75.173-34.987,116.787
					c2.015,41.111,27.343,75.482,49.507,108.388c23.239,34.502,46.376,72.957,36.667,116.246
					c-9.293,41.435-40.67,77.165-75.178,100.644c-33.959,23.105-74.357,36.754-115.362,39.279
					c-20.035,1.236-40.273-0.123-59.879-4.404c-20.504-4.479-39.536-12.494-58.209-21.869
					c-33.728-16.934-70.316-40.188-109.792-36.595c-43.931,3.999-68.169,42.474-98.761,68.907
					c-28.42,24.557-66.214,35.213-103.415,32.641c-36.641-2.533-72.859-17.898-97.762-45.119
					c-29.82-32.598-39.433-79.59-73.89-108.553c-29.854-25.092-69.887-30.796-107.578-33.79c-20.895-1.663-41.865-2.523-62.67-5.165
					c-24.496-3.111-48.718-8.358-72.308-15.598c-23.297-7.154-46.723-15.846-67.969-27.841
					c-21.491-12.135-38.087-28.68-48.686-51.046c-10.672-22.52-16.833-47.548-22.621-71.697
					c-5.62-23.455-9.846-47.345-10.893-71.482c-1.959-45.131,9.199-88.174,33.392-126.458
					c22.546-35.685,53.302-65.506,85.402-92.649c15.552-13.152,31.576-25.733,47.676-38.21c2.305-1.786-0.865-5.017-3.157-3.241
					c-65.208,50.527-137.162,107.773-160.398,190.49c-13.055,46.466-7.663,95.41,3.332,141.642
					c5.615,23.616,11.717,47.831,21.589,70.08c9.792,22.073,24.852,39.631,45.36,52.491c19.706,12.358,42.017,21.063,64.004,28.495
					c23.428,7.917,47.533,13.82,71.979,17.668c42.668,6.714,86.812,4.216,128.858,14.753c20.026,5.019,39.305,13.53,54.641,27.534
					c17.536,16.012,28.521,37.375,39.565,58.003c10.037,18.748,20.512,37.561,35.824,52.613
					c12.653,12.436,27.762,22.203,44.083,29.178c33.304,14.23,71.91,16.873,106.791,6.703c17.376-5.066,33.717-13.354,47.818-24.701
					c17.183-13.824,31.03-31.172,47.47-45.799c16.998-15.125,36.927-25.715,60.156-25.687c20.911,0.029,41.052,7.61,59.728,16.292
					c19.229,8.939,37.646,19.514,56.985,28.223c18.146,8.17,37.122,13.871,56.844,16.787
					c80.254,11.877,167.203-21.404,215.471-87.208c12.735-17.361,22.97-37.198,26.814-58.49c3.675-20.358,0.739-40.792-6.724-59.946
					c-15.351-39.4-45.256-70.822-64.454-108.182c-9.885-19.236-16.422-40.026-15.801-61.836c0.61-21.492,7.4-42.205,15.447-61.984
					c8.279-20.346,18.072-40.08,25.617-60.726c7.555-20.679,12.061-42.217,12.771-64.225c1.459-45.176-12.112-90.954-39.05-127.389
					c-24.408-33.012-59.191-57.917-98.039-71.378c-18.938-6.56-38.788-10.265-58.833-11.037
					C3158.887,706.828,3158.762,711.348,3161.681,711.46L3161.681,711.46z"/>
			</g>
		</g>
		<g>
			<g>
				<path fill="#0A24A5" d="M3142.268,711.155c39.743,1.53,78.398,15.8,109.843,39.927c33.756,25.898,57.381,62.842,67.298,104.088
					c5.17,21.496,6.642,43.831,4.264,65.827c-2.282,21.091-8.729,41.098-16.867,60.625c-14.802,35.527-35.291,71.661-33.348,111.329
					c1.922,39.204,26.062,71.973,47.195,103.353c22.133,32.856,44.185,69.483,34.938,110.708
					c-8.852,39.457-38.733,73.493-71.596,95.853c-32.351,22.01-70.832,35.014-109.892,37.422
					c-19.084,1.178-38.362-0.115-57.041-4.193c-19.531-4.266-37.662-11.9-55.449-20.83c-32.161-16.149-67.048-38.315-104.687-34.894
					c-41.911,3.813-65.019,40.489-94.203,65.704c-27.061,23.385-63.055,33.527-98.48,31.078
					c-34.893-2.412-69.383-17.049-93.099-42.971c-28.419-31.067-37.576-75.851-70.418-103.454
					c-28.475-23.932-66.646-29.379-102.599-32.237c-19.914-1.583-39.9-2.404-59.727-4.921c-23.338-2.963-46.412-7.962-68.885-14.861
					c-22.197-6.815-44.511-15.095-64.752-26.523c-20.468-11.557-36.268-27.311-46.36-48.609
					c-10.168-21.453-16.035-45.298-21.549-68.305c-5.354-22.343-9.383-45.104-10.377-68.095
					c-1.867-42.995,8.761-83.995,31.807-120.47c21.484-33.999,50.79-62.413,81.374-88.275
					c14.821-12.534,30.096-24.525,45.438-36.414c2.306-1.787-0.866-5.016-3.156-3.242
					c-62.161,48.167-130.743,102.738-152.896,181.59c-12.445,44.302-7.309,90.965,3.174,135.047
					c5.358,22.516,11.176,45.602,20.587,66.813c9.339,21.053,23.707,37.801,43.269,50.066c18.788,11.781,40.06,20.084,61.021,27.167
					c22.339,7.548,45.323,13.177,68.627,16.843c40.656,6.398,82.719,4.017,122.781,14.058c19.067,4.778,37.427,12.878,52.028,26.213
					c16.706,15.252,27.17,35.605,37.69,55.256c9.571,17.873,19.56,35.812,34.159,50.164c12.072,11.865,26.486,21.182,42.059,27.834
					c31.755,13.568,68.573,16.088,101.834,6.389c16.578-4.836,32.167-12.742,45.62-23.568
					c16.376-13.176,29.574-29.708,45.241-43.649c16.18-14.393,35.145-24.477,57.254-24.448c19.91,0.029,39.087,7.244,56.871,15.512
					c18.325,8.521,35.877,18.598,54.309,26.896c17.312,7.796,35.41,13.232,54.224,16.017
					c76.525,11.324,159.424-20.427,205.448-83.167c12.141-16.551,21.899-35.468,25.564-55.768
					c3.505-19.422,0.713-38.913-6.406-57.187c-14.631-37.562-43.138-67.511-61.438-103.126
					c-9.411-18.316-15.637-38.111-15.045-58.876c0.582-20.477,7.051-40.204,14.717-59.047c7.891-19.393,17.225-38.197,24.412-57.873
					c7.205-19.717,11.498-40.254,12.178-61.236c1.391-43.082-11.555-86.714-37.23-121.46
					c-23.266-31.489-56.453-55.243-93.497-68.077c-18.059-6.256-36.984-9.787-56.098-10.523
					C3139.474,706.522,3139.349,711.041,3142.268,711.155L3142.268,711.155z"/>
			</g>
		</g>
		<g>
			<g>
				<path fill="#0A24A5" d="M3122.854,710.847c37.766,1.455,74.495,15.018,104.377,37.947
					c32.068,24.604,54.508,59.706,63.931,98.889c4.912,20.426,6.31,41.651,4.049,62.552c-2.168,20.044-8.3,39.057-16.031,57.61
					c-14.077,33.787-33.558,68.148-31.709,105.874c1.829,37.297,24.776,68.464,44.883,98.317
					c21.021,31.207,41.99,66.007,33.208,105.167c-8.409,37.486-36.796,69.822-68.015,91.062
					c-30.74,20.913-67.304,33.276-104.418,35.565c-18.137,1.117-36.455-0.11-54.201-3.984c-18.561-4.054-35.79-11.307-52.693-19.794
					c-30.592-15.361-63.776-36.443-99.583-33.188c-39.886,3.626-61.865,38.499-89.64,62.497
					c-25.707,22.212-59.897,31.839-93.548,29.513c-33.146-2.291-65.906-16.193-88.434-40.82
					c-27.019-29.535-35.723-72.109-66.947-98.354c-27.1-22.775-63.408-27.961-97.623-30.683
					c-18.933-1.506-37.933-2.286-56.783-4.679c-22.178-2.817-44.107-7.568-65.462-14.125c-21.093-6.477-42.299-14.345-61.533-25.204
					c-19.446-10.98-34.451-25.94-44.04-46.173c-9.661-20.388-15.236-43.049-20.474-64.913c-5.09-21.231-8.918-42.859-9.863-64.709
					c-1.773-40.859,8.322-79.819,30.224-114.479c20.42-32.316,48.275-59.323,77.347-83.903
					c14.092-11.917,28.61-23.318,43.198-34.621c2.305-1.786-0.867-5.016-3.158-3.242c-59.113,45.807-124.323,97.705-145.391,172.692
					c-11.835,42.137-6.954,86.522,3.02,128.448c5.092,21.419,10.631,43.372,19.582,63.551c8.885,20.034,22.565,35.968,41.175,47.64
					c17.871,11.204,38.104,19.099,58.043,25.838c21.244,7.181,43.104,12.533,65.273,16.021
					c38.643,6.079,78.622,3.814,116.702,13.358c18.109,4.539,35.546,12.229,49.415,24.893
					c15.876,14.496,25.818,33.837,35.816,52.511c9.104,17.001,18.606,34.066,32.493,47.715
					c11.492,11.297,25.213,20.162,40.036,26.493c30.206,12.905,65.233,15.304,96.872,6.077c15.782-4.6,30.619-12.13,43.426-22.434
					c15.566-12.528,28.115-28.246,43.011-41.5c15.359-13.663,33.363-23.238,54.352-23.209c18.909,0.023,37.126,6.877,54.017,14.73
					c17.421,8.099,34.108,17.678,51.632,25.57c16.478,7.422,33.7,12.592,51.609,15.241c72.794,10.774,151.644-19.439,195.422-79.12
					c11.548-15.744,20.828-33.738,24.314-53.043c3.339-18.488,0.684-37.034-6.089-54.428
					c-13.908-35.725-41.016-64.208-58.421-98.074c-8.939-17.395-14.85-36.198-14.289-55.92c0.552-19.454,6.703-38.202,13.988-56.106
					c7.501-18.438,16.376-36.314,23.21-55.022c6.852-18.754,10.936-38.292,11.579-58.248c1.323-40.978-10.987-82.481-35.408-115.534
					c-22.139-29.961-53.708-52.562-88.957-64.774c-17.176-5.951-35.18-9.309-53.361-10.01
					C3120.061,706.214,3119.936,710.736,3122.854,710.847L3122.854,710.847z"/>
			</g>
		</g>
		<g>
			<g>
				<path fill="#0A24A5" d="M3103.44,710.541c35.789,1.379,70.593,14.233,98.909,35.961c30.381,23.312,51.637,56.574,60.564,93.694
					c4.654,19.359,5.977,39.47,3.835,59.278c-2.053,18.992-7.868,37.012-15.194,54.596c-13.353,32.043-31.823,64.633-30.069,100.414
					c1.735,35.39,23.493,64.955,42.571,93.282c19.911,29.56,39.796,62.531,31.476,99.625c-7.965,35.514-34.857,66.151-64.436,86.275
					c-29.127,19.818-63.773,31.54-98.944,33.708c-17.185,1.058-34.544-0.101-51.362-3.773
					c-17.589-3.841-33.915-10.712-49.935-18.755c-29.025-14.576-60.506-34.571-94.479-31.486
					c-37.863,3.439-58.713,36.51-85.079,59.291c-24.351,21.041-56.739,30.156-88.614,27.953
					c-31.397-2.17-62.428-15.341-83.768-38.668c-25.62-28.004-33.869-68.371-63.479-93.258
					c-25.719-21.617-60.169-26.544-92.644-29.127c-17.95-1.428-35.966-2.167-53.841-4.436c-21.018-2.67-41.802-7.175-62.039-13.389
					c-19.989-6.137-40.088-13.595-58.317-23.885c-18.421-10.4-32.631-24.568-41.714-43.737
					c-9.155-19.322-14.435-40.798-19.402-61.52c-4.821-20.121-8.45-40.617-9.35-61.325c-1.679-38.721,7.886-75.638,28.644-108.488
					c19.354-30.631,45.762-56.229,73.318-79.532c13.362-11.295,27.128-22.107,40.96-32.825c2.305-1.785-0.867-5.018-3.159-3.24
					c-56.065,43.445-117.905,92.669-137.884,163.792c-11.23,39.974-6.601,82.08,2.858,121.854
					c4.831,20.318,10.087,41.143,18.578,60.284c8.436,19.012,21.422,34.137,39.084,45.213
					c16.952,10.628,36.146,18.121,55.062,24.512c20.153,6.811,40.891,11.886,61.921,15.193
					c36.628,5.761,74.527,3.616,110.624,12.661c17.149,4.301,33.667,11.58,46.802,23.574c15.047,13.738,24.467,32.064,33.944,49.764
					c8.635,16.129,17.65,32.316,30.824,45.266c10.912,10.723,23.938,19.139,38.013,25.15c28.658,12.243,61.896,14.516,91.914,5.764
					c14.984-4.369,29.067-11.517,41.227-21.303c14.761-11.879,26.66-26.782,40.782-39.346
					c14.538-12.936,31.582-22.004,51.449-21.976c17.908,0.023,35.161,6.514,51.157,13.948c16.521,7.682,32.342,16.765,48.957,24.247
					c15.643,7.045,31.988,11.951,48.99,14.471c69.066,10.22,143.866-18.459,185.399-75.079
					c10.957-14.934,19.76-32.009,23.067-50.321c3.172-17.551,0.657-35.154-5.77-51.668c-13.19-33.885-38.898-60.898-55.405-93.02
					c-8.465-16.475-14.067-34.282-13.534-52.961c0.523-18.438,6.355-36.201,13.257-53.169c7.114-17.484,15.525-34.435,22.009-52.17
					c6.499-17.792,10.373-36.326,10.983-55.258c1.257-38.875-10.425-78.25-33.587-109.607
					c-21.007-28.436-50.965-49.884-84.415-61.472c-16.295-5.646-33.378-8.833-50.626-9.497
					C3100.647,705.908,3100.521,710.428,3103.44,710.541L3103.44,710.541z"/>
			</g>
		</g>
		<g>
			<g>
				<path fill="#0A24A5" d="M3084.026,710.232c33.813,1.303,66.69,13.45,93.443,33.98c28.693,22.02,48.765,53.437,57.196,88.496
					c4.398,18.289,5.647,37.289,3.623,56.006c-1.941,17.942-7.438,34.967-14.36,51.577c-12.627,30.303-30.09,61.122-28.432,94.958
					c1.642,33.482,22.209,61.446,40.262,88.246c18.802,27.913,37.601,59.054,29.744,94.084
					c-7.523,33.541-32.92,62.479-60.854,81.486c-27.518,18.721-60.246,29.801-93.473,31.849c-16.234,1-32.634-0.092-48.522-3.56
					c-16.617-3.631-32.041-10.119-47.175-17.719c-27.463-13.79-57.234-32.69-89.377-29.781
					c-35.838,3.244-55.565,34.522-80.518,56.084c-22.995,19.868-53.583,28.47-83.682,26.388
					c-29.649-2.048-58.952-14.489-79.104-36.517c-24.218-26.472-32.015-64.633-60.008-88.159
					c-24.339-20.458-56.929-25.129-87.663-27.574c-16.97-1.347-34.001-2.047-50.896-4.192c-19.859-2.522-39.496-6.782-58.616-12.65
					c-18.89-5.8-37.878-12.844-55.103-22.568c-17.395-9.821-30.81-23.196-39.389-41.3c-8.649-18.256-13.638-38.549-18.33-58.127
					c-4.556-19.01-7.987-38.375-8.834-57.938c-1.588-36.586,7.446-71.459,27.058-102.498c18.292-28.949,43.249-53.137,69.291-75.157
					c12.631-10.683,25.646-20.901,38.721-31.035c2.305-1.786-0.866-5.016-3.156-3.24c-53.021,41.085-111.488,87.637-130.383,154.893
					c-10.621,37.809-6.244,77.634,2.702,115.256c4.571,19.219,9.543,38.915,17.575,57.021c7.98,17.99,20.277,32.307,36.991,42.788
					c16.035,10.054,34.189,17.139,52.08,23.184c19.063,6.445,38.678,11.241,58.569,14.368c34.617,5.442,70.435,3.417,104.545,11.965
					c16.19,4.06,31.79,10.93,44.19,22.253c14.217,12.979,23.116,30.295,32.068,47.019c8.168,15.256,16.699,30.569,29.16,42.815
					c10.33,10.154,22.661,18.117,35.987,23.809c27.112,11.579,58.558,13.729,86.954,5.45c14.187-4.137,27.517-10.906,39.03-20.169
					c13.955-11.228,25.202-25.318,38.554-37.197c13.72-12.206,29.799-20.765,48.547-20.739c16.906,0.021,33.196,6.149,48.3,13.169
					c15.616,7.261,30.574,15.848,46.28,22.921c14.808,6.669,30.278,11.313,46.375,13.696
					c65.335,9.668,136.085-17.476,175.374-71.034c10.359-14.126,18.69-30.279,21.819-47.599c2.999-16.613,0.628-33.274-5.455-48.91
					c-12.472-32.044-36.778-57.589-52.39-87.964c-7.993-15.555-13.279-32.368-12.778-50.002c0.495-17.42,6.007-34.2,12.528-50.23
					c6.724-16.526,14.678-32.551,20.803-49.321c6.147-16.827,9.812-34.361,10.391-52.268c1.188-36.771-9.858-74.019-31.769-103.681
					c-19.878-26.907-48.218-47.202-79.874-58.168c-15.413-5.341-31.576-8.354-47.889-8.982
					C3081.234,705.603,3081.108,710.122,3084.026,710.232L3084.026,710.232z"/>
			</g>
		</g>
		<g>
			<g>
				<path fill="#0A24A5" d="M3064.614,709.927c32.018,1.236,63.101,12.797,88.375,32.304c26.946,20.799,45.726,50.488,53.549,83.499
					c4,16.883,5.165,34.406,3.349,51.67c-1.794,17.049-6.964,33.215-13.533,48.995c-11.896,28.585-28.383,57.633-26.846,89.548
					c1.509,31.379,20.657,57.629,37.593,82.75c17.742,26.317,35.698,55.646,28.452,88.732
					c-6.938,31.673-30.946,59.052-57.271,76.987c-25.797,17.574-56.455,28.001-87.61,30.016c-15.656,1.015-31.47-0.059-46.781-3.458
					c-15.335-3.402-29.59-9.416-43.565-16.428c-25.872-12.979-53.935-30.853-84.208-28.217
					c-34.471,3.002-53.077,33.289-77.232,53.748c-21.573,18.27-50.277,25.988-78.238,23.948
					c-28.079-2.05-55.775-14.018-74.646-35.085c-22.459-25.075-29.87-60.852-56.394-82.754
					c-23.079-19.06-53.753-23.341-82.704-25.617c-16.179-1.273-32.413-1.955-48.515-4.05c-19.013-2.477-37.806-6.662-56.086-12.395
					c-17.323-5.435-34.734-11.974-50.519-20.995c-16.102-9.202-28.453-21.708-36.423-38.494
					c-8.018-16.895-12.645-35.666-17.026-53.778c-4.434-18.341-7.777-37.024-8.566-55.911c-1.44-34.474,7.198-67.302,25.738-96.496
					c17.16-27.018,40.473-49.63,64.811-70.224c11.966-10.125,24.297-19.81,36.689-29.413c2.304-1.784-0.867-5.015-3.157-3.241
					c-49.945,38.702-104.998,82.543-122.846,145.875c-10.069,35.73-5.926,73.384,2.549,108.939
					c4.308,18.068,8.991,36.567,16.534,53.599c7.304,16.484,18.462,29.762,33.652,39.567c14.958,9.653,32.049,16.373,48.844,22.138
					c18.31,6.285,37.17,10.959,56.305,13.988c32.417,5.131,65.936,3.283,97.916,11.094c15.339,3.749,30.164,10.079,42.005,20.679
					c13.546,12.129,22.009,28.47,30.456,44.253c7.648,14.284,15.57,28.662,27.122,40.239c9.702,9.719,21.361,17.369,33.969,22.827
					c25.488,11.037,55.038,13.245,81.854,5.639c13.293-3.771,25.821-9.98,36.684-18.516c13.664-10.738,24.504-24.488,37.471-35.979
					c12.786-11.329,27.794-19.293,45.229-19.311c15.821-0.012,31.065,5.641,45.212,12.188c14.839,6.863,29.028,15.032,43.936,21.75
					c14.095,6.35,28.811,10.771,44.14,13.01c61.551,8.995,128.125-16.623,165.105-67.08c9.989-13.63,17.902-29.212,20.731-45.957
					c2.611-15.484,0.185-30.999-5.527-45.508c-11.803-29.995-34.555-53.961-49.188-82.446
					c-7.439-14.487-12.409-30.148-12.027-46.571c0.384-16.551,5.611-32.506,11.806-47.729c6.304-15.491,13.751-30.517,19.515-46.224
					c5.941-16.203,9.438-33.088,9.912-50.341c0.951-34.636-9.626-69.669-30.39-97.505c-18.683-25.049-45.162-43.972-74.724-54.244
					c-14.592-5.072-29.896-7.939-45.346-8.534C3061.82,705.295,3061.695,709.814,3064.614,709.927L3064.614,709.927z"/>
			</g>
		</g>
		<g>
			<g>
				<path fill="#0A24A5" d="M3045.201,709.621c30.298,1.182,59.763,12.191,83.555,30.827c25.142,19.695,42.567,47.586,49.728,78.612
					c3.686,15.981,4.667,32.563,2.803,48.872c-1.841,16.113-6.94,31.361-13.217,46.265c-11.295,26.827-26.572,54.307-24.44,84.337
					c2.078,29.266,20.228,53.649,36.039,77.174c16.718,24.871,33.018,52.555,25.45,83.646
					c-7.186,29.533-29.821,54.856-54.719,71.424c-24.478,16.291-53.46,25.793-82.828,27.317
					c-14.543,0.755-29.201-0.415-43.375-3.729c-14.373-3.361-27.693-9.194-40.808-15.819c-23.962-12.102-50.016-28.312-78.068-25.68
					c-31.795,2.983-49.217,30.811-71.435,49.882c-20.273,17.404-47.212,24.879-73.666,23.021
					c-26.289-1.848-52.248-12.957-70.004-32.593c-21.2-23.448-28.128-57.028-52.875-77.714
					c-21.451-17.927-50.041-22.119-77.086-24.292c-15.21-1.221-30.477-1.834-45.619-3.763c-17.708-2.251-35.214-6.087-52.255-11.354
					c-16.543-5.114-33.178-11.307-48.256-19.859c-15.439-8.757-27.196-20.677-34.74-36.776
					c-7.355-15.697-11.658-33.065-15.722-49.855c-4.192-17.314-7.351-34.954-8.074-52.788c-1.311-32.283,6.818-63.011,24.191-90.339
					c16.071-25.283,37.89-46.452,60.665-65.733c11.264-9.534,22.872-18.653,34.54-27.692c2.305-1.787-0.867-5.017-3.158-3.241
					c-46.968,36.398-98.762,77.657-115.423,137.271c-9.362,33.488-5.454,68.747,2.476,102.055
					c3.987,16.75,8.354,33.866,15.252,49.687c6.735,15.45,17.026,28.069,31.176,37.348c14.436,9.466,31.038,15.967,47.332,21.518
					c16.911,5.762,34.32,10.054,51.977,12.861c30.746,4.886,62.573,3.065,92.88,10.641c14.068,3.516,27.694,9.421,38.551,19.17
					c12.857,11.548,20.836,27.076,28.867,42.073c7.205,13.452,14.734,26.951,25.707,37.76c9.079,8.946,19.909,15.977,31.616,21.029
					c24.021,10.363,51.919,12.35,77.138,5.078c12.314-3.551,23.927-9.328,34.003-17.246c12.772-10.035,22.932-22.864,35.028-33.634
					c11.781-10.49,25.623-18.031,41.728-18.263c15.043-0.213,29.562,5.125,43.011,11.329c13.707,6.327,26.821,13.846,40.56,20.108
					c13.027,5.939,26.609,10.192,40.787,12.386c57.911,8.971,120.646-14.569,155.923-61.783
					c9.294-12.439,16.839-26.708,19.827-42.017c2.855-14.631,1.078-29.417-4.152-43.292c-10.671-28.308-31.926-50.859-45.945-77.383
					c-7.314-13.841-12.386-28.816-12.167-44.621c0.216-15.518,5.041-30.507,10.813-44.788c5.868-14.525,12.851-28.591,18.299-43.283
					c5.678-15.313,9.082-31.248,9.588-47.575c1.008-32.523-8.822-65.441-28.203-91.667c-17.479-23.654-42.379-41.544-70.174-51.282
					c-13.821-4.845-28.32-7.575-42.967-8.144C3042.408,704.988,3042.282,709.508,3045.201,709.621L3045.201,709.621z"/>
			</g>
		</g>
		<g>
			<g>
				<path fill="#0A24A5" d="M3025.787,709.313c59.372,2.331,111.236,44.637,124.471,102.353c3.398,14.825,4.293,30.193,2.587,45.321
					c-1.68,14.9-6.354,29.018-12.137,42.802c-10.504,25.041-24.831,50.629-23.119,78.632c1.683,27.542,18.62,50.488,33.49,72.585
					c15.475,22.995,30.872,48.665,24.261,77.494c-6.402,27.907-27.753,51.929-51.177,67.538
					c-22.769,15.172-49.718,24.085-77.047,25.567c-13.639,0.74-27.386-0.316-40.686-3.402c-13.515-3.135-26.034-8.608-38.359-14.834
					c-22.537-11.391-47.018-26.587-73.404-23.971c-29.449,2.921-45.702,28.71-66.279,46.453
					c-19.026,16.408-44.317,23.423-69.188,21.626c-24.291-1.754-48.271-12.01-64.771-30.065
					c-19.798-21.662-26.273-52.726-48.863-72.235c-19.851-17.143-46.615-21.303-71.961-23.394
					c-13.969-1.152-27.995-1.696-41.915-3.385c-16.677-2.021-33.168-5.533-49.228-10.414c-15.35-4.664-30.727-10.351-44.808-18.065
					c-14.968-8.204-26.539-19.398-33.866-34.887c-6.953-14.699-10.978-31.01-14.798-46.757c-3.889-16.033-6.834-32.367-7.547-48.881
					c-1.314-30.371,6.247-59.26,22.607-84.969c14.985-23.548,35.307-43.273,56.522-61.245c10.56-8.946,21.448-17.494,32.39-25.976
					c2.304-1.786-0.867-5.016-3.158-3.239c-43.835,33.969-92.128,72.446-107.82,128.02c-8.874,31.428-5.225,64.542,2.224,95.822
					c3.733,15.683,7.817,31.708,14.288,46.518c6.512,14.898,16.56,26.875,30.311,35.637c13.235,8.435,28.307,14.338,43.125,19.386
					c15.917,5.419,32.299,9.446,48.917,12.072c28.705,4.534,58.432,2.819,86.709,9.952c13.534,3.415,26.544,9.213,36.806,18.809
					c11.532,10.78,18.766,25.031,26.117,38.748c6.694,12.493,13.737,25.002,23.955,35.02c8.528,8.367,18.698,14.936,29.685,19.64
					c22.223,9.514,47.936,11.401,71.287,4.847c11.755-3.299,22.849-8.764,32.455-16.298c11.74-9.21,21.109-20.954,32.158-30.916
					c11.298-10.183,24.541-17.529,40.096-17.597c14.021-0.062,27.534,4.98,40.061,10.8c12.905,6,25.268,13.094,38.246,18.944
					c12.233,5.512,24.998,9.376,38.293,11.359c53.931,8.047,112.209-14.106,144.983-58.043c8.77-11.751,15.854-25.247,18.584-39.727
					c2.6-13.792,0.768-27.671-4.231-40.699c-10.123-26.379-29.996-47.428-43.001-72.271c-6.748-12.887-11.359-26.852-11.043-41.537
					c0.312-14.533,4.885-28.534,10.318-41.902c5.516-13.569,12.038-26.726,17.097-40.482c5.215-14.195,8.31-28.991,8.75-44.11
					c0.886-30.499-8.372-61.301-26.606-85.847c-16.351-22.008-39.572-38.626-65.476-47.708c-12.919-4.528-26.479-7.072-40.171-7.608
					C3022.994,704.679,3022.868,709.201,3025.787,709.313L3025.787,709.313z"/>
			</g>
		</g>
		<g>
			<g>
				<path fill="#0A24A5" d="M3006.374,709.009c55.229,2.188,103.425,41.547,115.655,95.267c3.167,13.912,3.957,28.327,2.289,42.509
					c-1.636,13.891-6.09,27.041-11.511,39.882c-9.715,23.018-22.741,46.585-21.217,72.329c1.508,25.529,17.107,46.831,30.901,67.312
					c14.614,21.692,29.196,45.862,22.656,73.062c-6.173,25.679-25.859,47.714-47.486,62.102
					c-21.236,14.127-46.405,22.404-71.886,23.698c-12.609,0.64-25.312-0.361-37.601-3.239c-12.704-2.974-24.452-8.178-36.033-14.048
					c-20.909-10.598-43.647-24.539-68.134-21.945c-27.401,2.902-42.458,27.087-61.711,43.528
					c-17.653,15.077-41.156,21.457-64.119,19.722c-22.698-1.715-45.052-11.394-60.329-28.407
					c-18.226-20.295-24.278-49.203-45.546-67.147c-18.528-15.632-43.234-19.421-66.691-21.346
					c-13.047-1.068-26.145-1.581-39.145-3.176c-15.328-1.878-30.486-5.116-45.253-9.598c-28.208-8.566-59.096-20.261-72.729-48.263
					c-6.746-13.853-10.548-29.345-14.172-44.26c-3.586-14.753-6.311-29.782-7.023-44.972c-1.322-28.205,5.554-55.097,20.668-79.036
					c14.054-22.26,33.247-40.845,53.271-57.769c9.69-8.194,19.676-16.032,29.706-23.806c2.306-1.787-0.867-5.016-3.156-3.242
					c-40.864,31.669-85.887,67.561-100.398,119.417c-8.165,29.183-4.766,59.908,2.148,88.936
					c3.539,14.857,7.401,30.075,13.646,44.058c6.049,13.541,15.331,24.406,27.862,32.4c12.22,7.795,26.13,13.259,39.808,17.944
					c14.787,5.064,30.016,8.83,45.461,11.292c26.502,4.22,53.902,2.717,80.055,9.074c12.711,3.088,24.993,8.374,34.698,17.274
					c10.968,10.061,17.786,23.479,24.714,36.404c6.181,11.53,12.67,23.085,22.055,32.369c7.925,7.84,17.394,14.011,27.631,18.431
					c20.728,8.945,44.725,10.771,66.545,4.686c10.801-3.013,20.989-7.985,29.87-14.828c11.084-8.544,19.864-19.578,30.196-28.94
					c10.354-9.381,22.484-16.308,36.783-16.545c13.205-0.215,25.956,4.515,37.743,9.985c12.13,5.629,23.739,12.307,35.941,17.788
					c11.284,5.071,23.068,8.611,35.325,10.443c50.486,7.55,105.104-13.329,135.52-54.682c7.96-10.822,14.388-23.208,16.852-36.476
					c2.346-12.628,0.76-25.348-3.758-37.305c-9.368-24.782-28.03-44.496-40.214-67.782c-6.344-12.12-10.614-25.233-10.228-39.041
					c0.379-13.536,4.731-26.569,9.821-39.011c5.074-12.407,11.021-24.453,15.649-37.04c4.887-13.286,7.772-27.145,8.16-41.298
					c0.775-28.356-7.867-56.99-24.84-79.793c-15.366-20.646-37.217-36.192-61.584-44.584c-11.831-4.077-24.224-6.359-36.738-6.854
					C3003.581,704.371,3003.456,708.891,3006.374,709.009L3006.374,709.009z"/>
			</g>
		</g>
		<g>
			<g>
				<path fill="#0A24A5" d="M2986.961,708.7c51.119,2.052,95.665,38.51,106.862,88.268c5.906,26.257,1.618,51.692-8.766,76.217
					c-9.018,21.305-21.036,43.189-19.426,67.038c1.585,23.486,15.938,43.068,28.646,61.939
					c13.248,19.672,26.618,41.659,21.078,66.364c-5.395,24.061-23.774,44.764-43.931,58.205
					c-19.531,13.026-42.654,20.672-66.103,21.952c-24.533,1.339-46.836-4.995-68.502-15.979
					c-19.183-9.727-40.063-22.517-62.522-20.328c-25.595,2.494-39.59,24.83-57.497,40.197
					c-16.253,13.942-37.858,19.893-59.052,18.369c-21.104-1.518-41.912-10.517-56.078-26.358
					c-16.954-18.963-22.559-45.948-42.63-62.495c-17.16-14.146-39.885-17.542-61.42-19.296c-11.901-0.971-23.848-1.447-35.707-2.885
					c-14.283-1.733-28.405-4.753-42.161-8.934c-25.876-7.864-54.308-18.596-66.912-44.227c-6.196-12.598-9.669-26.686-13.008-40.264
					c-3.437-13.978-6.066-28.225-6.723-42.631c-1.185-26.017,5.173-50.799,19.118-72.877c12.968-20.522,30.669-37.665,49.127-53.28
					c8.989-7.601,18.253-14.873,27.559-22.087c2.305-1.785-0.866-5.018-3.156-3.242c-37.729,29.241-79.253,62.349-92.794,110.163
					c-7.68,27.123-4.543,55.711,1.894,82.704c3.227,13.536,6.759,27.361,12.352,40.14c5.492,12.547,13.927,22.724,25.438,30.216
					c11.239,7.314,24.101,12.402,36.739,16.773c13.523,4.679,27.447,8.192,41.577,10.51c24.76,4.062,50.373,2.636,74.833,8.483
					c11.657,2.79,22.963,7.529,31.957,15.58c10.41,9.321,16.82,21.944,23.316,34.063c5.756,10.74,11.806,21.505,20.576,30.129
					c7.238,7.12,15.842,12.753,25.155,16.811c19.233,8.377,41.512,10.141,61.801,4.524c9.839-2.724,19.15-7.199,27.287-13.361
					c10.259-7.771,18.367-17.883,27.796-26.561c9.868-9.079,21.396-15.824,35.153-15.895c12.189-0.061,23.924,4.381,34.796,9.462
					c11.131,5.201,21.802,11.327,33.024,16.338c10.68,4.77,21.833,8.04,33.433,9.689c46.51,6.611,96.658-12.855,124.576-50.939
					c7.432-10.134,13.394-21.748,15.598-34.18c2.075-11.704,0.49-23.433-3.738-34.474c-8.669-22.643-25.684-40.727-36.896-62.012
					c-5.928-11.257-9.934-23.443-9.575-36.286c0.349-12.507,4.368-24.545,9.072-36.043c4.758-11.635,10.349-22.934,14.654-34.751
					c4.487-12.323,7.09-25.192,7.385-38.301c1.154-51.293-31.173-97.62-79.72-114.507c-11.06-3.85-22.65-5.996-34.357-6.465
					C2984.167,704.064,2984.042,708.583,2986.961,708.7L2986.961,708.7z"/>
			</g>
		</g>
		<g>
			<g>
				<path fill="#0A24A5" d="M2967.548,708.394c46.976,1.911,87.857,35.419,98.05,81.183c5.369,24.109,1.365,47.348-8.167,69.84
					c-8.266,19.504-19.233,39.542-17.799,61.381c1.415,21.485,14.428,39.408,26.062,56.667
					c12.312,18.268,24.854,38.63,19.561,61.604c-5.085,22.06-22.054,41.029-40.615,53.29c-18.068,11.941-39.452,18.892-61.092,19.91
					c-22.441,1.054-42.639-4.887-62.432-14.939c-17.579-8.932-36.722-20.525-57.308-18.436
					c-22.847,2.318-35.682,21.879-51.49,35.896c-14.915,13.226-34.615,19.152-54.406,17.942
					c-19.318-1.181-38.457-9.175-51.633-23.472c-15.841-17.193-20.919-41.998-39.005-57.46
					c-15.604-13.341-36.434-16.714-56.297-18.391c-10.938-0.922-21.92-1.339-32.825-2.613c-12.979-1.516-25.815-4.185-38.335-7.9
					c-23.655-7.024-50.4-16.737-62.271-39.956c-5.879-11.501-9.081-24.488-12.189-36.962c-3.161-12.693-5.629-25.625-6.346-38.71
					c-1.324-24.15,4.271-47.162,17.138-67.732c11.783-18.841,27.937-34.585,44.807-48.906c8.454-7.177,17.178-14.027,25.942-20.82
					c2.303-1.785-0.866-5.019-3.159-3.241c-34.753,26.934-73.017,57.463-85.375,101.562c-6.968,24.872-4.077,51.076,1.824,75.818
					c5.824,24.42,12.438,50.124,34.703,64.663c10.33,6.744,22.168,11.428,33.795,15.456c12.521,4.335,25.421,7.591,38.51,9.724
					c22.721,3.7,46.23,2.395,68.667,7.796c10.874,2.615,21.392,7.095,29.679,14.73c9.422,8.678,15.216,20.269,21.185,31.383
					c5.319,9.903,10.979,19.766,19.157,27.633c6.744,6.491,14.724,11.587,23.343,15.25c17.642,7.499,38.034,8.963,56.546,3.733
					c9.054-2.559,17.613-6.723,25.075-12.454c9.346-7.177,16.774-16.42,25.43-24.347c9.078-8.314,19.724-14.402,32.345-14.36
					c11.201,0.038,21.978,4.197,31.957,8.893c19.93,9.374,38.208,20.486,60.434,23.681c42.689,6.131,88.716-11.588,114.521-46.424
					c13.817-18.647,19.747-40.959,11.425-63.129c-7.904-21.049-23.725-37.789-34.106-57.522c-5.407-10.277-9.084-21.394-8.78-33.117
					c0.299-11.515,4.006-22.604,8.332-33.185c4.462-10.908,9.721-21.493,13.704-32.592c4.023-11.214,6.318-22.938,6.555-34.846
					c0.936-47.128-28.813-89.616-73.421-105.11c-10.16-3.529-20.807-5.491-31.562-5.928
					C2964.754,703.756,2964.631,708.275,2967.548,708.394L2967.548,708.394z"/>
			</g>
		</g>
		<g>
			<g>
				<path fill="#0A24A5" d="M2948.134,708.088c43.096,1.778,80.496,32.721,89.395,74.828c4.609,21.816,0.782,42.734-7.852,63.025
					c-7.672,18.026-17.696,36.569-15.938,56.773c3.408,39.152,51.691,66.154,41.228,107.6
					c-5.101,20.207-20.932,37.381-38.222,48.378c-16.745,10.651-36.447,16.667-56.291,17.192
					c-20.195,0.533-38.123-5.291-55.877-14.358c-15.932-8.142-33.375-18.368-52.031-16.031
					c-21.229,2.658-32.75,21.605-47.877,34.253c-13.54,11.319-31.521,15.978-48.954,14.607c-17.706-1.391-35.099-9.129-46.79-22.607
					c-13.842-15.955-18.619-38.229-35.418-51.909c-14.169-11.539-32.806-14.44-50.521-15.931
					c-22.222-1.869-43.894-3.315-65.391-9.783c-21.782-6.555-45.802-15.527-56.395-37.101c-4.972-10.128-7.787-21.435-10.516-32.336
					c-2.92-11.668-5.196-23.558-5.857-35.59c-1.221-22.178,4.034-43.315,15.946-62.141c10.793-17.056,25.5-31.311,40.841-44.301
					c7.583-6.422,15.402-12.561,23.26-18.649c2.303-1.788-0.868-5.017-3.159-3.241c-31.943,24.757-67.179,52.907-78.131,93.611
					c-6.11,22.708-3.322,46.55,2.116,69.063c5.254,21.741,11.179,44.609,30.819,57.788c9.337,6.264,20.13,10.563,30.705,14.277
					c11.509,4.041,23.371,7.077,35.412,9.07c20.931,3.466,42.626,2.2,63.289,7.23c9.846,2.395,19.34,6.449,26.842,13.371
					c8.333,7.691,13.537,17.893,18.816,27.74c4.845,9.038,9.917,18.112,17.274,25.397c6.082,6.02,13.332,10.778,21.172,14.214
					c16.096,7.057,34.759,8.582,51.777,3.962c8.305-2.254,16.175-5.986,23.057-11.148c8.521-6.397,15.275-14.725,23.031-21.957
					c8.098-7.553,17.472-13.389,28.851-13.703c10.373-0.284,20.404,3.476,29.649,7.78c18.354,8.55,35.109,18.88,55.537,21.861
					c38.654,5.639,80.205-10.15,104.014-41.318c12.967-16.976,18.977-37.669,11.436-58.191
					c-7.151-19.457-21.754-34.855-31.314-53.036c-5.021-9.549-8.364-19.84-7.954-30.733c0.382-10.251,3.711-20.116,7.564-29.544
					c8.322-20.362,18.105-39.336,18.482-61.828c0.721-43.193-26.771-82.027-67.758-95.929c-9.073-3.077-18.554-4.777-28.132-5.173
					C2945.342,703.448,2945.216,707.968,2948.134,708.088L2948.134,708.088z"/>
			</g>
		</g>
		<g>
			<g>
				<path fill="#0A24A5" d="M2928.72,707.78c39.026,1.645,72.657,29.68,80.59,67.81c4.133,19.868,0.365,38.81-7.535,57.218
					c-6.872,16.009-15.587,32.521-14.037,50.47c3.07,35.549,47.191,60.194,37.03,97.867c-4.764,17.657-18.561,32.69-33.701,42.453
					c-14.967,9.65-32.6,15.171-50.403,15.785c-18.604,0.644-35.069-4.682-51.416-13.041c-14.331-7.329-29.969-16.402-46.737-14.373
					c-18.729,2.27-29.181,18.582-42.315,30.006c-12.335,10.734-28.685,15.34-44.878,14.137c-16.314-1.208-32.341-8.406-42.93-20.984
					c-12.157-14.438-16.562-34.216-31.65-46.41c-13.024-10.527-30.189-13.041-46.418-14.359
					c-20.049-1.629-39.591-3.076-58.949-9.005c-19.23-5.89-40.36-13.841-49.822-32.844c-4.72-9.483-7.331-20.157-9.856-30.395
					c-2.57-10.422-4.555-21.046-5.079-31.787c-0.957-19.545,3.677-38.163,14.074-54.812c9.724-15.574,23.109-28.559,37.053-40.378
					c6.883-5.833,13.981-11.405,21.11-16.934c2.305-1.785-0.866-5.015-3.156-3.241c-28.809,22.333-60.546,47.695-70.531,84.361
					c-5.579,20.485-3.131,42.014,1.748,62.348c4.6,19.172,9.752,39.697,26.677,51.761c8.238,5.87,17.958,9.813,27.433,13.235
					c10.477,3.787,21.289,6.657,32.274,8.558c18.782,3.247,38.166,2.242,56.79,6.358c9.226,2.04,18.286,5.601,25.383,11.969
					c7.762,6.967,12.562,16.345,17.412,25.396c8.358,15.594,18.176,28.582,34.812,35.891c14.608,6.418,31.564,7.794,47.01,3.578
					c7.421-2.027,14.458-5.35,20.626-9.946c7.847-5.845,14.021-13.509,21.158-20.127c7.542-6.993,16.285-12.209,26.866-12.166
					c9.37,0.038,18.37,3.604,26.694,7.561c16.49,7.839,31.653,16.872,50.104,19.357c35.106,4.735,72.827-10.002,93.929-38.689
					c11.025-14.992,16.084-33.029,9.72-50.957c-6.345-17.87-19.78-31.937-28.514-48.55c-4.505-8.564-7.507-17.797-7.156-27.562
					c0.345-9.498,3.489-18.609,7.084-27.328c7.58-18.388,16.251-35.554,16.44-55.892c0.364-38.754-24.312-73.478-61.049-86.078
					c-8.301-2.846-16.979-4.41-25.748-4.78C2925.927,703.138,2925.804,707.66,2928.72,707.78L2928.72,707.78z"/>
			</g>
		</g>
	</g>
</g>
</svg>
