<?xml version="1.0" encoding="utf-8"?>
<!-- Generator: Adobe Illustrator 16.0.0, SVG Export Plug-In . SVG Version: 6.00 Build 0)  -->
<!DOCTYPE svg PUBLIC "-//W3C//DTD SVG 1.1//EN" "http://www.w3.org/Graphics/SVG/1.1/DTD/svg11.dtd">
<svg version="1.1" id="Layer_1" xmlns="http://www.w3.org/2000/svg" xmlns:xlink="http://www.w3.org/1999/xlink" x="0px" y="0px"
	 width="2304.121px" height="1592.803px" viewBox="0 0 2304.121 1592.803" enable-background="new 0 0 2304.121 1592.803"
	 xml:space="preserve">
<g id="Layer_1_1_">
	<g id="_x2014_ÎÓÈ_x5F_1">
		
			<linearGradient id="SVGID_1_" gradientUnits="userSpaceOnUse" x1="5137.8462" y1="-233.2031" x2="5137.8457" y2="1359.6006" gradientTransform="matrix(-1 0 0 -1 6293.6182 1343.8008)">
			<stop  offset="0.1411" style="stop-color:#2AFFE2"/>
			<stop  offset="0.3689" style="stop-color:#10ABBE"/>
			<stop  offset="0.3777" style="stop-color:#14A6BE"/>
			<stop  offset="0.4989" style="stop-color:#4164B9"/>
			<stop  offset="0.6009" style="stop-color:#6335B5"/>
			<stop  offset="0.6784" style="stop-color:#7717B3"/>
			<stop  offset="0.7225" style="stop-color:#7F0CB2"/>
			<stop  offset="0.8792" style="stop-color:#FF3FEF"/>
		</linearGradient>
		<rect x="3.711" y="-15.8" fill="url(#SVGID_1_)" width="2304.121" height="1592.804"/>
	</g>
	<g id="Layer_2">
	</g>
</g>
<g id="Layer_4">
	<g opacity="0.4">
		<g>
			<g>
				<path fill="#0A24A5" d="M3777.981,987.669c57.289,110.993,78.104,238.726,60.809,361.994
					c-18.572,132.403-82.998,254.182-180.453,345.151c-50.744,47.371-109.518,85.958-173.305,113.477
					c-61.182,26.393-125.818,39.736-191.775,47.702c-119.76,14.467-250,14.34-355.203,80.881
					c-103.885,65.717-155.953,182.179-208.867,288.176c-55.629,111.425-121.715,228.284-248.807,266.816
					c-121.625,36.876-260.938,7.8-372.953-47.466c-110.211-54.381-205.258-139.479-272.262-242.517
					c-32.742-50.353-59.012-105.053-76.756-162.413c-18.555-59.986-25.729-121.354-28.828-183.785
					c-5.59-112.568,1.041-241.914-66.377-339.228c-74.977-108.216-210.715-114.585-324.338-155.188
					c-105.869-37.832-189.379-120.558-237.535-221.273c-47.418-99.186-60.799-216.197-26.598-321.214
					c40.893-125.566,149.012-219.778,173.619-352.053c21.289-114.444-22.809-226.883-70.436-329.197
					c-26.451-56.803-55.08-112.625-78.842-170.64c-27.998-68.357-50.035-139.145-65.936-211.225
					c-15.711-71.19-27.59-144.983-27.66-217.965c-0.078-73.873,18.557-141.528,61.199-202.107
					c42.902-60.967,98.975-113.885,153.322-164.541c52.775-49.19,108.754-95.386,170.049-133.673
					c114.611-71.592,243.135-105.959,378.457-99.389c126.076,6.121,248.994,42.231,366.92,85.794
					c57.113,21.095,113.441,44.259,169.605,67.777c7.35,3.074,10.766-8.814,3.455-11.872
					c-227.355-95.205-482.145-198.125-731.451-136.814c-140.006,34.431-259.305,120.47-363.324,217.08
					c-53.129,49.346-107.113,100.83-150.434,159.223C1020.327-622.911,996.84-558,993.59-485.802
					c-3.129,69.417,7.059,140.222,20.096,208.319c13.891,72.562,33.996,143.921,59.959,213.136
					c45.365,120.948,116.895,232.144,151.4,357.104c16.457,59.584,22.68,122.375,8.807,182.989
					c-15.848,69.244-55.277,129.327-92.707,188.479c-33.969,53.676-67.475,108.576-84.07,170.526
					c-13.697,51.126-16.867,104.72-10.992,157.35c11.992,107.499,61.902,211.721,139.646,287.432
					c38.689,37.673,84.232,67.936,134.41,87.872c61.268,24.346,126.789,34.83,189.049,56.066
					c64.527,22.004,121.539,58.354,155.744,118.973c30.764,54.534,40.707,118.191,45.623,179.666
					c5.055,63.187,4.664,126.666,10.486,189.807c5.443,59.133,18.539,116.809,39.945,172.312
					c87.184,226.078,301.574,403.192,543.639,431.854c63.877,7.566,130.486,4.996,191.494-16.346
					c58.279-20.381,107.021-58.076,145.787-105.613c79.861-97.912,117.557-221.937,186.445-326.845
					c35.547-54.121,80.092-101.818,137.836-132.362c56.859-30.082,120.789-42.934,184.143-51.123
					c65.131-8.43,130.885-11.997,195.705-22.771c64.881-10.788,127.49-30.755,185.746-61.285
					c119.594-62.678,218.623-165.312,273.695-288.941c49.877-111.968,63.438-238.996,41.279-359.722
					c-10.809-58.885-30.365-115.924-57.854-169.17C3785.239,974.795,3774.321,980.574,3777.981,987.669L3777.981,987.669z"/>
			</g>
		</g>
		<g>
			<g>
				<path fill="#0A24A5" d="M3752.583,941.082c54.811,106.191,74.715,228.387,58.166,346.324
					c-17.77,126.65-79.412,243.14-172.625,330.154c-48.557,45.322-104.777,82.234-165.812,108.562
					c-58.527,25.251-120.375,38.009-183.475,45.631c-114.646,13.847-239.309,13.733-340.021,77.433
					c-99.471,62.922-149.334,174.405-200,275.896c-53.203,106.571-116.402,218.395-237.961,255.252
					c-116.336,35.27-249.596,7.467-356.738-45.398c-105.438-52.021-196.379-133.429-260.482-232.004
					c-31.324-48.17-56.457-100.493-73.436-155.373c-17.752-57.389-24.615-116.103-27.584-175.827
					c-5.352-107.789,0.988-231.617-63.561-324.798c-71.811-103.657-201.744-109.77-310.574-148.659
					c-101.256-36.184-181.117-115.314-227.172-211.644c-45.355-94.865-58.152-206.781-25.438-307.223
					c39.141-120.182,142.613-210.338,166.168-336.938c20.391-109.608-21.814-217.271-67.436-315.264
					c-25.311-54.368-52.713-107.798-75.457-163.317c-26.783-65.403-47.863-133.131-63.084-202.092
					c-15.021-68.111-26.393-138.71-26.463-208.541c-0.076-70.662,17.752-135.355,58.529-193.301
					c41.055-58.329,94.705-108.957,146.697-157.419c50.496-47.067,104.061-91.269,162.691-127.899
					c109.652-68.497,232.613-101.372,362.08-95.09c120.645,5.858,238.264,40.414,351.105,82.102
					c54.656,20.188,108.566,42.359,162.316,64.869c7.35,3.076,10.768-8.815,3.463-11.877
					c-217.648-91.134-461.531-189.63-700.189-130.944c-134.045,32.963-248.26,115.334-347.852,207.827
					c-50.863,47.244-102.545,96.54-144.018,152.448c-41.135,55.452-63.621,117.636-66.738,186.771
					c-2.996,66.459,6.76,134.249,19.24,199.441c13.295,69.467,32.553,137.792,57.41,204.056
					c43.414,115.728,111.861,222.136,144.879,341.708c15.734,56.981,21.697,117.032,8.436,174.996
					c-15.168,66.25-52.891,123.73-88.701,180.318c-32.52,51.389-64.6,103.959-80.49,163.275
					c-13.125,48.979-16.152,100.312-10.527,150.729c11.49,102.924,59.281,202.727,133.727,275.216
					c37.057,36.084,80.688,65.073,128.76,84.171c58.637,23.298,121.348,33.336,180.928,53.66
					c61.689,21.04,116.203,55.779,148.896,113.73c29.424,52.15,38.936,113.034,43.633,171.825
					c4.844,60.474,4.469,121.229,10.035,181.654c5.219,56.643,17.76,111.881,38.266,165.047
					c83.48,216.465,288.766,386.014,520.527,413.459c61.152,7.239,124.936,4.772,183.344-15.651
					c55.818-19.523,102.516-55.613,139.652-101.144c76.451-93.728,112.535-212.449,178.486-312.872
					c33.994-51.762,76.59-97.377,131.811-126.59c54.402-28.776,115.562-41.064,176.17-48.901
					c62.336-8.062,125.264-11.481,187.305-21.795c62.121-10.324,122.066-29.448,177.838-58.676
					c114.498-60.011,209.318-158.271,262.051-276.637c47.766-107.224,60.754-228.863,39.539-344.476
					c-10.35-56.378-29.076-110.992-55.391-161.974C3759.838,928.208,3748.92,933.992,3752.583,941.082L3752.583,941.082z"/>
			</g>
		</g>
		<g>
			<g>
				<path fill="#0A24A5" d="M3727.18,894.506c52.326,101.382,71.33,218.051,55.527,330.646
					c-16.963,120.896-75.816,232.089-164.797,315.146c-46.361,43.277-100.039,78.519-158.312,103.653
					c-55.881,24.104-114.934,36.279-175.18,43.561c-109.523,13.229-228.613,13.123-324.836,73.983
					c-95.062,60.126-142.711,166.623-191.141,263.622c-50.773,101.708-111.088,208.494-227.105,243.668
					c-111.049,33.668-238.258,7.138-340.537-43.328c-100.66-49.666-187.492-127.371-248.691-221.485
					c-29.904-45.99-53.912-95.946-70.117-148.34c-16.947-54.789-23.5-110.843-26.336-167.87
					c-5.123-103.002,0.932-221.315-60.744-310.362c-68.641-99.098-192.768-104.955-296.807-142.131
					c-96.65-34.535-172.865-110.074-216.82-202.012c-43.291-90.549-55.498-197.368-24.277-293.231
					c37.389-114.792,136.209-200.898,158.713-321.831c19.492-104.772-20.824-207.657-64.436-301.326
					c-24.168-51.932-50.348-102.961-72.068-155.995c-25.572-62.443-45.695-127.112-60.227-192.958
					c-14.346-65.037-25.203-132.445-25.271-199.121c-0.066-67.443,16.945-129.181,55.871-184.49
					c39.195-55.691,90.426-104.03,140.066-150.3c48.219-44.938,99.348-87.141,155.338-122.117
					c104.695-65.402,222.082-96.799,345.689-90.792c115.215,5.588,227.533,38.594,335.289,78.404
					c52.211,19.285,103.701,40.46,155.043,61.954c7.35,3.079,10.764-8.81,3.459-11.869
					c-207.934-87.072-440.922-181.146-668.92-125.075c-128.078,31.495-237.221,110.192-332.371,198.566
					c-48.605,45.142-97.98,92.245-137.609,145.669c-39.314,52.997-60.803,112.443-63.781,178.528
					c-2.867,63.498,6.459,128.273,18.379,190.568c12.705,66.372,31.109,131.647,54.861,194.965
					c41.461,110.513,106.818,212.135,138.352,326.314c15.02,54.381,20.725,111.686,8.061,167.006
					c-14.479,63.257-50.498,118.137-84.689,172.165c-31.074,49.104-61.723,99.338-76.908,156.015
					c-12.545,46.829-15.438,95.909-10.057,144.11c10.979,98.357,56.656,193.732,127.793,262.997
					c35.436,34.505,77.145,62.212,123.109,80.473c56.004,22.258,115.896,31.844,172.809,51.256
					c58.854,20.067,110.859,53.209,142.057,108.492c28.078,49.77,37.154,107.873,41.645,163.976
					c4.623,57.761,4.264,115.794,9.582,173.509c4.994,54.152,16.979,106.953,36.584,157.784
					c79.771,206.848,275.955,368.836,497.416,395.062c58.428,6.918,119.379,4.56,175.189-14.956
					c53.363-18.659,98.012-53.146,133.52-96.676c73.045-89.536,107.52-202.952,170.527-298.894
					c32.443-49.399,73.09-92.928,125.795-120.809c51.938-27.475,110.332-39.205,168.203-46.691
					c59.533-7.695,119.646-10.962,178.9-20.81c59.35-9.866,116.637-28.14,169.93-56.072
					c109.402-57.336,200.008-151.227,250.4-264.328c45.658-102.481,58.072-218.728,37.797-329.231
					c-9.891-53.869-27.793-106.062-52.938-154.773C3734.438,881.626,3723.52,887.413,3727.18,894.506L3727.18,894.506z"/>
			</g>
		</g>
		<g>
			<g>
				<path fill="#0A24A5" d="M3701.778,847.923c49.854,96.578,67.945,207.715,52.889,314.975
					c-16.156,115.136-72.225,221.046-156.965,300.146c-44.164,41.229-95.301,74.789-150.816,98.74
					c-53.229,22.959-109.49,34.553-166.883,41.485c-104.412,12.613-217.924,12.521-309.646,70.536
					c-90.65,57.337-136.092,158.852-182.275,251.349c-48.348,96.856-105.775,198.602-216.264,232.099
					c-105.75,32.06-226.916,6.801-324.324-41.259c-95.887-47.311-178.607-121.325-236.908-210.978
					c-28.486-43.802-51.359-91.392-66.799-141.299c-16.145-52.194-22.393-105.59-25.096-159.91
					c-4.883-98.221,0.879-211.023-57.922-295.934c-65.479-94.54-183.801-100.13-283.051-135.601
					c-92.033-32.886-164.604-104.832-206.461-192.381c-41.229-86.229-52.84-187.955-23.109-279.248
					c35.631-109.4,129.812-191.455,151.254-306.713c18.59-99.931-19.832-198.045-61.426-287.394
					c-23.039-49.489-47.988-98.127-68.688-148.668c-24.363-59.488-43.529-121.094-57.371-183.824
					c-13.67-61.964-24.008-126.176-24.074-189.693c-0.064-64.234,16.137-123.012,53.203-175.685
					c37.334-53.056,86.148-99.1,133.441-143.185c45.932-42.806,94.641-83.021,147.979-116.33
					c99.742-62.308,211.555-92.219,329.318-86.503c109.771,5.336,216.793,36.785,319.465,74.714
					c49.758,18.378,98.832,38.562,147.76,59.049c7.35,3.078,10.764-8.812,3.459-11.873
					c-198.217-83.002-420.311-172.654-637.654-119.208c-122.111,30.032-226.172,105.057-316.898,189.317
					c-46.338,43.048-93.41,87.958-131.189,138.888c-37.502,50.546-57.992,107.263-60.832,170.29
					c-2.729,60.54,6.154,122.303,17.521,181.69c12.117,63.283,29.666,125.521,52.312,185.88
					c39.506,105.302,101.783,202.129,131.826,310.924c14.299,51.777,19.744,106.342,7.684,159.017
					c-13.789,60.258-48.105,112.541-80.682,164.01c-29.623,46.817-58.846,94.72-73.322,148.756
					c-11.971,44.679-14.725,91.498-9.586,137.489c10.473,93.782,54.031,184.735,121.867,250.781
					c33.812,32.921,73.6,59.351,117.453,76.774c53.375,21.212,110.459,30.349,164.699,48.846
					c56.008,19.104,105.516,50.636,135.205,103.254c26.729,47.392,35.383,102.71,39.656,156.133
					c4.4,55.049,4.061,110.354,9.129,165.358c4.76,51.666,16.195,102.022,34.895,150.516
					c76.066,197.238,263.154,351.654,474.312,376.664c55.703,6.601,113.826,4.345,167.033-14.26
					c50.908-17.807,93.502-50.685,127.379-92.209c69.641-85.354,102.502-193.457,162.568-284.916
					c30.893-47.034,69.594-88.482,119.773-115.025c49.48-26.178,105.104-37.342,160.234-44.474
					c56.738-7.337,114.023-10.447,170.492-19.835c56.588-9.405,111.213-26.837,162.021-53.461
					c104.328-54.682,190.678-144.194,238.752-252.021c43.574-97.718,55.398-208.617,36.061-313.989
					c-9.426-51.365-26.502-101.129-50.477-147.577C3709.038,835.046,3698.122,840.828,3701.778,847.923L3701.778,847.923z"/>
			</g>
		</g>
		<g>
			<g>
				<path fill="#0A24A5" d="M3676.381,801.341c47.373,91.775,64.551,197.38,50.24,299.307
					c-15.35,109.384-68.631,209.993-149.137,285.144c-41.965,39.175-90.561,71.065-143.312,93.822
					c-50.584,21.822-104.059,32.83-158.586,39.414c-99.299,11.996-207.238,11.918-294.473,67.091
					c-86.236,54.551-129.473,151.072-173.408,239.074c-45.924,91.991-100.467,188.702-205.416,220.524
					c-100.465,30.455-215.578,6.469-308.109-39.19c-91.113-44.958-169.729-115.273-225.125-200.459
					c-27.068-41.63-48.809-86.846-63.479-134.267c-15.342-49.597-21.281-100.333-23.848-151.958
					c-4.646-93.431,0.828-200.727-55.105-281.503c-62.309-89.977-174.824-95.31-269.281-129.064
					c-87.426-31.242-156.344-99.594-196.102-182.755c-39.168-81.908-50.199-178.535-21.949-265.255
					c33.873-104.012,123.41-182.014,143.801-291.6c17.689-95.101-18.844-188.433-58.426-273.466
					c-21.902-47.052-45.619-93.291-65.301-141.341c-23.148-56.536-41.365-115.084-54.518-174.697
					c-12.984-58.882-22.812-119.903-22.879-180.266c-0.061-61.023,15.322-116.846,50.533-166.879
					c35.484-50.418,81.875-94.177,126.822-136.065c43.645-40.68,89.928-78.896,140.617-110.552
					c94.787-59.213,201.029-87.642,312.936-82.205c104.342,5.065,206.062,34.965,303.646,71.021
					c47.307,17.474,93.965,36.658,140.48,56.138c7.352,3.074,10.764-8.814,3.457-11.876
					c-188.502-78.93-399.697-164.163-606.389-113.334c-116.145,28.566-215.131,99.916-301.42,180.063
					c-44.084,40.939-88.84,83.661-124.779,132.108c-35.688,48.094-55.172,102.074-57.879,162.043
					c-2.592,57.583,5.863,116.328,16.676,172.816c11.516,60.189,28.211,119.382,49.756,176.798
					c37.553,100.082,96.748,192.117,125.307,295.525c13.578,49.177,18.76,100.998,7.307,151.026
					c-13.104,57.269-45.721,106.945-76.674,155.858c-28.18,44.535-55.975,90.102-69.744,141.499
					c-11.396,42.533-14.016,87.099-9.117,130.872c9.967,89.205,51.404,175.74,115.932,238.565
					c32.184,31.343,70.059,56.491,111.803,73.079c50.746,20.16,105.02,28.849,156.584,46.436
					c53.168,18.135,100.172,48.067,128.355,98.021c25.395,45.004,33.611,97.547,37.672,148.289
					c4.188,52.332,3.863,104.911,8.684,157.209c4.527,49.177,15.412,97.094,33.215,143.25
					c72.355,187.625,250.338,334.481,451.195,358.269c52.984,6.272,108.271,4.126,158.875-13.569
					c48.463-16.941,88.996-48.218,121.248-87.734c66.24-81.159,97.492-183.969,154.609-270.94
					c29.336-44.673,66.098-84.038,113.756-109.251c47.014-24.869,99.879-35.479,152.264-42.248
					c53.947-6.979,108.404-9.934,162.096-18.862c53.826-8.943,105.785-25.527,154.109-50.855
					c99.238-52.009,181.373-137.149,227.107-239.715c41.461-92.978,52.717-198.479,34.316-298.742
					c-8.963-48.857-25.213-96.196-48.016-140.379C3683.639,788.462,3672.717,794.25,3676.381,801.341L3676.381,801.341z"/>
			</g>
		</g>
		<g>
			<g>
				<path fill="#0A24A5" d="M3650.981,754.758c44.891,86.971,61.164,187.044,47.604,283.629
					c-14.547,103.633-65.043,198.951-141.312,270.146c-39.773,37.126-85.824,67.342-135.812,88.909
					c-47.934,20.68-98.613,31.102-150.291,37.346c-94.18,11.375-196.547,11.312-279.281,63.642
					c-81.83,51.759-122.859,143.298-164.549,226.801c-43.5,87.138-95.148,178.805-194.566,208.941
					c-95.18,28.858-204.238,6.143-291.904-37.116c-86.338-42.599-160.846-109.222-213.342-189.943
					c-25.646-39.446-46.258-82.29-60.16-127.23c-14.535-47-20.172-95.074-22.604-143.998
					c-4.404-88.648,0.777-190.429-52.287-267.072c-59.141-85.419-165.855-90.491-255.52-122.534
					c-82.812-29.593-148.086-94.352-185.746-173.122c-37.1-77.593-47.543-169.119-20.789-251.268
					c32.121-98.622,117.018-172.572,136.354-276.488c16.793-90.261-17.855-178.823-55.426-259.53
					c-20.764-44.613-43.254-88.455-61.916-134.016c-21.938-53.58-39.199-109.071-51.66-165.564
					c-12.309-55.8-21.625-113.637-21.688-170.842c-0.061-57.807,14.508-110.668,47.871-158.073
					c33.629-47.781,77.598-89.242,120.193-128.945c41.359-38.548,85.223-74.766,133.26-104.773
					c89.826-56.114,190.5-83.056,296.561-77.903c98.902,4.803,195.322,33.149,287.83,67.322
					c44.848,16.575,89.092,34.762,133.197,53.231c7.344,3.079,10.766-8.815,3.453-11.874
					c-178.785-74.864-379.084-155.678-575.123-107.465c-110.182,27.095-204.088,94.778-285.947,170.811
					c-41.816,38.837-84.271,79.365-118.367,125.325c-33.857,45.648-52.352,96.894-54.92,153.803
					c-2.459,54.625,5.555,110.354,15.816,163.943c10.928,57.097,26.77,113.245,47.211,167.712
					c35.6,94.864,91.709,182.111,118.783,280.131c12.854,46.572,17.775,95.656,6.928,143.036
					c-12.42,54.275-43.324,101.346-72.662,147.704c-26.736,42.25-53.098,85.477-66.162,134.236
					c-10.816,40.386-13.299,82.689-8.652,124.253c9.457,84.636,48.789,166.74,110.008,226.35
					c30.559,29.758,66.512,53.627,106.15,69.375c48.119,19.117,99.574,27.356,148.467,44.031
					c50.332,17.163,94.836,45.493,121.512,92.78c24.047,42.623,31.834,92.389,35.682,140.438
					c3.967,49.628,3.662,99.479,8.229,149.064c4.301,46.686,14.631,92.162,31.525,135.987
					c68.652,178.013,237.537,317.302,428.094,339.868c50.264,5.958,102.721,3.914,150.723-12.868
					c46.01-16.081,84.49-45.754,115.113-83.266c62.832-76.979,92.475-174.475,146.646-256.968
					c27.791-42.307,62.598-79.595,107.738-103.472c44.555-23.571,94.65-33.61,144.293-40.035
					c51.154-6.614,102.789-9.422,153.693-17.875c51.061-8.49,100.355-24.226,146.201-48.254
					c94.146-49.337,172.066-130.114,215.465-227.406c39.352-88.231,50.039-188.346,32.574-283.497
					c-8.506-46.35-23.92-91.267-45.557-133.182C3658.237,741.88,3647.321,747.664,3650.981,754.758L3650.981,754.758z"/>
			</g>
		</g>
		<g>
			<g>
				<path fill="#0A24A5" d="M3625.583,708.174c42.412,82.167,57.775,176.707,44.957,267.962
					c-13.746,97.876-61.447,187.898-133.479,255.139c-37.576,35.079-81.082,63.62-128.318,83.999
					c-45.283,19.533-93.174,29.375-141.992,35.27c-89.062,10.755-185.859,10.706-264.1,60.192
					c-77.422,48.968-116.242,135.521-155.682,214.526c-41.076,82.282-89.836,168.905-183.719,197.37
					c-89.895,27.253-192.896,5.805-275.699-35.049c-81.561-40.244-151.963-103.169-201.553-179.432
					c-24.23-37.263-43.705-77.736-56.844-120.189c-13.73-44.407-19.061-89.822-21.355-136.04
					c-4.17-83.876,0.709-180.117-49.473-252.645c-55.951-80.863-156.893-85.682-241.754-116.003
					c-78.201-27.947-139.828-89.113-175.389-163.496c-35.033-73.271-44.891-159.706-19.625-237.279
					c30.359-93.226,110.621-163.132,128.896-261.371c15.893-85.421-16.859-169.213-52.412-245.598
					c-19.637-42.172-40.896-83.617-58.535-126.688c-20.73-50.622-37.031-103.056-48.809-156.43
					c-11.631-52.729-20.438-107.368-20.492-161.419c-0.057-54.589,13.695-104.496,45.205-149.267
					c31.773-45.141,73.322-84.319,113.566-121.826c39.08-36.424,80.516-70.647,125.9-98.992
					c84.873-53.021,179.971-78.471,280.182-73.608c93.471,4.537,184.586,31.334,272.006,63.632
					c42.402,15.661,84.227,32.858,125.924,50.313c7.348,3.078,10.764-8.81,3.457-11.869
					c-169.076-70.795-358.48-147.187-543.861-101.597c-104.215,25.629-193.037,89.641-270.471,161.556
					c-39.555,36.736-79.705,75.071-111.953,118.543c-32.043,43.194-49.541,91.706-51.971,145.562
					c-2.328,51.669,5.258,104.381,14.961,155.063c10.332,54.01,25.326,107.114,44.662,158.628
					c33.648,89.652,86.674,172.11,112.256,264.738c12.137,43.971,16.795,90.313,6.557,135.048
					c-11.732,51.279-40.938,95.75-68.658,139.551c-25.289,39.961-50.223,80.857-62.576,126.977
					c-10.246,38.234-12.588,78.28-8.188,117.632c8.955,80.064,46.166,157.744,104.076,214.132
					c28.936,28.172,62.975,50.762,100.5,65.675c45.486,18.074,94.135,25.861,140.357,41.626
					c47.49,16.198,89.488,42.922,114.662,87.543c22.705,40.235,30.057,87.228,33.689,132.593
					c3.75,46.911,3.461,94.042,7.777,140.917c4.07,44.193,13.85,87.234,29.848,128.724
					c64.943,168.397,224.725,300.121,404.977,321.472c47.541,5.629,97.166,3.695,142.57-12.175
					c43.549-15.225,79.979-43.288,108.975-78.803c59.422-72.79,87.459-164.98,138.688-242.99
					c26.234-39.947,59.104-75.146,101.717-97.691c42.098-22.271,89.422-31.745,136.322-37.813
					c48.354-6.251,97.168-8.9,145.297-16.906c48.295-8.026,94.926-22.913,138.291-45.64
					c89.049-46.668,162.764-123.074,203.816-215.104c37.24-83.488,47.357-178.206,30.832-268.251
					c-8.045-43.847-22.631-86.338-43.098-125.98C3632.836,695.299,3621.918,701.083,3625.583,708.174L3625.583,708.174z"/>
			</g>
		</g>
		<g>
			<g>
				<path fill="#0A24A5" d="M3600.18,661.593c40.156,77.812,54.496,167.292,42.123,253.659
					c-13.191,92.079-58.527,176.7-126.506,239.737c-34.766,32.233-74.873,58.593-118.375,77.51
					c-42.961,18.678-88.365,28.142-134.734,33.759c-83.998,10.182-175.27,10.071-249.104,56.682
					c-72.596,45.824-109.252,126.693-146.199,200.781c-38.709,77.616-84.291,159.8-172.729,187.096
					c-84.666,26.133-182.09,5.888-260.174-32.58c-76.52-37.697-142.582-96.573-189.305-167.958
					c-23.484-35.87-42.219-74.921-54.744-115.909c-12.547-41.051-17.432-83.045-19.566-125.724
					c-3.955-78.997,0.781-169.793-46.232-238.245c-53.535-77.938-150.609-81.423-231.777-111.332
					c-72.482-26.717-129.477-84.594-162.258-153.835c-32.92-69.54-41.736-151.518-17.031-224.752
					c29.406-87.161,104.518-152.943,120.904-245.501c14.266-80.539-16.836-159.251-50.393-231.166
					c-18.75-40.191-38.979-79.715-55.666-120.83c-19.701-48.551-35.043-98.876-46.01-150.067
					c-10.393-48.518-18.275-98.726-18.068-148.404c0.213-50.679,13.332-96.885,42.527-138.434
					c29.389-41.807,67.801-78.079,104.979-112.877c37.65-35.229,77.584-68.329,121.438-95.624
					c80.047-49.829,169.748-73.467,264.133-68.666c87.352,4.444,172.504,29.451,254.238,59.613
					c40.186,14.83,79.816,31.12,119.332,47.668c7.346,3.077,10.762-8.813,3.459-11.872
					c-159.268-66.688-337.627-138.607-512.271-95.812c-98.525,24.146-182.5,84.682-255.648,152.688
					c-37.174,34.564-74.867,70.602-105.215,111.465c-29.375,39.555-45.936,83.964-48.809,133.287
					c-2.824,48.567,4.197,98.259,13.092,145.958c9.697,52.006,23.969,103.149,42.52,152.736
					c31.43,83.999,80.938,161.228,105.406,247.799c11.73,41.525,16.629,85.301,7.355,127.729
					c-10.611,48.541-38.084,90.662-64.25,131.997c-23.68,37.413-47.211,75.606-59.191,118.66
					c-10.059,36.155-12.559,74.181-8.568,111.509c8.059,75.476,42.578,148.722,96.76,202.257
					c26.859,26.539,58.49,47.977,93.41,62.32c43.926,18.043,91.219,25.317,136.002,40.688c44.15,15.16,83.293,40.132,106.799,81.571
					c21.326,37.611,28.398,81.474,31.869,123.933c3.648,44.523,3.32,89.265,7.41,133.761c3.867,42.067,13.16,83.016,28.467,122.485
					c61.455,158.488,211.984,282.338,381.76,302.373c45.857,5.411,93.566,3.258,137.195-12.555
					c40.342-14.63,73.971-41.281,100.791-74.396c55.449-68.443,81.822-154.808,129.871-227.952
					c24.439-37.193,54.996-70.087,94.568-91.286c39.877-21.365,84.859-30.405,129.4-36.162
					c45.326-5.858,91.082-8.371,136.195-15.809c46.531-7.675,91.395-22.087,133.061-44.182
					c83.652-44.355,152.736-116.663,190.99-203.51c34.426-78.148,43.791-166.592,28.432-250.722
					c-7.58-41.532-21.357-81.783-40.738-119.332C3607.438,648.715,3596.52,654.5,3600.18,661.593L3600.18,661.593z"/>
			</g>
		</g>
		<g>
			<g>
				<path fill="#0A24A5" d="M3574.78,615.013c37.971,73.646,51.445,158.541,39.146,240.205
					c-12.996,86.301-55.877,165.283-120.025,224.069c-33.043,30.277-71.16,54.93-112.455,72.446
					c-40.799,17.309-83.928,25.704-127.816,30.839c-79.004,9.243-164.922,9.897-233.469,55.388
					c-66.805,44.333-100.363,120.314-135.031,189.58c-36.648,73.232-80.547,149.26-164.672,173.112
					c-79.908,22.659-170.602,2.913-243.514-34.001c-71.686-36.287-133.295-92.424-176.447-160.218
					c-21.369-33.569-38.316-70.005-49.518-108.177c-11.352-38.703-15.404-78.234-17.299-118.338
					c-3.475-73.276,0.01-157.055-44.006-220.228c-49.893-71.603-139.521-75.581-214.781-102.749
					c-68.676-24.791-122.713-78.798-153.898-144.211c-30.99-65.009-39.508-141.696-16.709-210.356
					c27.232-81.976,97.768-143.65,113.652-230.347c13.766-75.146-14.748-148.782-45.98-216.025
					c-17.568-37.815-36.652-74.949-52.451-113.555c-18.479-45.145-32.918-91.94-43.328-139.558
					c-10.105-46.227-17.768-94.124-17.723-141.496c0.047-48.502,12.572-92.506,40.703-132.117
					c27.432-38.621,62.947-72.229,97.41-104.492c35.533-33.275,73.232-64.529,114.672-90.254
					c75.014-46.569,159.035-68.595,247.408-64.062c81.76,4.191,161.473,27.588,237.982,55.804
					c37.834,13.953,75.146,29.29,112.35,44.87c7.35,3.074,10.764-8.814,3.455-11.872
					c-149.777-62.712-317.615-130.355-481.816-89.742c-92.244,22.81-170.836,79.56-239.377,143.249
					c-34.467,32.028-69.297,65.45-97.637,103.147c-27.68,36.816-43.84,78.271-46.861,124.413
					c-3.082,47.073,3.803,95.309,12.531,141.529c9.057,47.973,22.281,95.153,39.373,140.923
					c29.764,79.698,76.932,152.938,99.705,235.21c10.574,38.188,14.869,78.544,6.297,117.484
					c-10.156,46.122-36.35,85.997-61.203,125.283c-22.295,35.238-44.262,71.315-55.201,111.958
					c-9.055,33.637-11.197,68.855-7.457,103.498c7.688,71.075,40.512,140.095,91.748,190.283
					c25.021,24.508,54.389,44.348,86.781,57.655c41.057,16.868,85.24,23.763,127.137,38.035
					c40.805,13.897,77.369,36.668,99.6,74.655c20.752,35.489,27.602,77.205,30.945,117.538c3.402,41.115,3.17,82.423,6.771,123.525
					c3.406,38.973,11.574,77,25.439,113.672c56.609,149.803,197.031,267.313,356.799,287.659
					c42.096,5.363,86.182,4.104,126.613-9.395c38.639-12.903,71.41-37.033,97.371-68.147
					c52.959-63.475,77.984-144.379,122.193-213.421c23.072-36.025,51.859-68.241,89.742-88.994
					c37.193-20.373,79.342-29.071,121.072-34.568c42.438-5.593,85.293-7.92,127.564-14.735
					c44.062-7.106,86.537-20.459,126.049-41.229c78.705-41.38,143.762-109.063,180.043-190.454
					c32.729-73.411,41.762-156.705,27.514-235.913c-7.082-39.392-20.105-77.551-38.465-113.149
					C3582.04,602.134,3571.122,607.918,3574.78,615.013L3574.78,615.013z"/>
			</g>
		</g>
		<g>
			<g>
				<path fill="#0A24A5" d="M3549.381,568.428c74.367,144.338,43.561,324.624-75.889,433.784
					c-30.682,28.038-66.027,50.849-104.301,67.152c-37.697,16.059-77.564,23.947-118.129,28.746
					c-73.689,8.722-153.83,9.091-218.123,50.851c-63.236,41.074-95.012,112.239-127.549,177.348
					c-33.857,67.75-74.186,138.92-151.645,162c-74.986,22.334-160.854,3.891-229.5-30.808
					c-66.73-33.729-124.201-85.822-164.51-148.825c-20.117-31.438-36.107-65.554-46.668-101.336
					c-10.732-36.361-14.57-73.502-16.352-111.193c-3.248-68.93-0.055-147.604-41.793-206.835
					c-46.584-66.105-129.791-70.049-199.686-95.104c-64.631-23.168-115.354-73.873-144.557-135.438
					c-28.521-60.128-36.408-130.966-15.674-194.504c24.865-76.24,90.029-133.454,106.021-213.436
					c14.053-70.284-12.078-139.534-41.219-202.625c-16.062-34.773-33.648-68.863-48.367-104.24
					c-17.639-42.383-31.482-86.328-41.492-131.09c-9.568-42.784-16.74-87.008-17.346-130.878
					c-0.637-46.64,10.414-89.228,37.389-127.499c25.6-36.321,58.975-67.844,91.279-98.125
					c32.895-30.83,67.779-59.818,106.094-83.742c70.459-44.001,149.342-64.9,232.502-60.596
					c76.174,3.944,150.436,25.722,221.73,51.99c35.49,13.073,70.475,27.465,105.373,42.067c7.346,3.078,10.76-8.811,3.453-11.871
					c-139.787-58.525-296.295-121.591-449.582-84.112c-86.688,21.195-160.529,74.445-224.895,134.259
					c-32.271,29.988-64.885,61.27-91.398,96.593c-26.666,35.538-41.625,75.552-43.953,120.051
					c-2.246,42.828,3.998,86.618,11.938,128.652c8.537,45.148,21.008,89.529,37.129,132.586
					c27.854,74.369,71.941,142.758,93.039,219.609c10.096,36.783,13.816,75.527,4.809,112.85
					c-10.115,41.933-34.271,78.317-57,114.263c-20.699,32.735-40.969,66.323-51.039,104.104
					c-8.42,31.546-10.355,64.574-6.754,97.032c7.285,65.656,37.402,129.347,84.422,176.059
					c23.666,23.518,51.594,42.544,82.443,55.25c37.709,15.524,78.25,22,116.807,34.869c39.428,13.162,74.721,34.771,95.818,71.669
					c19.023,33.265,25.217,72.188,28.236,109.812c3.102,38.767,2.867,77.714,6.424,116.457
					c3.355,36.512,11.348,72.07,24.525,106.357c53.447,139.091,184.578,247.872,333.18,266.681
					c39.754,5.037,81.383,3.726,119.494-9.272c36.299-12.384,66.842-35.419,91.098-64.843
					c49.109-59.578,72.42-135.174,113.998-199.54c21.566-33.392,48.57-63.156,83.92-82.17
					c34.982-18.817,74.434-26.788,113.543-31.857c39.691-5.146,79.764-7.341,119.283-13.829
					c40.781-6.703,80.133-19.257,116.684-38.56c73.729-38.943,134.521-102.417,168.354-178.823
					c30.334-68.505,38.602-146.102,25.336-219.928c-6.619-36.821-18.822-72.494-35.975-105.776
					C3556.643,555.55,3545.721,561.335,3549.381,568.428L3549.381,568.428z"/>
			</g>
		</g>
		<g>
			<g>
				<path fill="#0A24A5" d="M3523.977,521.85c69.129,134.288,40.396,301.888-70.898,403.279
					c-28.826,26.259-62.043,47.54-98.02,62.66c-35.234,14.805-72.504,21.911-110.34,26.305
					c-67.818,7.875-141.396,8.618-200.574,46.892c-58.682,37.95-88.35,103.716-118.49,164.092
					c-31.92,63.951-69.771,131.162-143.262,152.22c-69.379,19.881-148.281,2.721-211.607-29.35
					c-62.18-31.488-115.74-80.204-153.115-139.063c-18.494-29.125-33.211-60.682-42.908-93.782
					c-10.025-34.213-13.461-69.157-15.088-104.604c-2.938-63.991-0.389-136.831-39.514-191.573
					c-43.783-61.263-121.568-64.517-186.582-88.174c-59.617-21.694-106.422-69-133.207-125.949
					c-26.471-56.288-33.539-122.477-13.639-181.707c23.736-70.665,84.336-123.967,98.389-198.699
					c12.24-65.105-12.004-128.962-38.998-187.339c-15.021-32.466-31.43-64.305-45.133-97.366
					c-16.164-38.983-28.869-79.393-38.084-120.543c-17.596-78.615-31.357-167.812,16.891-237.924
					c23.867-34.689,55.594-64.583,86.186-93.277c30.262-28.385,62.334-55.093,97.502-77.231
					c65.299-41.11,138.506-60.952,215.783-57.227c71.854,3.46,141.889,24.095,209.086,48.932
					c32.531,12.02,64.611,25.218,96.602,38.607c7.352,3.08,10.764-8.812,3.463-11.868
					c-130.322-54.561-276.277-113.325-419.135-78.04c-80.396,19.859-148.889,69.298-208.619,124.813
					c-30.57,28.412-61.562,58.08-86.412,91.753c-24.061,32.607-37.41,69.309-39.555,109.87
					c-2.092,39.552,3.635,79.989,10.906,118.824c7.857,41.983,19.398,83.27,34.334,123.314
					c25.631,68.708,66.088,131.851,86.17,202.6c9.762,34.385,13.727,70.709,5.621,105.77
					c-9.166,39.626-31.902,73.903-53.314,107.773c-19.1,30.218-37.846,61.206-47.293,96.02c-7.98,29.398-9.912,60.223-6.645,90.517
					c6.627,61.336,34.582,120.864,78.422,164.567c21.703,21.632,47.242,39.172,75.471,51.08
					c35.238,14.861,73.295,20.891,109.467,32.861c36.246,11.998,69.047,31.524,88.855,65.211
					c18.287,31.114,24.197,67.808,27.055,103.201c2.939,36.425,2.684,73.022,6.072,109.419c3.131,33.661,10.57,66.453,22.711,98.067
					c49.998,130.23,173.162,232.02,312.449,248.697c36.453,4.363,74.559,2.98,109.43-9.019
					c33.189-11.421,61.305-32.311,83.66-59.146c46.33-55.635,68.096-126.553,107.076-186.871
					c20.285-31.396,45.725-59.204,79.082-76.867c32.703-17.318,69.555-24.509,105.996-29.151
					c36.336-4.629,72.986-6.704,109.148-12.639c38.178-6.26,75.023-18.047,109.203-36.175
					c68.48-36.321,124.945-95.416,156.334-166.472c28.418-64.336,35.979-137.225,23.143-206.472
					c-6.229-33.624-17.482-66.169-33.148-96.597C3531.247,508.965,3520.331,514.752,3523.977,521.85L3523.977,521.85z"/>
			</g>
		</g>
		<g>
			<g>
				<path fill="#0A24A5" d="M3498.581,475.266c63.922,124.335,37.176,279.348-66.09,372.946
					c-54.494,49.39-120.758,73.425-193.062,81.74c-62.805,7.229-131.023,8.101-185.576,44.033
					c-53.723,35.379-80.975,95.87-108.75,151.496c-28.953,57.982-63.25,119.375-129.459,139.451
					c-64.48,19.558-138.457,3.709-197.551-26.137c-57.27-28.916-106.574-73.62-141.18-127.663
					c-36.207-56.541-51.16-118.109-54.193-184.418c-2.689-58.715-0.377-125.588-35.812-176.056
					c-40.381-57.509-112.338-60.731-172.986-82.638c-55.035-19.887-98.266-63.262-123.164-115.713
					c-24.795-52.235-31.4-113.831-12.793-168.846c22.275-65.847,78.908-115.495,91.248-185.499
					c10.545-59.852-11.963-118.465-36.777-172.041c-13.709-29.612-28.658-58.664-41.199-88.804
					c-15.1-36.304-26.928-73.953-35.498-112.294c-16.127-72.124-28.869-154.186,15.121-218.658
					c21.623-31.695,50.451-58.917,78.248-85.132c28.617-26.986,58.959-52.417,92.338-73.367
					c60.281-37.833,127.773-56.073,199.051-52.62c66.26,3.215,130.855,22.239,192.834,45.123
					c30.176,11.144,59.941,23.389,89.621,35.811c7.348,3.077,10.77-8.813,3.459-11.87
					c-120.322-50.372-254.947-104.562-386.887-72.411c-74.84,18.242-138.609,64.18-194.145,115.82
					c-27.848,25.893-55.973,52.901-78.836,83.402c-22.447,29.951-35.297,63.707-37.621,101.169
					c-2.27,36.571,2.943,74.008,9.561,109.951c7.074,38.457,17.457,76.301,30.965,113.026
					c23.666,64.35,61.531,123.344,80.545,189.386c9.055,31.479,13.002,64.744,5.961,96.971
					c-8.154,37.306-29.547,69.54-49.627,101.302c-17.795,28.145-35.254,57.021-43.963,89.485c-7.188,26.8-9.006,54.842-6.117,82.453
					c5.961,57.016,31.754,112.373,72.42,153.066c19.721,19.73,42.896,35.854,68.502,46.911
					c32.287,13.939,67.25,19.611,100.58,30.355c34.873,11.25,66.432,29.584,85.113,62.21c16.555,28.906,21.783,62.792,24.332,95.49
					c2.611,33.469,2.404,67.094,5.594,100.528c3.029,31.815,10.266,62.746,21.955,92.553
					c46.877,119.507,160.67,212.572,288.82,227.711c34.104,4.032,69.744,2.578,102.277-8.914
					c30.627-10.814,56.391-30.373,76.957-55.292c42.184-51.094,62.287-115.896,97.818-171.214
					c18.793-29.249,42.383-55.176,73.408-71.611c30.215-16.003,64.252-22.646,97.93-26.936
					c34.074-4.344,68.471-6.255,102.369-11.923c35.348-5.914,69.455-17.046,101.029-33.986
					c123.541-66.296,190.205-205.532,165.023-343.716c-5.73-31.481-16.229-61.937-30.871-90.41
					C3505.844,462.381,3494.93,468.167,3498.581,475.266L3498.581,475.266z"/>
			</g>
		</g>
		<g>
			<g>
				<path fill="#0A24A5" d="M3473.18,428.685c58.684,114.292,34.018,256.616-61.1,342.452
					c-50.111,45.22-110.77,66.974-177.09,74.578c-57.508,6.594-119.926,7.479-169.932,40.289
					c-49.193,32.282-74.305,87.353-99.689,138.248c-26.875,53.869-58.418,111.104-120.18,129.437
					c-59.309,17.6-127.262,2.774-181.402-24.864c-52.717-26.902-98.031-68.401-129.578-118.494
					c-32.711-51.953-45.766-107.982-48.5-168.588c-2.42-53.826-0.611-114.957-33.287-161.103
					c-36.266-51.214-100.062-55.411-154.676-74.141c-51.531-17.671-92.139-56.547-115.898-105.242
					c-23.191-47.534-29.939-103.808-13.672-154.386c19.566-60.814,71.725-106.277,84.152-170.102
					c10.727-55.066-9.289-109.145-32.035-158.641c-12.527-27.253-26.318-53.933-37.965-81.583
					c-13.863-32.907-24.793-67.029-32.807-101.801c-15.139-65.715-28.037-142.395,11.207-201.873
					c19.441-29.463,46.016-54.56,71.5-78.74c25.932-24.604,53.363-47.876,83.52-67.192c55.648-35.655,117.91-53.321,184.15-50.408
					c60.666,2.665,119.852,19.891,176.617,40.736c28.447,10.445,56.48,21.971,84.432,33.671c7.346,3.076,10.768-8.814,3.455-11.873
					c-110.832-46.398-234.939-96.308-356.445-66.343c-68.531,16.903-126.961,59.048-177.859,106.387
					c-50.24,46.718-102.467,97.044-107.074,169.564c-2.137,33.645,2.658,68.101,8.729,101.174
					c6.543,35.615,16.164,70.674,28.707,104.673c21.781,59.017,56.529,113.172,73.883,173.799
					c8.416,29.382,11.92,60.424,4.912,90.41c-7.955,34.086-27.723,63.469-46.123,92.624c-16.393,25.977-32.232,52.714-39.934,82.753
					c-6.359,24.777-7.74,50.614-4.852,76.041c5.91,52.049,29.875,102.518,67.229,139.505c18.271,18.085,39.697,32.839,63.371,42.874
					c29.645,12.564,61.627,17.791,92.127,27.708c31.996,10.397,60.799,27.519,77.688,57.591c14.988,26.69,19.6,57.918,21.865,87.971
					c4.531,60.016,2.703,118.443,25.023,175.602c42.875,109.776,146.967,195.388,264.547,209.873
					c62.941,7.763,123.986-8.166,165.512-57.801c39.424-47.128,57.941-107.284,90.896-158.535
					c17.162-26.688,38.652-50.397,66.941-65.456c27.787-14.786,59.146-20.896,90.137-24.849
					c31.945-4.071,64.199-5.811,95.957-11.276c32.086-5.523,63.059-15.846,91.693-31.312
					c113.342-61.208,174.348-189.142,151.156-316.087c-5.281-28.911-14.947-56.872-28.381-83.038
					C3480.45,415.796,3469.536,421.586,3473.18,428.685L3473.18,428.685z"/>
			</g>
		</g>
		<g>
			<g>
				<path fill="#0A24A5" d="M3447.776,382.104c53.777,104.881,30.527,235.477-57.639,313.313
					c-45.68,40.329-100.578,59.379-160.453,66.156c-53.199,6.019-110.791,7.134-156.473,38.511
					c-88.525,60.802-87.756,211.975-200.408,242.875c-54.922,15.066-117.074,0.534-166.5-25.785
					c-47.867-25.49-88.691-64.248-116.648-110.735c-28.453-47.312-38.73-97.785-41.062-152.21
					c-2.084-48.849-1.236-104.098-31.904-145.322c-34.896-46.91-95.465-48.809-145.902-67.758
					c-45.146-16.966-80.428-53.46-100.631-96.767c-20.521-43.979-25.527-95.759-9.211-141.706
					c19.314-54.392,65.855-95.732,75.781-154.097c8.369-49.229-9.812-97.458-30.111-141.597
					c-25.467-55.361-51.195-108.848-64.748-168.681c-13.73-60.625-24.721-129.826,12.328-184.055
					c17.395-25.456,40.496-47.37,62.748-68.532c23.822-22.648,49.033-44.062,76.758-61.833
					c51.102-32.753,108.445-48.705,169.25-45.713c55.088,2.71,108.785,18.502,160.326,37.5c25.479,9.392,50.604,19.726,75.66,30.215
					c7.352,3.074,10.764-8.815,3.453-11.874c-101.871-42.646-216.244-88.558-327.787-59.816
					c-62.23,16.033-115.18,54.751-161.4,97.989c-44.635,41.757-91.043,86.627-95.949,151.074
					c-2.328,30.637,1.973,62.091,7.375,92.24c5.879,32.808,14.625,65.106,26.09,96.426c19.93,54.443,52.141,104.336,67.992,160.246
					c7.555,26.639,10.691,54.676,4.328,81.834c-7.076,30.171-24.334,56.277-40.648,82.086
					c-14.971,23.688-29.727,47.965-37.146,75.267c-6.133,22.567-7.689,46.214-5.311,69.485
					c4.881,47.775,26.377,94.213,60.27,128.473c16.537,16.713,36.006,30.408,57.545,39.824
					c26.684,11.657,55.58,16.511,83.217,25.221c28.861,9.093,55.359,23.533,71.422,50.172c14.637,24.289,19.195,53.205,21.4,80.984
					c4.371,55.157,2.354,108.907,22.762,161.504c38.617,99.52,132.092,177.086,238.262,191.758
					c57.826,7.988,115.129-5.571,153.783-51.129c36.648-43.192,53.615-98.647,83.986-145.855
					c15.951-24.791,35.926-46.594,62.383-60.282c24.893-12.889,52.834-18.249,80.443-21.774
					c59.627-7.611,117.918-9.887,171.916-39.263c103.697-56.422,159.049-174.075,136.943-290.26
					c-4.895-25.721-13.611-50.558-25.562-73.869C3455.055,369.215,3444.137,375.002,3447.776,382.104L3447.776,382.104z"/>
			</g>
		</g>
		<g>
			<g>
				<path fill="#0A24A5" d="M3422.379,335.515c48.615,95.028,27.209,212.745-52.797,282.931
					c-41.688,36.567-91.809,53.104-146.219,59.091c-47.324,5.204-98.32,6.703-138.922,34.546
					c-80.412,55.151-79.639,193.251-182.91,219.792c-48.404,12.438-102.727-0.145-146.32-23.009
					c-43.096-22.607-79.961-57.11-105.383-98.627c-26.568-43.378-36.066-89.705-38.188-139.829
					c-1.861-43.946-1.328-93.352-28.727-130.5c-30.607-41.487-83.467-44.387-128.314-60.246
					c-42.133-14.891-75.092-47.573-94.025-87.704c-19.086-40.426-23.537-88.229-7.875-130.344
					c17.975-48.345,59.08-85.442,67.771-137.737c7.506-45.142-9.619-89.349-28.326-129.717
					c-23.109-49.874-45.975-98.294-57.928-152.314c-11.877-53.663-21.408-114.618,11.053-162.697
					c16.199-23.989,38.07-44.564,59.02-64.351c21.326-20.143,43.922-39.159,68.762-54.863
					c45.193-28.582,95.709-42.62,149.299-40.302c50.127,2.161,99.021,16.519,145.898,33.774
					c23.135,8.514,45.941,17.897,68.686,27.412c7.346,3.078,10.762-8.812,3.459-11.871c-91.885-38.453-194.92-79.795-295.561-54.192
					c-56.229,14.303-104.133,49.104-145.924,88.075c-39.408,36.743-81.287,76.622-87.193,133.113
					c-2.873,27.49,0.83,55.914,5.445,83.053c5.096,30.014,12.82,59.588,23.088,88.274c17.559,49.037,46.037,93.786,61.314,143.618
					c7.564,24.687,11.291,51.029,5.695,76.477c-6.121,27.837-21.961,51.87-36.959,75.592
					c-25.838,40.866-43.514,81.696-38.504,131.097c4.4,43.38,23.947,85.56,54.766,116.614
					c14.811,14.919,32.184,27.186,51.416,35.668c24.463,10.795,50.996,15.162,76.344,23.23
					c26.781,8.521,50.957,22.296,65.096,47.517c12.521,22.338,16.152,48.54,17.949,73.663c3.555,49.77,2.479,97.989,21.398,145.213
					c35.994,89.864,121.812,159.737,218.438,171.31c50.494,6.042,100.199-6.203,134.27-45.469
					c33.957-39.141,49.33-90.028,77.084-133.161c14.309-22.238,32.221-41.805,55.92-54.115
					c23.051-11.965,48.953-16.749,74.525-19.937c53.932-6.723,106.428-9.205,155.051-36.125
					c92.656-51.297,142.023-156.717,122.545-261.049c-4.404-23.569-12.365-46.314-23.289-67.667
					C3429.659,322.626,3418.741,328.418,3422.379,335.515L3422.379,335.515z"/>
			</g>
		</g>
	</g>
	<g opacity="0.4">
		<g>
			<g>
				<path fill="#0A24A5" d="M516.542-246.675c124.812,4.809,246.229,49.609,344.99,125.375
					c106.082,81.377,180.332,197.427,211.502,327.047c16.234,67.495,20.867,137.649,13.396,206.717
					c-7.166,66.245-27.387,129.07-52.939,190.396c-46.398,111.351-110.654,224.635-104.562,348.966
					c6.023,122.778,81.734,225.455,147.922,323.713c69.57,103.294,138.723,218.367,109.658,347.951
					c-27.812,124.012-121.73,230.933-225,301.199c-101.613,69.131-222.486,109.936-345.16,117.496
					c-59.947,3.696-120.49-0.386-179.152-13.192c-61.344-13.397-118.283-37.383-174.145-65.435
					c-100.721-50.577-210.023-120.059-327.92-109.313c-131.109,11.95-203.508,126.945-294.809,205.832
					c-85.07,73.502-198.197,105.435-309.568,97.736c-109.675-7.585-218.1-53.572-292.648-135.062
					c-89.141-97.435-117.879-237.934-220.877-324.498c-89.113-74.896-208.687-91.9-321.188-100.846
					c-62.463-4.956-125.145-7.537-187.338-15.431c-73.281-9.303-145.74-24.99-216.303-46.656
					c-69.695-21.391-139.767-47.397-203.317-83.282c-64.33-36.315-114.031-85.858-145.748-152.807
					c-31.928-67.367-50.364-142.229-67.682-214.479c-16.815-70.157-29.448-141.629-32.578-213.831
					c-5.856-135.007,27.537-263.786,99.907-378.319c67.425-106.709,159.393-195.897,255.389-277.071
					c46.489-39.314,94.392-76.927,142.522-114.223c6.295-4.882-2.367-13.71-8.629-8.855
					c-194.839,150.974-409.9,322.02-479.337,569.189c-38.995,138.804-22.875,285.006,9.97,423.117
					c16.777,70.543,34.993,142.883,64.476,209.344c29.241,65.901,74.166,118.313,135.397,156.702
					c58.873,36.913,125.511,62.924,191.198,85.115c69.99,23.651,141.997,41.301,215.021,52.796
					c127.604,20.092,259.607,12.609,385.355,44.127c59.962,15.024,117.672,40.536,163.591,82.464
					c52.458,47.897,85.327,111.808,118.369,173.517c29.983,55.999,61.26,112.199,107,157.156
					c37.747,37.104,82.827,66.259,131.524,87.068c99.462,42.509,214.749,50.405,318.932,20.037
					c51.84-15.115,100.611-39.847,142.676-73.696c51.363-41.329,92.762-93.188,141.908-136.912
					c50.932-45.319,110.646-77.032,180.25-76.943c62.613,0.087,122.912,22.787,178.834,48.787
					c57.479,26.721,112.533,58.329,170.35,84.36c54.145,24.388,110.791,41.397,169.635,50.104
					c239.695,35.479,499.436-63.866,643.604-260.417c38.049-51.863,68.617-111.1,80.096-174.705
					c10.965-60.759,2.168-121.744-20.109-178.896c-45.879-117.729-135.248-211.622-192.617-323.247
					c-29.594-57.592-49.166-119.852-47.305-185.151c1.826-64.301,22.127-126.267,46.205-185.438
					c24.744-60.834,54.023-119.816,76.574-181.536c22.566-61.778,36.029-126.101,38.152-191.838
					c4.355-134.953-36.191-271.688-116.66-380.509c-72.877-98.556-176.748-172.925-292.73-213.103
					c-56.568-19.598-115.844-30.67-175.721-32.975C508.913-259.333,508.563-246.985,516.542-246.675L516.542-246.675z"/>
			</g>
		</g>
		<g>
			<g>
				<path fill="#0A24A5" d="M463.487-247.517c119.414,4.601,235.562,47.465,330.053,119.956
					C895.01-49.717,966.026,61.307,995.844,185.288c15.527,64.581,19.961,131.691,12.811,197.776
					c-6.852,63.374-26.209,123.479-50.656,182.15c-44.416,106.596-105.916,215.032-100.084,334.057
					c5.766,117.559,78.229,215.864,141.6,309.947c66.545,98.792,132.736,208.873,104.939,332.816
					c-26.605,118.617-116.438,220.898-215.217,288.105c-97.207,66.138-212.848,105.188-330.209,112.426
					c-57.352,3.534-115.268-0.363-171.391-12.618c-58.688-12.815-113.168-35.762-166.607-62.596
					c-96.443-48.435-201.086-114.942-313.975-104.659c-125.58,11.438-194.896,121.508-282.346,197.066
					c-81.363,70.303-189.564,100.829-296.082,93.463c-104.901-7.25-208.603-51.237-279.902-129.18
					c-85.314-93.257-112.812-227.716-211.391-310.567c-85.348-71.733-199.834-88.031-307.585-96.594
					c-59.783-4.751-119.779-7.22-179.299-14.771c-70.111-8.902-139.437-23.916-206.95-44.636
					c-66.675-20.475-133.718-45.353-194.525-79.686c-61.534-34.736-109.057-82.115-139.4-146.145
					c-30.542-64.459-48.178-136.085-64.745-205.205c-16.091-67.129-28.177-135.516-31.177-204.585
					c-5.604-129.167,26.348-252.371,95.583-361.95c64.52-102.109,152.524-187.452,244.384-265.126
					c44.491-37.622,90.339-73.621,136.403-109.312c6.297-4.88-2.369-13.712-8.631-8.864
					c-186.514,144.531-392.356,308.269-458.83,544.874c-37.335,132.894-21.905,272.865,9.539,405.095
					c16.062,67.537,33.511,136.793,61.74,200.423c27.999,63.112,71.041,113.311,129.674,150.074
					c56.363,35.341,120.165,60.24,183.047,81.489c67.006,22.644,135.954,39.536,205.865,50.541
					c122.1,19.219,248.419,12.06,368.745,42.218c57.34,14.372,112.538,38.76,156.451,78.852
					c50.188,45.829,81.632,106.974,113.241,166.012c28.706,53.61,58.657,107.424,102.452,150.471
					c36.163,35.545,79.345,63.463,125.993,83.4c95.232,40.692,205.629,48.258,305.381,19.174
					c49.656-14.478,96.375-38.173,136.672-70.602c49.158-39.557,88.781-89.188,135.814-131.03
					c48.695-43.324,105.777-73.656,172.316-73.565c59.877,0.08,117.549,21.789,171.027,46.659
					c55.016,25.567,107.705,55.819,163.035,80.738c51.865,23.356,106.115,39.647,162.486,47.988
					c229.502,33.966,478.17-61.183,616.209-249.365c36.42-49.654,65.689-106.38,76.682-167.27
					c10.502-58.198,2.094-116.61-19.236-171.358c-43.916-112.698-129.467-202.576-184.379-309.437
					c-28.305-55.08-47.023-114.617-45.248-177.063c1.752-61.519,21.18-120.798,44.211-177.404
					c23.688-58.221,51.705-114.67,73.285-173.742c21.613-59.149,34.496-120.74,36.527-183.671
					c4.17-129.204-34.641-260.123-111.684-364.314C842.622-118.593,743.157-189.81,632.094-228.29
					c-54.164-18.763-110.918-29.362-168.246-31.573C455.858-260.173,455.514-247.822,463.487-247.517L463.487-247.517z"/>
			</g>
		</g>
		<g>
			<g>
				<path fill="#0A24A5" d="M410.44-248.351c114.004,4.396,224.9,45.321,315.107,114.531
					c96.859,74.309,164.641,180.296,193.1,298.644c14.83,61.664,19.062,125.736,12.234,188.831
					c-6.545,60.504-25.035,117.893-48.371,173.913c-42.434,101.834-101.182,205.423-95.607,319.142
					c5.504,112.345,74.719,206.269,135.285,296.19c63.506,94.283,126.732,199.37,100.201,317.666
					c-25.395,113.226-111.139,210.867-205.438,275.023c-92.801,63.141-203.195,100.438-315.248,107.344
					c-54.754,3.373-110.055-0.339-163.633-12.039c-56.031-12.237-108.041-34.145-159.068-59.765
					c-92.164-46.272-192.15-109.816-300.025-100.001c-120.051,10.928-186.285,116.07-269.883,188.303
					c-77.662,67.105-180.941,96.228-282.602,89.197c-100.127-6.923-199.103-48.911-267.154-123.299
					c-81.488-89.078-107.754-217.493-201.914-296.641c-81.582-68.567-190.979-84.156-293.979-92.337
					c-57.1-4.546-114.404-6.896-171.257-14.114c-66.939-8.499-133.131-22.838-197.593-42.625
					c-63.666-19.548-127.68-43.3-185.74-76.081c-58.728-33.161-104.079-78.374-133.041-139.492
					c-29.162-61.543-45.998-129.937-61.815-195.928c-15.359-64.098-26.905-129.38-29.768-195.337
					c-5.353-123.329,25.141-240.954,91.25-345.569c61.611-97.518,145.657-179.01,233.378-253.182
					c42.499-35.939,86.289-70.321,130.282-104.416c6.299-4.88-2.365-13.709-8.626-8.856
					c-178.193,138.074-374.821,294.508-438.32,520.549c-35.674,126.979-20.94,260.727,9.104,387.062
					c15.346,64.536,32.021,130.707,58.996,191.509c26.759,60.317,67.911,108.297,123.957,143.438
					c53.849,33.771,114.816,57.56,174.902,77.868c64.021,21.635,129.894,37.768,196.697,48.283
					c116.6,18.349,237.23,11.521,352.132,40.315c54.724,13.715,107.407,36.975,149.314,75.242
					c47.92,43.757,77.939,102.135,108.119,158.502c27.429,51.229,56.053,102.646,97.896,143.776
					c34.577,33.981,75.865,60.675,120.465,79.732c91.008,38.891,196.509,46.112,291.828,18.317
					c47.482-13.843,92.139-36.494,130.67-67.504c46.955-37.776,84.797-85.18,129.723-125.147
					c46.451-41.335,100.91-70.272,164.389-70.194c57.143,0.077,112.182,20.796,163.217,44.522
					c52.545,24.427,102.875,53.322,155.723,77.12c49.588,22.326,101.443,37.902,155.336,45.877
					c219.311,32.454,456.914-58.494,588.814-238.312c34.801-47.442,62.768-101.648,73.273-159.834
					c10.043-55.632,2.021-111.473-18.373-163.816c-41.945-107.669-123.67-193.535-176.133-295.626
					c-27.014-52.566-44.875-109.38-43.178-168.98c1.668-58.73,20.223-115.331,42.213-169.383
					c22.623-55.603,49.387-109.525,70.004-165.945c20.645-56.51,32.957-115.367,34.895-175.505
					c3.988-123.452-33.098-248.551-106.709-348.113c-66.699-90.213-161.752-158.271-267.91-195.054
					c-51.752-17.925-105.994-28.052-160.771-30.161C402.807-261.01,402.467-248.658,410.44-248.351L410.44-248.351z"/>
			</g>
		</g>
		<g>
			<g>
				<path fill="#0A24A5" d="M357.389-249.187c108.607,4.179,214.238,43.175,300.168,109.108
					c92.246,70.77,156.803,171.729,183.904,284.44c14.127,58.742,18.148,119.775,11.648,179.887
					c-6.236,57.633-23.855,112.306-46.092,165.669C766.569,587,710.579,685.741,715.891,794.145
					c5.25,107.132,71.215,196.68,128.969,282.431c60.48,89.783,120.742,189.875,95.475,302.528
					c-24.186,107.824-105.846,200.834-195.648,261.936c-88.4,60.146-193.561,95.686-300.297,102.266
					c-52.152,3.219-104.834-0.316-155.873-11.461c-53.377-11.658-102.922-32.52-151.527-56.921
					c-87.887-44.13-183.221-104.703-286.078-95.352c-114.527,10.42-177.672,110.643-257.428,179.548
					c-73.949,63.897-172.307,91.619-269.115,84.925c-95.351-6.59-189.602-46.589-254.409-117.427
					c-77.661-84.896-102.685-207.275-192.431-282.704c-77.812-65.398-182.125-80.285-280.37-88.095
					c-54.418-4.323-109.036-6.567-163.216-13.445c-63.773-8.097-126.827-21.76-188.239-40.612
					c-60.659-18.624-121.635-41.252-176.946-72.479c-55.934-31.582-99.109-74.631-126.691-132.833
					c-27.785-58.625-43.815-123.786-58.887-186.658c-14.63-61.057-25.638-123.255-28.355-186.082
					c-5.101-117.493,23.941-229.533,86.918-329.207c58.711-92.907,138.793-170.556,222.372-241.228
					c40.502-34.253,82.239-67.021,124.167-99.51c6.299-4.881-2.368-13.708-8.628-8.859
					c-169.865,131.625-357.279,280.753-417.816,496.23c-34.008,121.064-19.969,248.58,8.675,369.042
					c14.641,61.53,30.542,124.616,56.256,182.581c25.519,57.532,64.786,103.301,118.24,136.815
					c51.344,32.191,109.47,54.884,166.753,74.241c61.044,20.625,123.853,36.008,187.537,46.025
					c111.102,17.483,226.042,10.977,335.522,38.416c52.104,13.059,102.273,35.194,142.176,71.634
					c45.649,41.682,74.248,97.298,102.997,150.999c26.154,48.84,53.45,97.864,93.347,137.079
					c32.987,32.424,72.377,57.884,114.935,76.062c86.775,37.079,187.386,43.968,278.277,17.461
					c45.305-13.212,87.902-34.82,124.666-64.403c44.75-36.005,80.818-81.185,123.631-119.278
					c44.213-39.334,96.039-66.89,156.455-66.812c54.41,0.08,106.816,19.796,155.414,42.388
					c50.078,23.285,98.039,50.822,148.406,73.501c47.309,21.308,96.766,36.157,148.18,43.769
					c209.121,30.946,435.654-55.817,561.424-227.268c33.18-45.228,59.846-96.923,69.861-152.395
					c9.578-53.074,1.945-106.336-17.51-156.273C897.096,1112.073,819.2,1030.23,769.19,932.906
					c-25.717-50.051-42.729-104.146-41.111-160.893c1.59-55.957,19.27-109.862,40.215-161.355
					c21.562-52.995,47.072-104.381,66.713-158.147c19.688-53.88,31.422-110.006,33.277-167.339
					c3.797-117.729-31.576-236.964-101.738-331.915c-63.58-86.05-154.271-150.962-255.5-186.033
					c-49.346-17.096-101.064-26.745-153.297-28.757C349.758-261.847,349.413-249.499,357.389-249.187L357.389-249.187z"/>
			</g>
		</g>
		<g>
			<g>
				<path fill="#0A24A5" d="M304.34-250.028c103.203,3.975,203.572,41.04,285.229,103.697
					c87.637,67.234,148.953,163.158,174.703,270.234c13.424,55.816,17.24,113.818,11.064,170.936
					c-5.926,54.772-22.68,106.729-43.811,157.431c-38.469,92.326-91.699,186.228-86.648,289.318
					c4.998,101.921,67.705,187.09,122.652,268.67c57.439,85.277,114.742,180.377,90.746,287.389
					c-22.98,102.436-100.553,190.802-185.865,248.844c-84.004,57.149-183.918,90.934-285.34,97.189
					c-49.562,3.054-99.619-0.299-148.117-10.888c-50.719-11.077-97.801-30.896-143.994-54.091
					c-83.598-41.975-174.281-99.587-272.131-90.693c-108.994,9.909-169.055,105.204-244.955,170.785
					c-70.25,60.696-163.68,87.011-255.637,80.649c-90.576-6.257-180.104-44.248-241.661-111.546
					c-73.834-80.709-97.619-197.052-182.948-268.773c-74.052-62.235-173.272-76.41-266.771-83.845
					c-51.738-4.114-103.661-6.247-155.171-12.786c-60.604-7.699-120.531-20.683-178.888-38.6
					c-57.64-17.7-115.586-39.203-168.152-68.876c-53.139-30.004-94.143-70.888-120.345-126.174
					c-26.4-55.716-41.635-117.642-55.95-177.39c-13.907-58.02-24.369-117.123-26.953-176.829
					c-4.846-111.657,22.742-218.121,82.591-312.834c55.802-88.312,131.923-162.112,211.367-229.28
					c38.508-32.565,78.183-63.721,118.049-94.61c6.295-4.882-2.371-13.707-8.632-8.858
					c-161.536,125.179-339.735,267-397.303,471.917c-32.343,115.148-19.004,236.438,8.248,351.01
					c13.916,58.53,29.052,118.523,53.513,173.664c24.278,54.746,61.661,98.291,112.517,130.184
					c48.837,30.618,104.126,52.193,158.613,70.607c58.055,19.624,117.792,34.248,178.372,43.778
					c105.598,16.611,214.852,10.425,318.911,36.504c49.486,12.404,97.138,33.418,135.036,68.027
					c43.387,39.61,70.555,92.464,97.876,143.494c24.879,46.461,50.846,93.093,88.793,130.392
					c31.402,30.869,68.897,55.097,109.406,72.396c82.542,35.264,178.262,41.82,264.721,16.607
					c43.129-12.571,83.672-33.146,118.668-61.306c42.541-34.233,76.832-77.188,117.537-113.403
					c41.971-37.337,91.17-63.502,148.525-63.425c51.674,0.064,101.451,18.793,147.609,40.253
					c47.605,22.132,93.207,48.31,141.094,69.875c45.027,20.28,92.092,34.409,141.029,41.648
					c198.926,29.441,414.398-53.121,534.029-216.211c31.559-43.022,56.92-92.193,66.443-144.95
					c9.125-50.521,1.869-101.2-16.635-148.734c-38.01-97.623-112.088-175.458-159.648-268.002
					c-24.428-47.536-40.58-98.918-39.049-152.813c1.512-53.161,18.316-104.396,38.227-153.319
					c20.498-50.388,44.748-99.237,63.426-150.36c18.725-51.249,29.885-104.638,31.643-159.171
					c3.615-111.98-30.025-225.396-96.76-315.718c-60.498-81.876-146.771-143.638-243.092-177.008
					c-46.938-16.264-96.137-25.438-145.82-27.354C296.708-262.688,296.364-250.332,304.34-250.028L304.34-250.028z"/>
			</g>
		</g>
		<g>
			<g>
				<path fill="#0A24A5" d="M251.29-250.865c97.799,3.768,192.908,38.895,270.287,98.27
					C604.598-88.893,662.684,2.002,687.079,103.442c12.721,52.902,16.336,107.86,10.48,161.99
					c-5.607,51.9-21.502,101.14-41.52,149.19c-36.488,87.566-86.963,176.624-82.17,274.402
					c4.738,96.708,64.197,177.502,116.334,254.913c54.41,80.776,108.748,170.875,86.01,272.24
					c-21.766,97.049-95.25,180.772-176.078,235.763c-79.598,54.156-174.277,86.188-270.387,92.114
					c-46.959,2.89-94.398-0.274-140.357-10.31c-48.062-10.499-92.678-29.273-136.453-51.253
					c-79.32-39.83-165.346-94.471-258.186-86.04c-103.467,9.396-160.443,99.772-232.494,162.022
					c-66.541,57.497-155.049,82.405-242.153,76.385c-85.801-5.931-170.6-41.922-228.914-105.668
					c-70.009-76.527-92.554-186.837-173.466-254.847c-70.282-59.072-164.424-72.538-253.165-79.593
					c-49.055-3.902-98.285-5.924-147.13-12.124c-57.437-7.296-114.229-19.606-169.534-36.586
					c-54.624-16.772-109.549-37.151-159.363-65.272c-50.338-28.421-89.168-67.135-113.992-119.519
					c-25.019-52.802-39.447-111.488-53.02-168.113c-13.176-54.983-23.093-110.995-25.548-167.581
					c-4.591-105.812,21.546-206.698,78.271-296.465c52.892-83.707,125.052-153.658,200.355-217.335
					c36.514-30.867,74.135-60.414,111.932-89.702c6.297-4.876-2.369-13.711-8.633-8.854
					c-153.211,118.724-322.197,253.237-376.795,447.594c-30.688,109.235-18.036,224.298,7.813,332.988
					c13.203,55.521,27.564,112.432,50.769,164.74c23.051,51.951,58.541,93.287,106.803,123.551
					c46.327,29.045,98.774,49.519,150.468,66.984c55.073,18.611,111.742,32.479,169.211,41.517
					c100.094,15.743,203.661,9.882,302.3,34.6c46.863,11.751,92.004,31.645,127.896,64.42
					c41.117,37.542,66.86,87.622,92.757,135.988c23.6,44.076,48.235,88.312,84.236,123.697
					c29.818,29.304,65.414,52.301,103.875,68.729c78.315,33.455,169.143,39.666,251.172,15.749
					c40.947-11.938,79.432-31.472,112.66-58.214c40.338-32.461,72.852-73.186,111.445-107.521
					c39.729-35.352,86.303-60.13,140.594-60.053c48.939,0.064,96.084,17.8,139.797,38.116
					c45.145,20.99,88.381,45.812,133.783,66.261c42.748,19.25,87.414,32.658,133.877,39.541
					c188.736,27.93,393.141-50.442,506.637-205.166c29.941-40.811,54-87.47,63.039-137.513c8.666-47.962,1.795-96.064-15.77-141.191
					c-36.043-92.6-106.295-166.416-151.406-254.193c-23.131-45.022-38.438-93.681-36.982-144.728
					c1.43-50.385,17.367-98.929,36.227-145.296c19.439-47.776,42.43-94.097,60.145-142.562c17.76-48.62,28.346-99.27,30.014-151.005
					c3.436-106.234-28.486-213.834-91.783-299.523c-57.402-77.705-139.268-136.316-230.682-167.982
					c-44.525-15.426-91.209-24.135-138.342-25.952C243.655-263.525,243.311-251.174,251.29-250.865L251.29-250.865z"/>
			</g>
		</g>
		<g>
			<g>
				<path fill="#0A24A5" d="M198.239-251.707c92.396,3.56,182.24,36.754,255.348,92.856C531.997-98.68,586.846-12.826,609.887,82.98
					c12.021,49.98,15.434,101.9,9.898,153.049c-5.305,49.031-20.324,95.555-39.24,140.945
					c-34.506,82.807-82.227,167.025-77.693,259.489c4.482,91.498,60.689,167.914,110.021,241.151
					c51.377,76.276,102.748,161.375,81.279,257.102c-20.559,91.656-89.959,170.734-166.295,222.675
					c-75.195,51.158-164.635,81.437-255.432,87.033c-44.363,2.733-89.178-0.253-132.596-9.729
					c-45.412-9.922-87.562-27.653-128.914-48.418c-75.049-37.685-156.404-89.333-244.242-81.382
					c-97.932,8.864-151.842,94.34-220.029,153.259c-62.84,54.294-146.424,77.801-228.674,72.109
					c-81.021-5.598-161.101-39.593-216.167-99.789c-66.181-72.339-87.486-176.621-163.981-240.912
					c-66.514-55.903-155.569-68.672-239.559-75.352c-46.374-3.682-92.914-5.594-139.085-11.458
					c-54.268-6.89-107.928-18.532-160.179-34.569c-51.619-15.85-103.508-35.098-150.576-61.67
					c-47.534-26.839-84.195-63.389-107.638-112.861c-23.636-49.888-37.268-105.344-50.088-158.841
					c-12.451-51.95-21.827-104.868-24.141-158.328c-4.34-99.979,20.35-195.277,73.94-280.095
					c49.986-79.11,118.185-145.209,189.351-205.381c34.515-29.191,70.081-57.117,105.81-84.809
					c6.298-4.879-2.366-13.707-8.627-8.854c-144.888,112.274-304.662,239.486-356.292,423.276
					c-29.024,103.319-17.064,212.15,7.384,314.96c12.488,52.519,26.076,106.342,48.024,155.82
					c21.81,49.161,55.411,88.283,101.086,116.924c43.819,27.477,93.43,46.837,142.319,63.354
					c52.093,17.61,105.694,30.719,160.05,39.264c94.599,14.872,192.478,9.338,285.69,32.696
					c44.245,11.096,86.871,29.867,120.76,60.812c38.85,35.468,63.167,82.789,87.632,128.488c22.322,41.688,45.635,83.532,79.686,117
					c28.229,27.75,61.926,49.511,98.341,65.062c74.09,31.642,160.021,37.519,237.619,14.893
					c38.77-11.306,75.193-29.804,106.656-55.116c38.135-30.685,68.871-69.187,105.357-101.648
					c37.488-33.352,81.432-56.74,132.664-56.671c46.199,0.059,90.717,16.805,131.988,35.986
					c42.672,19.841,83.547,43.306,126.467,62.639c40.467,18.225,82.742,30.913,126.729,37.426
					c178.541,26.423,371.879-47.754,479.24-194.11c28.312-38.603,51.076-82.743,59.627-130.073
					c8.197-45.398,1.719-90.927-14.906-133.654c-34.082-87.565-100.506-157.373-143.162-240.381
					c-21.846-42.507-36.291-88.448-34.922-136.64c1.354-47.605,16.416-93.458,34.236-137.264
					c18.373-45.161,40.111-88.951,56.848-134.779c16.803-45.982,26.812-93.897,28.396-142.831
					c3.244-100.484-26.941-202.271-86.814-283.327c-54.318-73.53-131.766-128.99-218.271-158.957
					c-42.119-14.595-86.285-22.829-130.863-24.544C190.604-264.361,190.262-252.011,198.239-251.707L198.239-251.707z"/>
			</g>
		</g>
		<g>
			<g>
				<path fill="#0A24A5" d="M145.186-252.542c87.498,3.378,172.436,34.971,241.504,88.277
					c73.637,56.836,124.953,137.969,146.332,228.177c10.932,46.133,14.115,94.02,9.15,141.197
					c-4.904,46.588-19.031,90.765-36.982,133.887c-32.51,78.116-77.561,157.495-73.361,244.708
					c4.125,85.75,56.449,157.483,102.729,226.129c48.484,71.917,97.557,152.064,77.752,242.478
					c-18.959,86.554-84.562,161.371-156.5,210.38c-70.496,48.024-154.273,76.521-239.414,82.023
					c-42.783,2.771-85.996-0.159-127.836-9.447c-41.906-9.298-80.859-25.732-119.053-44.896
					c-70.699-35.466-147.387-84.309-230.115-77.107c-94.193,8.203-145.043,90.969-211.049,146.879
					c-58.953,49.922-137.395,71.016-213.8,65.44c-76.733-5.602-152.419-38.305-203.987-95.877
					c-61.372-68.521-81.626-166.289-154.106-226.141c-63.066-52.084-146.889-63.784-226.003-70.002
					c-44.213-3.479-88.572-5.342-132.574-11.069c-51.957-6.767-103.312-18.204-153.264-33.873
					c-47.343-14.852-94.922-32.721-138.054-57.37c-44.001-25.146-77.753-59.32-99.531-105.194
					c-21.909-46.167-34.557-97.464-46.53-146.957c-12.114-50.12-21.253-101.175-23.408-152.786
					c-3.939-94.206,19.669-183.915,70.336-263.693c46.892-73.83,110.597-135.623,177.104-191.899
					c32.7-27.668,66.396-54.136,100.261-80.375c6.295-4.876-2.369-13.707-8.628-8.857
					c-136.486,105.763-286.926,225.566-335.699,398.633c-27.515,97.64-16.191,200.538,6.965,297.695
					c11.773,49.376,24.571,99.929,45.184,146.468c19.957,45.046,50.449,81.332,91.959,108.125
					c40.877,26.378,87.582,44.743,133.474,60.496c50.037,17.175,101.574,29.946,153.866,38.224
					c88.583,14.021,180.181,8.973,267.573,30.317c41.918,10.243,82.428,27.541,114.785,56.509
					c37.018,33.144,60.144,77.799,83.229,120.931c20.896,39.034,42.547,78.325,74.115,109.959
					c26.511,26.56,58.373,47.465,92.824,62.38c69.654,30.159,150.403,36.194,223.68,15.409
					c36.326-10.304,70.562-27.272,100.246-50.6c37.338-29.341,66.961-66.916,102.396-98.32
					c34.939-30.957,75.951-52.723,123.592-52.769c43.238-0.034,84.895,15.414,123.555,33.306
					c40.545,18.756,79.32,41.077,120.061,59.435c38.516,17.354,78.73,29.435,120.619,35.554
					c168.199,24.579,350.125-45.425,451.182-183.311c27.299-37.244,48.922-79.826,56.652-125.584
					c7.137-42.314,0.504-84.709-15.105-124.359c-32.252-81.968-94.424-147.458-134.416-225.301
					c-20.332-39.588-33.908-82.384-32.865-127.265c1.047-45.228,15.334-88.829,32.262-130.429
					c17.227-42.332,37.578-83.392,53.324-126.315c16.236-44.277,25.793-90.418,27.088-137.564
					c2.6-94.649-26.305-190.385-83.043-266.452c-51.057-68.452-123.414-120.164-204.197-148.233
					c-39.877-13.86-81.697-21.694-123.918-23.321C137.555-265.201,137.211-252.85,145.186-252.542L145.186-252.542z"/>
			</g>
		</g>
		<g>
			<g>
				<path fill="#0A24A5" d="M92.137-253.379c82.795,3.227,163.316,33.313,228.33,84.24
					c68.705,53.819,116.324,130.038,135.889,214.82c10.072,43.671,12.754,88.987,7.66,133.552
					c-5.033,44.032-18.967,85.701-36.115,126.427c-30.867,73.309-72.615,148.406-66.789,230.468
					c5.68,79.974,55.275,146.604,98.48,210.892c45.684,67.965,90.227,143.614,69.551,228.577
					c-19.639,80.704-81.492,149.905-149.531,195.181c-66.889,44.515-146.088,70.482-226.344,74.646
					c-39.738,2.062-79.795-1.134-118.531-10.188c-39.273-9.184-75.678-25.126-111.51-43.23
					c-65.482-33.068-136.678-77.365-213.338-70.173c-86.887,8.153-134.496,84.196-195.209,136.313
					c-55.4,47.558-129.016,67.985-201.306,62.906c-71.84-5.048-142.776-35.406-191.3-89.065
					c-57.931-64.076-76.863-155.84-144.49-212.366c-58.619-48.992-136.748-60.446-210.652-66.384
					c-41.562-3.336-83.28-5.017-124.66-10.283c-48.392-6.152-96.229-16.635-142.797-31.029
					c-45.208-13.974-90.666-30.896-131.871-54.27c-42.188-23.931-74.315-56.504-94.933-100.496
					c-20.1-42.896-31.856-90.358-42.96-136.242c-11.458-47.312-20.09-95.517-22.067-144.251
					c-3.581-88.22,18.634-172.191,66.106-246.869c43.918-69.093,103.541-126.94,165.782-179.63
					c30.778-26.052,62.502-50.972,94.386-75.675c6.295-4.882-2.369-13.709-8.63-8.856
					c-128.351,99.463-269.887,212.213-315.417,375.12c-25.583,91.514-14.902,187.863,6.765,278.884
					c10.899,45.771,22.83,92.545,41.678,135.775c18.409,42.222,46.527,76.705,85.195,102.062
					c39.45,25.867,84.819,43.633,129.344,58.803c46.211,15.746,93.786,27.476,142.036,35.145
					c84.021,13.352,170.992,8.375,253.812,29.078c38.442,9.606,75.68,25.746,105.347,52.386
					c35.136,31.557,56.939,73.991,78.887,114.972c19.688,36.759,40.265,73.646,70.247,103.186
					c24.814,24.447,54.408,43.659,86.401,57.465c65.641,28.319,141.875,33.748,210.792,13.875
					c33.652-9.704,65.383-25.489,92.918-47.128c34.904-27.423,62.666-62.479,95.721-91.913
					c32.193-28.665,70.02-49.272,114.029-49.906c41.105-0.582,80.785,14.005,117.535,30.959
					c37.457,17.288,73.291,37.837,110.836,54.948c35.598,16.231,72.715,27.853,111.459,33.848
					c158.252,24.518,329.686-39.812,426.084-168.835c25.398-33.992,46.018-72.982,54.186-114.817
					c7.803-39.982,2.941-80.388-11.348-118.307c-29.158-77.354-87.242-138.981-125.555-211.462
					c-19.988-37.824-33.846-78.746-33.248-121.936c0.59-42.406,13.777-83.369,29.549-122.394
					c16.033-39.69,35.115-78.131,50.006-118.278c15.518-41.846,24.818-85.39,26.203-130.006
					c2.752-88.877-24.111-178.831-77.074-250.496c-47.768-64.639-115.809-113.527-191.762-140.14
					c-37.768-13.24-77.393-20.699-117.416-22.255C84.504-266.041,84.163-253.69,92.137-253.379L92.137-253.379z"/>
			</g>
		</g>
		<g>
			<g>
				<path fill="#0A24A5" d="M39.084-254.22c162.246,6.37,303.975,121.979,340.143,279.699c9.287,40.513,11.73,82.509,7.066,123.849
					c-4.59,40.717-17.359,79.296-33.164,116.965c-28.705,68.427-67.855,138.354-63.18,214.876
					c4.6,75.263,50.885,137.968,91.521,198.354c42.285,62.835,84.361,132.985,66.297,211.766
					c-17.496,76.261-75.842,141.905-139.85,184.559c-62.223,41.463-135.865,65.819-210.549,69.868
					c-37.27,2.024-74.834-0.861-111.178-9.296c-36.932-8.568-71.145-23.522-104.824-40.537
					c-61.586-31.125-128.484-72.654-200.592-65.503c-80.477,7.982-124.889,78.455-181.119,126.941
					c-51.996,44.837-121.107,64.006-189.07,59.098c-66.377-4.793-131.91-32.818-176.995-82.159
					c-54.103-59.192-71.8-144.084-133.53-197.396c-54.244-46.847-127.384-58.215-196.646-63.928
					c-38.173-3.148-76.503-4.636-114.541-9.249c-45.573-5.524-90.637-15.121-134.523-28.458
					c-41.946-12.744-83.967-28.285-122.445-49.367c-40.903-22.417-72.525-53.012-92.546-95.336
					c-19.002-40.167-29.997-84.74-40.438-127.771c-10.63-43.812-18.676-88.45-20.625-133.578
					c-3.589-82.993,17.074-161.938,61.781-232.19c40.952-64.35,96.48-118.251,154.458-167.362
					c28.856-24.448,58.612-47.806,88.511-70.986c6.296-4.877-2.368-13.703-8.63-8.851
					c-119.787,92.827-251.759,197.972-294.641,349.836c-24.251,85.883-14.278,176.373,6.075,261.853
					c10.204,42.854,21.365,86.646,39.047,127.118c17.793,40.711,45.25,73.438,82.829,97.384
					c36.167,23.048,77.354,39.182,117.846,52.975c43.497,14.809,88.263,25.816,133.676,32.991
					c78.441,12.391,159.675,7.704,236.948,27.194c36.984,9.332,72.537,25.176,100.581,51.399
					c31.512,29.456,51.278,68.399,71.366,105.885c18.295,34.138,37.543,68.322,65.462,95.695
					c23.307,22.865,51.097,40.817,81.12,53.67c60.728,25.998,130.992,31.156,194.804,13.244
					c32.123-9.015,62.438-23.948,88.689-44.537c32.082-25.17,57.688-57.264,87.877-84.481
					c30.875-27.829,67.064-47.902,109.568-48.09c38.32-0.172,75.244,13.611,109.475,29.514
					c35.268,16.395,69.047,35.781,104.516,51.769c33.43,15.063,68.312,25.623,104.643,31.04
					c147.375,21.993,306.631-38.547,396.193-158.613c23.963-32.113,43.326-68.991,50.785-108.562
					c7.102-37.689,2.098-75.617-11.562-111.217c-27.662-72.084-81.971-129.604-117.51-197.493
					c-18.439-35.215-31.041-73.377-30.178-113.507c0.854-39.712,13.35-77.974,28.199-114.505
					c15.07-37.078,32.896-73.033,46.719-110.623c14.252-38.793,22.707-79.224,23.912-120.541
					c2.42-83.344-22.879-167.515-72.709-234.593c-44.68-60.139-108.137-105.553-178.922-130.371
					c-35.305-12.376-72.361-19.326-109.773-20.792C31.456-266.883,31.11-254.527,39.084-254.22L39.084-254.22z"/>
			</g>
		</g>
		<g>
			<g>
				<path fill="#0A24A5" d="M-13.964-255.052c150.922,5.979,282.627,113.535,316.049,260.334
					c8.656,38.02,10.814,77.411,6.256,116.167c-4.469,37.958-16.641,73.892-31.453,108.984
					c-26.551,62.9-62.145,127.303-57.98,197.653c4.123,69.764,46.748,127.976,84.445,183.943
					c39.936,59.277,79.781,125.326,61.912,199.652c-16.869,70.173-70.666,130.39-129.768,169.705
					c-58.029,38.604-126.807,61.224-196.439,64.761c-34.459,1.75-69.17-0.986-102.752-8.85
					c-34.713-8.126-66.816-22.348-98.467-38.391c-57.137-28.961-119.273-67.056-186.186-59.968
					c-74.881,7.93-116.025,74.021-168.637,118.949c-48.244,41.2-112.465,58.634-175.22,53.895
					c-62.024-4.688-123.109-31.136-164.855-77.628c-49.808-55.462-66.349-134.455-124.465-183.493
					c-50.632-42.72-118.147-53.072-182.248-58.332c-35.653-2.919-71.443-4.321-106.967-8.679
					c-41.888-5.134-83.312-13.98-123.666-26.229c-77.084-23.409-161.489-55.365-198.743-131.887
					c-18.436-37.856-28.824-80.191-38.729-120.947c-9.799-40.317-17.245-81.384-19.19-122.894
					c-3.615-77.077,15.175-150.562,56.479-215.981c38.402-60.829,90.854-111.615,145.568-157.864
					c26.482-22.393,53.771-43.81,81.18-65.057c6.3-4.881-2.369-13.706-8.625-8.857c-111.674,86.542-234.704,184.622-274.359,326.33
					c-22.314,79.748-13.024,163.708,5.87,243.035c9.67,40.601,20.225,82.185,37.291,120.396c16.528,37,41.893,66.693,76.137,88.539
					c33.392,21.302,71.405,36.233,108.783,49.034c40.408,13.839,82.023,24.131,124.229,30.855
					c72.421,11.534,147.3,7.427,218.764,24.796c34.733,8.439,68.299,22.881,94.819,47.203
					c29.971,27.494,48.604,64.164,67.532,99.482c16.892,31.505,34.628,63.083,60.272,88.452
					c21.655,21.426,47.53,38.288,75.503,50.365c56.646,24.443,122.219,29.435,181.848,12.806
					c29.516-8.233,57.359-21.82,81.625-40.521c30.291-23.348,54.283-53.499,82.518-79.082
					c28.295-25.636,61.443-44.563,100.516-45.211c36.086-0.589,70.93,12.339,103.141,27.286
					c33.148,15.382,64.873,33.632,98.219,48.607c30.836,13.855,63.039,23.531,96.531,28.538
					c137.965,20.631,287.215-36.424,370.332-149.428c21.752-29.575,39.318-63.42,46.053-99.677
					c6.406-34.51,2.074-69.268-10.271-101.941c-25.6-67.724-76.598-121.595-109.893-185.229
					c-17.332-33.118-29.002-68.954-27.945-106.685c1.035-36.993,12.928-72.604,26.836-106.605
					c13.869-33.903,30.117-66.822,42.764-101.218c13.355-36.307,21.244-74.179,22.301-112.854
					c2.119-77.487-21.498-155.736-67.877-218.05c-41.992-56.42-101.703-98.902-168.291-121.835
					C54.45-259.815,20.584-266.05-13.613-267.403C-21.597-267.725-21.937-255.374-13.964-255.052L-13.964-255.052z"/>
			</g>
		</g>
		<g>
			<g>
				<path fill="#0A24A5" d="M-67.013-255.895c139.691,5.609,261.422,105.236,292.02,241.208
					c16.143,71.752,4.422,141.259-23.953,208.279c-24.645,58.22-57.484,118.021-53.084,183.194
					c4.33,64.18,43.551,117.691,78.283,169.262c36.203,53.755,72.738,113.841,57.6,181.352
					c-14.74,65.751-64.967,122.325-120.049,159.055C110.43,922.051,47.241,942.943-16.835,946.44
					c-67.041,3.662-127.988-13.649-187.191-43.667c-52.422-26.581-109.482-61.532-170.857-55.549
					c-69.939,6.815-108.186,67.853-157.123,109.847c-44.414,38.1-103.455,54.358-161.368,50.194
					c-57.671-4.148-114.531-28.737-153.244-72.028c-46.333-51.819-61.647-125.561-116.495-170.777
					c-46.896-38.657-108.992-47.938-167.839-52.73c-32.522-2.653-65.17-3.954-97.578-7.885
					c-39.032-4.738-77.624-12.988-115.213-24.415c-70.712-21.487-148.405-50.816-182.848-120.857
					c-16.934-34.429-26.424-72.925-35.549-110.029c-9.39-38.197-16.578-77.129-18.37-116.497
					c-3.234-71.096,14.135-138.819,52.246-199.15c35.433-56.082,83.805-102.927,134.248-145.597
					c24.562-20.772,49.878-40.645,75.308-60.359c6.296-4.877-2.366-13.711-8.626-8.856
					c-103.103,79.908-216.572,170.379-253.576,301.04c-20.987,74.117-12.416,152.241,5.174,226.005
					c8.818,36.989,18.471,74.77,33.753,109.689c15.009,34.289,38.059,62.096,69.517,82.57
					c30.71,19.987,65.857,33.891,100.396,45.836c36.953,12.785,75.004,22.389,113.617,28.722
					c67.66,11.098,137.653,7.202,204.492,23.183c31.855,7.623,62.751,20.573,87.329,42.573
					c28.45,25.472,45.967,59.965,63.718,93.085c15.73,29.348,32.261,58.766,56.225,82.335
					c19.782,19.457,43.293,34.849,68.745,45.937c52.557,22.894,113.438,27.712,168.883,12.363
					c26.885-7.442,52.332-19.671,74.564-36.51c28.035-21.233,50.193-48.868,75.959-72.583
					c26.967-24.809,58.465-43.243,96.062-43.434c33.311-0.169,65.375,11.97,95.088,25.857
					c30.416,14.211,59.576,30.953,90.244,44.646c29.184,13.032,59.662,21.971,91.361,26.479
					c127.094,18.065,264.137-35.13,340.43-139.201c20.309-27.695,36.598-59.43,42.619-93.402
					c5.674-31.981,1.342-64.035-10.215-94.208c-23.689-61.875-70.186-111.291-100.828-169.459
					c-16.197-30.763-27.143-64.062-26.166-99.158c0.955-34.178,11.939-67.072,24.791-98.494
					c13.004-31.794,28.281-62.669,40.047-94.964c12.262-33.674,19.375-68.842,20.184-104.665
					c3.15-140.169-85.189-266.766-217.854-312.911c-30.221-10.52-61.895-16.383-93.887-17.666
					C-74.65-268.563-74.99-256.214-67.013-255.895L-67.013-255.895z"/>
			</g>
		</g>
		<g>
			<g>
				<path fill="#0A24A5" d="M-120.064-256.732c128.369,5.224,240.086,96.789,267.939,221.846
					c14.672,65.884,3.729,129.387-22.318,190.852C102.971,209.262,72.999,264.021,76.922,323.7
					c3.865,58.713,39.424,107.688,71.213,154.851c33.646,49.922,67.922,105.564,53.455,168.345
					c-13.895,60.284-60.266,112.12-110.986,145.626C41.225,825.15-17.208,844.146-76.341,846.928
					c-61.326,2.879-116.52-13.355-170.609-40.825c-48.037-24.406-100.348-56.09-156.602-50.38
					c-62.434,6.334-97.51,59.791-140.707,98.096c-40.76,36.143-94.596,52.335-148.675,49.028
					c-52.793-3.228-105.091-25.072-141.096-64.142c-43.289-46.982-57.166-114.767-106.589-157.019
					c-42.641-36.457-99.562-45.675-153.842-50.258c-29.889-2.521-59.9-3.657-89.701-7.142
					c-35.466-4.143-70.546-11.438-104.755-21.589c-64.646-19.193-137.732-45.735-170.167-109.186
					c-16.066-31.432-24.817-66.92-33.311-101.008c-8.641-34.687-15.383-70.022-17.341-105.78
					c-3.619-65.995,11.67-128.88,46.832-185.093c32.201-51.486,76.343-94.509,122.443-133.645
					c23.102-19.612,46.939-38.333,70.89-56.896c6.295-4.878-2.366-13.712-8.631-8.854
					c-94.97,73.602-199.534,157.028-233.303,277.533c-19.043,67.968-11.146,139.576,4.984,207.189
					c15.913,66.734,33.986,136.974,94.833,176.702c28.228,18.431,60.576,31.229,92.349,42.236
					c34.219,11.848,69.468,20.742,105.235,26.571c62.09,10.112,126.335,6.544,187.645,21.306
					c29.717,7.146,58.458,19.387,81.104,40.254c25.745,23.712,41.581,55.387,57.892,85.761
					c14.534,27.062,30.001,54.015,52.35,75.513c18.432,17.738,40.236,31.666,63.788,41.676
					c48.209,20.49,103.936,24.492,154.522,10.203c24.738-6.994,48.133-18.373,68.525-34.034
					c25.537-19.611,45.836-44.87,69.49-66.531c24.809-22.722,53.896-39.358,88.385-39.243c30.611,0.104,60.061,11.469,87.33,24.3
					c54.461,25.617,104.412,55.983,165.148,64.713c116.658,16.755,242.432-31.668,312.951-126.86
					c37.758-50.956,53.963-111.93,31.219-172.515c-21.598-57.521-64.832-103.266-93.203-157.189
					c-14.775-28.082-24.822-58.463-23.994-90.499c0.818-31.465,10.947-61.768,22.771-90.683
					c12.191-29.809,26.562-58.735,37.447-89.063c10.996-30.646,17.27-62.685,17.912-95.225
					C169.737-94.435,88.446-210.54-33.457-252.882c-27.762-9.644-56.857-15.003-86.246-16.2
					C-127.699-269.406-128.037-257.056-120.064-256.732L-120.064-256.732z"/>
			</g>
		</g>
		<g>
			<g>
				<path fill="#0A24A5" d="M-173.115-257.567C-55.349-252.71,46.854-168.151,71.17-53.086
					C83.768,6.532,73.309,63.693,49.715,119.141C28.752,168.403,1.356,219.074,6.163,274.285
					c9.312,106.991,141.256,180.779,112.664,294.038c-13.939,55.219-57.199,102.151-104.449,132.203
					c-45.76,29.104-99.598,45.545-153.828,46.979c-55.188,1.458-104.176-14.458-152.689-39.235
					c-43.539-22.247-91.205-50.194-142.189-43.809c-58.012,7.264-89.496,59.04-130.83,93.604
					c-37,30.933-86.139,43.664-133.778,39.917c-48.385-3.803-95.912-24.948-127.862-61.78
					c-37.823-43.6-50.879-104.466-96.783-141.851c-38.722-31.532-89.65-39.461-138.062-43.534
					c-60.726-5.105-119.946-9.059-178.693-26.733c-59.523-17.912-125.161-42.43-154.108-101.383
					c-13.587-27.677-21.278-58.575-28.735-88.364c-7.979-31.888-14.198-64.375-16.007-97.257
					c-3.335-60.605,11.026-118.368,43.578-169.812c29.492-46.608,69.685-85.562,111.604-121.06
					c20.723-17.548,42.092-34.324,63.562-50.963c6.296-4.885-2.371-13.71-8.634-8.854
					c-87.29,67.652-183.579,144.577-213.505,255.809c-16.698,62.055-9.082,127.207,5.784,188.728
					c14.355,59.413,30.548,121.902,84.219,157.916c25.518,17.116,55.009,28.866,83.908,39.014
					c31.448,11.042,63.864,19.34,96.769,24.788c57.197,9.471,116.483,6.013,172.948,19.755
					c26.906,6.546,52.852,17.624,73.353,36.539c22.771,21.019,36.992,48.896,51.418,75.807
					c13.242,24.697,27.101,49.495,47.208,69.402c16.619,16.452,36.433,29.453,57.856,38.844
					c43.982,19.284,94.984,23.449,141.492,10.826c22.691-6.159,44.199-16.358,63.002-30.464
					c23.289-17.482,41.744-40.239,62.938-60.001c22.129-20.64,47.748-36.589,78.842-37.446c28.348-0.775,55.758,9.5,81.021,21.263
					c50.156,23.363,95.941,51.592,151.768,59.738c105.629,15.409,219.176-27.736,284.236-112.909
					c35.434-46.391,51.857-102.939,31.248-159.019c-19.541-53.169-59.445-95.249-85.57-144.932
					C26.139,313.955,17,285.832,18.12,256.066c1.043-28.013,10.141-54.969,20.67-80.734C61.536,119.69,88.268,67.838,89.297,6.375
					C91.268-111.66,16.139-217.781-95.863-255.77c-24.795-8.408-50.705-13.054-76.877-14.136
					C-180.748-270.249-181.087-257.897-173.115-257.567L-173.115-257.567z"/>
			</g>
		</g>
		<g>
			<g>
				<path fill="#0A24A5" d="M-226.169-258.409c106.648,4.495,198.551,81.105,220.229,185.303
					C5.35-18.815-4.943,32.949-26.533,83.251C-45.314,127-69.126,172.12-64.892,221.168
					c8.391,97.146,128.959,164.494,101.191,267.441c-13.016,48.253-50.721,89.332-92.092,116.01
					c-40.9,26.371-89.086,41.46-137.738,43.136c-50.838,1.758-95.834-12.795-140.5-35.638
					c-39.164-20.025-81.898-44.823-127.723-39.275c-51.182,6.203-79.74,50.778-115.631,81.997
					c-33.711,29.333-78.389,41.92-122.638,38.632c-44.584-3.302-88.379-22.972-117.315-57.346
					c-33.222-39.453-45.26-93.501-86.491-126.822c-35.59-28.766-82.498-35.636-126.844-39.237
					c-54.787-4.453-108.188-8.404-161.089-24.607c-52.552-16.095-110.294-37.823-136.149-89.754
					c-12.898-25.913-20.033-55.082-26.935-83.059c-7.025-28.481-12.446-57.512-13.879-86.863
					c-2.615-53.411,10.048-104.287,38.46-149.784c26.57-42.56,63.148-78.042,101.256-110.34
					c18.804-15.941,38.204-31.168,57.687-46.275c6.296-4.876-2.369-13.704-8.627-8.856
					c-78.727,61.024-165.456,130.334-192.742,230.53c-15.247,55.98-8.555,114.812,4.778,170.377
					c12.566,52.393,26.646,108.481,72.899,141.448c22.51,16.04,49.07,26.817,74.964,36.167
					c28.629,10.35,58.174,18.191,88.195,23.386c51.324,8.874,104.297,6.127,155.189,17.376
					c25.209,5.575,49.971,15.307,69.363,32.709c21.211,19.039,34.323,44.662,47.583,69.398c22.84,42.615,49.668,78.107,95.128,98.08
					c39.921,17.536,86.258,21.3,128.462,9.775c20.279-5.541,39.51-14.619,56.365-27.18c21.443-15.973,38.312-36.914,57.82-54.999
					c20.607-19.109,44.502-33.366,73.416-33.249c25.607,0.105,50.199,9.851,72.947,20.662c45.064,21.42,86.5,46.104,136.918,52.898
					c95.936,12.937,199.014-27.333,256.676-105.729c30.129-40.968,43.955-90.257,26.562-139.249
					c-17.338-48.831-54.055-87.272-77.922-132.673c-12.309-23.404-20.512-48.631-19.553-75.319
					c0.939-25.955,9.535-50.854,19.357-74.679C-12.83,80.011,10.868,33.101,11.387-22.474
					c0.994-105.904-66.436-200.793-166.83-235.226c-22.68-7.776-46.396-12.051-70.359-13.062
					C-233.802-271.093-234.138-258.738-226.169-258.409L-226.169-258.409z"/>
			</g>
		</g>
	</g>
</g>
</svg>
