<?xml version="1.0" encoding="utf-8"?>
<!-- Generator: Adobe Illustrator 16.0.0, SVG Export Plug-In . SVG Version: 6.00 Build 0)  -->
<!DOCTYPE svg PUBLIC "-//W3C//DTD SVG 1.1//EN" "http://www.w3.org/Graphics/SVG/1.1/DTD/svg11.dtd">
<svg version="1.1" id="Layer_1" xmlns="http://www.w3.org/2000/svg" xmlns:xlink="http://www.w3.org/1999/xlink" x="0px" y="0px"
	 width="500.41px" height="647.955px" viewBox="0 52.955 500.41 647.955" enable-background="new 0 52.955 500.41 647.955"
	 xml:space="preserve">
<g id="Layer_1_1_">
	<g id="_x2014_ÎÓÈ_x5F_1">
		
			<linearGradient id="SVGID_1_" gradientUnits="userSpaceOnUse" x1="6368.3691" y1="-758.0161" x2="6368.3691" y2="-1047.2612" gradientTransform="matrix(-1 0 0 1 6616.002 1460.9082)">
			<stop  offset="0" style="stop-color:#2AFFE2"/>
			<stop  offset="0.2044" style="stop-color:#0BB2BF"/>
			<stop  offset="0.6743" style="stop-color:#7F0CB2"/>
			<stop  offset="1" style="stop-color:#D400AB"/>
		</linearGradient>
		<rect x="-2.572" y="413.646" fill="url(#SVGID_1_)" width="500.41" height="289.245"/>
	</g>
	<g id="Layer_2">
	</g>
</g>
<g id="Layer_2_1_">
	<g opacity="0.4">
		<g>
			<g>
				<path fill="#0A24A5" d="M263.844-27.451c45.675,1.56,90.105,16.082,126.246,40.644c38.819,26.38,65.991,64,77.397,106.019
					c5.939,21.881,7.636,44.623,4.902,67.013c-2.623,21.476-10.021,41.841-19.375,61.722
					c-16.978,36.097-40.491,72.821-38.262,113.125c2.204,39.802,29.909,73.088,54.13,104.94
					c25.458,33.485,50.765,70.789,40.128,112.797c-10.177,40.201-44.546,74.861-82.336,97.641
					c-37.185,22.41-81.417,35.639-126.309,38.089c-21.938,1.199-44.094-0.125-65.56-4.277
					c-22.448-4.343-43.284-12.119-63.727-21.212c-36.858-16.396-76.855-38.919-119.999-35.437
					c-47.979,3.874-74.473,41.153-107.883,66.726c-31.131,23.826-72.528,34.181-113.283,31.684
					c-40.135-2.458-79.812-17.366-107.092-43.783c-32.619-31.586-43.137-77.131-80.827-105.193
					c-32.61-24.279-76.366-29.793-117.535-32.69c-22.858-1.607-45.796-2.444-68.556-5.003c-26.815-3.015-53.331-8.103-79.153-15.126
					c-25.504-6.933-51.146-15.364-74.402-26.997c-23.54-11.773-41.728-27.834-53.335-49.537
					c-11.684-21.838-18.43-46.106-24.768-69.527c-6.152-22.743-10.775-45.912-11.921-69.319
					c-2.145-43.766,10.077-85.512,36.56-122.641c24.674-34.592,58.328-63.505,93.457-89.82
					c17.014-12.744,34.543-24.937,52.155-37.028c2.303-1.583-0.866-4.444-3.158-2.871
					c-71.299,48.941-149.999,104.39-175.407,184.516c-14.271,44.997-8.371,92.393,3.647,137.165
					c6.14,22.866,12.806,46.317,23.594,67.863c10.701,21.363,27.14,38.354,49.548,50.799c21.545,11.967,45.931,20.397,69.968,27.591
					c25.612,7.669,51.962,13.39,78.686,17.116c46.694,6.512,95,4.087,141.017,14.304c21.943,4.872,43.062,13.141,59.863,26.732
					c19.198,15.527,31.227,36.245,43.316,56.249c10.973,18.153,22.418,36.374,39.156,50.947
					c13.812,12.027,30.311,21.48,48.13,28.224c36.396,13.782,78.586,16.342,116.711,6.497c18.969-4.899,36.815-12.918,52.21-23.891
					c18.796-13.398,33.945-30.21,51.93-44.384c18.639-14.691,40.49-24.972,65.961-24.942c22.913,0.025,44.979,7.387,65.441,15.816
					c21.034,8.661,41.182,18.907,62.338,27.346c19.813,7.907,40.543,13.419,62.076,16.243
					c87.715,11.501,182.764-20.704,235.521-84.42c13.924-16.813,25.108-36.017,29.31-56.635c4.013-19.697,0.794-39.468-7.357-57.994
					c-16.789-38.165-49.493-68.602-70.486-104.788c-10.829-18.67-17.991-38.854-17.312-60.021
					c0.668-20.845,8.099-40.932,16.908-60.113c9.055-19.722,19.771-38.842,28.021-58.85c8.259-20.026,13.185-40.879,13.962-62.188
					c1.593-43.749-13.244-88.075-42.69-123.352c-26.669-31.949-64.68-56.058-107.122-69.083c-20.7-6.354-42.393-9.943-64.304-10.688
					C261.053-31.554,260.925-27.551,263.844-27.451L263.844-27.451z"/>
			</g>
		</g>
		<g>
			<g>
				<path fill="#0A24A5" d="M244.43-27.723c43.698,1.492,86.201,15.387,120.779,38.886c37.132,25.235,63.12,61.226,74.031,101.418
					c5.682,20.936,7.305,42.69,4.688,64.115c-2.508,20.543-9.591,40.028-18.537,59.047c-16.254,34.556-38.76,69.708-36.625,108.293
					c2.11,38.11,28.627,69.978,51.817,100.477c24.351,32.026,48.572,67.712,38.4,107.89c-9.735,38.453-42.607,71.609-78.757,93.397
					c-35.571,21.438-77.89,34.098-120.836,36.445c-20.987,1.146-42.182-0.118-62.72-4.091
					c-21.477-4.153-41.411-11.594-60.968-20.291c-35.292-15.702-73.585-37.262-114.896-33.928
					c-45.955,3.708-71.319,39.391-103.321,63.884c-29.773,22.79-69.368,32.686-108.35,30.298
					c-38.387-2.352-76.335-16.61-102.427-41.875c-31.22-30.232-41.282-73.821-77.355-100.68
					c-31.232-23.254-73.128-28.537-112.558-31.312c-21.878-1.54-43.833-2.341-65.613-4.789c-25.656-2.885-51.025-7.753-75.73-14.47
					c-24.398-6.637-48.934-14.701-71.186-25.831c-22.518-11.261-39.908-26.62-51.012-47.376
					c-11.178-20.896-17.631-44.116-23.693-66.522c-5.888-21.761-10.311-43.931-11.408-66.321
					c-2.051-41.873,9.642-81.812,34.978-117.334c23.61-33.102,55.814-60.768,89.431-85.947
					c16.28-12.196,33.059-23.866,49.915-35.437c2.305-1.582-0.866-4.445-3.158-2.873c-68.253,46.854-143.579,99.934-167.903,176.634
					c-13.662,43.081-8.017,88.456,3.489,131.321c5.879,21.894,12.265,44.346,22.595,64.973
					c10.244,20.459,25.996,36.731,47.451,48.649c20.626,11.457,43.973,19.528,66.984,26.416
					c24.52,7.341,49.752,12.816,75.334,16.384c44.682,6.23,90.906,3.911,134.938,13.688c20.982,4.658,41.184,12.564,57.251,25.561
					c18.366,14.856,29.873,34.678,41.44,53.815c10.504,17.38,21.465,34.825,37.49,48.78c13.232,11.521,29.036,20.572,46.105,27.036
					c34.85,13.192,75.249,15.645,111.752,6.216c18.171-4.692,35.268-12.375,50.014-22.888c17.989-12.823,32.489-28.912,49.7-42.477
					c17.819-14.045,38.709-23.876,63.057-23.847c21.911,0.025,43.017,7.062,62.586,15.125c20.134,8.289,39.414,18.097,59.661,26.173
					c18.979,7.573,38.833,12.854,59.461,15.558c83.984,11.009,174.98-19.834,225.496-80.839
					c13.326-16.097,24.038-34.485,28.061-54.224c3.843-18.866,0.767-37.802-7.039-55.551c-16.07-36.535-47.377-65.67-67.473-100.312
					c-10.356-17.855-17.207-37.155-16.559-57.4c0.642-19.942,7.751-39.16,16.18-57.509c8.668-18.874,18.92-37.173,26.818-56.323
					c7.908-19.174,12.622-39.141,13.365-59.541c1.526-41.884-12.677-84.324-40.868-118.101
					c-25.538-30.596-61.938-53.683-102.579-66.157c-19.82-6.082-40.59-9.519-61.567-10.235
					C241.639-31.826,241.512-27.823,244.43-27.723L244.43-27.723z"/>
			</g>
		</g>
		<g>
			<g>
				<path fill="#0A24A5" d="M225.018-27.995c41.72,1.426,82.3,14.692,115.312,37.128c35.445,24.089,60.249,58.447,70.662,96.813
					c5.428,19.989,6.977,40.759,4.478,61.214c-2.396,19.614-9.161,38.218-17.7,56.378c-15.528,33.012-37.026,66.593-34.986,103.457
					c2.015,36.419,27.343,66.867,49.507,96.018c23.239,30.564,46.376,64.631,36.667,102.979
					c-9.293,36.706-40.67,68.358-75.178,89.157c-33.959,20.468-74.357,32.559-115.362,34.796
					c-20.035,1.095-40.272-0.109-59.879-3.901c-20.504-3.968-39.536-11.068-58.209-19.373
					c-33.728-15.001-70.315-35.601-109.792-32.418c-43.931,3.542-68.169,37.626-98.761,61.042
					c-28.42,21.754-66.214,31.194-103.415,28.915c-36.642-2.244-72.859-15.854-97.762-39.969
					c-29.82-28.878-39.434-70.506-73.891-96.163c-29.854-22.229-69.887-27.281-107.578-29.934
					c-20.895-1.474-41.864-2.235-62.67-4.576c-24.496-2.756-48.718-7.404-72.308-13.817c-23.297-6.338-46.723-14.038-67.969-24.663
					c-21.491-10.751-38.087-25.407-48.687-45.221c-10.672-19.949-16.833-42.121-22.621-63.513
					c-5.62-20.778-9.846-41.942-10.893-63.324c-1.959-39.98,9.199-78.11,33.392-112.025c22.546-31.612,53.302-58.029,85.402-82.075
					c15.552-11.65,31.576-22.796,47.676-33.849c2.306-1.582-0.864-4.444-3.157-2.871c-65.207,44.76-137.162,95.472-160.397,168.748
					c-13.055,41.163-7.663,84.521,3.332,125.477c5.615,20.921,11.717,42.372,21.589,62.081c9.792,19.554,24.853,35.108,45.36,46.5
					c19.706,10.947,42.017,18.659,64.004,25.242c23.428,7.014,47.533,12.243,71.979,15.651
					c42.668,5.948,86.812,3.735,128.857,13.069c20.025,4.447,39.305,11.986,54.641,24.392
					c17.536,14.185,28.521,33.109,39.565,51.383c10.037,16.608,20.512,33.274,35.824,46.608
					c12.653,11.018,27.762,19.669,44.083,25.848c33.304,12.606,71.91,14.947,106.791,5.938c17.376-4.487,33.717-11.83,47.818-21.883
					c17.183-12.245,31.029-27.613,47.47-40.571c16.998-13.398,36.927-22.78,60.155-22.755c20.911,0.026,41.053,6.741,59.729,14.433
					c19.229,7.918,37.646,17.286,56.985,25.002c18.146,7.237,37.122,12.287,56.844,14.871
					c80.254,10.521,167.203-18.962,215.471-77.255c12.735-15.38,22.97-32.953,26.814-51.814c3.675-18.034,0.739-36.137-6.725-53.104
					c-15.351-34.903-45.256-62.739-64.454-95.835c-9.885-17.04-16.422-35.458-15.801-54.779c0.61-19.039,7.4-37.388,15.447-54.91
					c8.279-18.024,18.072-35.506,25.617-53.795c7.555-18.318,12.061-37.398,12.771-56.895c1.459-40.021-12.112-80.573-39.05-112.85
					c-24.408-29.244-59.191-51.307-98.039-63.231c-18.938-5.811-38.788-9.093-58.833-9.777
					C222.224-32.098,222.099-28.094,225.018-27.995L225.018-27.995z"/>
			</g>
		</g>
		<g>
			<g>
				<path fill="#0A24A5" d="M205.604-28.265c39.743,1.355,78.398,13.997,109.844,35.37c33.756,22.943,57.381,55.669,67.298,92.208
					c5.17,19.042,6.642,38.829,4.264,58.314c-2.282,18.684-8.729,36.407-16.866,53.706c-14.803,31.473-35.291,63.482-33.349,98.623
					c1.923,34.73,26.062,63.759,47.195,91.557c22.133,29.106,44.185,61.553,34.938,98.072
					c-8.853,34.954-38.733,65.105-71.597,84.914c-32.351,19.497-70.832,31.017-109.892,33.15
					c-19.084,1.043-38.362-0.103-57.041-3.715c-19.531-3.778-37.662-10.541-55.449-18.452
					c-32.161-14.306-67.048-33.942-104.688-30.911c-41.91,3.378-65.019,35.868-94.203,58.205
					c-27.061,20.716-63.055,29.7-98.479,27.53c-34.894-2.137-69.383-15.103-93.099-38.065
					c-28.42-27.521-37.576-67.194-70.418-91.646c-28.476-21.201-66.646-26.027-102.6-28.559c-19.914-1.402-39.9-2.13-59.727-4.359
					c-23.338-2.624-46.412-7.053-68.886-13.165c-22.196-6.036-44.511-13.372-64.752-23.495
					c-20.468-10.238-36.268-24.194-46.36-43.062c-10.168-19.005-16.034-40.128-21.549-60.509
					c-5.354-19.793-9.383-39.957-10.377-60.323c-1.867-38.087,8.762-74.408,31.807-106.72c21.484-30.119,50.791-55.29,81.375-78.199
					c14.82-11.104,30.096-21.726,45.438-32.258c2.306-1.583-0.866-4.444-3.156-2.872c-62.16,42.669-130.742,91.013-152.896,160.864
					c-12.445,39.246-7.31,80.583,3.174,119.633c5.358,19.946,11.176,40.398,20.587,59.188c9.339,18.65,23.707,33.486,43.27,44.352
					c18.787,10.437,40.06,17.791,61.021,24.066c22.339,6.686,45.323,11.673,68.627,14.92c40.656,5.668,82.719,3.56,122.781,12.454
					c19.066,4.232,37.427,11.408,52.028,23.221c16.705,13.512,27.17,31.542,37.689,48.95c9.571,15.833,19.561,31.725,34.159,44.438
					c12.071,10.511,26.485,18.764,42.059,24.657c31.755,12.02,68.573,14.251,101.834,5.659c16.578-4.284,32.167-11.287,45.62-20.878
					c16.376-11.673,29.574-26.317,45.241-38.667c16.18-12.75,35.146-21.683,57.254-21.658c19.91,0.026,39.087,6.418,56.871,13.742
					c18.325,7.548,35.877,16.476,54.31,23.826c17.312,6.906,35.409,11.722,54.224,14.188
					c76.524,10.031,159.424-18.096,205.448-73.674c12.141-14.663,21.898-31.421,25.563-49.403
					c3.505-17.205,0.713-34.472-6.405-50.66c-14.632-33.275-43.139-59.806-61.438-91.355c-9.411-16.226-15.637-33.762-15.045-52.156
					c0.582-18.141,7.051-35.616,14.717-52.308c7.892-17.18,17.226-33.838,24.412-51.268c7.205-17.468,11.498-35.661,12.179-54.248
					c1.391-38.165-11.556-76.817-37.23-107.597c-23.266-27.895-56.453-48.938-93.497-60.307c-18.06-5.542-36.983-8.67-56.098-9.322
					C202.812-32.37,202.687-28.366,205.604-28.265L205.604-28.265z"/>
			</g>
		</g>
		<g>
			<g>
				<path fill="#0A24A5" d="M186.19-28.538c37.767,1.289,74.496,13.305,104.377,33.616c32.068,21.796,54.509,52.892,63.932,87.602
					c4.912,18.096,6.31,36.897,4.049,55.414c-2.168,17.756-8.3,34.599-16.031,51.034c-14.076,29.931-33.558,60.37-31.709,93.79
					c1.829,33.04,24.776,60.649,44.883,87.096c21.021,27.646,41.99,58.474,33.209,93.164c-8.409,33.208-36.797,61.854-68.016,80.668
					c-30.74,18.526-67.304,29.479-104.418,31.507c-18.137,0.989-36.455-0.098-54.201-3.529
					c-18.561-3.592-35.789-10.017-52.692-17.535c-30.593-13.607-63.776-32.283-99.583-29.399
					c-39.887,3.212-61.865,34.104-89.641,55.363c-25.707,19.677-59.896,28.205-93.548,26.145
					c-33.146-2.029-65.905-14.345-88.434-36.161c-27.02-26.163-35.724-63.879-66.947-87.128
					c-27.101-20.176-63.408-24.77-97.623-27.181c-18.933-1.335-37.933-2.025-56.783-4.146c-22.178-2.495-44.106-6.704-65.462-12.513
					c-21.093-5.737-42.299-12.708-61.533-22.328c-19.445-9.727-34.45-22.979-44.039-40.902
					c-9.661-18.062-15.236-38.136-20.475-57.505c-5.09-18.807-8.918-37.967-9.863-57.323c-1.772-36.195,8.322-70.708,30.225-101.413
					c20.42-28.628,48.274-52.552,77.347-74.327c14.092-10.557,28.61-20.656,43.198-30.669c2.305-1.583-0.867-4.443-3.158-2.872
					c-59.113,40.579-124.323,86.553-145.391,152.982c-11.836,37.328-6.955,76.647,3.02,113.788
					c5.092,18.974,10.631,38.421,19.582,56.297c8.885,17.748,22.564,31.862,41.175,42.203c17.871,9.925,38.104,16.919,58.043,22.889
					c21.244,6.361,43.104,11.103,65.273,14.192c38.643,5.386,78.622,3.379,116.702,11.834c18.108,4.021,35.545,10.833,49.414,22.052
					c15.877,12.841,25.818,29.975,35.816,46.517c9.104,15.061,18.605,30.179,32.493,42.271
					c11.491,10.007,25.213,17.859,40.036,23.468c30.205,11.433,65.232,13.559,96.871,5.384
					c15.782-4.074,30.619-10.745,43.427-19.873c15.565-11.099,28.114-25.022,43.011-36.764
					c15.359-12.104,33.363-20.586,54.352-20.56c18.909,0.02,37.127,6.092,54.018,13.048c17.421,7.176,34.107,15.661,51.632,22.652
					c16.479,6.574,33.7,11.154,51.609,13.502c72.794,9.543,151.644-17.221,195.422-70.09c11.548-13.947,20.828-29.888,24.313-46.989
					c3.34-16.378,0.685-32.808-6.089-48.216c-13.907-31.648-41.016-56.88-58.421-86.88c-8.938-15.41-14.85-32.067-14.289-49.538
					c0.553-17.234,6.703-33.842,13.988-49.703c7.501-16.333,16.376-32.168,23.21-48.741c6.853-16.614,10.937-33.922,11.579-51.6
					c1.323-36.302-10.987-73.067-35.408-102.348c-22.139-26.541-53.708-46.563-88.957-57.381
					c-17.176-5.271-35.18-8.246-53.361-8.867C183.397-32.642,183.272-28.636,186.19-28.538L186.19-28.538z"/>
			</g>
		</g>
		<g>
			<g>
				<path fill="#0A24A5" d="M166.776-28.809c35.789,1.221,70.594,12.609,98.909,31.856c30.382,20.652,51.638,50.117,60.564,83
					c4.653,17.149,5.977,34.965,3.835,52.512c-2.053,16.825-7.868,32.789-15.194,48.366c-13.353,28.386-31.823,57.256-30.069,88.953
					c1.735,31.351,23.493,57.542,42.571,82.635c19.911,26.187,39.796,55.395,31.476,88.254
					c-7.965,31.462-34.856,58.602-64.436,76.429c-29.127,17.557-63.773,27.94-98.944,29.861c-17.185,0.937-34.544-0.09-51.362-3.343
					c-17.589-3.403-33.914-9.489-49.935-16.614c-29.024-12.912-60.506-30.625-94.479-27.893
					c-37.862,3.046-58.713,32.343-85.078,52.524c-24.352,18.64-56.739,26.714-88.614,24.763
					c-31.397-1.923-62.429-13.59-83.769-34.255c-25.62-24.808-33.869-60.567-63.479-82.614
					c-25.719-19.149-60.169-23.514-92.645-25.803c-17.949-1.265-35.966-1.919-53.841-3.93c-21.019-2.365-41.802-6.355-62.039-11.86
					c-19.989-5.438-40.088-12.044-58.317-21.16c-18.42-9.212-32.631-21.763-41.714-38.744
					c-9.155-17.117-14.435-36.142-19.401-54.499c-4.821-17.824-8.45-35.981-9.351-54.325c-1.679-34.302,7.886-67.006,28.644-96.106
					c19.354-27.135,45.763-49.812,73.318-70.455c13.362-10.006,27.128-19.583,40.96-29.079c2.306-1.582-0.866-4.445-3.159-2.871
					c-56.064,38.487-117.904,82.093-137.884,145.099c-11.229,35.411-6.601,72.711,2.858,107.946
					c4.831,18,10.087,36.447,18.578,53.404c8.436,16.842,21.422,30.24,39.084,40.053c16.951,9.415,36.146,16.053,55.062,21.714
					c20.153,6.034,40.892,10.529,61.921,13.459c36.628,5.104,74.527,3.204,110.624,11.217c17.149,3.81,33.667,10.258,46.802,20.883
					c15.047,12.17,24.467,28.404,33.944,44.084c8.635,14.288,17.649,28.628,30.824,40.1c10.912,9.5,23.938,16.955,38.013,22.28
					c28.658,10.846,61.896,12.858,91.914,5.105c14.984-3.87,29.066-10.202,41.227-18.871c14.762-10.523,26.66-23.726,40.782-34.855
					c14.538-11.46,31.582-19.492,51.449-19.468c17.908,0.021,35.161,5.771,51.157,12.355c16.521,6.807,32.342,14.852,48.957,21.48
					c15.643,6.24,31.988,10.587,48.99,12.818c69.065,9.055,143.865-16.352,185.398-66.51c10.957-13.229,19.76-28.355,23.066-44.577
					c3.173-15.548,0.657-31.142-5.77-45.771c-13.189-30.019-38.898-53.948-55.405-82.404c-8.465-14.594-14.066-30.37-13.534-46.917
					c0.523-16.333,6.355-32.069,13.258-47.101c7.113-15.489,15.524-30.504,22.009-46.215c6.499-15.761,10.373-32.18,10.983-48.951
					c1.257-34.438-10.426-69.319-33.588-97.097c-21.007-25.19-50.965-44.19-84.414-54.456c-16.295-5.002-33.379-7.825-50.627-8.413
					C163.983-32.913,163.858-28.909,166.776-28.809L166.776-28.809z"/>
			</g>
		</g>
		<g>
			<g>
				<path fill="#0A24A5" d="M147.362-29.082c33.813,1.154,66.69,11.914,93.443,30.101c28.693,19.507,48.766,47.338,57.196,78.396
					c4.397,16.201,5.647,33.033,3.623,49.613c-1.94,15.895-7.438,30.976-14.36,45.69c-12.627,26.844-30.09,54.146-28.432,84.12
					c1.643,29.661,22.209,54.433,40.262,78.174c18.803,24.727,37.602,52.314,29.744,83.346
					c-7.523,29.713-32.92,55.348-60.854,72.185c-27.519,16.585-60.246,26.4-93.474,28.215c-16.233,0.886-32.634-0.081-48.521-3.154
					c-16.617-3.217-32.041-8.964-47.175-15.696c-27.463-12.217-57.234-28.959-89.377-26.383
					c-35.838,2.874-55.565,30.583-80.519,49.684c-22.995,17.601-53.583,25.221-83.682,23.377
					c-29.649-1.814-58.952-12.836-79.104-32.351c-24.218-23.45-32.015-57.256-60.008-78.096
					c-24.339-18.124-56.929-22.262-87.663-24.427c-16.97-1.194-34.001-1.813-50.896-3.715c-19.859-2.233-39.496-6.008-58.616-11.205
					c-18.89-5.139-37.878-11.379-55.104-19.993c-17.395-8.7-30.81-20.548-39.389-36.585c-8.649-16.173-13.638-34.15-18.33-51.493
					c-4.556-16.841-7.987-33.995-8.834-51.326c-1.588-32.411,7.446-63.303,27.058-90.8c18.293-25.645,43.25-47.072,69.291-66.579
					c12.632-9.463,25.646-18.515,38.722-27.492c2.305-1.583-0.866-4.444-3.156-2.871c-53.021,36.396-111.488,77.635-130.383,137.214
					c-10.621,33.494-6.244,68.774,2.702,102.101c4.57,17.026,9.543,34.475,17.574,50.514c7.98,15.937,20.277,28.619,36.991,37.904
					c16.035,8.906,34.188,15.183,52.08,20.537c19.063,5.71,38.678,9.959,58.569,12.729c34.617,4.821,70.435,3.027,104.545,10.6
					c16.189,3.597,31.79,9.683,44.189,19.713c14.217,11.498,23.116,26.838,32.068,41.653c8.168,13.515,16.699,27.08,29.16,37.928
					c10.33,8.995,22.66,16.049,35.986,21.092c27.112,10.258,58.559,12.162,86.955,4.827c14.187-3.664,27.517-9.66,39.029-17.866
					c13.955-9.946,25.202-22.429,38.555-32.951c13.72-10.813,29.799-18.396,48.547-18.372c16.906,0.018,33.195,5.447,48.3,11.666
					c15.616,6.432,30.574,14.038,46.28,20.305c14.808,5.907,30.277,10.021,46.375,12.133
					c65.335,8.564,136.085-15.482,175.374-62.927c10.358-12.514,18.689-26.823,21.819-42.166
					c2.998-14.717,0.627-29.477-5.455-43.328c-12.473-28.386-36.778-51.016-52.391-77.924c-7.992-13.78-13.279-28.674-12.777-44.295
					c0.494-15.432,6.007-30.297,12.527-44.498c6.725-14.64,14.678-28.836,20.803-43.692c6.147-14.906,9.812-30.438,10.392-46.302
					c1.188-32.575-9.858-65.571-31.769-91.847c-19.879-23.836-48.219-41.815-79.875-51.529c-15.412-4.732-31.575-7.401-47.889-7.957
					C144.571-33.183,144.444-29.18,147.362-29.082L147.362-29.082z"/>
			</g>
		</g>
		<g>
			<g>
				<path fill="#0A24A5" d="M127.951-29.353c32.018,1.095,63.101,11.336,88.375,28.618c26.946,18.425,45.726,44.725,53.549,73.969
					c4,14.956,5.165,30.479,3.349,45.773c-1.793,15.103-6.964,29.424-13.532,43.402c-11.896,25.323-28.384,51.056-26.847,79.328
					c1.51,27.797,20.657,51.051,37.594,73.305c17.742,23.313,35.697,49.295,28.451,78.604c-6.938,28.058-30.945,52.312-57.271,68.2
					c-25.797,15.568-56.455,24.806-87.61,26.59c-15.656,0.899-31.47-0.052-46.781-3.063c-15.334-3.013-29.59-8.341-43.564-14.553
					c-25.872-11.497-53.936-27.331-84.208-24.996c-34.471,2.659-53.077,29.489-77.231,47.613
					c-21.573,16.185-50.277,23.022-78.238,21.215c-28.079-1.816-55.775-12.418-74.646-31.08
					c-22.459-22.214-29.87-53.907-56.394-73.31c-23.079-16.885-53.753-20.677-82.704-22.692c-16.18-1.129-32.413-1.732-48.516-3.588
					c-19.013-2.195-37.806-5.902-56.086-10.98c-17.322-4.814-34.733-10.607-50.519-18.6c-16.103-8.151-28.453-19.23-36.423-34.101
					c-8.019-14.966-12.646-31.595-17.026-47.639c-4.434-16.249-7.776-32.799-8.565-49.53c-1.44-30.54,7.197-59.621,25.738-85.483
					c17.159-23.935,40.473-43.965,64.811-62.208c11.966-8.969,24.297-17.549,36.689-26.056c2.304-1.581-0.867-4.443-3.157-2.871
					c-49.945,34.285-104.998,73.122-122.847,129.226c-10.068,31.651-5.926,65.008,2.55,96.505
					c4.308,16.006,8.991,32.394,16.534,47.482c7.304,14.602,18.461,26.365,33.651,35.051c14.958,8.552,32.05,14.504,48.845,19.611
					c18.31,5.567,37.17,9.708,56.305,12.392c32.417,4.545,65.936,2.908,97.916,9.827c15.339,3.322,30.164,8.929,42.005,18.319
					c13.546,10.745,22.009,25.221,30.456,39.202c7.647,12.654,15.57,25.391,27.122,35.646c9.702,8.61,21.36,15.387,33.969,20.222
					c25.488,9.777,55.038,11.733,81.854,4.995c13.293-3.341,25.82-8.841,36.684-16.402c13.664-9.513,24.504-21.693,37.471-31.873
					c12.786-10.035,27.794-17.091,45.229-17.106c15.821-0.011,31.064,4.997,45.212,10.797c14.839,6.08,29.027,13.316,43.936,19.268
					c14.096,5.625,28.812,9.542,44.141,11.525c61.551,7.968,128.125-14.727,165.104-59.425
					c9.989-12.074,17.902-25.878,20.731-40.711c2.61-13.717,0.185-27.462-5.527-40.314c-11.803-26.571-34.555-47.802-49.188-73.036
					c-7.438-12.833-12.409-26.707-12.026-41.255c0.384-14.663,5.61-28.796,11.806-42.282c6.304-13.723,13.751-27.034,19.515-40.948
					c5.941-14.354,9.438-29.312,9.912-44.595c0.951-30.684-9.626-61.717-30.39-86.377c-18.684-22.19-45.162-38.953-74.724-48.052
					c-14.593-4.494-29.896-7.034-45.347-7.56C125.157-33.456,125.032-29.452,127.951-29.353L127.951-29.353z"/>
			</g>
		</g>
		<g>
			<g>
				<path fill="#0A24A5" d="M108.538-29.624c30.298,1.046,59.763,10.799,83.555,27.309c25.143,17.447,42.566,42.155,49.729,69.639
					c3.686,14.157,4.666,28.847,2.803,43.294c-1.842,14.274-6.94,27.782-13.217,40.985c-11.295,23.765-26.572,48.108-24.44,74.711
					c2.078,25.926,20.228,47.525,36.039,68.366c16.718,22.033,33.019,46.557,25.45,74.099
					c-7.187,26.162-29.821,48.595-54.719,63.272c-24.479,14.432-53.461,22.849-82.828,24.198
					c-14.543,0.669-29.201-0.367-43.375-3.303c-14.373-2.978-27.693-8.145-40.809-14.014c-23.962-10.721-50.016-25.08-78.068-22.749
					c-31.795,2.643-49.217,27.294-71.435,44.188c-20.273,15.418-47.212,22.04-73.666,20.394
					c-26.289-1.637-52.248-11.479-70.004-28.873c-21.2-20.771-28.128-50.52-52.875-68.844
					c-21.451-15.881-50.041-19.595-77.086-21.52c-15.21-1.081-30.478-1.625-45.619-3.333c-17.708-1.994-35.214-5.393-52.255-10.059
					c-16.543-4.53-33.178-10.016-48.256-17.592c-15.439-7.758-27.196-18.317-34.74-32.579
					c-7.355-13.906-11.658-29.292-15.722-44.165c-4.192-15.338-7.352-30.965-8.074-46.763c-1.312-28.599,6.818-55.82,24.19-80.029
					c16.071-22.397,37.891-41.15,60.666-58.23c11.264-8.446,22.871-16.524,34.539-24.532c2.306-1.583-0.866-4.444-3.157-2.871
					c-46.968,32.244-98.763,68.794-115.423,121.604c-9.362,29.667-5.455,60.901,2.476,90.407
					c3.987,14.838,8.354,30.001,15.252,44.017c6.735,13.687,17.026,24.865,31.176,33.085c14.437,8.386,31.038,14.145,47.332,19.062
					c16.911,5.104,34.32,8.906,51.978,11.393c30.746,4.328,62.572,2.716,92.88,9.427c14.067,3.114,27.694,8.346,38.551,16.982
					c12.856,10.229,20.836,23.985,28.867,37.271c7.205,11.917,14.733,23.875,25.707,33.451c9.079,7.924,19.909,14.152,31.616,18.628
					c24.021,9.181,51.918,10.94,77.138,4.498c12.313-3.146,23.927-8.263,34.003-15.277c12.771-8.89,22.932-20.254,35.027-29.795
					c11.781-9.293,25.623-15.974,41.729-16.179c15.043-0.188,29.562,4.54,43.011,10.036c13.707,5.605,26.821,12.266,40.561,17.812
					c13.026,5.262,26.608,9.029,40.787,10.973c57.911,7.947,120.646-12.906,155.923-54.731c9.294-11.02,16.839-23.659,19.827-37.222
					c2.854-12.961,1.077-26.06-4.152-38.351c-10.671-25.077-31.926-45.054-45.945-68.551c-7.313-12.261-12.386-25.527-12.167-39.528
					c0.217-13.747,5.041-27.025,10.813-39.676c5.868-12.867,12.851-25.328,18.299-38.342c5.678-13.566,9.082-27.682,9.588-42.146
					c1.008-28.811-8.822-57.972-28.203-81.205c-17.479-20.955-42.379-36.802-70.174-45.429c-13.821-4.292-28.32-6.71-42.967-7.214
					C105.745-33.728,105.619-29.724,108.538-29.624L108.538-29.624z"/>
			</g>
		</g>
		<g>
			<g>
				<path fill="#0A24A5" d="M89.124-29.897c59.372,2.065,111.236,39.543,124.471,90.671c3.398,13.133,4.293,26.747,2.587,40.148
					c-1.68,13.199-6.354,25.706-12.137,37.917c-10.504,22.183-24.831,44.85-23.119,69.657c1.684,24.398,18.62,44.726,33.49,64.3
					c15.476,20.371,30.872,43.111,24.261,68.649c-6.402,24.722-27.753,46.002-51.177,59.83
					c-22.769,13.44-49.718,21.336-77.047,22.649c-13.639,0.655-27.386-0.28-40.687-3.014c-13.515-2.777-26.033-7.626-38.358-13.142
					c-22.537-10.09-47.019-23.552-73.404-21.234c-29.448,2.588-45.702,25.433-66.278,41.151
					c-19.026,14.534-44.317,20.749-69.188,19.156c-24.291-1.554-48.271-10.639-64.771-26.633
					c-19.799-19.189-26.273-46.708-48.863-63.99c-19.852-15.187-46.615-18.872-71.961-20.724
					c-13.969-1.021-27.995-1.502-41.915-2.999c-16.677-1.791-33.168-4.901-49.229-9.225c-15.35-4.132-30.727-9.17-44.808-16.004
					c-14.969-7.268-26.539-17.184-33.866-30.905c-6.953-13.021-10.978-27.471-14.798-41.42c-3.889-14.203-6.834-28.673-7.547-43.302
					c-1.314-26.905,6.246-52.497,22.606-75.272c14.985-20.86,35.307-38.333,56.522-54.254c10.56-7.925,21.447-15.498,32.39-23.012
					c2.304-1.583-0.867-4.443-3.158-2.87c-43.835,30.093-92.128,64.178-107.82,113.409c-8.874,27.841-5.225,57.175,2.225,84.886
					c3.732,13.893,7.816,28.089,14.288,41.208c6.512,13.197,16.56,23.808,30.311,31.569c13.235,7.473,28.307,12.702,43.125,17.173
					c15.917,4.801,32.299,8.368,48.917,10.694c28.705,4.017,58.433,2.498,86.709,8.816c13.534,3.025,26.544,8.161,36.806,16.663
					c11.532,9.549,18.767,22.173,26.117,34.325c6.694,11.066,13.737,22.148,23.955,31.022c8.528,7.412,18.698,13.231,29.686,17.398
					c22.223,8.429,47.936,10.1,71.287,4.294c11.755-2.922,22.849-7.764,32.455-14.438c11.74-8.159,21.108-18.562,32.158-27.388
					c11.298-9.021,24.541-15.528,40.096-15.589c14.021-0.055,27.533,4.412,40.061,9.568c12.905,5.314,25.269,11.599,38.246,16.781
					c12.233,4.882,24.998,8.306,38.293,10.062c53.932,7.129,112.209-12.496,144.983-51.418c8.77-10.41,15.854-22.366,18.584-35.193
					c2.6-12.218,0.768-24.513-4.231-36.053c-10.123-23.369-29.996-42.016-43.001-64.023c-6.748-11.416-11.358-23.787-11.043-36.796
					c0.312-12.875,4.886-25.277,10.318-37.12c5.517-12.02,12.038-23.675,17.097-35.861c5.215-12.575,8.311-25.683,8.75-39.076
					c0.887-27.018-8.372-54.304-26.605-76.049c-16.352-19.496-39.572-34.217-65.477-42.263c-12.919-4.012-26.479-6.265-40.171-6.74
					C86.331-34.002,86.205-29.996,89.124-29.897L89.124-29.897z"/>
			</g>
		</g>
		<g>
			<g>
				<path fill="#0A24A5" d="M69.711-30.166c55.229,1.938,103.425,36.805,115.655,84.394c3.167,12.324,3.957,25.094,2.289,37.657
					c-1.637,12.305-6.09,23.955-11.512,35.33c-9.715,20.39-22.74,41.268-21.217,64.074c1.508,22.616,17.107,41.486,30.901,59.629
					c14.614,19.217,29.196,40.628,22.655,64.724c-6.173,22.748-25.858,42.269-47.485,55.014
					c-21.236,12.515-46.405,19.848-71.886,20.993c-12.609,0.568-25.312-0.319-37.602-2.869
					c-12.704-2.635-24.452-7.244-36.033-12.444c-20.908-9.389-43.646-21.738-68.134-19.44c-27.401,2.57-42.458,23.996-61.711,38.56
					c-17.653,13.356-41.156,19.009-64.119,17.472c-22.698-1.52-45.052-10.094-60.329-25.165
					c-18.226-17.979-24.277-43.587-45.546-59.483c-18.528-13.848-43.233-17.204-66.69-18.909
					c-13.047-0.946-26.146-1.401-39.146-2.813c-15.327-1.664-30.485-4.532-45.253-8.503c-28.208-7.588-59.096-17.949-72.729-42.754
					c-6.746-12.271-10.549-25.996-14.172-39.208c-3.586-13.069-6.312-26.383-7.023-39.839c-1.322-24.986,5.554-48.809,20.668-70.015
					c14.054-19.719,33.247-36.183,53.271-51.176c9.689-7.258,19.676-14.201,29.705-21.088c2.307-1.583-0.866-4.443-3.155-2.873
					c-40.864,28.055-85.888,59.851-100.398,105.788c-8.165,25.853-4.766,53.071,2.148,78.786c3.539,13.161,7.4,26.642,13.646,39.029
					c6.049,11.996,15.331,21.621,27.862,28.703c12.22,6.905,26.13,11.746,39.808,15.896c14.787,4.486,30.017,7.822,45.461,10.003
					c26.502,3.739,53.902,2.407,80.056,8.039c12.711,2.735,24.993,7.418,34.698,15.303c10.968,8.913,17.785,20.799,24.714,32.249
					c6.181,10.214,12.67,20.45,22.055,28.674c7.925,6.945,17.394,12.413,27.631,16.328c20.729,7.924,44.726,9.542,66.545,4.151
					c10.802-2.669,20.989-7.073,29.87-13.136c11.084-7.569,19.864-17.344,30.196-25.637c10.354-8.311,22.483-14.447,36.783-14.656
					c13.205-0.19,25.956,3.999,37.743,8.845c12.129,4.986,23.738,10.902,35.94,15.758c11.284,4.492,23.068,7.628,35.325,9.251
					c50.486,6.688,105.104-11.808,135.52-48.441c7.96-9.586,14.389-20.559,16.853-32.312c2.346-11.187,0.76-22.455-3.759-33.047
					c-9.367-21.954-28.029-39.417-40.214-60.046c-6.344-10.737-10.614-22.354-10.228-34.585c0.379-11.991,4.73-23.537,9.82-34.559
					c5.074-10.991,11.021-21.662,15.649-32.812c4.887-11.77,7.772-24.047,8.16-36.584c0.774-25.12-7.867-50.486-24.841-70.687
					C152.794-6.893,130.942-20.665,106.575-28.1c-11.83-3.611-24.224-5.632-36.737-6.071C66.918-34.274,66.793-30.271,69.711-30.166
					L69.711-30.166z"/>
			</g>
		</g>
		<g>
			<g>
				<path fill="#0A24A5" d="M50.298-30.439c51.119,1.817,95.665,34.114,106.862,78.193c5.905,23.26,1.618,45.792-8.767,67.518
					c-9.018,18.874-21.035,38.26-19.426,59.387c1.585,20.806,15.938,38.153,28.646,54.87c13.248,17.427,26.617,36.904,21.077,58.79
					c-5.395,21.314-23.773,39.654-43.931,51.561c-19.531,11.54-42.654,18.313-66.104,19.447
					c-24.532,1.186-46.836-4.425-68.502-14.155c-19.183-8.617-40.062-19.946-62.521-18.008
					c-25.595,2.209-39.59,21.996-57.497,35.609c-16.253,12.351-37.858,17.622-59.052,16.272
					c-21.104-1.345-41.912-9.317-56.078-23.35c-16.954-16.799-22.559-40.704-42.63-55.362c-17.16-12.531-39.885-15.54-61.42-17.094
					c-11.901-0.86-23.848-1.282-35.707-2.556c-14.283-1.536-28.405-4.21-42.161-7.915c-25.876-6.966-54.308-16.474-66.912-39.179
					c-6.195-11.16-9.669-23.641-13.008-35.668c-3.438-12.383-6.066-25.004-6.723-37.766c-1.186-23.047,5.173-45.001,19.117-64.559
					c12.969-18.179,30.67-33.365,49.127-47.198c8.989-6.734,18.254-13.176,27.56-19.566c2.305-1.581-0.866-4.445-3.156-2.872
					c-37.729,25.904-79.253,55.232-92.794,97.59c-7.68,24.027-4.543,49.353,1.895,73.265c3.227,11.991,6.759,24.238,12.352,35.559
					c5.492,11.115,13.928,20.131,25.438,26.767c11.239,6.479,24.101,10.987,36.739,14.859c13.522,4.145,27.446,7.256,41.576,9.311
					c24.76,3.598,50.373,2.334,74.833,7.515c11.657,2.472,22.963,6.669,31.957,13.802c10.41,8.256,16.82,19.439,23.316,30.175
					c5.756,9.514,11.806,19.05,20.575,26.69c7.238,6.308,15.843,11.298,25.155,14.893c19.233,7.421,41.513,8.983,61.802,4.008
					c9.839-2.413,19.149-6.377,27.287-11.836c10.259-6.885,18.366-15.843,27.795-23.53c9.868-8.043,21.396-14.018,35.153-14.081
					c12.189-0.055,23.925,3.881,34.796,8.382c11.131,4.608,21.803,10.035,33.024,14.474c10.68,4.225,21.833,7.122,33.433,8.582
					c46.51,5.857,96.658-11.387,124.576-45.124c7.432-8.978,13.395-19.266,15.598-30.279c2.075-10.368,0.49-20.759-3.738-30.54
					c-8.668-20.058-25.684-36.078-36.896-54.934c-5.928-9.972-9.935-20.768-9.575-32.145c0.35-11.079,4.368-21.744,9.072-31.929
					c4.758-10.307,10.35-20.317,14.654-30.785c4.486-10.917,7.09-22.317,7.385-33.929c1.154-45.439-31.173-86.479-79.72-101.439
					c-11.061-3.41-22.65-5.311-34.357-5.727C47.504-34.546,47.379-30.543,50.298-30.439L50.298-30.439z"/>
			</g>
		</g>
		<g>
			<g>
				<path fill="#0A24A5" d="M30.885-30.711c46.977,1.693,87.857,31.376,98.05,71.917c5.369,21.357,1.365,41.944-8.166,61.869
					c-8.267,17.278-19.233,35.029-17.8,54.375c1.415,19.033,14.429,34.91,26.062,50.199c12.312,16.184,24.854,34.221,19.561,54.573
					c-5.085,19.542-22.054,36.346-40.614,47.208c-18.068,10.578-39.452,16.735-61.093,17.638
					c-22.44,0.934-42.639-4.33-62.432-13.234c-17.579-7.912-36.722-18.183-57.308-16.332c-22.848,2.053-35.683,19.382-51.49,31.799
					c-14.915,11.716-34.615,16.966-54.406,15.895c-19.318-1.047-38.457-8.128-51.633-20.794
					c-15.842-15.23-20.919-37.205-39.005-50.901c-15.604-11.818-36.435-14.807-56.298-16.292
					c-10.938-0.816-21.92-1.186-32.824-2.315c-12.979-1.343-25.815-3.707-38.335-6.998c-23.655-6.223-50.4-14.827-62.271-35.396
					c-5.879-10.188-9.081-21.693-12.188-32.743c-3.161-11.245-5.629-22.7-6.346-34.292c-1.324-21.394,4.271-41.779,17.138-60.001
					c11.782-16.69,27.937-30.638,44.807-43.325c8.454-6.357,17.178-12.425,25.942-18.444c2.303-1.581-0.866-4.446-3.159-2.871
					c-34.753,23.86-73.018,50.905-85.375,89.97c-6.968,22.033-4.077,45.247,1.823,67.165c5.824,21.633,12.438,44.403,34.703,57.283
					c10.33,5.975,22.168,10.124,33.795,13.692c12.521,3.84,25.421,6.724,38.51,8.614c22.722,3.278,46.23,2.122,68.668,6.906
					c10.873,2.317,21.392,6.285,29.679,13.049c9.422,7.688,15.216,17.956,21.185,27.801c5.319,8.772,10.979,17.51,19.157,24.479
					c6.744,5.75,14.724,10.264,23.343,13.509c17.643,6.643,38.034,7.939,56.546,3.307c9.054-2.267,17.613-5.956,25.075-11.033
					c9.346-6.357,16.773-14.546,25.43-21.568c9.078-7.365,19.725-12.758,32.346-12.721c11.2,0.034,21.978,3.718,31.957,7.878
					c19.93,8.304,38.207,18.148,60.434,20.979c42.689,5.431,88.716-10.265,114.521-41.125
					c13.816-16.519,19.746-36.284,11.425-55.924c-7.904-18.646-23.726-33.476-34.106-50.957c-5.406-9.104-9.084-18.953-8.779-29.337
					c0.299-10.2,4.006-20.023,8.332-29.397c4.461-9.663,9.721-19.04,13.703-28.873c4.023-9.934,6.318-20.32,6.556-30.869
					c0.936-41.749-28.813-79.388-73.421-93.114c-10.16-3.126-20.807-4.864-31.562-5.251C28.091-34.819,27.968-30.816,30.885-30.711
					L30.885-30.711z"/>
			</g>
		</g>
		<g>
			<g>
				<path fill="#0A24A5" d="M11.471-30.982c43.097,1.575,80.496,28.986,89.396,66.288c4.608,19.327,0.781,37.857-7.853,55.832
					c-7.672,15.968-17.696,32.395-15.938,50.293c3.407,34.684,51.69,58.604,41.228,95.32c-5.101,17.9-20.932,33.114-38.222,42.856
					c-16.745,9.435-36.447,14.765-56.291,15.229c-20.195,0.472-38.123-4.687-55.877-12.719
					c-15.932-7.213-33.375-16.271-52.031-14.202c-21.229,2.355-32.75,19.139-47.877,30.344
					c-13.54,10.027-31.521,14.155-48.954,12.94c-17.706-1.232-35.099-8.087-46.79-20.027
					c-13.842-14.134-18.618-33.866-35.418-45.985c-14.169-10.222-32.806-12.791-50.521-14.112
					c-22.223-1.656-43.895-2.937-65.392-8.667c-21.782-5.807-45.802-13.755-56.395-32.866c-4.972-8.972-7.787-18.989-10.517-28.646
					c-2.92-10.337-5.195-20.87-5.856-31.528c-1.222-19.646,4.034-38.371,15.946-55.048c10.793-15.109,25.5-27.737,40.841-39.245
					c7.583-5.689,15.401-11.128,23.26-16.521c2.303-1.584-0.868-4.444-3.159-2.871c-31.943,21.932-67.179,46.869-78.131,82.927
					c-6.11,20.116-3.322,41.237,2.116,61.181c5.254,19.259,11.179,39.517,30.819,51.192c9.336,5.549,20.129,9.357,30.705,12.647
					c11.509,3.58,23.371,6.27,35.412,8.035c20.931,3.07,42.625,1.949,63.289,6.404c9.846,2.122,19.34,5.713,26.842,11.845
					c8.333,6.813,13.537,15.851,18.815,24.574c4.845,8.006,9.917,16.045,17.274,22.498c6.082,5.333,13.332,9.548,21.172,12.593
					c16.096,6.251,34.759,7.603,51.777,3.51c8.305-1.997,16.175-5.303,23.057-9.876c8.521-5.667,15.275-13.044,23.031-19.451
					c8.098-6.691,17.472-11.861,28.851-12.139c10.373-0.252,20.404,3.08,29.649,6.892c18.354,7.574,35.108,16.725,55.537,19.366
					c38.654,4.995,80.205-8.992,104.014-36.603c12.967-15.038,18.977-33.37,11.436-51.549c-7.15-17.236-21.754-30.877-31.313-46.983
					c-5.021-8.459-8.364-17.575-7.954-27.226c0.382-9.081,3.711-17.82,7.564-26.172c8.321-18.039,18.104-34.847,18.481-54.771
					c0.721-38.263-26.771-72.665-67.758-84.98c-9.073-2.726-18.554-4.232-28.132-4.583C8.679-35.092,8.553-31.088,11.471-30.982
					L11.471-30.982z"/>
			</g>
		</g>
		<g>
			<g>
				<path fill="#0A24A5" d="M-7.943-31.254c39.026,1.457,72.657,26.292,80.591,60.07c4.133,17.601,0.364,34.381-7.535,50.687
					c-6.872,14.183-15.587,28.81-14.037,44.71c3.07,31.492,47.19,53.323,37.029,86.697c-4.764,15.641-18.561,28.958-33.7,37.607
					c-14.968,8.549-32.601,13.44-50.403,13.983c-18.604,0.571-35.069-4.147-51.416-11.553
					c-14.331-6.493-29.969-14.529-46.737-12.732c-18.729,2.011-29.181,16.461-42.314,26.581
					c-12.335,9.509-28.686,13.59-44.878,12.524c-16.314-1.07-32.342-7.447-42.93-18.59c-12.157-12.79-16.562-30.311-31.65-41.113
					c-13.023-9.325-30.189-11.553-46.418-12.72c-20.049-1.443-39.591-2.725-58.949-7.977c-19.229-5.218-40.359-12.262-49.822-29.096
					c-4.72-8.4-7.33-17.855-9.855-26.925c-2.57-9.232-4.555-18.644-5.079-28.159c-0.957-17.314,3.677-33.808,14.074-48.557
					c9.724-13.796,23.108-25.299,37.053-35.77c6.883-5.167,13.981-10.103,21.11-15c2.305-1.582-0.866-4.442-3.156-2.872
					c-28.809,19.784-60.546,42.252-70.531,74.733c-5.579,18.146-3.131,37.218,1.748,55.232c4.601,16.983,9.752,35.166,26.678,45.853
					c8.237,5.2,17.957,8.694,27.433,11.725c10.478,3.355,21.289,5.897,32.274,7.581c18.781,2.877,38.166,1.986,56.789,5.633
					c9.227,1.807,18.286,4.961,25.384,10.603c7.762,6.171,12.562,14.48,17.412,22.498c8.357,13.814,18.176,25.32,34.812,31.794
					c14.608,5.686,31.564,6.904,47.01,3.17c7.422-1.796,14.459-4.739,20.627-8.811c7.847-5.178,14.021-11.967,21.157-17.83
					c7.542-6.195,16.285-10.815,26.866-10.777c9.37,0.034,18.37,3.193,26.694,6.698c16.489,6.944,31.653,14.947,50.104,17.147
					c35.106,4.195,72.827-8.86,93.929-34.273c11.025-13.281,16.084-29.259,9.721-45.141c-6.346-15.831-19.78-28.292-28.514-43.009
					c-4.506-7.587-7.508-15.766-7.156-24.417c0.345-8.414,3.488-16.485,7.084-24.209c7.58-16.289,16.251-31.496,16.439-49.512
					c0.364-34.331-24.312-65.092-61.049-76.254C9.642-33.544,0.964-34.93-7.806-35.258C-10.736-35.367-10.859-31.361-7.943-31.254
					L-7.943-31.254z"/>
			</g>
		</g>
	</g>
</g>
</svg>
