<?xml version="1.0" encoding="utf-8"?>
<!-- Generator: Adobe Illustrator 16.0.0, SVG Export Plug-In . SVG Version: 6.00 Build 0)  -->
<!DOCTYPE svg PUBLIC "-//W3C//DTD SVG 1.1//EN" "http://www.w3.org/Graphics/SVG/1.1/DTD/svg11.dtd">
<svg version="1.1" xmlns="http://www.w3.org/2000/svg" xmlns:xlink="http://www.w3.org/1999/xlink" x="0px" y="0px"
	 width="2304.12px" height="1592.803px" viewBox="1832.38 0 2304.12 1592.803" enable-background="new 1832.38 0 2304.12 1592.803"
	 xml:space="preserve">
<g id="Layer_1">
	<g id="_x2014_ÎÓÈ_x5F_1">
		
			<linearGradient id="SVGID_1_" gradientUnits="userSpaceOnUse" x1="1470.0591" y1="1686.8047" x2="1470.0588" y2="94" gradientTransform="matrix(-1 0 0 1 4454.498 -94.002)">
			<stop  offset="0.1411" style="stop-color:#2AFFE2"/>
			<stop  offset="0.3689" style="stop-color:#10ABBE"/>
			<stop  offset="0.3777" style="stop-color:#14A6BE"/>
			<stop  offset="0.4989" style="stop-color:#4164B9"/>
			<stop  offset="0.6009" style="stop-color:#6335B5"/>
			<stop  offset="0.6784" style="stop-color:#7717B3"/>
			<stop  offset="0.7225" style="stop-color:#7F0CB2"/>
			<stop  offset="0.8792" style="stop-color:#FF3FEF"/>
		</linearGradient>
		<rect x="1832.379" y="-0.003" fill="url(#SVGID_1_)" width="2304.12" height="1592.804"/>
	</g>
	<g id="Layer_2">
	</g>
</g>
<g id="Layer_4">
	<g opacity="0.4">
		<g>
			<g>
				<path fill="#0A24A5" d="M5606.648,1003.466c57.29,110.993,78.104,238.725,60.809,361.994
					c-18.572,132.403-82.998,254.182-180.453,345.151c-50.745,47.372-109.518,85.958-173.305,113.477
					c-61.182,26.392-125.819,39.736-191.775,47.702c-119.76,14.467-250,14.34-355.204,80.881
					c-103.885,65.717-155.952,182.178-208.866,288.176c-55.63,111.424-121.715,228.284-248.807,266.816
					c-121.625,36.876-260.937,7.8-372.953-47.465c-110.211-54.381-205.258-139.479-272.261-242.517
					c-32.743-50.352-59.012-105.053-76.757-162.413c-18.555-59.986-25.727-121.354-28.827-183.785
					c-5.591-112.568,1.04-241.914-66.378-339.228c-74.977-108.216-210.715-114.585-324.338-155.188
					c-105.869-37.832-189.379-120.558-237.534-221.274c-47.419-99.185-60.8-216.197-26.598-321.213
					c40.893-125.567,149.011-219.779,173.618-352.053c21.289-114.444-22.808-226.883-70.435-329.197
					c-26.451-56.803-55.079-112.625-78.842-170.64c-27.998-68.357-50.034-139.145-65.934-211.225
					c-15.712-71.19-27.591-144.983-27.661-217.965c-0.079-73.873,18.557-141.528,61.199-202.107
					c42.903-60.967,98.974-113.885,153.322-164.541c52.775-49.19,108.755-95.386,170.049-133.673
					c114.611-71.592,243.134-105.959,378.457-99.389c126.076,6.121,248.994,42.231,366.921,85.794
					c57.112,21.095,113.44,44.259,169.604,67.777c7.35,3.074,10.766-8.814,3.456-11.872
					c-227.356-95.205-482.144-198.125-731.452-136.814c-140.006,34.431-259.305,120.47-363.324,217.08
					c-53.129,49.346-107.113,100.83-150.433,159.223c-42.952,57.908-66.438,122.819-69.688,195.017
					c-3.129,69.417,7.058,140.222,20.097,208.319c13.889,72.562,33.996,143.921,59.959,213.136
					c45.365,120.948,116.893,232.144,151.4,357.104c16.456,59.584,22.679,122.375,8.807,182.989
					c-15.848,69.245-55.277,129.328-92.708,188.479c-33.968,53.676-67.474,108.576-84.07,170.526
					c-13.698,51.126-16.868,104.72-10.993,157.35c11.993,107.499,61.903,211.721,139.648,287.432
					c38.688,37.672,84.232,67.935,134.41,87.872c61.268,24.345,126.789,34.83,189.049,56.066
					c64.527,22.004,121.539,58.354,155.744,118.973c30.763,54.534,40.707,118.191,45.623,179.666
					c5.055,63.186,4.663,126.666,10.485,189.806c5.445,59.133,18.54,116.809,39.946,172.312
					c87.184,226.078,301.574,403.193,543.639,431.855c63.876,7.566,130.486,4.995,191.494-16.346
					c58.279-20.381,107.021-58.076,145.787-105.614c79.861-97.912,117.556-221.936,186.446-326.844
					c35.546-54.121,80.091-101.819,137.836-132.362c56.859-30.082,120.788-42.934,184.141-51.124
					c65.132-8.429,130.885-11.997,195.706-22.771c64.881-10.788,127.49-30.755,185.746-61.285
					c119.593-62.678,218.623-165.312,273.695-288.942c49.877-111.967,63.438-238.996,41.279-359.721
					c-10.807-58.885-30.365-115.924-57.852-169.17C5613.906,990.592,5602.988,996.371,5606.648,1003.466L5606.648,1003.466z"/>
			</g>
		</g>
		<g>
			<g>
				<path fill="#0A24A5" d="M5581.25,956.879c54.811,106.191,74.714,228.387,58.166,346.324
					c-17.769,126.651-79.412,243.14-172.625,330.154c-48.557,45.323-104.778,82.235-165.812,108.562
					c-58.529,25.251-120.376,38.009-183.475,45.631c-114.646,13.847-239.309,13.733-340.022,77.433
					c-99.471,62.921-149.333,174.405-200,275.896c-53.203,106.571-116.403,218.395-237.96,255.252
					c-116.336,35.27-249.596,7.467-356.74-45.399c-105.437-52.021-196.379-133.428-260.481-232.003
					c-31.324-48.171-56.458-100.494-73.436-155.374c-17.753-57.388-24.615-116.102-27.585-175.827
					c-5.351-107.789,0.99-231.617-63.56-324.798c-71.811-103.657-201.743-109.769-310.573-148.659
					c-101.257-36.183-181.119-115.314-227.172-211.643c-45.356-94.866-58.153-206.782-25.438-307.223
					c39.14-120.181,142.613-210.338,166.167-336.938c20.391-109.609-21.814-217.272-67.434-315.264
					c-25.311-54.368-52.714-107.798-75.457-163.317c-26.784-65.403-47.864-133.131-63.084-202.092
					c-15.022-68.111-26.393-138.71-26.463-208.541c-0.077-70.662,17.751-135.356,58.529-193.301
					c41.055-58.329,94.704-108.957,146.697-157.419c50.496-47.067,104.06-91.269,162.692-127.899
					c109.652-68.497,232.613-101.372,362.08-95.09c120.643,5.858,238.262,40.414,351.105,82.101
					c54.655,20.189,108.566,42.36,162.317,64.869c7.349,3.076,10.767-8.815,3.463-11.877
					c-217.649-91.134-461.533-189.63-700.19-130.944c-134.045,32.963-248.261,115.334-347.851,207.827
					c-50.865,47.244-102.545,96.54-144.018,152.448c-41.135,55.452-63.622,117.636-66.738,186.771
					c-2.996,66.459,6.76,134.249,19.239,199.441c13.296,69.467,32.554,137.792,57.41,204.056
					c43.414,115.728,111.862,222.136,144.88,341.708c15.734,56.981,21.696,117.032,8.435,174.996
					c-15.167,66.25-52.89,123.731-88.702,180.319c-32.519,51.388-64.598,103.959-80.49,163.275
					c-13.124,48.979-16.152,100.312-10.526,150.728c11.49,102.924,59.281,202.727,133.725,275.216
					c37.058,36.084,80.689,65.073,128.76,84.171c58.638,23.298,121.349,33.336,180.929,53.66
					c61.689,21.04,116.203,55.779,148.896,113.731c29.424,52.15,38.936,113.034,43.632,171.825
					c4.844,60.474,4.469,121.229,10.035,181.654c5.22,56.643,17.761,111.881,38.266,165.047
					c83.48,216.465,288.766,386.014,520.528,413.459c61.153,7.239,124.936,4.773,183.343-15.651
					c55.819-19.524,102.516-55.614,139.653-101.144c76.452-93.727,112.536-212.449,178.486-312.872
					c33.994-51.762,76.591-97.377,131.812-126.59c54.401-28.776,115.561-41.064,176.17-48.901
					c62.336-8.062,125.262-11.482,187.303-21.795c62.121-10.324,122.067-29.448,177.838-58.676
					c114.498-60.011,209.319-158.27,262.051-276.637c47.766-107.223,60.754-228.863,39.539-344.475
					c-10.349-56.378-29.076-110.992-55.389-161.974C5588.505,944.005,5577.588,949.789,5581.25,956.879L5581.25,956.879z"/>
			</g>
		</g>
		<g>
			<g>
				<path fill="#0A24A5" d="M5555.848,910.303c52.326,101.382,71.33,218.051,55.527,330.646
					c-16.963,120.896-75.816,232.089-164.798,315.147c-46.361,43.277-100.039,78.518-158.312,103.653
					c-55.88,24.104-114.933,36.279-175.18,43.561c-109.523,13.229-228.613,13.123-324.836,73.983
					c-95.062,60.126-142.711,166.623-191.139,263.622c-50.775,101.708-111.088,208.494-227.107,243.668
					c-111.048,33.668-238.257,7.138-340.537-43.328c-100.659-49.666-187.491-127.371-248.691-221.486
					c-29.904-45.99-53.912-95.946-70.117-148.339c-16.948-54.79-23.501-110.843-26.336-167.871
					c-5.123-103.002,0.931-221.315-60.745-310.362c-68.64-99.098-192.767-104.955-296.806-142.131
					c-96.651-34.535-172.865-110.074-216.82-202.012c-43.291-90.548-55.499-197.368-24.277-293.231
					c37.389-114.792,136.209-200.899,158.713-321.831c19.491-104.772-20.824-207.657-64.436-301.326
					c-24.168-51.932-50.348-102.961-72.068-155.995c-25.573-62.443-45.696-127.112-60.227-192.958
					c-14.346-65.037-25.203-132.445-25.271-199.121c-0.066-67.443,16.945-129.181,55.871-184.49
					c39.196-55.691,90.426-104.03,140.066-150.3c48.219-44.937,99.348-87.14,155.339-122.117
					c104.695-65.402,222.082-96.799,345.689-90.792c115.215,5.588,227.532,38.594,335.289,78.404
					c52.21,19.285,103.7,40.46,155.042,61.954c7.35,3.079,10.765-8.81,3.459-11.869
					c-207.933-87.072-440.922-181.146-668.919-125.075C3416.142-928.197,3307-849.5,3211.85-761.126
					c-48.607,45.142-97.981,92.245-137.611,145.669c-39.313,52.997-60.801,112.443-63.78,178.528
					c-2.868,63.498,6.459,128.273,18.379,190.568c12.705,66.372,31.109,131.647,54.86,194.965
					c41.462,110.513,106.819,212.135,138.353,326.314c15.018,54.381,20.724,111.686,8.06,167.006
					c-14.479,63.257-50.498,118.137-84.689,172.165c-31.074,49.103-61.723,99.338-76.909,156.014
					c-12.544,46.83-15.438,95.91-10.057,144.111c10.979,98.357,56.657,193.732,127.794,262.997
					c35.435,34.505,77.143,62.212,123.108,80.473c56.005,22.257,115.897,31.843,172.809,51.256
					c58.853,20.067,110.86,53.208,142.057,108.492c28.079,49.769,37.155,107.873,41.644,163.975
					c4.623,57.761,4.264,115.794,9.583,173.509c4.993,54.152,16.979,106.953,36.583,157.784
					c79.772,206.848,275.955,368.836,497.416,395.062c58.428,6.918,119.379,4.559,175.19-14.956
					c53.364-18.66,98.011-53.146,133.519-96.676c73.045-89.536,107.52-202.952,170.529-298.893
					c32.443-49.4,73.09-92.928,125.795-120.809c51.936-27.475,110.332-39.205,168.203-46.691
					c59.532-7.696,119.645-10.962,178.899-20.81c59.351-9.866,116.638-28.14,169.93-56.072
					c109.403-57.336,200.009-151.227,250.4-264.328c45.659-102.482,58.073-218.728,37.797-329.232
					c-9.89-53.869-27.793-106.062-52.937-154.773C5563.105,897.423,5552.188,903.21,5555.848,910.303L5555.848,910.303z"/>
			</g>
		</g>
		<g>
			<g>
				<path fill="#0A24A5" d="M5530.445,863.72c49.854,96.578,67.945,207.715,52.889,314.974
					c-16.156,115.136-72.224,221.046-156.966,300.147c-44.163,41.228-95.3,74.789-150.815,98.74
					c-53.229,22.959-109.49,34.553-166.883,41.485c-104.412,12.614-217.924,12.521-309.648,70.537
					c-90.65,57.336-136.092,158.851-182.275,251.348c-48.348,96.857-105.775,198.602-216.263,232.099
					c-105.751,32.059-226.917,6.801-324.324-41.259c-95.887-47.31-178.609-121.325-236.909-210.977
					c-28.486-43.802-51.359-91.392-66.798-141.299c-16.146-52.195-22.394-105.59-25.097-159.91
					c-4.882-98.221,0.879-211.024-57.921-295.934c-65.479-94.54-183.802-100.13-283.052-135.601
					c-92.033-32.885-164.603-104.831-206.46-192.38c-41.228-86.229-52.84-187.955-23.109-279.248
					c35.631-109.401,129.812-191.456,151.254-306.713c18.59-99.931-19.833-198.045-61.426-287.394
					c-23.04-49.489-47.988-98.127-68.688-148.668c-24.363-59.488-43.53-121.094-57.37-183.824
					c-13.67-61.964-24.009-126.176-24.075-189.693c-0.064-64.234,16.136-123.012,53.203-175.685
					c37.335-53.056,86.149-99.1,133.442-143.185c45.931-42.806,94.641-83.021,147.979-116.33
					c99.741-62.308,211.553-92.219,329.317-86.503c109.772,5.336,216.793,36.785,319.465,74.714
					c49.759,18.378,98.833,38.562,147.76,59.049c7.35,3.078,10.764-8.812,3.459-11.873
					c-198.216-83.002-420.31-172.654-637.654-119.208c-122.11,30.032-226.171,105.057-316.899,189.317
					c-46.338,43.048-93.409,87.958-131.189,138.888c-37.501,50.546-57.992,107.263-60.831,170.29
					c-2.729,60.54,6.153,122.303,17.521,181.69c12.117,63.283,29.665,125.521,52.313,185.88
					c39.506,105.302,101.782,202.129,131.825,310.924c14.3,51.777,19.745,106.342,7.685,159.017
					c-13.79,60.258-48.107,112.541-80.682,164.01c-29.624,46.817-58.846,94.719-73.323,148.756
					c-11.97,44.678-14.725,91.498-9.585,137.489c10.471,93.782,54.03,184.735,121.867,250.781
					c33.812,32.921,73.599,59.351,117.452,76.774c53.376,21.212,110.46,30.349,164.7,48.846
					c56.008,19.104,105.516,50.636,135.205,103.254c26.729,47.392,35.382,102.71,39.657,156.133
					c4.4,55.049,4.059,110.353,9.128,165.358c4.76,51.666,16.195,102.023,34.894,150.516
					c76.067,197.238,263.155,351.654,474.313,376.664c55.703,6.6,113.826,4.344,167.034-14.26
					c50.908-17.807,93.502-50.684,127.379-92.209c69.64-85.354,102.501-193.457,162.568-284.916
					c30.893-47.034,69.593-88.482,119.773-115.025c49.48-26.178,105.104-37.342,160.235-44.474
					c56.739-7.337,114.024-10.447,170.492-19.835c56.587-9.405,111.213-26.837,162.022-53.461
					c104.328-54.682,190.677-144.194,238.752-252.021c43.573-97.717,55.397-208.617,36.059-313.989
					c-9.425-51.365-26.501-101.129-50.476-147.577C5537.705,850.843,5526.788,856.625,5530.445,863.72L5530.445,863.72z"/>
			</g>
		</g>
		<g>
			<g>
				<path fill="#0A24A5" d="M5505.049,817.138c47.373,91.775,64.551,197.38,50.24,299.306
					c-15.35,109.384-68.632,209.994-149.136,285.144c-41.965,39.175-90.562,71.065-143.313,93.822
					c-50.584,21.822-104.058,32.83-158.586,39.414c-99.299,11.996-207.239,11.918-294.472,67.091
					c-86.238,54.551-129.474,151.072-173.409,239.074c-45.924,91.992-100.466,188.702-205.415,220.525
					c-100.466,30.455-215.579,6.468-308.111-39.191c-91.112-44.958-169.727-115.273-225.124-200.459
					c-27.069-41.63-48.809-86.845-63.479-134.266c-15.341-49.597-21.282-100.333-23.848-151.958
					c-4.646-93.431,0.829-200.727-55.105-281.503c-62.308-89.977-174.825-95.31-269.282-129.065
					c-87.425-31.242-156.344-99.593-196.101-182.755c-39.167-81.908-50.199-178.535-21.95-265.255
					c33.874-104.011,123.411-182.013,143.802-291.599c17.69-95.101-18.845-188.433-58.426-273.466
					c-21.903-47.052-45.62-93.291-65.3-141.341c-23.15-56.536-41.366-115.084-54.518-174.697
					c-12.985-58.882-22.812-119.903-22.879-180.266c-0.061-61.023,15.322-116.846,50.533-166.879
					c35.485-50.418,81.875-94.177,126.822-136.065c43.645-40.68,89.928-78.896,140.617-110.552
					c94.787-59.213,201.029-87.641,312.936-82.205c104.342,5.066,206.062,34.965,303.646,71.021
					c47.308,17.474,93.965,36.658,140.482,56.138c7.35,3.074,10.762-8.814,3.456-11.876
					c-188.502-78.93-399.697-164.163-606.389-113.334c-116.144,28.566-215.13,99.916-301.419,180.063
					c-44.084,40.939-88.84,83.661-124.78,132.108c-35.687,48.094-55.172,102.074-57.878,162.043
					c-2.592,57.583,5.862,116.328,16.674,172.816c11.517,60.189,28.212,119.382,49.756,176.798
					c37.554,100.082,96.749,192.117,125.307,295.525c13.578,49.177,18.76,100.998,7.307,151.026
					c-13.104,57.269-45.72,106.945-76.674,155.858c-28.18,44.535-55.975,90.101-69.743,141.499
					c-11.398,42.533-14.016,87.098-9.119,130.872c9.967,89.205,51.406,175.74,115.933,238.565
					c32.183,31.343,70.058,56.492,111.803,73.079c50.745,20.161,105.018,28.849,156.584,46.436
					c53.167,18.135,100.172,48.067,128.354,98.021c25.395,45.004,33.612,97.547,37.672,148.289
					c4.188,52.332,3.864,104.912,8.683,157.209c4.528,49.177,15.413,97.094,33.216,143.251
					c72.355,187.624,250.338,334.481,451.196,358.268c52.984,6.273,108.271,4.126,158.875-13.569
					c48.462-16.942,88.995-48.218,121.248-87.735c66.24-81.159,97.492-183.968,154.608-270.94
					c29.337-44.673,66.099-84.038,113.757-109.251c47.013-24.869,99.878-35.478,152.263-42.248
					c53.947-6.979,108.405-9.934,162.096-18.862c53.825-8.944,105.784-25.528,154.11-50.856
					c99.237-52.009,181.372-137.149,227.107-239.715c41.46-92.977,52.717-198.479,34.317-298.742
					c-8.964-48.857-25.213-96.196-48.016-140.379C5512.307,804.259,5501.385,810.047,5505.049,817.138L5505.049,817.138z"/>
			</g>
		</g>
		<g>
			<g>
				<path fill="#0A24A5" d="M5479.648,770.555c44.891,86.97,61.164,187.044,47.604,283.629
					c-14.548,103.632-65.043,198.951-141.312,270.145c-39.774,37.126-85.824,67.342-135.813,88.909
					c-47.933,20.68-98.613,31.102-150.291,37.346c-94.18,11.375-196.548,11.312-279.282,63.642
					c-81.829,51.758-122.859,143.297-164.549,226.8c-43.5,87.138-95.148,178.805-194.566,208.942
					c-95.179,28.858-204.238,6.142-291.904-37.117c-86.338-42.598-160.847-109.221-213.343-189.943
					c-25.645-39.446-46.256-82.29-60.159-127.23c-14.536-47-20.173-95.075-22.604-143.998
					c-4.405-88.649,0.777-190.429-52.287-267.073c-59.14-85.419-165.856-90.491-255.52-122.534
					c-82.812-29.593-148.085-94.351-185.746-173.122c-37.099-77.593-47.543-169.119-20.788-251.267
					c32.12-98.622,117.018-172.573,136.353-276.488c16.793-90.261-17.855-178.823-55.425-259.53
					c-20.765-44.613-43.254-88.455-61.916-134.016c-21.939-53.58-39.199-109.071-51.661-165.564
					c-12.309-55.8-21.625-113.637-21.688-170.842c-0.059-57.807,14.509-110.668,47.871-158.073
					c33.63-47.781,77.598-89.242,120.193-128.945c41.361-38.548,85.224-74.766,133.26-104.773
					c89.827-56.114,190.5-83.056,296.562-77.903c98.901,4.803,195.321,33.149,287.829,67.322
					c44.848,16.575,89.092,34.762,133.197,53.231c7.345,3.079,10.766-8.815,3.453-11.874
					c-178.785-74.864-379.084-155.678-575.123-107.465c-110.182,27.095-204.088,94.778-285.947,170.81
					c-41.817,38.837-84.272,79.365-118.366,125.325c-33.859,45.648-52.353,96.894-54.921,153.803
					c-2.459,54.625,5.555,110.354,15.816,163.943c10.928,57.097,26.771,113.245,47.211,167.712
					c35.6,94.864,91.71,182.111,118.783,280.131c12.854,46.572,17.776,95.656,6.929,143.036
					c-12.421,54.275-43.324,101.346-72.663,147.704c-26.735,42.25-53.098,85.476-66.162,134.236
					c-10.816,40.386-13.299,82.689-8.651,124.253c9.456,84.636,48.788,166.74,110.006,226.35
					c30.559,29.757,66.513,53.627,106.151,69.375c48.119,19.117,99.575,27.356,148.466,44.031
					c50.333,17.163,94.837,45.493,121.512,92.78c24.047,42.623,31.834,92.389,35.682,140.438
					c3.968,49.628,3.662,99.48,8.229,149.065c4.301,46.685,14.631,92.162,31.526,135.987
					c68.652,178.013,237.537,317.302,428.093,339.868c50.263,5.958,102.721,3.914,150.723-12.868
					c46.01-16.081,84.49-45.754,115.113-83.265c62.833-76.979,92.475-174.475,146.647-256.968
					c27.79-42.307,62.598-79.595,107.738-103.472c44.554-23.571,94.65-33.61,144.294-40.035
					c51.153-6.614,102.788-9.422,153.692-17.875c51.062-8.49,100.356-24.225,146.202-48.254
					c94.146-49.337,172.066-130.114,215.465-227.406c39.352-88.231,50.038-188.346,32.574-283.497
					c-8.506-46.35-23.92-91.267-45.556-133.182C5486.904,757.677,5475.988,763.461,5479.648,770.555L5479.648,770.555z"/>
			</g>
		</g>
		<g>
			<g>
				<path fill="#0A24A5" d="M5454.249,723.971c42.413,82.167,57.776,176.707,44.958,267.962
					c-13.746,97.876-61.447,187.898-133.479,255.138c-37.575,35.079-81.082,63.62-128.319,83.999
					c-45.283,19.533-93.173,29.375-141.992,35.27c-89.062,10.755-185.859,10.706-264.099,60.192
					c-77.421,48.968-116.241,135.521-155.682,214.526c-41.076,82.283-89.836,168.906-183.718,197.371
					c-89.894,27.253-192.897,5.804-275.699-35.049c-81.56-40.244-151.963-103.169-201.554-179.432
					c-24.229-37.263-43.705-77.736-56.842-120.189c-13.732-44.408-19.062-89.823-21.357-136.04
					c-4.169-83.876,0.71-180.117-49.472-252.645c-55.951-80.863-156.892-85.681-241.754-116.003
					c-78.202-27.947-139.828-89.113-175.388-163.496c-35.034-73.27-44.892-159.706-19.625-237.279
					c30.359-93.226,110.621-163.132,128.896-261.371c15.892-85.421-16.859-169.213-52.413-245.598
					c-19.637-42.172-40.896-83.617-58.535-126.688c-20.731-50.622-37.03-103.056-48.808-156.43
					c-11.631-52.729-20.438-107.368-20.493-161.419c-0.056-54.589,13.696-104.496,45.205-149.267
					c31.774-45.141,73.323-84.319,113.567-121.826c39.08-36.424,80.516-70.647,125.9-98.992
					c84.873-53.021,179.972-78.471,280.183-73.608c93.469,4.537,184.585,31.334,272.005,63.632
					c42.403,15.661,84.226,32.858,125.924,50.313c7.348,3.078,10.764-8.81,3.457-11.869
					c-169.075-70.795-358.48-147.187-543.861-101.597c-104.214,25.629-193.037,89.641-270.47,161.556
					c-39.556,36.736-79.705,75.071-111.954,118.543c-32.043,43.194-49.541,91.706-51.97,145.562
					c-2.329,51.669,5.257,104.381,14.961,155.064c10.332,54.01,25.325,107.114,44.661,158.628
					c33.65,89.652,86.675,172.11,112.257,264.738c12.137,43.971,16.794,90.313,6.557,135.048
					c-11.733,51.279-40.938,95.75-68.66,139.551c-25.288,39.96-50.222,80.857-62.576,126.976
					c-10.246,38.235-12.587,78.28-8.187,117.632c8.956,80.064,46.167,157.744,104.077,214.132
					c28.934,28.172,62.974,50.761,100.5,65.675c45.486,18.074,94.134,25.861,140.356,41.625
					c47.491,16.199,89.489,42.922,114.662,87.544c22.705,40.235,30.057,87.227,33.69,132.592
					c3.751,46.911,3.462,94.042,7.777,140.917c4.071,44.194,13.85,87.235,29.848,128.724
					c64.943,168.397,224.726,300.121,404.978,321.471c47.541,5.629,97.165,3.696,142.57-12.174
					c43.549-15.225,79.979-43.289,108.974-78.803c59.423-72.79,87.46-164.981,138.688-242.99
					c26.234-39.948,59.103-75.146,101.717-97.692c42.097-22.27,89.422-31.745,136.322-37.813
					c48.354-6.251,97.169-8.901,145.297-16.907c48.295-8.026,94.926-22.913,138.291-45.639
					c89.049-46.668,162.764-123.074,203.816-215.104c37.24-83.488,47.358-178.206,30.832-268.251
					c-8.045-43.846-22.631-86.338-43.096-125.98C5461.504,711.096,5450.586,716.88,5454.249,723.971L5454.249,723.971z"/>
			</g>
		</g>
		<g>
			<g>
				<path fill="#0A24A5" d="M5428.847,677.39c40.157,77.812,54.497,167.292,42.124,253.659
					c-13.193,92.079-58.528,176.7-126.506,239.737c-34.767,32.234-74.873,58.593-118.375,77.51
					c-42.962,18.678-88.365,28.141-134.736,33.759c-83.997,10.181-175.268,10.071-249.102,56.681
					c-72.596,45.825-109.252,126.694-146.199,200.781c-38.709,77.617-84.292,159.8-172.73,187.096
					c-84.665,26.133-182.09,5.888-260.174-32.58c-76.518-37.697-142.581-96.573-189.305-167.958
					c-23.484-35.87-42.217-74.921-54.743-115.909c-12.548-41.051-17.432-83.045-19.566-125.724
					c-3.956-78.997,0.78-169.793-46.233-238.245c-53.535-77.937-150.609-81.423-231.778-111.332
					c-72.483-26.717-129.477-84.594-162.258-153.835c-32.919-69.54-41.735-151.517-17.03-224.752
					c29.405-87.161,104.516-152.943,120.904-245.501c14.266-80.539-16.837-159.251-50.393-231.166
					c-18.749-40.191-38.978-79.715-55.665-120.83c-19.702-48.551-35.043-98.876-46.01-150.067
					c-10.394-48.518-18.276-98.726-18.068-148.404c0.212-50.679,13.331-96.885,42.527-138.434
					c29.388-41.807,67.801-78.079,104.978-112.877c37.651-35.229,77.583-68.329,121.438-95.624
					c80.046-49.829,169.747-73.467,264.133-68.666c87.35,4.444,172.504,29.451,254.238,59.613
					c40.186,14.83,79.817,31.12,119.332,47.668c7.345,3.077,10.762-8.813,3.459-11.872
					c-159.267-66.688-337.628-138.607-512.271-95.812c-98.527,24.146-182.501,84.682-255.65,152.688
					c-37.173,34.565-74.866,70.602-105.215,111.465c-29.374,39.555-45.935,83.964-48.808,133.287
					c-2.823,48.567,4.198,98.259,13.093,145.958c9.697,52.006,23.967,103.149,42.519,152.736
					c31.429,83.999,80.938,161.228,105.405,247.799c11.731,41.525,16.63,85.301,7.357,127.729
					c-10.611,48.541-38.085,90.662-64.25,131.997c-23.68,37.413-47.211,75.606-59.192,118.66
					c-10.058,36.155-12.559,74.181-8.569,111.509c8.06,75.475,42.579,148.722,96.76,202.257
					c26.859,26.539,58.491,47.976,93.411,62.32c43.926,18.043,91.218,25.317,136.002,40.688
					c44.151,15.16,83.293,40.131,106.799,81.571c21.325,37.611,28.398,81.473,31.869,123.932c3.648,44.524,3.32,89.265,7.41,133.761
					c3.868,42.067,13.161,83.016,28.467,122.485c61.454,158.489,211.985,282.338,381.759,302.373
					c45.859,5.412,93.568,3.258,137.197-12.554c40.341-14.63,73.97-41.282,100.79-74.396
					c55.45-68.443,81.822-154.807,129.872-227.952c24.438-37.193,54.996-70.087,94.567-91.286
					c39.877-21.365,84.86-30.405,129.402-36.162c45.325-5.858,91.082-8.371,136.194-15.809
					c46.532-7.675,91.395-22.087,133.062-44.181c83.652-44.356,152.735-116.664,190.989-203.51
					c34.426-78.149,43.791-166.592,28.432-250.722c-7.58-41.532-21.357-81.783-40.739-119.332
					C5436.105,664.512,5425.188,670.297,5428.847,677.39L5428.847,677.39z"/>
			</g>
		</g>
		<g>
			<g>
				<path fill="#0A24A5" d="M5403.447,630.81c37.971,73.645,51.446,158.541,39.147,240.205
					c-12.997,86.3-55.877,165.283-120.025,224.069c-33.044,30.277-71.161,54.93-112.456,72.446
					c-40.799,17.309-83.928,25.704-127.816,30.839c-79.005,9.243-164.922,9.898-233.469,55.388
					c-66.804,44.333-100.363,120.314-135.032,189.58c-36.648,73.232-80.546,149.26-164.671,173.112
					c-79.908,22.659-170.601,2.913-243.514-34.001c-71.686-36.287-133.295-92.424-176.448-160.218
					c-21.368-33.569-38.315-70.004-49.516-108.176c-11.352-38.703-15.405-78.235-17.3-118.338
					c-3.474-73.276,0.011-157.055-44.006-220.228c-49.891-71.602-139.52-75.581-214.78-102.749
					c-68.676-24.791-122.714-78.797-153.899-144.211c-30.991-65.008-39.508-141.696-16.709-210.356
					c27.232-81.976,97.768-143.65,113.653-230.347c13.765-75.146-14.749-148.782-45.981-216.025
					c-17.568-37.815-36.653-74.949-52.451-113.555c-18.48-45.145-32.919-91.94-43.329-139.558
					c-10.105-46.227-17.767-94.124-17.722-141.496c0.047-48.502,12.572-92.506,40.703-132.117
					c27.432-38.621,62.947-72.229,97.41-104.492c35.533-33.275,73.232-64.529,114.672-90.254
					c75.013-46.569,159.035-68.595,247.408-64.062c81.761,4.191,161.473,27.588,237.983,55.804
					c37.833,13.953,75.146,29.29,112.349,44.87c7.35,3.074,10.763-8.814,3.456-11.872
					c-149.778-62.712-317.616-130.355-481.817-89.742c-92.244,22.81-170.836,79.56-239.378,143.249
					c-34.466,32.028-69.296,65.45-97.637,103.147c-27.678,36.816-43.839,78.271-46.861,124.413
					c-3.081,47.073,3.804,95.309,12.532,141.529c9.057,47.973,22.281,95.153,39.372,140.923
					c29.765,79.698,76.932,152.938,99.706,235.21c10.574,38.188,14.869,78.544,6.297,117.484
					c-10.157,46.122-36.349,85.997-61.203,125.283c-22.295,35.238-44.263,71.315-55.202,111.958
					c-9.055,33.636-11.198,68.855-7.456,103.498c7.686,71.075,40.51,140.094,91.748,190.283
					c25.02,24.508,54.388,44.348,86.781,57.655c41.057,16.868,85.24,23.763,127.137,38.035
					c40.804,13.898,77.369,36.668,99.598,74.656c20.753,35.489,27.602,77.205,30.946,117.538
					c3.403,41.115,3.17,82.422,6.771,123.525c3.406,38.973,11.575,77,25.44,113.672c56.609,149.803,197.032,267.313,356.8,287.659
					c42.094,5.363,86.181,4.104,126.613-9.395c38.639-12.903,71.41-37.033,97.371-68.147
					c52.958-63.475,77.984-144.379,122.193-213.421c23.072-36.025,51.86-68.241,89.742-88.994
					c37.194-20.373,79.342-29.071,121.072-34.568c42.439-5.593,85.293-7.92,127.565-14.736
					c44.062-7.106,86.537-20.459,126.049-41.229c78.706-41.38,143.761-109.064,180.044-190.454
					c32.727-73.411,41.761-156.705,27.512-235.913c-7.081-39.392-20.105-77.551-38.465-113.15
					C5410.706,617.931,5399.789,623.715,5403.447,630.81L5403.447,630.81z"/>
			</g>
		</g>
		<g>
			<g>
				<path fill="#0A24A5" d="M5378.049,584.225c74.366,144.337,43.56,324.624-75.888,433.784
					c-30.683,28.038-66.028,50.848-104.302,67.152c-37.697,16.059-77.563,23.947-118.129,28.746
					c-73.689,8.722-153.829,9.091-218.123,50.851c-63.235,41.074-95.011,112.239-127.548,177.348
					c-33.857,67.75-74.186,138.919-151.645,161.999c-74.986,22.335-160.854,3.891-229.5-30.807
					c-66.731-33.729-124.2-85.822-164.51-148.825c-20.117-31.438-36.108-65.554-46.668-101.336
					c-10.733-36.362-14.57-73.502-16.352-111.194c-3.247-68.929-0.053-147.604-41.793-206.835
					c-46.584-66.105-129.791-70.048-199.684-95.103c-64.631-23.168-115.354-73.873-144.557-135.438
					c-28.522-60.128-36.408-130.965-15.675-194.504c24.867-76.24,90.031-133.453,106.023-213.435
					c14.053-70.284-12.078-139.534-41.22-202.625c-16.062-34.773-33.647-68.863-48.367-104.24
					c-17.639-42.383-31.482-86.328-41.491-131.09c-9.57-42.784-16.741-87.008-17.346-130.878
					c-0.637-46.64,10.413-89.228,37.388-127.499c25.599-36.321,58.974-67.844,91.279-98.125
					c32.895-30.83,67.779-59.818,106.094-83.742c70.46-44.001,149.342-64.901,232.503-60.596
					c76.174,3.944,150.434,25.722,221.729,51.99c35.491,13.073,70.476,27.465,105.374,42.067c7.346,3.078,10.76-8.811,3.453-11.871
					c-139.787-58.525-296.296-121.591-449.582-84.112c-86.688,21.195-160.529,74.445-224.895,134.259
					c-32.271,29.988-64.885,61.27-91.398,96.593c-26.667,35.538-41.625,75.552-43.954,120.051
					c-2.245,42.828,3.999,86.618,11.939,128.652c8.536,45.148,21.006,89.529,37.128,132.586
					c27.853,74.369,71.942,142.758,93.039,219.609c10.095,36.783,13.817,75.527,4.809,112.85
					c-10.115,41.933-34.271,78.317-57,114.263c-20.699,32.735-40.969,66.323-51.04,104.104
					c-8.419,31.546-10.354,64.574-6.753,97.032c7.285,65.656,37.402,129.347,84.422,176.059
					c23.666,23.517,51.594,42.544,82.443,55.25c37.708,15.524,78.249,22,116.807,34.869c39.427,13.162,74.721,34.77,95.818,71.669
					c19.023,33.265,25.216,72.188,28.236,109.812c3.102,38.767,2.867,77.714,6.424,116.457
					c3.356,36.512,11.347,72.071,24.526,106.358c53.447,139.091,184.577,247.872,333.18,266.68
					c39.753,5.038,81.383,3.726,119.494-9.272c36.299-12.384,66.842-35.419,91.096-64.843
					c49.11-59.578,72.421-135.174,113.999-199.54c21.566-33.391,48.57-63.156,83.92-82.17
					c34.982-18.817,74.434-26.788,113.542-31.857c39.692-5.146,79.765-7.341,119.283-13.829
					c40.782-6.703,80.133-19.257,116.685-38.56c73.727-38.943,134.52-102.417,168.353-178.823
					c30.333-68.505,38.601-146.101,25.335-219.928c-6.619-36.821-18.822-72.494-35.973-105.776
					C5385.31,571.347,5374.389,577.132,5378.049,584.225L5378.049,584.225z"/>
			</g>
		</g>
		<g>
			<g>
				<path fill="#0A24A5" d="M5352.644,537.646c69.13,134.289,40.397,301.888-70.899,403.28
					c-28.825,26.259-62.043,47.54-98.018,62.66c-35.236,14.805-72.504,21.911-110.34,26.305
					c-67.819,7.875-141.398,8.618-200.574,46.891c-58.683,37.95-88.351,103.716-118.49,164.092
					c-31.92,63.951-69.773,131.162-143.262,152.22c-69.379,19.881-148.282,2.721-211.607-29.35
					c-62.181-31.488-115.74-80.204-153.115-139.063c-18.495-29.125-33.211-60.682-42.909-93.783
					c-10.025-34.212-13.461-69.157-15.088-104.603c-2.938-63.991-0.388-136.831-39.514-191.573
					c-43.783-61.263-121.567-64.517-186.581-88.174c-59.618-21.694-106.423-69-133.207-125.949
					c-26.471-56.288-33.539-122.477-13.639-181.707c23.736-70.665,84.336-123.967,98.389-198.699
					c12.24-65.105-12.004-128.962-38.999-187.339c-15.021-32.466-31.429-64.305-45.133-97.366
					c-16.164-38.983-28.868-79.393-38.084-120.543c-17.595-78.615-31.356-167.812,16.892-237.924
					c23.866-34.689,55.593-64.583,86.185-93.277c30.261-28.385,62.333-55.093,97.501-77.231
					c65.299-41.11,138.507-60.952,215.785-57.227c71.853,3.46,141.887,24.095,209.086,48.932
					c32.531,12.019,64.611,25.218,96.601,38.607c7.352,3.08,10.763-8.812,3.462-11.868
					c-130.321-54.561-276.276-113.325-419.135-78.04c-80.395,19.859-148.889,69.298-208.619,124.813
					c-30.57,28.412-61.562,58.08-86.412,91.753c-24.061,32.608-37.41,69.309-39.554,109.87
					c-2.093,39.552,3.635,79.989,10.905,118.824c7.859,41.983,19.399,83.27,34.334,123.314
					c25.632,68.708,66.088,131.851,86.17,202.6c9.763,34.385,13.727,70.709,5.622,105.77
					c-9.166,39.626-31.902,73.903-53.315,107.773c-19.1,30.218-37.845,61.206-47.293,96.02c-7.98,29.399-9.911,60.223-6.645,90.517
					c6.628,61.336,34.582,120.864,78.423,164.567c21.702,21.632,47.242,39.172,75.47,51.08
					c35.239,14.862,73.295,20.891,109.467,32.862c36.247,11.998,69.047,31.524,88.855,65.21
					c18.287,31.115,24.198,67.808,27.055,103.202c2.939,36.424,2.683,73.022,6.073,109.419c3.13,33.661,10.57,66.453,22.71,98.067
					c49.998,130.231,173.163,232.02,312.449,248.697c36.453,4.364,74.558,2.981,109.429-9.018
					c33.19-11.421,61.306-32.311,83.66-59.147c46.331-55.635,68.097-126.553,107.076-186.871
					c20.286-31.396,45.725-59.204,79.083-76.867c32.703-17.319,69.555-24.509,105.996-29.152
					c36.336-4.628,72.986-6.704,109.149-12.638c38.177-6.26,75.022-18.047,109.202-36.175
					c68.48-36.321,124.946-95.416,156.334-166.472c28.418-64.336,35.979-137.225,23.143-206.472
					c-6.229-33.624-17.483-66.168-33.149-96.596C5359.914,524.762,5348.997,530.549,5352.644,537.646L5352.644,537.646z"/>
			</g>
		</g>
		<g>
			<g>
				<path fill="#0A24A5" d="M5327.248,491.062c63.922,124.335,37.175,279.348-66.091,372.947
					c-54.493,49.389-120.757,73.425-193.061,81.74c-62.806,7.229-131.024,8.101-185.577,44.033
					c-53.723,35.379-80.975,95.87-108.75,151.496c-28.952,57.983-63.249,119.375-129.458,139.451
					c-64.481,19.558-138.457,3.709-197.552-26.136c-57.268-28.916-106.574-73.621-141.179-127.663
					c-36.206-56.542-51.159-118.11-54.194-184.418c-2.688-58.715-0.376-125.588-35.811-176.056
					c-40.381-57.509-112.338-60.732-172.988-82.638c-55.034-19.887-98.264-63.262-123.164-115.713
					c-24.795-52.235-31.4-113.831-12.792-168.845c22.276-65.847,78.909-115.495,91.247-185.499
					c10.545-59.852-11.963-118.465-36.776-172.041c-13.71-29.612-28.658-58.664-41.199-88.804
					c-15.101-36.304-26.928-73.953-35.499-112.294c-16.127-72.124-28.869-154.186,15.121-218.658
					c21.623-31.695,50.452-58.916,78.249-85.132c28.617-26.986,58.958-52.417,92.337-73.367
					c60.281-37.833,127.774-56.073,199.052-52.62c66.26,3.215,130.854,22.239,192.834,45.123
					c30.176,11.144,59.94,23.389,89.621,35.811c7.347,3.077,10.769-8.813,3.459-11.87
					c-120.323-50.372-254.948-104.562-386.888-72.411c-74.84,18.242-138.609,64.18-194.143,115.82
					c-27.848,25.893-55.973,52.901-78.836,83.402c-22.449,29.951-35.297,63.707-37.622,101.169
					c-2.269,36.571,2.944,74.008,9.561,109.951c7.073,38.457,17.457,76.301,30.964,113.026
					c23.667,64.35,61.532,123.344,80.545,189.386c9.056,31.479,13.002,64.744,5.962,96.971
					c-8.155,37.306-29.547,69.54-49.628,101.302c-17.794,28.145-35.254,57.021-43.962,89.485
					c-7.189,26.799-9.006,54.841-6.118,82.453c5.961,57.015,31.755,112.373,72.421,153.066
					c19.72,19.731,42.896,35.855,68.501,46.911c32.287,13.94,67.251,19.612,100.58,30.356c34.873,11.25,66.431,29.584,85.114,62.21
					c16.554,28.906,21.783,62.792,24.331,95.49c2.613,33.469,2.406,67.094,5.594,100.528c3.03,31.816,10.266,62.746,21.955,92.553
					c46.877,119.507,160.67,212.572,288.82,227.711c34.104,4.032,69.745,2.578,102.279-8.914
					c30.627-10.815,56.389-30.373,76.957-55.292c42.182-51.094,62.287-115.896,97.817-171.214
					c18.793-29.249,42.383-55.176,73.408-71.611c30.216-16.003,64.252-22.646,97.931-26.936
					c34.074-4.344,68.469-6.255,102.369-11.923c35.346-5.914,69.455-17.046,101.029-33.986
					c123.541-66.296,190.205-205.532,165.023-343.716c-5.731-31.481-16.229-61.936-30.87-90.41
					C5334.512,478.178,5323.598,483.964,5327.248,491.062L5327.248,491.062z"/>
			</g>
		</g>
		<g>
			<g>
				<path fill="#0A24A5" d="M5301.847,444.481c58.683,114.292,34.018,256.617-61.1,342.453
					c-50.11,45.219-110.768,66.973-177.09,74.578c-57.508,6.594-119.926,7.479-169.931,40.289
					c-49.194,32.282-74.304,87.352-99.69,138.248c-26.874,53.869-58.418,111.104-120.179,129.436
					c-59.309,17.6-127.261,2.775-181.402-24.864c-52.718-26.902-98.031-68.401-129.578-118.494
					c-32.711-51.953-45.766-107.982-48.5-168.588c-2.42-53.826-0.611-114.957-33.287-161.102
					c-36.265-51.214-100.062-55.412-154.676-74.141c-51.531-17.671-92.139-56.547-115.898-105.242
					c-23.193-47.534-29.94-103.808-13.673-154.386c19.567-60.814,71.725-106.277,84.153-170.102
					c10.726-55.066-9.289-109.145-32.035-158.641c-12.527-27.253-26.319-53.933-37.966-81.583
					c-13.863-32.907-24.793-67.029-32.807-101.801c-15.137-65.715-28.036-142.395,11.208-201.873
					c19.441-29.463,46.016-54.56,71.499-78.74c25.932-24.604,53.364-47.876,83.52-67.192c55.65-35.655,117.91-53.321,184.151-50.408
					c60.667,2.665,119.852,19.891,176.617,40.736c28.447,10.445,56.48,21.971,84.431,33.671c7.347,3.076,10.768-8.814,3.456-11.873
					c-110.833-46.398-234.939-96.308-356.445-66.343c-68.532,16.903-126.962,59.048-177.861,106.387
					c-50.239,46.718-102.466,97.044-107.073,169.564c-2.137,33.645,2.658,68.101,8.728,101.174
					c6.543,35.615,16.164,70.674,28.707,104.673c21.782,59.017,56.529,113.172,73.882,173.799
					c8.417,29.382,11.92,60.424,4.913,90.41c-7.956,34.086-27.723,63.469-46.123,92.624c-16.392,25.977-32.232,52.714-39.934,82.753
					c-6.359,24.777-7.74,50.614-4.852,76.04c5.911,52.049,29.876,102.518,67.229,139.505c18.272,18.085,39.697,32.839,63.371,42.874
					c29.646,12.565,61.627,17.791,92.128,27.708c31.995,10.398,60.799,27.519,77.687,57.591
					c14.988,26.691,19.599,57.918,21.865,87.971c4.531,60.016,2.704,118.443,25.023,175.601
					c42.876,109.777,146.967,195.388,264.547,209.874c62.943,7.762,123.988-8.167,165.513-57.801
					c39.423-47.128,57.94-107.284,90.896-158.535c17.161-26.689,38.653-50.398,66.942-65.456
					c27.786-14.787,59.146-20.896,90.136-24.849c31.946-4.071,64.198-5.811,95.957-11.276c32.086-5.524,63.059-15.846,91.694-31.313
					c113.341-61.208,174.347-189.142,151.155-316.087c-5.281-28.911-14.947-56.872-28.381-83.038
					C5309.117,431.593,5298.203,437.383,5301.847,444.481L5301.847,444.481z"/>
			</g>
		</g>
		<g>
			<g>
				<path fill="#0A24A5" d="M5276.444,397.9c53.776,104.881,30.526,235.477-57.639,313.314
					c-45.68,40.329-100.578,59.379-160.454,66.156c-53.198,6.019-110.79,7.134-156.471,38.511
					c-88.527,60.802-87.756,211.975-200.408,242.875c-54.922,15.066-117.074,0.534-166.501-25.785
					c-47.867-25.49-88.692-64.248-116.649-110.736c-28.452-47.311-38.729-97.785-41.061-152.21
					c-2.084-48.848-1.238-104.097-31.906-145.322c-34.896-46.91-95.464-48.808-145.902-67.758
					c-45.146-16.965-80.428-53.46-100.631-96.766c-20.522-43.98-25.528-95.759-9.211-141.706
					c19.315-54.392,65.855-95.732,75.782-154.097c8.369-49.229-9.813-97.458-30.113-141.597
					c-25.466-55.361-51.195-108.848-64.748-168.681c-13.729-60.625-24.721-129.826,12.329-184.055
					c17.395-25.456,40.495-47.37,62.748-68.532c23.822-22.648,49.033-44.063,76.758-61.833
					c51.101-32.753,108.445-48.705,169.249-45.713c55.089,2.71,108.786,18.502,160.327,37.5
					c25.479,9.392,50.604,19.726,75.66,30.215c7.352,3.074,10.763-8.815,3.453-11.874
					c-101.872-42.646-216.244-88.558-327.788-59.816c-62.229,16.033-115.179,54.751-161.399,97.989
					c-44.636,41.757-91.044,86.627-95.951,151.074c-2.328,30.637,1.973,62.091,7.375,92.24c5.88,32.808,14.625,65.106,26.091,96.426
					c19.929,54.443,52.14,104.336,67.991,160.246c7.555,26.639,10.693,54.676,4.329,81.834
					c-7.077,30.171-24.335,56.277-40.649,82.086c-14.971,23.688-29.727,47.965-37.147,75.267
					c-6.133,22.567-7.688,46.214-5.309,69.485c4.88,47.775,26.376,94.213,60.269,128.472c16.536,16.713,36.006,30.409,57.545,39.825
					c26.684,11.657,55.579,16.51,83.217,25.22c28.861,9.093,55.36,23.534,71.422,50.172c14.637,24.289,19.195,53.205,21.4,80.985
					c4.371,55.157,2.354,108.907,22.762,161.504c38.617,99.519,132.092,177.086,238.261,191.757
					c57.827,7.989,115.13-5.571,153.784-51.128c36.647-43.193,53.615-98.648,83.985-145.856
					c15.952-24.791,35.927-46.594,62.383-60.282c24.893-12.889,52.835-18.249,80.444-21.775
					c59.627-7.611,117.919-9.886,171.917-39.262c103.696-56.422,159.048-174.075,136.943-290.26
					c-4.894-25.721-13.612-50.558-25.562-73.869C5283.722,385.012,5272.805,390.799,5276.444,397.9L5276.444,397.9z"/>
			</g>
		</g>
		<g>
			<g>
				<path fill="#0A24A5" d="M5251.046,351.312c48.616,95.028,27.21,212.745-52.797,282.931
					c-41.687,36.568-91.807,53.105-146.218,59.091c-47.325,5.204-98.321,6.703-138.922,34.546
					c-80.412,55.151-79.639,193.251-182.911,219.792c-48.403,12.438-102.726-0.145-146.319-23.009
					c-43.096-22.607-79.962-57.11-105.384-98.627c-26.569-43.378-36.066-89.705-38.187-139.829
					c-1.861-43.946-1.328-93.352-28.727-130.5c-30.607-41.487-83.467-44.387-128.315-60.246
					c-42.133-14.891-75.091-47.573-94.025-87.704c-19.085-40.426-23.537-88.229-7.875-130.344
					c17.974-48.345,59.08-85.442,67.772-137.737c7.506-45.142-9.619-89.349-28.326-129.717
					c-23.11-49.874-45.974-98.294-57.928-152.314c-11.877-53.663-21.407-114.618,11.053-162.697
					c16.198-23.989,38.07-44.564,59.019-64.351c21.326-20.143,43.922-39.159,68.761-54.863
					c45.195-28.582,95.709-42.62,149.299-40.302c50.127,2.161,99.023,16.519,145.9,33.774c23.135,8.514,45.941,17.897,68.685,27.412
					c7.346,3.078,10.761-8.812,3.459-11.871c-91.885-38.453-194.921-79.795-295.56-54.192
					c-56.229,14.303-104.133,49.104-145.924,88.075c-39.408,36.743-81.287,76.622-87.195,133.113
					c-2.872,27.49,0.831,55.914,5.446,83.053c5.095,30.014,12.821,59.588,23.089,88.274c17.557,49.037,46.036,93.786,61.314,143.618
					c7.564,24.687,11.291,51.029,5.696,76.477c-6.122,27.837-21.962,51.87-36.96,75.592
					c-25.838,40.866-43.513,81.696-38.504,131.097c4.401,43.38,23.948,85.56,54.766,116.614
					c14.811,14.919,32.183,27.185,51.415,35.668c24.463,10.795,50.996,15.162,76.345,23.23c26.78,8.522,50.957,22.296,65.095,47.517
					c12.522,22.338,16.152,48.54,17.948,73.663c3.555,49.769,2.479,97.989,21.399,145.213
					c35.994,89.864,121.812,159.737,218.438,171.309c50.493,6.042,100.198-6.203,134.269-45.469
					c33.958-39.14,49.33-90.028,77.084-133.161c14.308-22.238,32.221-41.804,55.921-54.115
					c23.051-11.965,48.952-16.749,74.525-19.936c53.932-6.723,106.427-9.205,155.051-36.125
					c92.656-51.297,142.024-156.717,122.545-261.049c-4.404-23.569-12.365-46.314-23.289-67.667
					C5258.326,338.423,5247.408,344.215,5251.046,351.312L5251.046,351.312z"/>
			</g>
		</g>
	</g>
	<g opacity="0.4">
		<g>
			<g>
				<path fill="#0A24A5" d="M2345.208-230.878c124.813,4.809,246.229,49.609,344.991,125.375
					C2796.28-24.126,2870.531,91.924,2901.7,221.544c16.235,67.495,20.869,137.649,13.398,206.717
					c-7.166,66.245-27.388,129.07-52.941,190.396c-46.397,111.351-110.654,224.635-104.562,348.966
					c6.024,122.778,81.735,225.455,147.922,323.713c69.57,103.294,138.723,218.367,109.658,347.951
					c-27.812,124.012-121.73,230.933-225,301.199c-101.612,69.131-222.486,109.936-345.16,117.497
					c-59.948,3.696-120.491-0.386-179.152-13.193c-61.344-13.397-118.283-37.383-174.144-65.434
					c-100.722-50.578-210.024-120.059-327.921-109.314c-131.108,11.95-203.508,126.945-294.809,205.832
					c-85.069,73.502-198.197,105.435-309.568,97.736c-109.675-7.585-218.1-53.572-292.648-135.062
					c-89.14-97.435-117.879-237.934-220.876-324.498c-89.114-74.896-208.687-91.901-321.189-100.846
					c-62.463-4.956-125.145-7.537-187.338-15.431c-73.281-9.302-145.74-24.99-216.303-46.656
					c-69.695-21.39-139.767-47.397-203.317-83.282c-64.33-36.316-114.031-85.858-145.748-152.807
					c-31.928-67.367-50.364-142.229-67.682-214.478c-16.815-70.158-29.448-141.629-32.578-213.831
					c-5.856-135.007,27.537-263.786,99.907-378.32c67.425-106.709,159.393-195.897,255.389-277.071
					c46.489-39.314,94.392-76.927,142.522-114.223c6.295-4.882-2.367-13.71-8.629-8.855
					c-194.839,150.974-409.9,322.02-479.337,569.189c-38.995,138.804-22.875,285.006,9.97,423.118
					c16.777,70.542,34.993,142.882,64.476,209.343c29.241,65.902,74.166,118.314,135.397,156.702
					c58.873,36.914,125.511,62.924,191.198,85.116c69.99,23.651,141.997,41.3,215.021,52.796
					c127.604,20.091,259.607,12.609,385.355,44.126c59.962,15.025,117.672,40.537,163.591,82.464
					c52.458,47.898,85.327,111.808,118.369,173.517c29.983,55.999,61.259,112.199,107,157.156
					c37.747,37.104,82.827,66.259,131.524,87.068c99.462,42.509,214.748,50.406,318.932,20.037
					c51.841-15.115,100.611-39.846,142.676-73.696c51.363-41.329,92.761-93.188,141.908-136.912
					c50.932-45.319,110.647-77.032,180.251-76.943c62.612,0.087,122.911,22.787,178.833,48.787
					c57.479,26.721,112.533,58.329,170.35,84.36c54.145,24.388,110.79,41.398,169.635,50.105
					c239.695,35.479,499.435-63.867,643.604-260.417c38.047-51.864,68.616-111.1,80.094-174.705
					c10.966-60.759,2.169-121.745-20.109-178.896c-45.878-117.728-135.248-211.622-192.617-323.247
					c-29.593-57.592-49.166-119.852-47.305-185.151c1.826-64.301,22.128-126.267,46.205-185.438
					c24.744-60.834,54.024-119.816,76.574-181.536c22.567-61.778,36.029-126.101,38.152-191.838
					c4.356-134.953-36.19-271.688-116.659-380.509c-72.878-98.556-176.749-172.925-292.731-213.103
					c-56.569-19.598-115.844-30.67-175.72-32.975C2337.58-243.536,2337.231-231.188,2345.208-230.878L2345.208-230.878z"/>
			</g>
		</g>
		<g>
			<g>
				<path fill="#0A24A5" d="M2292.154-231.72c119.414,4.601,235.562,47.465,330.053,119.956
					c101.47,77.844,172.486,188.868,202.304,312.849c15.528,64.581,19.962,131.691,12.811,197.776
					c-6.852,63.374-26.21,123.48-50.656,182.151c-44.416,106.595-105.917,215.032-100.084,334.056
					c5.766,117.559,78.229,215.865,141.6,309.948c66.544,98.792,132.735,208.873,104.938,332.816
					c-26.604,118.617-116.436,220.898-215.217,288.105c-97.206,66.138-212.847,105.188-330.209,112.426
					c-57.351,3.534-115.267-0.363-171.39-12.618c-58.688-12.815-113.167-35.762-166.608-62.596
					c-96.443-48.434-201.086-114.942-313.974-104.659c-125.581,11.439-194.897,121.508-282.346,197.067
					c-81.362,70.302-189.565,100.829-296.082,93.463c-104.901-7.251-208.603-51.238-279.902-129.18
					c-85.314-93.257-112.812-227.716-211.39-310.568c-85.348-71.733-199.834-88.031-307.585-96.593
					c-59.783-4.751-119.779-7.22-179.299-14.772c-70.111-8.902-139.437-23.916-206.95-44.636
					c-66.675-20.474-133.718-45.352-194.525-79.685c-61.534-34.737-109.057-82.116-139.4-146.145
					c-30.542-64.459-48.178-136.085-64.745-205.205c-16.091-67.129-28.177-135.516-31.177-204.585
					c-5.604-129.167,26.348-252.371,95.583-361.95c64.52-102.109,152.524-187.452,244.384-265.126
					c44.491-37.622,90.339-73.621,136.403-109.312c6.297-4.88-2.369-13.712-8.631-8.864
					c-186.514,144.531-392.356,308.269-458.83,544.874c-37.335,132.894-21.905,272.866,9.539,405.095
					c16.063,67.537,33.511,136.793,61.74,200.423c27.999,63.112,71.041,113.31,129.674,150.074
					c56.363,35.341,120.165,60.24,183.047,81.489c67.006,22.644,135.954,39.537,205.865,50.541
					c122.1,19.219,248.419,12.06,368.745,42.218c57.339,14.372,112.538,38.76,156.451,78.852
					c50.187,45.829,81.632,106.973,113.241,166.011c28.706,53.611,58.657,107.424,102.452,150.471
					c36.163,35.545,79.345,63.463,125.993,83.4c95.233,40.693,205.629,48.258,305.381,19.174
					c49.657-14.477,96.375-38.173,136.673-70.601c49.157-39.557,88.781-89.188,135.814-131.031
					c48.695-43.324,105.778-73.656,172.316-73.565c59.878,0.08,117.55,21.789,171.028,46.659
					c55.015,25.568,107.705,55.82,163.035,80.738c51.865,23.357,106.116,39.648,162.486,47.989
					c229.503,33.965,478.171-61.183,616.21-249.366c36.419-49.654,65.689-106.379,76.681-167.269
					c10.502-58.198,2.093-116.61-19.237-171.358c-43.915-112.699-129.466-202.577-184.379-309.437
					c-28.304-55.08-47.022-114.617-45.248-177.064c1.752-61.518,21.181-120.797,44.212-177.404
					c23.687-58.221,51.704-114.67,73.286-173.742c21.612-59.149,34.495-120.74,36.527-183.671
					c4.169-129.204-34.642-260.123-111.684-364.314c-69.789-94.381-169.254-165.598-280.317-204.078
					c-54.163-18.763-110.917-29.362-168.245-31.573C2284.525-244.376,2284.181-232.025,2292.154-231.72L2292.154-231.72z"/>
			</g>
		</g>
		<g>
			<g>
				<path fill="#0A24A5" d="M2239.107-232.554c114.004,4.396,224.901,45.321,315.107,114.531
					c96.86,74.309,164.642,180.296,193.101,298.644c14.829,61.664,19.062,125.736,12.234,188.831
					c-6.545,60.504-25.035,117.893-48.371,173.913c-42.434,101.834-101.182,205.423-95.608,319.142
					c5.505,112.345,74.719,206.268,135.285,296.19c63.506,94.284,126.733,199.37,100.201,317.666
					c-25.394,113.226-111.139,210.867-205.437,275.024c-92.801,63.14-203.195,100.437-315.248,107.343
					c-54.753,3.374-110.055-0.338-163.632-12.039c-56.032-12.237-108.041-34.144-159.069-59.764
					c-92.165-46.273-192.151-109.817-300.025-100.001c-120.051,10.928-186.286,116.07-269.884,188.303
					c-77.661,67.105-180.94,96.227-282.601,89.197c-100.127-6.923-199.103-48.911-267.154-123.299
					c-81.488-89.078-107.753-217.493-201.914-296.641c-81.582-68.567-190.979-84.156-293.979-92.337
					c-57.1-4.546-114.404-6.896-171.257-14.114c-66.939-8.499-133.131-22.838-197.593-42.625
					c-63.666-19.548-127.68-43.3-185.74-76.081c-58.728-33.161-104.079-78.374-133.041-139.492
					c-29.162-61.543-45.998-129.936-61.815-195.928c-15.359-64.097-26.905-129.38-29.768-195.337
					c-5.353-123.329,25.141-240.954,91.25-345.569c61.611-97.518,145.657-179.01,233.378-253.182
					c42.499-35.939,86.289-70.321,130.282-104.416c6.299-4.88-2.365-13.709-8.626-8.856
					c-178.193,138.074-374.821,294.508-438.32,520.549c-35.674,126.979-20.94,260.726,9.104,387.062
					c15.346,64.536,32.021,130.707,58.996,191.509c26.759,60.317,67.911,108.297,123.957,143.439
					c53.849,33.771,114.816,57.559,174.902,77.868c64.021,21.634,129.894,37.767,196.697,48.283
					c116.6,18.348,237.231,11.521,352.132,40.315c54.724,13.715,107.407,36.975,149.314,75.243
					c47.92,43.756,77.94,102.134,108.12,158.502c27.428,51.229,56.052,102.645,97.896,143.776
					c34.577,33.981,75.865,60.675,120.465,79.732c91.008,38.891,196.509,46.112,291.827,18.318
					c47.483-13.843,92.139-36.494,130.671-67.504c46.955-37.777,84.797-85.18,129.723-125.148
					c46.451-41.335,100.909-70.272,164.388-70.194c57.143,0.077,112.181,20.796,163.216,44.522
					c52.545,24.427,102.875,53.323,155.723,77.12c49.588,22.327,101.443,37.903,155.337,45.877
					c219.309,32.455,456.913-58.494,588.814-238.312c34.8-47.442,62.768-101.648,73.273-159.834
					c10.044-55.632,2.022-111.473-18.373-163.816c-41.946-107.669-123.67-193.535-176.132-295.626
					c-27.014-52.567-44.875-109.38-43.179-168.981c1.668-58.73,20.224-115.331,42.213-169.383
					c22.623-55.602,49.388-109.525,70.004-165.945c20.646-56.51,32.958-115.367,34.896-175.505
					c3.987-123.452-33.098-248.551-106.71-348.113c-66.7-90.213-161.752-158.271-267.91-195.054
					c-51.753-17.925-105.994-28.052-160.772-30.161C2231.474-245.213,2231.134-232.861,2239.107-232.554L2239.107-232.554z"/>
			</g>
		</g>
		<g>
			<g>
				<path fill="#0A24A5" d="M2186.057-233.39c108.607,4.179,214.238,43.175,300.168,109.108
					c92.245,70.77,156.803,171.729,183.904,284.44c14.126,58.742,18.148,119.775,11.648,179.887
					c-6.236,57.633-23.855,112.306-46.091,165.669c-40.449,97.083-96.44,195.824-91.127,304.227
					c5.25,107.132,71.215,196.68,128.968,282.431c60.48,89.783,120.743,189.875,95.475,302.529
					c-24.185,107.824-105.846,200.833-195.648,261.935c-88.401,60.147-193.561,95.685-300.298,102.266
					c-52.151,3.218-104.834-0.317-155.873-11.461c-53.376-11.658-102.922-32.52-151.528-56.921
					c-87.885-44.13-183.22-104.703-286.077-95.352c-114.528,10.42-177.673,110.643-257.427,179.548
					c-73.95,63.898-172.307,91.619-269.117,84.925c-95.35-6.59-189.601-46.589-254.408-117.427
					c-77.661-84.895-102.685-207.275-192.431-282.704c-77.812-65.398-182.125-80.285-280.37-88.095
					c-54.418-4.323-109.036-6.567-163.216-13.445c-63.773-8.097-126.827-21.76-188.239-40.612
					c-60.659-18.624-121.635-41.252-176.946-72.479c-55.934-31.582-99.109-74.631-126.691-132.833
					c-27.785-58.625-43.815-123.786-58.887-186.658c-14.63-61.057-25.638-123.255-28.355-186.082
					c-5.101-117.493,23.941-229.533,86.918-329.207c58.711-92.907,138.793-170.556,222.372-241.228
					c40.502-34.253,82.239-67.021,124.167-99.51c6.299-4.881-2.368-13.708-8.628-8.859
					C-61.545,192.326-248.959,341.455-309.496,556.932c-34.008,121.064-19.969,248.58,8.675,369.042
					c14.641,61.53,30.542,124.616,56.256,182.581c25.519,57.532,64.786,103.301,118.24,136.815
					c51.344,32.192,109.47,54.884,166.753,74.242c61.044,20.624,123.853,36.007,187.537,46.025
					c111.101,17.483,226.042,10.976,335.522,38.416c52.104,13.058,102.274,35.194,142.176,71.634
					c45.65,41.681,74.248,97.298,102.997,150.999c26.154,48.84,53.45,97.864,93.347,137.079
					c32.987,32.424,72.377,57.883,114.934,76.061c86.776,37.079,187.386,43.968,278.278,17.461
					c45.304-13.212,87.902-34.82,124.666-64.403c44.75-36.005,80.818-81.185,123.631-119.279
					c44.213-39.333,96.039-66.889,156.455-66.811c54.409,0.08,106.815,19.796,155.414,42.388
					c50.077,23.285,98.039,50.822,148.406,73.501c47.308,21.307,96.766,36.157,148.179,43.768
					c209.121,30.947,435.655-55.817,561.425-227.267c33.179-45.228,59.844-96.923,69.861-152.395
					c9.577-53.074,1.945-106.336-17.51-156.273c-39.982-102.646-117.88-184.489-167.889-281.813
					c-25.717-50.051-42.729-104.146-41.112-160.892c1.59-55.957,19.27-109.863,40.216-161.356
					c21.562-52.995,47.071-104.381,66.712-158.147c19.688-53.88,31.422-110.006,33.277-167.339
					c3.798-117.729-31.575-236.964-101.738-331.915c-63.579-86.05-154.271-150.962-255.5-186.033
					c-49.346-17.096-101.065-26.745-153.297-28.757C2178.425-246.05,2178.08-233.702,2186.057-233.39L2186.057-233.39z"/>
			</g>
		</g>
		<g>
			<g>
				<path fill="#0A24A5" d="M2133.007-234.231c103.203,3.975,203.572,41.04,285.229,103.697
					C2505.872-63.3,2567.189,32.624,2592.939,139.7c13.423,55.816,17.24,113.818,11.064,170.936
					c-5.925,54.772-22.68,106.729-43.809,157.43c-38.469,92.327-91.701,186.228-86.65,289.319
					c4.999,101.921,67.705,187.09,122.653,268.67c57.44,85.277,114.743,180.377,90.746,287.388
					c-22.98,102.436-100.553,190.802-185.865,248.844c-84.004,57.149-183.918,90.934-285.34,97.189
					c-49.562,3.054-99.62-0.298-148.117-10.887c-50.72-11.077-97.801-30.896-143.994-54.091
					c-83.599-41.975-174.281-99.587-272.131-90.693c-108.994,9.909-169.056,105.204-244.956,170.785
					c-70.25,60.696-163.68,87.01-255.637,80.649c-90.576-6.257-180.103-44.248-241.661-111.546
					c-73.834-80.709-97.619-197.052-182.948-268.773c-74.052-62.236-173.273-76.41-266.771-83.845
					c-51.738-4.114-103.661-6.247-155.171-12.786c-60.604-7.699-120.531-20.683-178.888-38.6
					c-57.64-17.7-115.586-39.203-168.152-68.876c-53.139-30.004-94.143-70.887-120.345-126.174
					c-26.4-55.715-41.635-117.641-55.95-177.389c-13.907-58.02-24.369-117.123-26.953-176.829
					c-4.846-111.658,22.742-218.121,82.591-312.835c55.802-88.312,131.923-162.112,211.367-229.28
					c38.508-32.565,78.183-63.721,118.049-94.61c6.295-4.882-2.371-13.707-8.632-8.858
					C-4.097,170.017-182.296,311.838-239.864,516.755c-32.343,115.148-19.004,236.438,8.248,351.01
					c13.916,58.53,29.052,118.523,53.513,173.664c24.278,54.746,61.661,98.291,112.517,130.183
					c48.837,30.618,104.126,52.194,158.613,70.608c58.055,19.624,117.792,34.248,178.372,43.778
					c105.598,16.611,214.852,10.425,318.911,36.504c49.486,12.404,97.137,33.418,135.036,68.027
					c43.386,39.611,70.554,92.464,97.876,143.495c24.879,46.46,50.845,93.092,88.793,130.391
					c31.402,30.869,68.897,55.097,109.406,72.396c82.542,35.263,178.263,41.82,264.722,16.607
					c43.128-12.571,83.67-33.146,118.667-61.306c42.541-34.233,76.832-77.187,117.537-113.403
					c41.97-37.337,91.171-63.502,148.526-63.425c51.673,0.065,101.45,18.793,147.609,40.253
					c47.606,22.132,93.207,48.31,141.094,69.875c45.028,20.28,92.092,34.409,141.03,41.649
					c198.925,29.441,414.397-53.122,534.028-216.211c31.558-43.023,56.92-92.194,66.444-144.951
					c9.124-50.52,1.869-101.2-16.636-148.734c-38.008-97.623-112.087-175.458-159.647-268.002
					c-24.429-47.536-40.58-98.918-39.049-152.813c1.511-53.162,18.316-104.396,38.227-153.32
					c20.497-50.387,44.748-99.237,63.424-150.36c18.725-51.249,29.885-104.638,31.644-159.171
					c3.615-111.98-30.026-225.396-96.761-315.718c-60.498-81.876-146.77-143.638-243.091-177.008
					c-46.937-16.264-96.136-25.438-145.82-27.354C2125.374-246.891,2125.031-234.535,2133.007-234.231L2133.007-234.231z"/>
			</g>
		</g>
		<g>
			<g>
				<path fill="#0A24A5" d="M2079.956-235.068c97.8,3.768,192.908,38.895,270.287,98.27
					c83.023,63.702,141.108,154.597,165.503,256.037c12.72,52.902,16.335,107.86,10.481,161.99
					c-5.608,51.9-21.502,101.14-41.521,149.19c-36.487,87.566-86.963,176.624-82.17,274.402
					c4.739,96.708,64.197,177.502,116.334,254.913c54.41,80.777,108.749,170.875,86.011,272.241
					c-21.766,97.049-95.251,180.772-176.079,235.762c-79.597,54.157-174.276,86.188-270.386,92.115
					c-46.96,2.889-94.398-0.275-140.357-10.31c-48.064-10.499-92.679-29.273-136.454-51.253
					c-79.32-39.83-165.345-94.47-258.185-86.04c-103.468,9.397-160.444,99.773-232.494,162.023
					c-66.542,57.497-155.05,82.405-242.154,76.384c-85.8-5.93-170.599-41.921-228.914-105.667
					c-70.009-76.528-92.553-186.837-173.466-254.847c-70.282-59.072-164.423-72.538-253.165-79.593
					c-49.054-3.902-98.285-5.924-147.129-12.124c-57.437-7.296-114.23-19.606-169.534-36.586
					c-54.624-16.772-109.549-37.151-159.363-65.272c-50.338-28.421-89.168-67.135-113.992-119.519
					c-25.019-52.802-39.447-111.488-53.02-168.113c-13.176-54.983-23.093-110.995-25.548-167.581
					c-4.591-105.813,21.546-206.698,78.271-296.465c52.892-83.707,125.052-153.658,200.355-217.335
					c36.514-30.867,74.135-60.414,111.932-89.702c6.297-4.876-2.369-13.711-8.633-8.854
					C53.355,147.721-115.631,282.235-170.229,476.592c-30.688,109.235-18.036,224.298,7.813,332.988
					c13.203,55.522,27.564,112.432,50.769,164.74c23.051,51.952,58.541,93.287,106.803,123.551
					c46.327,29.045,98.774,49.519,150.468,66.984c55.073,18.612,111.742,32.479,169.211,41.517
					c100.094,15.743,203.661,9.882,302.3,34.6c46.863,11.751,92.004,31.644,127.896,64.42
					c41.117,37.542,66.861,87.622,92.757,135.988c23.6,44.076,48.235,88.312,84.236,123.697
					c29.819,29.304,65.414,52.301,103.875,68.729c78.316,33.455,169.143,39.666,251.172,15.749
					c40.949-11.939,79.432-31.472,112.661-58.214c40.338-32.461,72.852-73.186,111.445-107.521
					c39.728-35.351,86.303-60.13,140.595-60.053c48.938,0.065,96.084,17.8,139.796,38.117c45.144,20.99,88.38,45.811,133.783,66.26
					c42.749,19.25,87.415,32.659,133.877,39.541c188.736,27.93,393.141-50.442,506.636-205.166
					c29.943-40.81,54.001-87.469,63.04-137.512c8.665-47.962,1.795-96.065-15.769-141.192
					c-36.044-92.599-106.296-166.416-151.406-254.193c-23.131-45.022-38.439-93.681-36.984-144.728
					c1.431-50.384,17.367-98.928,36.227-145.295c19.44-47.777,42.429-94.097,60.145-142.562
					c17.76-48.62,28.346-99.27,30.014-151.005c3.434-106.234-28.487-213.834-91.784-299.523
					c-57.403-77.705-139.268-136.316-230.681-167.982c-44.526-15.426-91.209-24.135-138.343-25.952
					C2072.322-247.728,2071.979-235.377,2079.956-235.068L2079.956-235.068z"/>
			</g>
		</g>
		<g>
			<g>
				<path fill="#0A24A5" d="M2026.905-235.91c92.398,3.56,182.242,36.754,255.349,92.856
					c78.409,60.171,133.259,146.025,156.3,241.831c12.021,49.98,15.433,101.9,9.899,153.049
					c-5.305,49.031-20.325,95.555-39.24,140.945c-34.507,82.807-82.227,167.025-77.694,259.489
					c4.483,91.498,60.689,167.914,110.021,241.151c51.378,76.276,102.749,161.375,81.28,257.102
					c-20.558,91.656-89.958,170.734-166.295,222.675c-75.196,51.158-164.634,81.436-255.431,87.033
					c-44.363,2.733-89.179-0.253-132.596-9.729c-45.413-9.922-87.562-27.653-128.914-48.418
					c-75.05-37.684-156.405-89.333-244.242-81.382c-97.932,8.865-151.842,94.34-220.029,153.259
					c-62.84,54.294-146.425,77.801-228.675,72.11c-81.021-5.598-161.101-39.593-216.167-99.789
					c-66.181-72.339-87.487-176.622-163.982-240.913c-66.513-55.903-155.569-68.671-239.558-75.351
					c-46.374-3.682-92.914-5.594-139.085-11.458c-54.268-6.89-107.928-18.532-160.179-34.57
					c-51.619-15.849-103.508-35.097-150.576-61.67C29.557,995.472-7.104,958.922-30.547,909.449
					c-23.636-49.887-37.268-105.343-50.088-158.841c-12.451-51.95-21.827-104.868-24.141-158.328
					c-4.34-99.978,20.35-195.277,73.94-280.095c49.986-79.11,118.185-145.209,189.351-205.381
					c34.515-29.191,70.081-57.117,105.81-84.809c6.298-4.879-2.366-13.707-8.627-8.854
					C110.81,125.415-48.964,252.627-100.594,436.417c-29.024,103.319-17.064,212.15,7.384,314.96
					c12.488,52.519,26.076,106.342,48.024,155.82c21.81,49.161,55.411,88.284,101.086,116.924
					c43.819,27.477,93.43,46.837,142.319,63.355c52.093,17.61,105.694,30.718,160.05,39.263
					c94.598,14.872,192.477,9.338,285.69,32.697c44.245,11.095,86.871,29.867,120.76,60.811
					c38.849,35.468,63.167,82.789,87.632,128.488c22.322,41.689,45.634,83.533,79.685,117c28.229,27.75,61.926,49.511,98.341,65.062
					c74.09,31.641,160.022,37.518,237.619,14.892c38.769-11.305,75.194-29.803,106.656-55.116
					c38.134-30.684,68.872-69.186,105.357-101.648c37.489-33.352,81.431-56.741,132.664-56.671
					c46.2,0.058,90.717,16.804,131.988,35.986c42.673,19.841,83.548,43.306,126.468,62.639
					c40.466,18.224,82.742,30.913,126.728,37.426c178.541,26.422,371.878-47.754,479.24-194.111
					c28.313-38.602,51.076-82.743,59.627-130.073c8.198-45.399,1.719-90.927-14.906-133.654
					c-34.082-87.566-100.506-157.374-143.163-240.381c-21.845-42.507-36.29-88.449-34.921-136.64
					c1.354-47.605,16.415-93.458,34.236-137.264c18.374-45.161,40.111-88.951,56.848-134.779
					c16.802-45.982,26.813-93.897,28.396-142.831c3.244-100.484-26.942-202.271-86.814-283.327
					c-54.318-73.53-131.765-128.99-218.271-158.957c-42.12-14.595-86.286-22.829-130.864-24.544
					C2019.272-248.564,2018.93-236.214,2026.905-235.91L2026.905-235.91z"/>
			</g>
		</g>
		<g>
			<g>
				<path fill="#0A24A5" d="M1973.854-236.745c87.497,3.378,172.435,34.971,241.504,88.277
					c73.636,56.836,124.952,137.969,146.331,228.177c10.931,46.133,14.115,94.02,9.151,141.197
					c-4.904,46.588-19.032,90.765-36.982,133.887c-32.511,78.116-77.562,157.495-73.362,244.708
					c4.125,85.75,56.449,157.483,102.729,226.129c48.484,71.917,97.556,152.064,77.752,242.477
					c-18.959,86.554-84.563,161.371-156.501,210.38c-70.496,48.025-154.273,76.521-239.413,82.024
					c-42.784,2.771-85.996-0.16-127.837-9.448c-41.906-9.298-80.859-25.732-119.053-44.895
					c-70.699-35.466-147.386-84.309-230.114-77.108c-94.195,8.204-145.043,90.969-211.05,146.879
					c-58.953,49.922-137.394,71.016-213.8,65.441c-76.733-5.602-152.419-38.305-203.987-95.877
					c-61.372-68.521-81.626-166.289-154.107-226.141c-63.066-52.084-146.888-63.784-226.002-70.002
					c-44.213-3.479-88.573-5.342-132.575-11.069c-51.957-6.767-103.311-18.204-153.264-33.873
					c-47.343-14.852-94.922-32.721-138.054-57.37c-44.001-25.146-77.753-59.321-99.531-105.195
					c-21.909-46.167-34.557-97.464-46.53-146.957c-12.114-50.12-21.253-101.175-23.408-152.786
					c-3.939-94.206,19.669-183.915,70.336-263.693c46.892-73.83,110.597-135.623,177.104-191.899
					c32.7-27.668,66.396-54.136,100.261-80.375c6.295-4.876-2.369-13.707-8.628-8.857
					C168.338,103.049,17.898,222.852-30.875,395.919c-27.515,97.64-16.191,200.538,6.965,297.695
					c11.773,49.376,24.571,99.929,45.184,146.468c19.957,45.046,50.449,81.332,91.959,108.125
					c40.877,26.378,87.582,44.743,133.474,60.496c50.037,17.175,101.574,29.946,153.866,38.224
					c88.583,14.021,180.181,8.972,267.573,30.317c41.918,10.243,82.428,27.541,114.786,56.509
					c37.017,33.143,60.143,77.799,83.229,120.93c20.897,39.035,42.547,78.326,74.115,109.959
					c26.511,26.56,58.373,47.465,92.825,62.38c69.654,30.16,150.402,36.195,223.68,15.41c36.326-10.304,70.563-27.273,100.245-50.6
					c37.338-29.341,66.962-66.916,102.397-98.32c34.94-30.958,75.951-52.723,123.593-52.769
					c43.237-0.034,84.894,15.414,123.553,33.306c40.546,18.755,79.321,41.077,120.061,59.434
					c38.517,17.354,78.731,29.435,120.619,35.554c168.199,24.579,350.126-45.425,451.183-183.31
					c27.298-37.245,48.921-79.827,56.651-125.585c7.137-42.314,0.505-84.709-15.104-124.359
					c-32.253-81.968-94.425-147.458-134.417-225.301c-20.331-39.588-33.908-82.383-32.865-127.264
					c1.047-45.228,15.334-88.829,32.262-130.429c17.227-42.332,37.577-83.392,53.323-126.315
					c16.238-44.277,25.794-90.418,27.088-137.564c2.601-94.649-26.304-190.385-83.042-266.452
					c-51.057-68.452-123.415-120.164-204.198-148.233c-39.877-13.86-81.696-21.694-123.917-23.321
					C1966.222-249.404,1965.878-237.053,1973.854-236.745L1973.854-236.745z"/>
			</g>
		</g>
		<g>
			<g>
				<path fill="#0A24A5" d="M1920.805-237.582c82.795,3.227,163.315,33.313,228.33,84.24
					c68.704,53.819,116.323,130.038,135.889,214.82c10.072,43.671,12.754,88.987,7.659,133.552
					c-5.032,44.032-18.966,85.701-36.115,126.427c-30.867,73.309-72.616,148.406-66.789,230.468
					c5.68,79.973,55.275,146.604,98.481,210.891c45.684,67.965,90.227,143.615,69.55,228.578
					c-19.638,80.704-81.492,149.905-149.53,195.18c-66.889,44.515-146.089,70.483-226.344,74.647
					c-39.739,2.062-79.795-1.134-118.532-10.188c-39.274-9.183-75.677-25.126-111.51-43.23
					c-65.483-33.069-136.678-77.365-213.337-70.173c-86.887,8.153-134.496,84.196-195.209,136.313
					c-55.401,47.558-129.017,67.986-201.307,62.907c-71.84-5.048-142.776-35.407-191.3-89.066
					c-57.93-64.076-76.863-155.84-144.49-212.366c-58.619-48.992-136.748-60.446-210.652-66.384
					c-41.563-3.336-83.28-5.016-124.66-10.283c-48.392-6.152-96.229-16.635-142.797-31.029
					c-45.208-13.974-90.666-30.897-131.871-54.27c-42.188-23.93-74.315-56.504-94.933-100.496
					c-20.1-42.896-31.856-90.358-42.96-136.242c-11.458-47.313-20.09-95.517-22.067-144.251
					c-3.581-88.22,18.634-172.191,66.106-246.869c43.918-69.093,103.541-126.94,165.782-179.63
					c30.778-26.052,62.502-50.972,94.386-75.675c6.295-4.882-2.369-13.709-8.63-8.856C225.604,80.896,84.068,193.646,38.538,356.553
					c-25.583,91.514-14.902,187.863,6.765,278.884c10.899,45.771,22.83,92.545,41.678,135.776
					c18.409,42.222,46.527,76.705,85.195,102.061c39.45,25.868,84.819,43.633,129.344,58.803
					c46.211,15.746,93.786,27.476,142.036,35.145c84.021,13.351,170.992,8.375,253.811,29.078
					c38.443,9.606,75.68,25.746,105.347,52.386c35.136,31.556,56.939,73.991,78.887,114.971
					c19.687,36.759,40.264,73.647,70.247,103.186c24.814,24.447,54.408,43.659,86.401,57.465
					c65.641,28.319,141.875,33.748,210.791,13.875c33.652-9.704,65.384-25.49,92.919-47.128
					c34.903-27.423,62.665-62.479,95.721-91.913c32.193-28.665,70.019-49.273,114.029-49.907
					c41.106-0.582,80.785,14.005,117.534,30.959c37.458,17.289,73.292,37.837,110.837,54.949
					c35.597,16.231,72.714,27.852,111.458,33.847c158.253,24.518,329.686-39.812,426.085-168.835
					c25.399-33.992,46.017-72.982,54.185-114.817c7.802-39.983,2.942-80.388-11.348-118.307
					c-29.158-77.354-87.242-138.981-125.555-211.462c-19.987-37.824-33.846-78.746-33.248-121.935
					c0.59-42.406,13.777-83.369,29.549-122.394c16.034-39.69,35.116-78.131,50.006-118.278
					c15.518-41.846,24.818-85.39,26.203-130.006c2.752-88.877-24.11-178.831-77.073-250.496
					c-47.768-64.639-115.809-113.527-191.762-140.14c-37.768-13.24-77.393-20.699-117.417-22.255
					C1913.172-250.244,1912.829-237.893,1920.805-237.582L1920.805-237.582z"/>
			</g>
		</g>
		<g>
			<g>
				<path fill="#0A24A5" d="M1867.752-238.423c162.245,6.37,303.975,121.979,340.142,279.699
					c9.287,40.513,11.73,82.509,7.067,123.849c-4.59,40.717-17.36,79.296-33.165,116.965
					c-28.704,68.427-67.854,138.353-63.179,214.876c4.6,75.263,50.885,137.968,91.521,198.354
					c42.286,62.835,84.362,132.986,66.297,211.766c-17.496,76.261-75.841,141.905-139.85,184.559
					c-62.222,41.462-135.864,65.819-210.548,69.868c-37.269,2.024-74.835-0.862-111.178-9.296
					c-36.932-8.569-71.145-23.523-104.824-40.537c-61.587-31.125-128.484-72.655-200.592-65.503
					c-80.476,7.982-124.889,78.455-181.119,126.941c-51.996,44.837-121.107,64.006-189.07,59.098
					c-66.377-4.793-131.91-32.819-176.995-82.159c-54.103-59.193-71.8-144.084-133.53-197.396
					c-54.245-46.847-127.384-58.215-196.646-63.928c-38.173-3.148-76.503-4.635-114.541-9.249
					c-45.573-5.524-90.637-15.121-134.523-28.458c-41.947-12.744-83.967-28.285-122.445-49.367
					c-40.903-22.417-72.525-53.012-92.546-95.336c-19.002-40.167-29.997-84.74-40.438-127.77
					c-10.63-43.813-18.676-88.451-20.625-133.578c-3.589-82.993,17.074-161.938,61.781-232.191
					c40.952-64.35,96.48-118.251,154.458-167.362c28.857-24.448,58.613-47.806,88.511-70.986c6.296-4.877-2.368-13.703-8.63-8.851
					C283.298,58.412,151.326,163.557,108.444,315.421c-24.251,85.883-14.278,176.373,6.075,261.852
					c10.204,42.855,21.365,86.646,39.047,127.119c17.793,40.711,45.25,73.438,82.829,97.383
					c36.167,23.048,77.354,39.182,117.846,52.975c43.497,14.809,88.263,25.816,133.676,32.991
					c78.441,12.391,159.675,7.704,236.948,27.195c36.985,9.332,72.537,25.175,100.581,51.399
					c31.512,29.456,51.279,68.399,71.367,105.885c18.294,34.138,37.542,68.322,65.461,95.695
					c23.307,22.865,51.097,40.817,81.12,53.67c60.728,25.998,130.992,31.156,194.804,13.244
					c32.123-9.014,62.438-23.948,88.69-44.537c32.083-25.17,57.687-57.264,87.878-84.481c30.874-27.83,67.063-47.903,109.568-48.09
					c38.319-0.172,75.244,13.611,109.475,29.513c35.266,16.395,69.046,35.781,104.515,51.769
					c33.43,15.063,68.312,25.623,104.642,31.04c147.375,21.993,306.631-38.547,396.194-158.613
					c23.963-32.114,43.327-68.992,50.785-108.562c7.102-37.689,2.098-75.617-11.563-111.217
					c-27.662-72.084-81.971-129.604-117.51-197.493c-18.438-35.215-31.041-73.377-30.177-113.507
					c0.854-39.712,13.349-77.973,28.2-114.505c15.069-37.078,32.896-73.033,46.718-110.623
					c14.252-38.793,22.708-79.224,23.912-120.541c2.42-83.344-22.878-167.515-72.709-234.593
					c-44.679-60.139-108.137-105.553-178.922-130.371c-35.305-12.376-72.361-19.326-109.774-20.792
					C1860.122-251.086,1859.776-238.73,1867.752-238.423L1867.752-238.423z"/>
			</g>
		</g>
		<g>
			<g>
				<path fill="#0A24A5" d="M1814.703-239.255c150.921,5.979,282.627,113.535,316.049,260.334
					c8.656,38.02,10.815,77.411,6.256,116.167c-4.47,37.958-16.642,73.892-31.454,108.984
					c-26.55,62.9-62.144,127.303-57.981,197.653c4.124,69.763,46.748,127.975,84.446,183.943
					c39.935,59.278,79.782,125.326,61.913,199.653c-16.87,70.172-70.667,130.389-129.768,169.705
					c-58.03,38.604-126.807,61.223-196.44,64.76c-34.458,1.75-69.169-0.986-102.752-8.849
					c-34.713-8.126-66.817-22.348-98.466-38.391c-57.137-28.961-119.274-67.056-186.187-59.968
					c-74.881,7.93-116.024,74.021-168.635,118.95c-48.245,41.2-112.466,58.633-175.221,53.894
					c-62.025-4.687-123.11-31.136-164.856-77.628c-49.807-55.462-66.348-134.455-124.465-183.493
					c-50.631-42.72-118.147-53.072-182.248-58.332c-35.653-2.919-71.443-4.321-106.966-8.679
					c-41.888-5.133-83.313-13.98-123.666-26.228c-77.084-23.409-161.489-55.365-198.743-131.887
					c-18.436-37.856-28.824-80.191-38.729-120.947c-9.799-40.318-17.245-81.384-19.19-122.894
					c-3.615-77.077,15.175-150.562,56.479-215.981c38.402-60.829,90.855-111.615,145.568-157.864
					c26.483-22.393,53.771-43.81,81.18-65.057c6.3-4.881-2.369-13.706-8.625-8.857C340.528,36.275,217.498,134.355,177.843,276.063
					c-22.314,79.748-13.024,163.709,5.87,243.035c9.67,40.6,20.225,82.184,37.291,120.396c16.528,37,41.893,66.694,76.137,88.539
					c33.392,21.302,71.405,36.234,108.783,49.034c40.408,13.839,82.023,24.131,124.229,30.856
					c72.421,11.534,147.3,7.427,218.764,24.796c34.733,8.439,68.299,22.881,94.819,47.203
					c29.971,27.494,48.604,64.164,67.533,99.482c16.891,31.505,34.627,63.083,60.272,88.452
					c21.655,21.426,47.53,38.288,75.503,50.366c56.646,24.443,122.22,29.434,181.849,12.805
					c29.514-8.233,57.358-21.82,81.625-40.521c30.291-23.348,54.282-53.499,82.516-79.082
					c28.295-25.636,61.444-44.564,100.517-45.211c36.085-0.589,70.93,12.339,103.141,27.286
					c33.147,15.382,64.872,33.632,98.217,48.607c30.836,13.856,63.04,23.532,96.532,28.539
					c137.964,20.63,287.215-36.424,370.332-149.428c21.753-29.575,39.318-63.42,46.052-99.677
					c6.408-34.51,2.075-69.268-10.27-101.941c-25.601-67.724-76.598-121.595-109.893-185.229
					c-17.333-33.118-29.003-68.954-27.946-106.685c1.035-36.992,12.929-72.604,26.837-106.605
					c13.868-33.903,30.116-66.822,42.764-101.218c13.354-36.307,21.243-74.179,22.301-112.854
					c2.119-77.487-21.498-155.736-67.878-218.05c-41.993-56.42-101.704-98.902-168.29-121.835
					c-32.332-11.141-66.198-17.376-100.396-18.729C1807.07-251.928,1806.73-239.577,1814.703-239.255L1814.703-239.255z"/>
			</g>
		</g>
		<g>
			<g>
				<path fill="#0A24A5" d="M1761.653-240.098c139.692,5.609,261.423,105.236,292.02,241.208
					c16.143,71.752,4.423,141.259-23.953,208.279c-24.644,58.22-57.484,118.021-53.083,183.194
					c4.33,64.18,43.551,117.691,78.283,169.262c36.203,53.755,72.738,113.841,57.6,181.351
					c-14.742,65.751-64.968,122.325-120.05,159.055c-53.372,35.597-116.563,56.489-180.638,59.986
					c-67.041,3.662-127.988-13.649-187.192-43.667c-52.422-26.581-109.482-61.532-170.858-55.549
					c-69.939,6.816-108.185,67.853-157.122,109.847c-44.414,38.1-103.455,54.359-161.368,50.195
					c-57.671-4.149-114.531-28.738-153.244-72.029c-46.333-51.819-61.648-125.56-116.495-170.777
					c-46.896-38.657-108.992-47.938-167.839-52.731c-32.523-2.653-65.17-3.954-97.578-7.884
					c-39.032-4.739-77.624-12.989-115.213-24.415c-70.712-21.488-148.405-50.817-182.848-120.858
					c-16.934-34.429-26.424-72.925-35.549-110.029c-9.39-38.197-16.578-77.129-18.37-116.497
					c-3.234-71.096,14.135-138.819,52.246-199.15C335.835,92.611,384.207,45.766,434.649,3.096
					c24.562-20.772,49.878-40.645,75.308-60.359c6.296-4.877-2.366-13.711-8.626-8.856
					C398.229,13.789,284.759,104.26,247.755,234.921c-20.987,74.117-12.416,152.241,5.174,226.005
					c8.818,36.989,18.471,74.769,33.753,109.689c15.009,34.289,38.059,62.096,69.517,82.571
					c30.71,19.987,65.858,33.89,100.397,45.835c36.953,12.786,75.004,22.389,113.617,28.722
					c67.66,11.098,137.653,7.202,204.492,23.183c31.856,7.623,62.751,20.573,87.329,42.573
					c28.45,25.472,45.967,59.965,63.718,93.085c15.73,29.348,32.261,58.766,56.225,82.335
					c19.782,19.457,43.292,34.849,68.745,45.936c52.556,22.894,113.438,27.712,168.883,12.364
					c26.884-7.443,52.332-19.671,74.565-36.51c28.035-21.233,50.192-48.868,75.958-72.583
					c26.967-24.809,58.466-43.243,96.063-43.434c33.31-0.168,65.376,11.97,95.087,25.858c30.416,14.211,59.577,30.953,90.245,44.646
					c29.183,13.033,59.663,21.971,91.361,26.479c127.095,18.065,264.137-35.13,340.43-139.201
					c20.308-27.696,36.597-59.43,42.62-93.403c5.672-31.981,1.34-64.035-10.216-94.208
					c-23.69-61.875-70.186-111.291-100.827-169.459c-16.199-30.762-27.144-64.062-26.167-99.158
					c0.955-34.178,11.939-67.072,24.792-98.494c13.003-31.794,28.28-62.669,40.046-94.964
					c12.262-33.674,19.375-68.842,20.183-104.665c3.151-140.169-85.189-266.766-217.853-312.911
					c-30.22-10.52-61.895-16.383-93.887-17.666C1754.018-252.766,1753.677-240.417,1761.653-240.098L1761.653-240.098z"/>
			</g>
		</g>
		<g>
			<g>
				<path fill="#0A24A5" d="M1708.604-240.935c128.369,5.224,240.086,96.789,267.939,221.846
					c14.672,65.884,3.729,129.387-22.319,190.852c-22.586,53.296-52.558,108.055-48.635,167.734
					c3.866,58.713,39.425,107.689,71.214,154.851c33.645,49.921,67.921,105.564,53.455,168.344
					c-13.895,60.285-60.266,112.12-110.987,145.626c-49.378,32.629-107.812,51.625-166.946,54.407
					c-61.326,2.879-116.519-13.356-170.609-40.826c-48.036-24.406-100.347-56.089-156.601-50.379
					c-62.433,6.334-97.509,59.791-140.708,98.095c-40.759,36.143-94.594,52.335-148.675,49.029
					c-52.792-3.228-105.09-25.073-141.095-64.142c-43.289-46.982-57.166-114.767-106.589-157.019
					c-42.641-36.457-99.563-45.674-153.842-50.257c-29.889-2.521-59.9-3.658-89.701-7.142
					c-35.466-4.142-70.546-11.437-104.755-21.589c-64.646-19.193-137.732-45.735-170.167-109.185
					c-16.066-31.432-24.817-66.92-33.311-101.008c-8.64-34.687-15.382-70.022-17.34-105.78
					c-3.62-65.995,11.67-128.88,46.832-185.093c32.201-51.486,76.342-94.509,122.443-133.645
					c23.102-19.612,46.939-38.333,70.89-56.895c6.295-4.878-2.367-13.712-8.631-8.854C455.496-8.363,350.932,75.063,317.163,195.568
					c-19.043,67.968-11.145,139.576,4.984,207.189c15.914,66.734,33.987,136.973,94.833,176.702
					c28.228,18.431,60.577,31.229,92.349,42.236c34.219,11.848,69.468,20.743,105.235,26.572
					c62.09,10.112,126.335,6.544,187.645,21.305c29.717,7.146,58.458,19.387,81.104,40.254
					c25.746,23.712,41.582,55.387,57.892,85.761c14.534,27.061,30.001,54.015,52.35,75.513
					c18.431,17.738,40.236,31.666,63.788,41.675c48.209,20.491,103.936,24.493,154.522,10.203
					c24.739-6.994,48.132-18.373,68.525-34.034c25.537-19.611,45.837-44.87,69.491-66.531
					c24.809-22.722,53.896-39.358,88.385-39.243c30.611,0.103,60.06,11.469,87.329,24.3
					c54.462,25.617,104.413,55.983,165.149,64.713c116.657,16.754,242.431-31.668,312.951-126.861
					c37.757-50.956,53.962-111.929,31.218-172.514c-21.598-57.521-64.831-103.266-93.202-157.19
					c-14.775-28.082-24.823-58.463-23.994-90.499c0.817-31.465,10.947-61.768,22.77-90.683
					c12.192-29.809,26.563-58.735,37.449-89.063c10.996-30.646,17.269-62.685,17.912-95.225
					c2.556-128.786-78.736-244.891-200.638-287.233c-27.762-9.644-56.856-15.003-86.246-16.2
					C1700.968-253.609,1700.63-241.259,1708.604-240.935L1708.604-240.935z"/>
			</g>
		</g>
		<g>
			<g>
				<path fill="#0A24A5" d="M1655.553-241.77c117.764,4.857,219.969,89.416,244.285,204.481
					c12.598,59.618,2.138,116.779-21.455,172.227c-20.964,49.262-48.36,99.933-43.553,155.144
					c9.312,106.991,141.256,180.779,112.664,294.038c-13.939,55.219-57.199,102.151-104.449,132.203
					c-45.76,29.104-99.599,45.545-153.828,46.979c-55.188,1.458-104.176-14.458-152.691-39.236
					c-43.539-22.247-91.205-50.194-142.188-43.808c-58.012,7.263-89.496,59.04-130.831,93.604
					c-37,30.933-86.139,43.664-133.778,39.917c-48.384-3.802-95.912-24.948-127.862-61.78
					c-37.823-43.6-50.879-104.466-96.783-141.851c-38.722-31.532-89.65-39.461-138.062-43.534
					c-60.725-5.105-119.946-9.058-178.693-26.733c-59.523-17.912-125.161-42.43-154.108-101.383
					c-13.587-27.677-21.279-58.575-28.736-88.364c-7.978-31.888-14.198-64.375-16.007-97.257
					c-3.335-60.605,11.027-118.368,43.579-169.812c29.492-46.608,69.684-85.562,111.603-121.06
					c20.723-17.548,42.092-34.324,63.562-50.963c6.296-4.885-2.371-13.71-8.633-8.854
					c-87.29,67.652-183.579,144.577-213.505,255.809c-16.698,62.055-9.082,127.207,5.784,188.728
					c14.355,59.413,30.548,121.902,84.219,157.916c25.517,17.116,55.009,28.866,83.908,39.013
					c31.448,11.042,63.864,19.34,96.769,24.788c57.197,9.471,116.483,6.013,172.948,19.755
					c26.906,6.546,52.851,17.624,73.352,36.539c22.772,21.019,36.993,48.897,51.418,75.807
					c13.242,24.697,27.101,49.495,47.208,69.402c16.619,16.452,36.433,29.453,57.857,38.844
					c43.982,19.284,94.983,23.449,141.492,10.826c22.69-6.159,44.199-16.358,63.002-30.464
					c23.288-17.482,41.744-40.239,62.937-60.001c22.128-20.639,47.748-36.589,78.842-37.446c28.348-0.775,55.758,9.5,81.021,21.263
					c50.156,23.363,95.941,51.592,151.767,59.738c105.63,15.409,219.176-27.736,284.237-112.909
					c35.434-46.391,51.857-102.94,31.248-159.019c-19.54-53.169-59.445-95.249-85.57-144.932
					c-13.718-26.093-22.856-54.216-21.737-83.982c1.044-28.013,10.141-54.969,20.671-80.734
					c22.745-55.642,49.478-107.494,50.507-168.957c1.97-118.035-73.159-224.156-185.161-262.145
					c-24.794-8.408-50.704-13.054-76.877-14.136C1647.92-254.452,1647.579-242.1,1655.553-241.77L1655.553-241.77z"/>
			</g>
		</g>
		<g>
			<g>
				<path fill="#0A24A5" d="M1602.498-242.612c106.648,4.495,198.551,81.105,220.228,185.303
					c11.292,54.291,0.999,106.055-20.592,156.357c-18.78,43.749-42.593,88.869-38.36,137.917
					c8.391,97.146,128.96,164.494,101.193,267.441c-13.016,48.253-50.722,89.332-92.092,116.01
					c-40.901,26.371-89.087,41.46-137.739,43.136c-50.838,1.758-95.833-12.795-140.5-35.638
					c-39.164-20.025-81.898-44.823-127.722-39.275c-51.182,6.203-79.74,50.778-115.632,81.997
					c-33.711,29.333-78.387,41.92-122.638,38.632c-44.583-3.302-88.378-22.972-117.315-57.346
					c-33.222-39.453-45.26-93.501-86.491-126.822c-35.59-28.766-82.498-35.636-126.844-39.238
					c-54.787-4.453-108.188-8.404-161.089-24.607c-52.552-16.095-110.294-37.823-136.149-89.754
					c-12.899-25.913-20.033-55.082-26.935-83.059c-7.025-28.481-12.446-57.512-13.879-86.863
					c-2.615-53.411,10.048-104.287,38.46-149.784c26.571-42.56,63.149-78.042,101.256-110.34
					c18.804-15.941,38.204-31.168,57.687-46.275c6.296-4.876-2.369-13.704-8.627-8.856
					C569.991-52.652,483.262,16.658,455.976,116.854c-15.247,55.98-8.555,114.812,4.778,170.377
					c12.566,52.393,26.646,108.481,72.899,141.448c22.51,16.04,49.071,26.817,74.964,36.167
					c28.629,10.349,58.174,18.191,88.196,23.385c51.324,8.874,104.296,6.127,155.189,17.376
					c25.209,5.576,49.971,15.307,69.363,32.709c21.211,19.04,34.324,44.663,47.583,69.399c22.84,42.615,49.668,78.107,95.128,98.08
					c39.921,17.536,86.258,21.3,128.462,9.775c20.279-5.541,39.511-14.619,56.366-27.179c21.444-15.973,38.313-36.914,57.82-54.999
					c20.608-19.11,44.502-33.367,73.416-33.249c25.607,0.105,50.199,9.85,72.947,20.662c45.065,21.42,86.5,46.104,136.918,52.898
					c95.936,12.937,199.014-27.333,256.677-105.728c30.129-40.968,43.954-90.257,26.562-139.249
					c-17.338-48.831-54.055-87.273-77.922-132.673c-12.308-23.404-20.512-48.631-19.553-75.319
					c0.94-25.955,9.535-50.854,19.357-74.679c20.712-50.247,44.409-97.157,44.929-152.732
					c0.994-105.904-66.437-200.793-166.83-235.226c-22.681-7.776-46.397-12.051-70.361-13.062
					C1594.865-255.296,1594.529-242.941,1602.498-242.612L1602.498-242.612z"/>
			</g>
		</g>
	</g>
</g>
</svg>
